<?xml version="1.0" encoding="utf-8"?>
<!-- Generator: Adobe Illustrator 22.1.0, SVG Export Plug-In . SVG Version: 6.00 Build 0)  -->
<svg version="1.1" id="Layer_1" xmlns="http://www.w3.org/2000/svg" xmlns:xlink="http://www.w3.org/1999/xlink" x="0px" y="0px"
	 viewBox="0 0 300 67" style="enable-background:new 0 0 300 67;" xml:space="preserve">
<style type="text/css">
	.st0{fill:#005B2E;}
	.st1{fill:#FFFFFE;}
	.st2{filter:url(#Adobe_OpacityMaskFilter);}
	.st3{fill:#FFFFFF;}
	.st4{mask:url(#mask-2_1_);fill:#FFFFFE;}
	.st5{filter:url(#Adobe_OpacityMaskFilter_1_);}
	.st6{mask:url(#mask-2_2_);fill:#000203;}
	.st7{filter:url(#Adobe_OpacityMaskFilter_2_);}
	.st8{mask:url(#mask-2_3_);fill:#000203;}
	.st9{fill:#4F4F4C;}
	.st10{fill:#008E48;}
	.st11{fill:#000203;}
</style>
<g id="Desktop---Others">
	<g id="Africa-ARB-Outline">
		<polygon id="Fill-1" class="st0" points="0,66.8 55.6,66.8 55.6,47.8 0,47.8 		"/>
		<polyline id="Fill-3" class="st1" points="10.3,62.2 10.3,53.4 11.9,53.4 11.9,60.6 14.9,60.6 14.9,62.2 10.3,62.2 		"/>
		<path id="Fill-4" class="st1" d="M18.1,64.3c-0.2,0-0.4-0.1-0.5-0.2c-0.1-0.2-0.2-0.3-0.2-0.6c0-0.2,0.1-0.4,0.2-0.5
			c0.2-0.2,0.3-0.2,0.5-0.2c0.2,0,0.4,0.1,0.6,0.2c0.2,0.2,0.2,0.3,0.2,0.6C18.9,64.1,18.6,64.3,18.1,64.3z M16.2,64.3
			c-0.5,0-0.8-0.3-0.8-0.8c0-0.2,0.1-0.4,0.2-0.5c0.2-0.2,0.3-0.2,0.5-0.2c0.5,0,0.7,0.3,0.7,0.8C16.9,64.1,16.7,64.3,16.2,64.3z
			 M14.4,62.2v-1.6h2.4c0.1,0,0.2-0.1,0.2-0.3v-2.1h1.7v2.4h2.3v1.6H14.4z"/>
		<path id="Fill-5" class="st1" d="M25.1,56.3c-0.4,0-0.7-0.2-0.7-0.7c0-0.2,0.1-0.3,0.2-0.5c0.1-0.2,0.3-0.2,0.4-0.2
			c0.2,0,0.4,0.1,0.5,0.2c0.2,0.1,0.2,0.3,0.2,0.5C25.8,56.1,25.5,56.3,25.1,56.3z M24.6,58.3h-0.8c-0.2,0-0.5,0.1-0.6,0.3
			c-0.2,0.2-0.3,0.4-0.3,0.7v1.3h1.6c0.1-0.1,0.1-0.1,0.1-0.2V58.3z M23.3,56.3c-0.2,0-0.4-0.1-0.5-0.2c-0.1-0.1-0.2-0.3-0.2-0.5
			c0-0.2,0.1-0.3,0.2-0.5c0.1-0.1,0.3-0.2,0.5-0.2c0.2,0,0.4,0.1,0.5,0.2c0.1,0.1,0.2,0.3,0.2,0.5C24,56.1,23.8,56.3,23.3,56.3z
			 M20.3,62.2v-1.6h1c0-1.2,0.2-2,0.5-2.6c0.4-0.8,1.2-1.2,2.2-1.2h2v3.9h2.1v1.6H20.3z"/>
		<path id="Fill-6" class="st1" d="M30.5,64.1c-0.2,0-0.4-0.1-0.5-0.2c-0.1-0.1-0.2-0.3-0.2-0.5c0-0.5,0.2-0.7,0.7-0.7
			c0.4,0,0.7,0.2,0.7,0.7S31,64.1,30.5,64.1z M28.7,64.1c-0.2,0-0.3-0.1-0.5-0.2c-0.1-0.1-0.2-0.3-0.2-0.5c0-0.4,0.2-0.7,0.7-0.7
			c0.4,0,0.7,0.2,0.7,0.7S29.2,64.1,28.7,64.1z M31.2,62.1c-0.2,0.1-0.3,0.1-0.4,0.1h-3.1v-1.6h1.6c0.3,0,0.5,0,0.6-0.1
			c0.1-0.1,0.1-0.3,0.1-0.6c0-0.1,0-0.3,0-0.7c0-0.4,0-0.7,0-1h1.5v3.5C31.4,61.9,31.3,62,31.2,62.1z"/>
		<path id="Fill-7" class="st1" d="M35.7,62.2c0,0.9-0.1,1.6-0.3,2c-0.3,0.7-0.8,1-1.6,1h-1.3v-1.5c0.7,0,1.1,0,1.2-0.1
			c0.3-0.1,0.4-0.4,0.4-1v-4.4h1.6v2.3h1.8v1.6H35.7"/>
		<path id="Fill-8" class="st1" d="M41.5,56.1c-0.1,0.1-0.3,0.2-0.5,0.2c-0.2,0-0.4-0.1-0.5-0.2c-0.1-0.1-0.2-0.3-0.2-0.5
			c0-0.4,0.2-0.7,0.7-0.7c0.5,0,0.7,0.2,0.7,0.7C41.7,55.8,41.7,56,41.5,56.1z M41.2,58.3h-0.8c-0.2,0-0.4,0.1-0.6,0.3
			c-0.2,0.2-0.3,0.4-0.3,0.6v1.5H41c0.1,0,0.2-0.1,0.2-0.2V58.3z M42.5,62c-0.2,0.1-0.3,0.2-0.4,0.2H37v-1.6h1c0-0.9,0-1.5,0.1-1.7
			c0.1-0.5,0.4-1,0.9-1.5c0.5-0.5,1-0.7,1.5-0.7h2.3v4.8C42.7,61.7,42.7,61.9,42.5,62z"/>
		<path id="Fill-9" class="st1" d="M45.6,53.1h-1.5v-0.4h0.3c0-0.1,0-0.1,0-0.2c0-0.1-0.1-0.2-0.1-0.2c0-0.2,0.1-0.3,0.2-0.4
			c0.1-0.1,0.2-0.2,0.4-0.2h0.8v0.4c0,0-0.1,0-0.2,0c-0.1,0-0.2,0-0.2,0c-0.4,0-0.6,0.1-0.6,0.3c0,0.2,0.3,0.3,0.9,0.3h0.1V53
			C45.6,53,45.6,53.1,45.6,53.1"/>
		<g id="Group-14">
			<g id="Clip-11">
			</g>
			<defs>
				<filter id="Adobe_OpacityMaskFilter" filterUnits="userSpaceOnUse" x="44.1" y="53.4" width="1.5" height="8.8">
					<feColorMatrix  type="matrix" values="1 0 0 0 0  0 1 0 0 0  0 0 1 0 0  0 0 0 1 0"/>
				</filter>
			</defs>
			<mask maskUnits="userSpaceOnUse" x="44.1" y="53.4" width="1.5" height="8.8" id="mask-2_1_">
				<g class="st2">
					<polygon id="path-1_1_" class="st3" points="0,0.8 299.3,0.8 299.3,62.2 0,62.2 					"/>
				</g>
			</mask>
			<polygon id="Fill-10" class="st4" points="44.1,62.2 45.6,62.2 45.6,53.4 44.1,53.4 			"/>
			<defs>
				<filter id="Adobe_OpacityMaskFilter_1_" filterUnits="userSpaceOnUse" x="149.1" y="0.8" width="18.9" height="20.8">
					<feColorMatrix  type="matrix" values="1 0 0 0 0  0 1 0 0 0  0 0 1 0 0  0 0 0 1 0"/>
				</filter>
			</defs>
			<mask maskUnits="userSpaceOnUse" x="149.1" y="0.8" width="18.9" height="20.8" id="mask-2_2_">
				<g class="st5">
					<polygon id="path-1_2_" class="st3" points="0,0.8 299.3,0.8 299.3,62.2 0,62.2 					"/>
				</g>
			</mask>
			<path id="Fill-12" class="st6" d="M163.6,6.5c-0.3-0.7-0.6-1.3-1.1-1.8l-1-0.3c-0.2,0.3-0.3,0.4-0.3,0.4c-0.4,0.9-0.4,2,0,3.4
				c0.5,1.4,1.1,2.5,1.9,3.3l0.3,0.3C164.3,10.2,164.3,8.4,163.6,6.5z M154.8,21.4l-5.7-11c0.6,0.7,1.2,1.3,1.9,2c3,2.8,5.7,4,8,3.5
				c1-0.2,1.7-0.4,2.1-0.7c0-0.2-0.2-0.6-0.8-1.1c-0.5-0.4-1.1-1-2-1.7c-1-0.7-1.6-1.3-2.1-1.7c-1-0.9-1.6-1.7-1.8-2.4
				c-0.2-0.8,0.1-1.7,0.9-2.6c2.9-3.3,5.5-5,7.7-5c1.1,0,2,0.4,2.7,1c1.3,1.2,2.1,3.2,2.3,6c0.2,2.6-0.4,5.1-1.6,7.7
				c-0.5,1-1.1,1.9-1.9,2.8c-0.7,0.8-1.6,1.5-2.7,2.1C159.9,21.5,157.5,21.9,154.8,21.4z"/>
			<defs>
				<filter id="Adobe_OpacityMaskFilter_2_" filterUnits="userSpaceOnUse" x="0" y="45.6" width="299.3" height="4.5">
					<feColorMatrix  type="matrix" values="1 0 0 0 0  0 1 0 0 0  0 0 1 0 0  0 0 0 1 0"/>
				</filter>
			</defs>
			<mask maskUnits="userSpaceOnUse" x="0" y="45.6" width="299.3" height="4.5" id="mask-2_3_">
				<g class="st7">
					<polygon id="path-1_3_" class="st3" points="0,0.8 299.3,0.8 299.3,62.2 0,62.2 					"/>
				</g>
			</mask>
			<path id="Fill-13" class="st8" d="M133.9,45.6c-1.7,1.2-3.9,2-6.1,2c-2.3,0-4.4-0.7-6.1-2H0v4.5h299.3v-4.5H133.9"/>
		</g>
		<path id="Fill-15" class="st0" d="M128.9,24.9C128.9,24.9,128.9,24.9,128.9,24.9l-1.5,0l-0.8,0l-0.4,0l3-1.7c0,0,0,0,0,0l0.4,1.4
			c0,0,0,0,0,0L128.9,24.9"/>
		<path id="Fill-16" class="st0" d="M119.3,18.8c0-0.4,0.3-0.7,0.7-0.7c0.4,0,0.7,0.3,0.7,0.7c0,0.4-0.3,0.7-0.7,0.7
			C119.6,19.5,119.3,19.2,119.3,18.8z M118.1,27.2h1.2l2.3-2.4h1.6l-1.4-6.2c-0.2-0.8-1-1.4-1.9-1.5c0,0,0,0-0.1,0h-1.8V27.2z"/>
		<polyline id="Fill-17" class="st0" points="125.7,26.5 122.3,26.5 121.3,27.6 118.9,30.1 116,30.1 116,28.8 118.4,28.8 
			121.8,25.2 129.2,25.2 129.2,26.5 125.7,26.5 		"/>
		<path id="Fill-18" class="st0" d="M112.3,28.6l2.3-0.6v6.4c0,1.4-1,2.7-2.3,3V28.6"/>
		<path id="Fill-19" class="st0" d="M113.5,23.3l-1.2,0.2v-7c0.5-0.2,1.1,0,1.4,0.4c0,0,0,0,0,0l0.4,0.6l-0.7,0.5l1.1,4.6
			C114.4,22.9,114,23.2,113.5,23.3"/>
		<path id="Fill-20" class="st0" d="M129.9,24.5l-0.1,0c0,0,0,0,0,0l-0.5-1.4c0,0,0,0,0,0l0.1,0c0.2-0.1,0.5,0.1,0.5,0.3l0,0
			c0,0,0,0,0,0l4.3-1.2c0,0,0,0,0,0c0,0.1,0.1,0.3,0.2,0.4l0,0l0.1,0.1l-4.4,1.2c0,0,0,0,0,0l0,0C130.2,24.2,130.1,24.4,129.9,24.5"
			/>
		<path id="Fill-21" class="st0" d="M115.1,21.8c0-0.1,0-0.2,0-0.3l-0.7-7.7c-0.1-0.6-0.2-1.2-0.4-1.8l-1.7-5.2V3.3h4.1v2h0v0.5
			c0,0.4-0.4,0.8-0.8,0.8h-1.3l1.4,4.3c0.5,1.5,0.8,3.1,1,4.7l0.7,6.9H115C115.1,22.2,115.1,22.1,115.1,21.8"/>
		<path id="Fill-22" class="st0" d="M112.3,28.1v-4.3l1.5-0.3c0.4-0.1,0.8-0.3,1-0.7c0,0,0,0,0,0h2.4l0.1,3.8l-2.7,0.8L112.3,28.1"
			/>
		<path id="Fill-23" class="st0" d="M127.8,34.5c0.9,0.1,1.5,0.8,1.6,1.6c0,0.4-0.1,0.7-0.2,1c-0.3,0.5-0.9,0.9-1.5,0.9
			c-0.7,0-1.4-0.5-1.6-1.1c-0.1-0.2-0.1-0.4-0.1-0.6C125.9,35.2,126.7,34.4,127.8,34.5"/>
		<path id="Fill-24" class="st0" d="M124,36C124,35.9,124,35.9,124,36c0.5-0.4,1,0.1,0.7,0.5c0,0-0.1,0.1-0.1,0.1
			C124.2,36.9,123.7,36.4,124,36z M124.3,37.8c0,0,0-0.1,0-0.1c0.3-0.5,0.9-0.3,0.9,0.2c0,0,0,0.1,0,0.1
			C124.9,38.5,124.3,38.3,124.3,37.8z M125.5,36.2c0-1.5,1.5-2.6,3-2c0.4,0.2,0.8,0.5,1,1c0.3,0.7,0.3,1.4,0,1.9
			c-0.3,0.7-1.1,1.2-1.9,1.2c-1,0-1.8-0.6-2-1.5C125.5,36.6,125.5,36.4,125.5,36.2z M125.5,39.1c0-0.5,0.6-0.7,0.9-0.2
			c0,0,0,0.1,0,0.1c0,0.5-0.6,0.7-0.9,0.2C125.5,39.2,125.5,39.2,125.5,39.1z M127.9,39.1C127.9,39.1,128,39.2,127.9,39.1
			c0.4,0.5-0.1,1-0.5,0.7c0,0-0.1-0.1-0.1-0.1C127,39.3,127.4,38.8,127.9,39.1z M128.8,39c0,0,0-0.1,0-0.1c0.3-0.5,0.9-0.3,0.9,0.2
			c0,0,0,0.1,0,0.1C129.4,39.7,128.8,39.5,128.8,39z M130,34.5c0,0,0-0.1,0-0.1c0.3-0.5,0.9-0.3,0.9,0.2c0,0,0,0.1,0,0.1
			C130.6,35.2,130,35,130,34.5z M130,37.9c0-0.5,0.6-0.7,0.9-0.2c0,0,0,0.1,0,0.1c0,0.5-0.6,0.7-0.9,0.2C130,38,130,37.9,130,37.9z
			 M130.6,36.6C130.6,36.5,130.5,36.5,130.6,36.6c-0.4-0.5,0.1-1,0.5-0.7c0,0,0.1,0.1,0.1,0.1C131.5,36.4,131.1,36.8,130.6,36.6z
			 M129.7,33.3c0,0.5-0.6,0.7-0.9,0.2c0,0,0-0.1,0-0.1c0-0.5,0.6-0.7,0.9-0.2C129.7,33.2,129.7,33.3,129.7,33.3z M127.3,33.3
			C127.3,33.3,127.2,33.3,127.3,33.3c-0.4-0.5,0.1-1,0.5-0.7c0,0,0.1,0.1,0.1,0.1C128.2,33.1,127.8,33.6,127.3,33.3z M126.4,33.4
			c0,0,0,0.1,0,0.1c-0.3,0.5-0.9,0.3-0.9-0.2c0,0,0-0.1,0-0.1C125.8,32.7,126.4,32.9,126.4,33.4z M125.2,34.5c0,0.5-0.6,0.7-0.9,0.2
			c0,0,0-0.1,0-0.1c0-0.5,0.6-0.7,0.9-0.2C125.2,34.4,125.2,34.5,125.2,34.5z M123.8,33.4c-0.6,0.8-0.9,1.8-0.9,2.8
			c0,0.1,0,0.3,0,0.4c0.2,2.4,2.2,4.3,4.7,4.3c2.2,0,4.1-1.5,4.6-3.6c0.2-0.9,0.2-2-0.2-3c-0.5-1.3-1.6-2.3-2.9-2.6
			c-2.1-0.6-4,0.2-5.1,1.6C123.9,33.3,123.8,33.3,123.8,33.4z"/>
		<path id="Fill-25" class="st0" d="M144.8,19.6c-0.1,0.2-0.4,0.3-0.6,0.2c-0.2-0.1-0.3-0.4-0.2-0.6c0.1-0.2,0.4-0.3,0.6-0.2
			C144.8,19.1,144.9,19.4,144.8,19.6z M150.7,29.9c5,1.6,11-1.7,13.4-7.5l-18.1-5.9c-0.3,0.7-0.5,1.5-0.7,2.2l-0.9-0.1
			c-0.3,0-0.6,0.1-0.8,0.4c0,0.1-0.1,0.1-0.1,0.2l0,0c0,0.2,0,0.3,0.1,0.5c0.1,0.2,0.3,0.3,0.5,0.4l0.9,0.1
			C144.7,24.7,146.8,28.7,150.7,29.9z"/>
		<path id="Fill-26" class="st0" d="M146.4,15.8l1.1-2.6c0.1-0.3,0.6-0.5,1-0.4l0,0c0.4,0.1,0.6,0.5,0.5,0.9l-0.3,0.8l15.3,5
			l1.5-2.1c0.2-0.3,0.6-0.5,1-0.3l0,0l-2.1,4.6l-16.6-5.4L146.4,15.8"/>
		<path id="Fill-27" class="st0" d="M143,26.4c0-0.2,0.1-0.3,0.2-0.4c0.1-0.1,0.3-0.1,0.4-0.1c0.3,0,0.6,0.3,0.5,0.7
			c0,0.3-0.3,0.5-0.6,0.5c0,0-0.1,0-0.1,0C143.2,27,143,26.7,143,26.4z M135.7,22.2c0,0.2-0.2,0.4-0.5,0.4c0,0,0,0,0,0
			c-0.1,0-0.1,0-0.1,0c-0.2-0.1-0.3-0.3-0.2-0.4c0-0.1,0-0.2,0.1-0.2c0,0,0,0,0,0c0.1-0.1,0.2-0.1,0.4-0.1
			C135.6,21.7,135.8,21.9,135.7,22.2z M134.9,15.9c0,0.2-0.2,0.4-0.4,0.4c-0.2,0-0.4-0.2-0.4-0.4c0-0.2,0.2-0.4,0.4-0.4
			C134.7,15.6,134.9,15.7,134.9,15.9z M136.3,21.9l6.1,5.6c0.6,0.6,1.6,0.6,2.2,0.1l0,0c0.7-0.6,0.8-1.6,0.3-2.3l-5.6-7.6
			c-0.5-0.7-1.4-1.2-2.3-1.2l-1.6,0l-0.1-0.4l-0.1-0.5c-0.1-0.3-0.5-0.5-0.8-0.4l0,0c-0.3,0.1-0.5,0.5-0.4,0.8l0,0l0.1,0.4
			l-13.6,0.1c0,0-0.1,0-0.1,0c0.9,0.3,1.7,0.3,1.8,1.4l0.4,1.8l12.1,1.4l-0.1,0.6l0,0.2c0,0.2,0,0.4,0.1,0.5c0,0,0,0,0,0.1
			c0.1,0.1,0.2,0.2,0.3,0.2l0,0c0.3,0.1,0.6,0,0.8-0.3L136.3,21.9z"/>
		<path id="Fill-28" class="st0" d="M137,12.8c0,0.2-0.2,0.4-0.4,0.5c-0.1,0-0.3-0.1-0.4-0.2c-0.1-0.1-0.1-0.2-0.1-0.2
			c0-0.1,0.1-0.3,0.2-0.4c0.1-0.1,0.2-0.1,0.3-0.1C136.8,12.4,137,12.6,137,12.8z M133.6,14.5c-0.4,0.5-0.4,1.2,0.1,1.6l0,0
			c0,0,0,0,0,0l0.2-0.6c0.1-0.4,0.5-0.6,0.9-0.5l0,0c0.4,0.1,0.7,0.5,0.5,0.9l0,0.1c0,0,0,0,0,0l1.5-1.7l6.5,4.8
			c0-0.2,0.1-0.3,0.2-0.5l0,0c0.1-0.1,0.1-0.1,0.2-0.1l-6.4-4.9c0.3-0.5,0.2-1.1-0.2-1.5l0,0c-0.5-0.4-1.2-0.4-1.6,0.1l-0.1,0.1
			l-0.7,0.8l-0.5,0.6L133.6,14.5z"/>
		<path id="Fill-29" class="st0" d="M118.7,28l-0.5,0.5h-2.6v1.9h3.4l2.3-2.4h1.8v0.3h0c0,0.1,0,0.2-0.1,0.2c-0.1,0.1-0.4,0-0.6-0.2
			c0,0-0.1-0.1-0.1-0.1l-0.1-0.1l-0.1,0.1c0,0-0.1,0.1-0.1,0.1c-0.1,0.1-0.2,0.1-0.2,0.2l-0.1,0.1l0.1,0.2c0.1,0.2,0.2,0.6,0.1,0.7
			c0,0-0.1,0-0.1,0c-0.1,0-0.2,0-0.5-0.3L121,29l-0.1,0.1c-0.1,0.1-0.2,0.2-0.4,0.4l-0.1,0.1l0.1,0.1c0.2,0.2,0.3,0.5,0.2,0.7
			c0,0-0.1,0.1-0.2,0.1c-0.1,0-0.2,0-0.5-0.2l-0.1-0.1l-0.1,0.2c-0.1,0.1-0.2,0.2-0.3,0.4l-0.1,0.1l0.1,0.1c0.3,0.3,0.4,0.5,0.3,0.7
			c0,0-0.1,0.1-0.3,0.1c-0.1,0-0.3,0-0.4-0.1l-0.2,0l-0.1,0.2c-0.1,0.1-0.1,0.2-0.2,0.3l-0.1,0.2l0.2,0.1c0.3,0.2,0.5,0.4,0.4,0.5
			H115V28H118.7"/>
		<path id="Fill-30" class="st0" d="M133.6,14.5l-6.6,0.5c0,0,0,0,0,0v0c0,0.3-0.2,0.6-0.5,0.6l-0.2,0c0,0,0,0,0,0l-0.2-1.8
			c0,0,0,0,0,0l0.2,0c0.3,0,0.6,0.2,0.6,0.5l0,0c0,0,0,0,0,0l7.4-0.6L133.6,14.5C133.6,14.5,133.6,14.5,133.6,14.5"/>
		<path id="Fill-31" class="st9" d="M122.3,36.2c0-1,0.3-2,0.8-2.8c0.2-0.3,0.4-0.6,0.7-0.9c1-0.9,2.3-1.5,3.7-1.5
			c2.9,0,5.3,2.4,5.3,5.3c0,0.4,0,0.8-0.1,1.2c-0.5,2.4-2.7,4.1-5.1,4.1c-2.8,0-5.1-2.1-5.2-4.9C122.3,36.5,122.3,36.3,122.3,36.2z
			 M119,36.2c0,0,0,0.1,0,0.1c-0.1,0.2-0.3,0.4-0.7,0.5c0,0.1,0,0.3,0,0.4c0.5,0,0.8,0.2,0.8,0.5c0,0.3-0.2,0.5-0.6,0.7
			c0,0.1,0.1,0.2,0.1,0.3l0,0c0,0,0,0.1,0,0.1c0.5-0.1,0.8,0.1,0.9,0.3c0.1,0.3-0.1,0.6-0.5,0.8c0.1,0.1,0.2,0.3,0.2,0.4
			c0.5-0.1,0.8-0.1,0.9,0.1c0.1,0.2,0,0.6-0.4,0.9c0.1,0.1,0.2,0.3,0.3,0.4c0.5-0.2,0.8-0.2,0.9-0.1c0.2,0.2,0.1,0.5-0.2,0.9
			c0.1,0.1,0.2,0.2,0.4,0.4c0.4-0.3,0.7-0.4,0.9-0.2c0.2,0.2,0.2,0.5-0.1,0.9l0,0c0.1,0.1,0.2,0.2,0.4,0.3c0.3-0.4,0.7-0.5,0.9-0.4
			c0.2,0.1,0.3,0.4,0.1,0.9l0.1,0.1c0.1,0.1,0.2,0.1,0.3,0.2c0.3-0.4,0.6-0.6,0.8-0.5c0.3,0.1,0.4,0.4,0.3,0.9l0.1,0
			c0.1,0,0.2,0.1,0.3,0.1c0.2-0.4,0.4-0.6,0.7-0.6c0,0,0,0,0.1,0c0.3,0,0.4,0.3,0.5,0.8c0.1,0,0.3,0,0.4,0c0.1-0.5,0.3-0.7,0.6-0.7
			c0.3,0,0.5,0.3,0.6,0.7c0.1,0,0.3,0,0.4,0c0-0.5,0.2-0.8,0.5-0.8c0,0,0,0,0.1,0c0.2,0,0.5,0.2,0.7,0.6c0.1,0,0.2-0.1,0.3-0.1
			l0.1,0c-0.1-0.5,0.1-0.8,0.3-0.9c0.3-0.1,0.6,0.1,0.8,0.5c0.1,0,0.2-0.1,0.3-0.2c0,0,0.1,0,0.1-0.1l0,0c-0.1-0.5-0.1-0.8,0.1-0.9
			c0.2-0.1,0.6,0,0.9,0.4c0.1-0.1,0.2-0.2,0.4-0.3l0,0c-0.2-0.5-0.3-0.8-0.1-0.9c0.2-0.2,0.5-0.1,0.9,0.2c0.1-0.1,0.2-0.2,0.4-0.4
			c-0.3-0.4-0.4-0.7-0.2-0.9c0.2-0.2,0.5-0.2,0.9,0.1l0,0c0.1-0.1,0.2-0.2,0.3-0.3c-0.4-0.3-0.5-0.7-0.4-0.9
			c0.1-0.2,0.4-0.3,0.9-0.1c0,0,0-0.1,0.1-0.1c0.1-0.1,0.1-0.2,0.2-0.3c-0.4-0.3-0.6-0.6-0.5-0.8c0.1-0.2,0.4-0.4,0.9-0.3
			c0,0,0-0.1,0-0.1l0,0c0-0.1,0.1-0.2,0.1-0.3c-0.5-0.2-0.7-0.5-0.6-0.7c0,0,0-0.1,0.1-0.1c0.1-0.2,0.4-0.3,0.8-0.3
			c0-0.1,0-0.3,0-0.4c-0.5-0.1-0.7-0.3-0.7-0.6c0-0.3,0.3-0.5,0.7-0.6c0-0.1,0-0.3,0-0.4c-0.5,0-0.8-0.2-0.8-0.5
			c0-0.3,0.2-0.5,0.6-0.7c0-0.1-0.1-0.2-0.1-0.3l0-0.1c0,0,0,0,0,0c-0.5,0.1-0.8-0.1-0.9-0.3c-0.1-0.3,0.1-0.6,0.5-0.8
			c0-0.1-0.1-0.2-0.2-0.3l0-0.1c0,0,0,0,0,0c-0.5,0.2-0.8,0.1-0.9-0.1c-0.1-0.2,0-0.6,0.4-0.9c-0.1-0.1-0.2-0.2-0.3-0.3l0,0
			c-0.5,0.2-0.8,0.2-0.9,0.1c-0.2-0.2-0.1-0.5,0.2-0.9c-0.1-0.1-0.2-0.2-0.4-0.4c-0.4,0.3-0.7,0.4-0.9,0.2c-0.2-0.2-0.2-0.5,0.1-0.9
			l0,0c-0.1-0.1-0.2-0.2-0.4-0.3c-0.3,0.4-0.7,0.5-0.9,0.4c-0.2-0.1-0.3-0.4-0.1-0.9l-0.1-0.1c-0.1-0.1-0.2-0.1-0.3-0.2
			c-0.2,0.3-0.5,0.5-0.7,0.5c0,0-0.1,0-0.1,0c-0.3-0.1-0.4-0.4-0.3-0.9l-0.1,0c-0.1,0-0.2-0.1-0.3-0.1c-0.2,0.4-0.4,0.6-0.7,0.6
			c0,0,0,0-0.1,0c-0.3,0-0.4-0.3-0.5-0.8c-0.1,0-0.3,0-0.4,0c-0.1,0.5-0.3,0.7-0.6,0.7c-0.3,0-0.5-0.3-0.6-0.7c-0.1,0-0.3,0-0.4,0
			c0,0.5-0.2,0.8-0.5,0.8c-0.3,0.1-0.5-0.2-0.7-0.6c-0.1,0-0.2,0.1-0.3,0.1l-0.1,0c0.1,0.5-0.1,0.8-0.3,0.9
			c-0.2,0.1-0.6-0.1-0.8-0.5c-0.1,0-0.2,0.1-0.3,0.2l-0.1,0.1c0,0,0,0,0,0c0.1,0.5,0.1,0.8-0.1,0.9c-0.2,0.1-0.6,0-0.9-0.4
			c-0.1,0.1-0.2,0.2-0.4,0.3l0,0c0.2,0.5,0.3,0.8,0.1,0.9c-0.2,0.2-0.5,0.1-0.9-0.2c-0.1,0.1-0.2,0.2-0.4,0.4
			c0.3,0.4,0.4,0.7,0.2,0.9c-0.2,0.2-0.5,0.2-0.9-0.1l0,0c-0.1,0.1-0.2,0.2-0.3,0.4c0.4,0.3,0.5,0.7,0.4,0.9
			c-0.1,0.2-0.4,0.3-0.9,0.1c0,0,0,0,0,0.1l0,0.1c-0.1,0.1-0.1,0.2-0.2,0.3c0.4,0.3,0.6,0.6,0.5,0.8c0,0,0,0.1,0,0.1
			c-0.1,0.2-0.4,0.3-0.9,0.2c0,0,0,0,0,0l0,0.1c0,0.1-0.1,0.2-0.1,0.3c0.5,0.2,0.7,0.5,0.6,0.7c0,0.3-0.3,0.4-0.8,0.5
			c0,0.1,0,0.3,0,0.4C118.8,35.7,119,35.9,119,36.2z"/>
		<path id="Fill-32" class="st0" d="M120.1,15.5c-0.1,0.3-0.4,0.6-0.7,0.5c-0.3-0.1-0.6-0.4-0.5-0.7c0.1-0.3,0.4-0.6,0.7-0.5
			C120,14.8,120.2,15.1,120.1,15.5z M120.9,16.3l5.2-0.5l-0.2-1.9l-4.9,0.5c-0.1-0.5-0.5-0.8-0.9-0.7l-0.7,0.1
			c-0.7,0.1-1.2,0.7-1.1,1.4l0.1,1.4l0.3,0.1L120.9,16.3L120.9,16.3z"/>
		<g id="Group-36" transform="translate(0.000000, 15.584416)">
			<polyline id="Fill-33" class="st10" points="146.1,1 164.1,6.9 164.4,6.1 146.4,0.2 146.1,1 			"/>
			<path id="Fill-35" class="st11" d="M17.7,6.1c-1.6,0-2.3-0.8-2.3-2.4c0-0.6,0.2-1.2,0.7-1.6c0.5-0.4,1.1-0.6,1.7-0.6
				c0.6,0,1.2,0.2,1.6,0.7c0.4,0.5,0.6,1.1,0.6,1.7C20.1,5.3,19.3,6.1,17.7,6.1z M11.7,6.1c-1.5,0-2.2-0.8-2.2-2.4
				c0-1.5,0.8-2.3,2.3-2.3c1.5,0,2.3,0.8,2.3,2.3C14,5.3,13.3,6.1,11.7,6.1z M28.3,20.4c-0.4,0.5-0.7,0.8-1.1,0.8H2
				c-0.5,0-1-0.3-1.4-0.9C0.2,19.6,0,19,0,18.5V7.6h5.3c0,4.4,0,6.7,0,6.7c0.1,1.1,0.4,1.6,1,1.6h16.3l0.8-0.8V7.6h5.3V19
				C28.7,19.4,28.5,19.9,28.3,20.4z"/>
		</g>
		<polyline id="Fill-37" class="st11" points="33.2,36.7 33.2,3.2 38.6,3.2 38.6,31.3 49.2,31.3 49.2,36.7 33.2,36.7 		"/>
		<path id="Fill-38" class="st11" d="M60.1,44.1c-0.8,0-1.3-0.3-1.8-0.8c-0.5-0.5-0.7-1.2-0.7-1.9c0-0.6,0.2-1.2,0.7-1.8
			c0.5-0.5,1.1-0.8,1.8-0.8c0.8,0,1.4,0.2,1.9,0.8c0.5,0.5,0.8,1.2,0.8,1.9C62.7,43.2,61.8,44.1,60.1,44.1z M53.4,44
			c-1.8,0-2.6-0.9-2.6-2.7c0-0.7,0.2-1.3,0.8-1.8c0.5-0.5,1.1-0.8,1.9-0.8c1.7,0,2.5,0.9,2.5,2.7C55.9,43.2,55.1,44,53.4,44z
			 M47.2,36.7v-5.4h8.3c0.4,0,0.7-0.3,0.8-0.9v-7.2h5.8v8.2h7.8v5.4H47.2z"/>
		<polyline id="Fill-39" class="st11" points="69.9,36.7 69.9,31.3 76.7,31.3 76.7,3.3 81.7,3.3 81.7,36.7 69.9,36.7 		"/>
		<path id="Fill-40" class="st11" d="M85.5,28.1h5V3.5h-5V28.1z M85.4,36.7v-5.4h9.8v-28h5.1v33.3H85.4z"/>
		<polygon id="Fill-41" class="st11" points="105,36.7 110.3,36.7 110.3,3.3 105,3.3 		"/>
		<path id="Fill-42" class="st11" d="M187.5,21.5c-1.6,0-2.3-0.8-2.3-2.4c0-0.6,0.2-1.2,0.7-1.6c0.5-0.4,1.1-0.6,1.7-0.6
			s1.2,0.2,1.6,0.7c0.4,0.5,0.6,1.1,0.6,1.7C189.9,20.8,189.1,21.5,187.5,21.5z M181.5,21.5c-1.5,0-2.2-0.8-2.2-2.4
			c0-1.5,0.8-2.3,2.3-2.3c1.5,0,2.3,0.8,2.3,2.3C183.8,20.8,183,21.5,181.5,21.5z M198,35.8c-0.4,0.5-0.7,0.8-1.1,0.8h-25.1
			c-0.5,0-1-0.3-1.4-0.9c-0.4-0.6-0.6-1.2-0.6-1.8V23.1h5.3c0,4.4,0,6.7,0,6.7c0.1,1.1,0.4,1.6,1,1.6h16.3l0.8-0.8v-7.5h5.3v11.4
			C198.5,34.9,198.3,35.4,198,35.8z"/>
		<polygon id="Fill-43" class="st11" points="202.5,36.6 207.8,36.6 207.8,3.2 202.5,3.2 		"/>
		<path id="Fill-44" class="st11" d="M212.3,36.6v-5.1h10.9v-4c0-2.1-1.5-3.4-4.5-3.9c-0.9-0.2-3-0.2-6.4-0.2V18h7.3
			c2,0,4.1,0.9,6,2.6c1.9,1.8,2.9,3.7,2.9,5.8v4.7h7v5.4H212.3"/>
		<path id="Fill-45" class="st11" d="M235.3,36.6v-5.4h5.3c-1.2-1.4-1.9-3.2-1.9-5.2c0-2.6,1-4.7,3-6.2c1.8-1.3,4-1.9,6.8-1.9h6.2
			v5.4c-0.2,0-0.8,0-1.6-0.1c-0.8-0.1-1.5-0.1-2-0.1c-4.8,0-7.2,1.4-7.2,4.1c0,0.9,0.4,1.8,1.2,2.6c0.8,0.9,1.6,1.3,2.5,1.3h13.1
			v5.4H235.3"/>
		<path id="Fill-46" class="st11" d="M273.7,31.3c0,0.1-0.1-0.3-0.3-0.9c-0.5-1.6-1.9-2.4-4.2-2.4h-1.1v6.2h5.6V31.3z M278.7,36.6
			v2.9h-12.8c-1.3,0-2.1-0.2-2.5-0.6c-0.2-0.3-0.5-1.1-0.7-2.3h-4.1v-5.4h4.1v-8.2h8.1c2.5,0,4.5,0.7,6,2.1c1.5,1.5,2.2,3.4,2.2,5.9
			l0.3,0.2h5.3v-28h5.3v33.3H278.7z"/>
		<polygon id="Fill-47" class="st11" points="294,36.6 299.3,36.6 299.3,3.2 294,3.2 		"/>
	</g>
</g>
</svg>
