<?xml version="1.0" encoding="UTF-8" standalone="no"?>
<!-- Created with Inkscape (http://www.inkscape.org/) -->

<svg
   xmlns:dc="http://purl.org/dc/elements/1.1/"
   xmlns:cc="http://creativecommons.org/ns#"
   xmlns:rdf="http://www.w3.org/1999/02/22-rdf-syntax-ns#"
   xmlns:svg="http://www.w3.org/2000/svg"
   xmlns="http://www.w3.org/2000/svg"
   version="1.1"
   width="300"
   height="67"
   id="svg2"
   xml:space="preserve"><metadata
     id="metadata8"><rdf:RDF><cc:Work
         rdf:about=""><dc:format>image/svg+xml</dc:format><dc:type
           rdf:resource="http://purl.org/dc/dcmitype/StillImage" /><dc:title></dc:title></cc:Work></rdf:RDF></metadata><defs
     id="defs6"><clipPath
       id="clipPath16"><path
         d="m 358.095,180.776 72.062,0 0,-24.598 -72.062,0 0,24.598 z"
         id="path18" /></clipPath><linearGradient
       x1="0"
       y1="0"
       x2="1"
       y2="0"
       id="linearGradient24"
       gradientUnits="userSpaceOnUse"
       gradientTransform="matrix(72.061523,0,0,-72.061523,358.09595,168.47745)"
       spreadMethod="pad"><stop
         id="stop26"
         style="stop-color:#2b854c;stop-opacity:1"
         offset="0" /><stop
         id="stop28"
         style="stop-color:#85c44d;stop-opacity:1"
         offset="1" /></linearGradient><clipPath
       id="clipPath36"><path
         d="m 0,396.85 476.22,0 L 476.22,0 0,0 0,396.85 z"
         id="path38" /></clipPath><clipPath
       id="clipPath74"><path
         d="m 205.057,211.273 -0.546,-1.789 c -0.007,-0.008 -0.006,-0.02 0.003,-0.026 l 0,0 0.86,-0.387 c 0.002,-0.002 0.007,-0.004 0.011,-0.004 l 0,0 1.947,0.002 1.028,0 0.516,0.002 -3.792,2.206 c -0.004,0.002 -0.008,0.004 -0.012,0.004 l 0,0 c -0.006,0 -0.011,-0.003 -0.015,-0.008"
         id="path76" /></clipPath><linearGradient
       x1="0"
       y1="0"
       x2="1"
       y2="0"
       id="linearGradient82"
       gradientUnits="userSpaceOnUse"
       gradientTransform="matrix(-64.25,43.75,43.75,64.25,226.64145,195.68172)"
       spreadMethod="pad"><stop
         id="stop84"
         style="stop-color:#85c44d;stop-opacity:1"
         offset="0" /><stop
         id="stop86"
         style="stop-color:#2b854c;stop-opacity:1"
         offset="1" /></linearGradient><clipPath
       id="clipPath94"><path
         d="m 216.935,219.154 c -0.026,0 -0.052,-0.002 -0.079,-0.003 l 0,0 c -1.163,-0.034 -2.157,-0.808 -2.396,-1.884 l 0,0 -0.444,-1.987 -1.345,-6.028 2.047,0 3.004,-3.117 1.487,0 0,13.019 -2.274,0 z m -0.994,-2.259 c 0,0.495 0.401,0.895 0.896,0.895 l 0,0 c 0.495,0 0.896,-0.4 0.896,-0.895 l 0,0 c 0,-0.495 -0.401,-0.897 -0.896,-0.897 l 0,0 c -0.495,0 -0.896,0.402 -0.896,0.897"
         id="path96" /></clipPath><linearGradient
       x1="0"
       y1="0"
       x2="1"
       y2="0"
       id="linearGradient102"
       gradientUnits="userSpaceOnUse"
       gradientTransform="matrix(-64.25,43.75,43.75,64.25,231.86809,203.35741)"
       spreadMethod="pad"><stop
         id="stop104"
         style="stop-color:#85c44d;stop-opacity:1"
         offset="0" /><stop
         id="stop106"
         style="stop-color:#2b854c;stop-opacity:1"
         offset="1" /></linearGradient><clipPath
       id="clipPath114"><path
         d="m 212.473,208.677 -1.168,0 -0.636,0 -1.24,0 -2.044,0 -2.413,0 0,-1.664 4.457,0 0.087,0 1.153,0 0.142,0 1.29,0 1.711,0 1.4,-1.454 3.004,-3.117 3.767,0 0,1.664 -3.06,0 -1.4,1.453 -3.003,3.118 -2.047,0 z"
         id="path116" /></clipPath><linearGradient
       x1="0"
       y1="0"
       x2="1"
       y2="0"
       id="linearGradient122"
       gradientUnits="userSpaceOnUse"
       gradientTransform="matrix(-64.25,43.75,43.75,64.25,227.06659,196.30605)"
       spreadMethod="pad"><stop
         id="stop124"
         style="stop-color:#85c44d;stop-opacity:1"
         offset="0" /><stop
         id="stop126"
         style="stop-color:#2b854c;stop-opacity:1"
         offset="1" /></linearGradient><clipPath
       id="clipPath134"><path
         d="m 223.766,198.961 0,-2.047 c 0,-1.857 1.251,-3.407 2.952,-3.897 l 0,0 0,11.3 -2.952,0.807 0,-6.163 z"
         id="path136" /></clipPath><linearGradient
       x1="0"
       y1="0"
       x2="1"
       y2="0"
       id="linearGradient142"
       gradientUnits="userSpaceOnUse"
       gradientTransform="matrix(-64.25,43.75,43.75,64.25,227.9967,197.672)"
       spreadMethod="pad"><stop
         id="stop144"
         style="stop-color:#85c44d;stop-opacity:1"
         offset="0" /><stop
         id="stop146"
         style="stop-color:#2b854c;stop-opacity:1"
         offset="1" /></linearGradient><clipPath
       id="clipPath154"><path
         d="m 224.888,219.313 c -0.014,-0.019 -0.028,-0.037 -0.042,-0.056 l 0,0 -0.503,-0.741 0.853,-0.58 -1.43,-5.886 c 0.295,-0.458 0.771,-0.797 1.347,-0.896 l 0,0 1.605,-0.274 0,8.994 c -0.174,0.068 -0.357,0.101 -0.54,0.101 l 0,0 c -0.485,0 -0.971,-0.233 -1.29,-0.662"
         id="path156" /></clipPath><linearGradient
       x1="0"
       y1="0"
       x2="1"
       y2="0"
       id="linearGradient162"
       gradientUnits="userSpaceOnUse"
       gradientTransform="matrix(-64.25,43.75,43.75,64.25,235.58739,208.81947)"
       spreadMethod="pad"><stop
         id="stop164"
         style="stop-color:#85c44d;stop-opacity:1"
         offset="0" /><stop
         id="stop166"
         style="stop-color:#2b854c;stop-opacity:1"
         offset="1" /></linearGradient><clipPath
       id="clipPath174"><path
         d="m 198.48,212.437 c -0.006,-0.183 -0.08,-0.365 -0.224,-0.504 l 0,0 -0.131,-0.126 5.675,-1.546 c 0.009,-0.003 0.014,-0.012 0.01,-0.021 l 0,0 -0.001,-0.005 c -0.097,-0.289 0.062,-0.587 0.351,-0.666 l 0,0 0.166,-0.046 c 0.01,-0.002 0.019,0.003 0.022,0.011 l 0,0 0.591,1.781 c 0.004,0.009 -0.002,0.019 -0.011,0.021 l 0,0 -0.166,0.046 c -0.29,0.079 -0.602,-0.092 -0.699,-0.38 l 0,0 -0.002,-0.006 c -0.002,-0.009 -0.012,-0.014 -0.021,-0.012 l 0,0 -5.559,1.516 c 0,-0.022 -0.001,-0.042 -0.001,-0.063"
         id="path176" /></clipPath><linearGradient
       x1="0"
       y1="0"
       x2="1"
       y2="0"
       id="linearGradient182"
       gradientUnits="userSpaceOnUse"
       gradientTransform="matrix(-64.25,43.75,43.75,64.25,226.07802,194.85428)"
       spreadMethod="pad"><stop
         id="stop184"
         style="stop-color:#85c44d;stop-opacity:1"
         offset="0" /><stop
         id="stop186"
         style="stop-color:#2b854c;stop-opacity:1"
         offset="1" /></linearGradient><clipPath
       id="clipPath194"><path
         d="m 221.46,236.761 0,-2.528 0.003,0 0,-0.577 c 0,-0.555 0.45,-1.005 1.005,-1.005 l 0,0 1.725,0 -1.761,-5.574 c -0.625,-1.981 -1.041,-4.022 -1.24,-6.089 l 0,0 -0.849,-8.817 2.865,0 c -0.092,0.406 -0.063,0.54 -0.092,0.842 l 0,0 c -0.011,0.124 -0.015,0.25 -0.003,0.378 l 0,0 0.94,9.903 c 0.074,0.769 0.232,1.527 0.473,2.26 l 0,0 2.192,6.681 0,4.526 -5.258,0 z"
         id="path196" /></clipPath><linearGradient
       x1="0"
       y1="0"
       x2="1"
       y2="0"
       id="linearGradient202"
       gradientUnits="userSpaceOnUse"
       gradientTransform="matrix(-64.25,43.75,43.75,64.25,239.04724,213.90051)"
       spreadMethod="pad"><stop
         id="stop204"
         style="stop-color:#85c44d;stop-opacity:1"
         offset="0" /><stop
         id="stop206"
         style="stop-color:#2b854c;stop-opacity:1"
         offset="1" /></linearGradient><clipPath
       id="clipPath214"><path
         d="m 220.343,211.612 -0.078,-4.871 3.501,-1 2.952,-0.843 0,5.458 -1.947,0.327 c -0.575,0.097 -1.052,0.428 -1.346,0.878 l 0,0 c -0.011,0.017 -0.024,0.033 -0.034,0.051 l 0,0 -3.048,0 z"
         id="path216" /></clipPath><linearGradient
       x1="0"
       y1="0"
       x2="1"
       y2="0"
       id="linearGradient222"
       gradientUnits="userSpaceOnUse"
       gradientTransform="matrix(-64.25,43.75,43.75,64.25,231.62953,203.00706)"
       spreadMethod="pad"><stop
         id="stop224"
         style="stop-color:#85c44d;stop-opacity:1"
         offset="0" /><stop
         id="stop226"
         style="stop-color:#2b854c;stop-opacity:1"
         offset="1" /></linearGradient><clipPath
       id="clipPath234"><path
         d="m 206.841,196.773 c -1.096,-0.109 -1.923,-0.963 -2.005,-2.06 l 0,0 c -0.035,-0.478 0.083,-0.925 0.305,-1.302 l 0,0 c 0.39,-0.661 1.108,-1.104 1.93,-1.104 l 0,0 c 0.944,0 1.75,0.583 2.08,1.409 l 0,0 c 0.103,0.257 0.161,0.536 0.161,0.83 l 0,0 c 0,1.236 -1.003,2.239 -2.24,2.239 l 0,0 c -0.077,0 -0.154,-0.004 -0.231,-0.012"
         id="path236" /></clipPath><linearGradient
       x1="0"
       y1="0"
       x2="1"
       y2="0"
       id="linearGradient242"
       gradientUnits="userSpaceOnUse"
       gradientTransform="matrix(-3.7870343,2.4061077,2.4061077,3.7870343,208.96107,193.34549)"
       spreadMethod="pad"><stop
         id="stop244"
         style="stop-color:#85c44d;stop-opacity:1"
         offset="0" /><stop
         id="stop246"
         style="stop-color:#2b854c;stop-opacity:1"
         offset="1" /></linearGradient><clipPath
       id="clipPath254"><path
         d="m 205.249,200.36 c -1.702,-0.495 -3.104,-1.753 -3.772,-3.395 l 0,0 c -0.552,-1.354 -0.602,-2.672 -0.314,-3.857 l 0,0 c 0.646,-2.663 3.045,-4.641 5.908,-4.641 l 0,0 c 3.181,0 5.789,2.441 6.057,5.551 l 0,0 c 0.015,0.174 0.024,0.35 0.024,0.528 l 0,0 c 0,1.368 -0.452,2.63 -1.216,3.646 l 0,0 c -0.036,0.049 -0.076,0.097 -0.115,0.145 l 0,0 c -1.114,1.393 -2.829,2.287 -4.752,2.287 l 0,0 c -0.591,0 -1.201,-0.084 -1.82,-0.264 m 1.362,-1.265 c 0.032,0.051 0.076,0.096 0.126,0.126 l 0,0 c 0.574,0.349 1.172,-0.249 0.824,-0.822 l 0,0 c -0.032,-0.051 -0.076,-0.096 -0.126,-0.126 l 0,0 c -0.118,-0.072 -0.237,-0.104 -0.349,-0.104 l 0,0 c -0.431,0 -0.751,0.472 -0.475,0.926 m -2.214,-0.839 c 0.001,0.06 0.018,0.12 0.046,0.172 l 0,0 c 0.322,0.589 1.14,0.369 1.125,-0.3 l 0,0 c -0.002,-0.061 -0.018,-0.121 -0.047,-0.173 l 0,0 c -0.128,-0.235 -0.336,-0.341 -0.538,-0.341 l 0,0 c -0.304,0 -0.595,0.24 -0.586,0.642 m 4.25,-0.316 c -0.029,0.052 -0.045,0.113 -0.047,0.173 l 0,0 c -0.015,0.669 0.803,0.889 1.125,0.301 l 0,0 c 0.029,-0.052 0.045,-0.113 0.046,-0.173 l 0,0 c 0.01,-0.402 -0.282,-0.642 -0.586,-0.642 l 0,0 c -0.202,0 -0.41,0.106 -0.538,0.341 m -4.038,-4.57 c -0.337,0.703 -0.393,1.567 0.035,2.459 l 0,0 c 0.264,0.552 0.732,0.99 1.299,1.22 l 0,0 c 1.976,0.8 3.86,-0.632 3.86,-2.503 l 0,0 c 0,-0.276 -0.042,-0.54 -0.117,-0.79 l 0,0 c -0.34,-1.122 -1.382,-1.941 -2.615,-1.941 l 0,0 c -1.087,0 -2.022,0.636 -2.462,1.555 m -1.709,3.053 c -0.029,0.052 -0.045,0.112 -0.047,0.172 l 0,0 c -0.016,0.671 0.803,0.889 1.124,0.301 l 0,0 c 0.029,-0.053 0.045,-0.113 0.046,-0.172 l 0,0 c 0.01,-0.403 -0.281,-0.643 -0.585,-0.643 l 0,0 c -0.202,0 -0.41,0.107 -0.538,0.342 m 7.234,0.276 c 0.001,0.058 0.017,0.118 0.046,0.171 l 0,0 c 0.322,0.588 1.14,0.37 1.125,-0.302 l 0,0 c -0.002,-0.058 -0.018,-0.119 -0.047,-0.172 l 0,0 c -0.128,-0.235 -0.336,-0.341 -0.538,-0.341 l 0,0 c -0.304,0 -0.595,0.24 -0.586,0.644 m -7.741,-1.79 c 0.03,0.051 0.075,0.095 0.126,0.126 l 0,0 c 0.573,0.349 1.172,-0.25 0.823,-0.823 l 0,0 c -0.031,-0.051 -0.075,-0.095 -0.126,-0.126 l 0,0 c -0.117,-0.072 -0.236,-0.103 -0.348,-0.103 l 0,0 c -0.431,0 -0.752,0.471 -0.475,0.926 m 8.533,-0.852 c -0.051,0.03 -0.096,0.075 -0.126,0.124 l 0,0 c -0.349,0.574 0.25,1.172 0.823,0.824 l 0,0 c 0.051,-0.032 0.096,-0.075 0.126,-0.126 l 0,0 c 0.277,-0.455 -0.043,-0.926 -0.474,-0.926 l 0,0 c -0.112,0 -0.231,0.032 -0.349,0.104 m -8.089,-1.534 c 0.002,0.059 0.018,0.119 0.047,0.172 l 0,0 c 0.322,0.588 1.141,0.368 1.124,-0.301 l 0,0 c -0.001,-0.06 -0.018,-0.121 -0.046,-0.173 l 0,0 c -0.128,-0.235 -0.336,-0.341 -0.539,-0.341 l 0,0 c -0.303,0 -0.595,0.239 -0.586,0.643 m 7.327,-0.328 c -0.028,0.052 -0.044,0.112 -0.046,0.172 l 0,0 c -0.015,0.671 0.803,0.89 1.125,0.302 l 0,0 c 0.028,-0.053 0.045,-0.113 0.046,-0.173 l 0,0 c 0.01,-0.402 -0.282,-0.642 -0.586,-0.642 l 0,0 c -0.202,0 -0.41,0.106 -0.539,0.341 m -5.747,-1.517 c -0.029,0.052 -0.045,0.113 -0.046,0.172 l 0,0 c -0.016,0.671 0.803,0.89 1.124,0.301 l 0,0 c 0.029,-0.052 0.045,-0.113 0.046,-0.173 l 0,0 c 0.01,-0.402 -0.281,-0.641 -0.585,-0.641 l 0,0 c -0.202,0 -0.41,0.106 -0.539,0.341 m 4.157,0.286 c 0.002,0.059 0.018,0.12 0.047,0.172 l 0,0 c 0.322,0.588 1.139,0.369 1.124,-0.301 l 0,0 c -0.001,-0.059 -0.018,-0.121 -0.046,-0.172 l 0,0 c -0.129,-0.235 -0.337,-0.341 -0.539,-0.341 l 0,0 c -0.304,0 -0.595,0.24 -0.586,0.642 m -1.993,-0.272 c 0.031,0.051 0.075,0.095 0.127,0.126 l 0,0 c 0.573,0.349 1.171,-0.249 0.822,-0.822 l 0,0 c -0.031,-0.051 -0.075,-0.096 -0.125,-0.126 l 0,0 c -0.118,-0.072 -0.237,-0.103 -0.349,-0.103 l 0,0 c -0.431,0 -0.752,0.471 -0.475,0.925"
         id="path256" /></clipPath><linearGradient
       x1="0"
       y1="0"
       x2="1"
       y2="0"
       id="linearGradient262"
       gradientUnits="userSpaceOnUse"
       gradientTransform="matrix(-10.290573,6.538157,6.538157,10.290573,212.20253,191.28456)"
       spreadMethod="pad"><stop
         id="stop264"
         style="stop-color:#85c44d;stop-opacity:1"
         offset="0" /><stop
         id="stop266"
         style="stop-color:#2b854c;stop-opacity:1"
         offset="1" /></linearGradient><clipPath
       id="clipPath274"><path
         d="m 160.219,212.18 c 3.073,-7.376 10.75,-11.667 17.148,-9.582 l 0,0 c 5.028,1.638 7.767,6.728 7.218,12.414 l 0,0 1.132,0.163 c 0.294,0.042 0.534,0.216 0.678,0.451 l 0,0 c 0.111,0.183 0.166,0.402 0.133,0.631 l 0,0 -0.003,0.018 c -0.015,0.108 -0.052,0.208 -0.099,0.3 l 0,0 c -0.182,0.352 -0.569,0.571 -0.984,0.511 l 0,0 -1.161,-0.167 c -0.209,0.934 -0.505,1.875 -0.895,2.811 l 0,0 -23.167,-7.55 z m 24.798,3.662 c -0.136,0.281 -0.018,0.62 0.262,0.756 l 0,0 c 0.281,0.135 0.62,0.017 0.755,-0.264 l 0,0 c 0.135,-0.281 0.018,-0.618 -0.263,-0.754 l 0,0 c -0.079,-0.038 -0.163,-0.056 -0.245,-0.056 l 0,0 c -0.21,0 -0.412,0.117 -0.509,0.318"
         id="path276" /></clipPath><linearGradient
       x1="0"
       y1="0"
       x2="1"
       y2="0"
       id="linearGradient282"
       gradientUnits="userSpaceOnUse"
       gradientTransform="matrix(-64.25,43.75,43.75,64.25,217.9048,182.85132)"
       spreadMethod="pad"><stop
         id="stop284"
         style="stop-color:#85c44d;stop-opacity:1"
         offset="0" /><stop
         id="stop286"
         style="stop-color:#2b854c;stop-opacity:1"
         offset="1" /></linearGradient><clipPath
       id="clipPath294"><path
         d="m 180.309,224.613 -0.019,-0.006 c -0.508,-0.165 -0.768,-0.661 -0.582,-1.108 l 0,0 0.43,-1.033 -19.698,-6.418 -1.933,2.653 c -0.301,0.412 -0.832,0.584 -1.318,0.426 l 0,0 -0.04,-0.013 2.643,-5.909 21.31,6.944 1.858,0.606 -1.396,3.349 c -0.145,0.348 -0.517,0.563 -0.915,0.563 l 0,0 c -0.113,0 -0.228,-0.017 -0.34,-0.054"
         id="path296" /></clipPath><linearGradient
       x1="0"
       y1="0"
       x2="1"
       y2="0"
       id="linearGradient302"
       gradientUnits="userSpaceOnUse"
       gradientTransform="matrix(-64.25,43.75,43.75,64.25,219.63933,185.39861)"
       spreadMethod="pad"><stop
         id="stop304"
         style="stop-color:#85c44d;stop-opacity:1"
         offset="0" /><stop
         id="stop306"
         style="stop-color:#2b854c;stop-opacity:1"
         offset="1" /></linearGradient><clipPath
       id="clipPath314"><path
         d="m 197.362,220.882 -0.19,-0.599 -0.161,-0.472 -2.009,0.017 c -1.188,-0.021 -2.299,-0.595 -3.001,-1.553 l 0,0 -7.128,-9.71 c -0.673,-0.916 -0.515,-2.199 0.36,-2.924 l 0,0 0.03,-0.025 c 0.829,-0.688 2.039,-0.656 2.831,0.074 l 0,0 7.844,7.235 0.504,-0.82 c 0.214,-0.349 0.638,-0.509 1.03,-0.388 l 0,0 0.014,0.004 c 0.164,0.051 0.303,0.144 0.41,0.266 l 0,0 c 0.018,0.021 0.034,0.043 0.049,0.066 l 0,0 c 0.138,0.188 0.203,0.426 0.164,0.672 l 0,0 -0.037,0.221 -0.137,0.831 15.567,1.812 0.51,2.292 c 0.202,1.331 1.275,1.369 2.366,1.772 l 0,0 c -0.046,0.002 -0.091,0.006 -0.138,0.005 l 0,0 -17.451,0.139 0.161,0.515 0.019,0.06 c 0.14,0.439 -0.103,0.907 -0.543,1.048 l 0,0 -0.016,0.004 c -0.084,0.027 -0.169,0.04 -0.253,0.04 l 0,0 c -0.353,0 -0.682,-0.227 -0.795,-0.582 m 0.322,-0.314 c 0,0.272 0.222,0.493 0.493,0.493 l 0,0 c 0.273,0 0.494,-0.221 0.494,-0.493 l 0,0 c 0,-0.272 -0.221,-0.492 -0.494,-0.492 l 0,0 c -0.271,0 -0.493,0.22 -0.493,0.492 m -1.063,-7.98 c -0.036,0.307 0.184,0.584 0.491,0.62 l 0,0 c 0.176,0.021 0.341,-0.045 0.457,-0.16 l 0,0 c 0.015,-0.014 0.03,-0.029 0.042,-0.045 l 0,0 c 0.065,-0.079 0.109,-0.176 0.122,-0.285 l 0,0 c 0.028,-0.241 -0.103,-0.463 -0.308,-0.565 l 0,0 c -0.057,-0.027 -0.118,-0.048 -0.184,-0.056 l 0,0 c -0.004,-0.001 -0.009,-0.001 -0.013,-0.001 l 0,0 c -0.007,0.001 -0.013,0.001 -0.018,0 l 0,0 c -0.011,-0.001 -0.022,-0.001 -0.033,-0.001 l 0,0 c -0.281,0 -0.523,0.207 -0.556,0.493 m -10.135,-6.303 c -0.368,0.023 -0.678,0.305 -0.722,0.684 l 0,0 c -0.051,0.428 0.256,0.814 0.683,0.864 l 0,0 c 0.211,0.025 0.411,-0.038 0.567,-0.158 l 0,0 c 0.159,-0.123 0.271,-0.309 0.297,-0.525 l 0,0 c 0.049,-0.427 -0.257,-0.813 -0.683,-0.864 l 0,0 c -0.027,-0.003 -0.053,-0.004 -0.079,-0.004 l 0,0 c -0.021,0 -0.042,10e-4 -0.063,0.003"
         id="path316" /></clipPath><linearGradient
       x1="0"
       y1="0"
       x2="1"
       y2="0"
       id="linearGradient322"
       gradientUnits="userSpaceOnUse"
       gradientTransform="matrix(-64.25,43.75,43.75,64.25,226.34583,195.24757)"
       spreadMethod="pad"><stop
         id="stop324"
         style="stop-color:#85c44d;stop-opacity:1"
         offset="0" /><stop
         id="stop326"
         style="stop-color:#2b854c;stop-opacity:1"
         offset="1" /></linearGradient><clipPath
       id="clipPath334"><path
         d="m 194.697,225.405 -0.023,-0.02 c -0.558,-0.493 -0.652,-1.31 -0.259,-1.918 l 0,0 -8.184,-6.261 c 0.091,-0.046 0.18,-0.104 0.256,-0.182 l 0,0 0.014,-0.013 c 0.162,-0.165 0.249,-0.373 0.271,-0.584 l 0,0 8.361,6.182 1.94,-2.243 c 0.009,-0.01 0.021,-0.017 0.03,-0.028 l 0,0 -0.019,0.071 c -0.136,0.51 0.194,1.068 0.704,1.203 l 0,0 0.019,0.006 c 0.511,0.136 1.071,-0.101 1.206,-0.611 l 0,0 0.209,-0.717 c 0.012,0.01 0.025,0.017 0.036,0.026 l 0,0 0.023,0.02 c 0.605,0.535 0.612,1.407 0.094,2.021 l 0,0 -0.939,1.067 -0.648,0.731 -0.875,0.99 -0.117,0.132 c -0.294,0.332 -0.703,0.502 -1.114,0.502 l 0,0 c -0.351,0 -0.702,-0.123 -0.985,-0.374 m 0.851,-1.388 c -0.309,0.015 -0.548,0.277 -0.533,0.585 l 0,0 c 0.014,0.31 0.276,0.548 0.585,0.534 l 0,0 c 0.127,-0.006 0.24,-0.055 0.33,-0.13 l 0,0 c 0.131,-0.108 0.211,-0.272 0.203,-0.455 l 0,0 c -0.005,-0.119 -0.047,-0.226 -0.115,-0.314 l 0,0 c -0.103,-0.135 -0.265,-0.22 -0.445,-0.22 l 0,0 c -0.008,0 -0.016,0 -0.025,0"
         id="path336" /></clipPath><linearGradient
       x1="0"
       y1="0"
       x2="1"
       y2="0"
       id="linearGradient342"
       gradientUnits="userSpaceOnUse"
       gradientTransform="matrix(-64.25,43.75,43.75,64.25,227.32147,196.68037)"
       spreadMethod="pad"><stop
         id="stop344"
         style="stop-color:#85c44d;stop-opacity:1"
         offset="0" /><stop
         id="stop346"
         style="stop-color:#2b854c;stop-opacity:1"
         offset="1" /></linearGradient><clipPath
       id="clipPath354"><path
         d="m 221.914,205.122 -3.435,0 0.608,-0.632 3.28,0 0,-2.431 -4.314,0 -2.952,3.063 -2.259,0 -0.043,0 0,-0.341 0.001,0 c 10e-4,-0.14 0.035,-0.256 0.126,-0.308 l 0,0 c 0.175,-0.106 0.45,0.031 0.737,0.308 l 0,0 c 0.033,0.031 0.065,0.064 0.1,0.1 l 0,0 0.152,0.163 0.181,-0.127 c 0.062,-0.044 0.122,-0.091 0.181,-0.136 l 0,0 c 0.099,-0.074 0.196,-0.145 0.297,-0.224 l 0,0 0.167,-0.129 -0.078,-0.204 c -0.162,-0.314 -0.315,-0.721 -0.131,-0.874 l 0,0 c 0.027,-0.023 0.068,-0.051 0.149,-0.051 l 0,0 c 0.097,0 0.316,0.043 0.698,0.332 l 0,0 0.173,0.131 0.157,-0.15 c 0.165,-0.155 0.321,-0.31 0.475,-0.474 l 0,0 0.149,-0.157 -0.131,-0.173 c -0.215,-0.283 -0.438,-0.659 -0.283,-0.846 l 0,0 c 0.033,-0.04 0.087,-0.086 0.215,-0.086 l 0,0 c 0.113,0 0.32,0.037 0.662,0.215 l 0,0 0.189,0.098 0.153,-0.194 c 0.12,-0.156 0.239,-0.309 0.35,-0.469 l 0,0 0.128,-0.183 -0.164,-0.152 c -0.352,-0.325 -0.513,-0.653 -0.409,-0.835 l 0,0 c 0.02,-0.033 0.074,-0.126 0.323,-0.126 l 0,0 c 0.15,0 0.339,0.035 0.564,0.103 l 0,0 0.195,0.058 0.183,-0.32 c 0.082,-0.146 0.154,-0.273 0.217,-0.4 l 0,0 0.104,-0.206 -0.195,-0.124 c -0.376,-0.24 -0.593,-0.508 -0.575,-0.701 l 0,0 4.055,0 1.302,0 0,6.141 0,0.341 -1.302,0 z"
         id="path356" /></clipPath><linearGradient
       x1="0"
       y1="0"
       x2="1"
       y2="0"
       id="linearGradient362"
       gradientUnits="userSpaceOnUse"
       gradientTransform="matrix(-64.25,43.75,43.75,64.25,227.59175,197.0773)"
       spreadMethod="pad"><stop
         id="stop364"
         style="stop-color:#85c44d;stop-opacity:1"
         offset="0" /><stop
         id="stop366"
         style="stop-color:#2b854c;stop-opacity:1"
         offset="1" /></linearGradient><clipPath
       id="clipPath374"><path
         d="m 199.351,222.389 c 0.01,-0.01 0.015,-0.022 0.024,-0.032 l 0,0 8.508,-0.69 c 0.012,-0.001 0.02,-0.011 0.019,-0.023 l 0,0 -10e-4,-0.007 c -0.039,-0.382 0.24,-0.723 0.623,-0.762 l 0,0 0.219,-0.022 c 0.012,-0.001 0.023,0.007 0.024,0.019 l 0,0 0.238,2.357 c 0.001,0.011 -0.007,0.022 -0.019,0.023 l 0,0 -0.219,0.023 c -0.384,0.038 -0.725,-0.241 -0.764,-0.622 l 0,0 0,-0.008 c -10e-4,-0.012 -0.011,-0.02 -0.024,-0.019 l 0,0 -9.543,0.798 0.915,-1.035 z"
         id="path376" /></clipPath><linearGradient
       x1="0"
       y1="0"
       x2="1"
       y2="0"
       id="linearGradient382"
       gradientUnits="userSpaceOnUse"
       gradientTransform="matrix(-64.25,43.75,43.75,64.25,232.14497,203.76402)"
       spreadMethod="pad"><stop
         id="stop384"
         style="stop-color:#85c44d;stop-opacity:1"
         offset="0" /><stop
         id="stop386"
         style="stop-color:#2b854c;stop-opacity:1"
         offset="1" /></linearGradient><clipPath
       id="clipPath394"><path
         d="m 0,396.85 476.22,0 L 476.22,0 0,0 0,396.85 z"
         id="path396" /></clipPath><clipPath
       id="clipPath406"><path
         d="m 215.609,222.587 -6.351,0.638 -0.241,-2.4 6.645,-0.667 0,0.003 2.882,-0.302 0.349,0.071 0.188,1.788 c 0.091,0.868 -0.541,1.648 -1.412,1.738 l 0,0 -0.842,0.089 c -0.039,0.004 -0.079,0.006 -0.117,0.006 l 0,0 c -0.552,0 -1.025,-0.409 -1.101,-0.964 m 1.025,-1.411 c -0.089,0.433 0.19,0.855 0.623,0.944 l 0,0 c 0.432,0.089 0.856,-0.189 0.945,-0.622 l 0,0 c 0.089,-0.433 -0.19,-0.856 -0.623,-0.945 l 0,0 c -0.054,-0.011 -0.108,-0.016 -0.162,-0.016 l 0,0 c -0.371,0 -0.705,0.26 -0.783,0.639"
         id="path408" /></clipPath><linearGradient
       x1="0"
       y1="0"
       x2="1"
       y2="0"
       id="linearGradient414"
       gradientUnits="userSpaceOnUse"
       gradientTransform="matrix(-64.25,43.75,43.75,64.25,234.79158,207.65076)"
       spreadMethod="pad"><stop
         id="stop416"
         style="stop-color:#85c44d;stop-opacity:1"
         offset="0" /><stop
         id="stop418"
         style="stop-color:#2b854c;stop-opacity:1"
         offset="1" /></linearGradient><clipPath
       id="clipPath426"><path
         d="m 0,396.85 476.22,0 L 476.22,0 0,0 0,396.85 z"
         id="path428" /></clipPath><clipPath
       id="clipPath488"><path
         d="m 159.792,213.205 0.427,-1.025 23.167,7.55 -0.426,1.025 -23.168,-7.55 z"
         id="path490" /></clipPath><linearGradient
       x1="0"
       y1="0"
       x2="1"
       y2="0"
       id="linearGradient496"
       gradientUnits="userSpaceOnUse"
       gradientTransform="matrix(-18.736612,6.8195696,6.8195696,18.736612,180.95763,213.05791)"
       spreadMethod="pad"><stop
         id="stop498"
         style="stop-color:#85c44d;stop-opacity:1"
         offset="0" /><stop
         id="stop500"
         style="stop-color:#2b854c;stop-opacity:1"
         offset="1" /></linearGradient></defs><g
     transform="matrix(1.25,0,0,-1.25,0,67)"
     id="g10"><g
       transform="matrix(0.62130224,0,0,0.63181823,-27.538059,-98.463528)"
       id="g12"><g
         clip-path="url(#clipPath16)"
         id="g14"><g
           id="g20"><g
             id="g22"><path
               d="m 358.095,180.776 72.062,0 0,-24.598 -72.062,0 0,24.598 z"
               id="path30"
               style="fill:url(#linearGradient24);stroke:none" /></g></g></g></g><g
       transform="matrix(0.62130224,0,0,0.63181823,-27.538059,-98.463528)"
       id="g32"><g
         clip-path="url(#clipPath36)"
         id="g34"><g
           transform="translate(377.239,164.5391)"
           id="g40"><path
             d="M 0,0 C -0.187,1.611 -0.376,3.604 -0.564,5.977 -0.941,3.252 -1.178,1.26 -1.274,0 L 0,0 z m 1.961,9.149 2.115,-14.229 -3.781,0 -0.198,2.558 -1.324,0 -0.222,-2.558 -3.826,0 1.887,14.229 5.349,0 z"
             id="path42"
             style="fill:#ffffff;fill-opacity:1;fill-rule:nonzero;stroke:none" /></g><g
           transform="translate(386.4549,173.6885)"
           id="g44"><path
             d="m 0,0 0,-1.802 c -0.732,0 -1.165,-0.034 -1.296,-0.101 -0.133,-0.068 -0.198,-0.259 -0.198,-0.576 l 0,-0.369 1.494,0 0,-1.845 -0.844,0 0,-9.536 -3.551,0 0,9.536 -0.729,0 0,1.845 0.729,0 c 0,0.768 0.027,1.281 0.08,1.538 0.052,0.258 0.182,0.489 0.39,0.69 0.208,0.203 0.5,0.356 0.875,0.462 C -2.675,-0.053 -2.092,0 -1.301,0 L 0,0 z"
             id="path46"
             style="fill:#ffffff;fill-opacity:1;fill-rule:nonzero;stroke:none" /></g><g
           transform="translate(390.7722,171.1221)"
           id="g48"><path
             d="m 0,0 -0.141,-1.534 c 0.516,1.098 1.263,1.68 2.242,1.745 l 0,-4.105 C 1.45,-3.894 0.973,-3.981 0.668,-4.157 0.363,-4.333 0.176,-4.578 0.105,-4.892 0.035,-5.205 0,-5.927 0,-7.058 l 0,-4.605 -3.551,0 L -3.551,0 0,0 z"
             id="path50"
             style="fill:#ffffff;fill-opacity:1;fill-rule:nonzero;stroke:none" /></g><path
           d="m 397.41,159.459 -3.656,0 0,11.663 3.656,0 0,-11.663 z m 0,12.375 -3.656,0 0,1.854 3.656,0 0,-1.854 z"
           id="path52"
           style="fill:#ffffff;fill-opacity:1;fill-rule:nonzero;stroke:none" /><g
           transform="translate(406.6238,166.7188)"
           id="g54"><path
             d="m 0,0 -3.349,0 0,1.345 c 0,0.468 -0.038,0.786 -0.114,0.954 -0.076,0.166 -0.217,0.25 -0.422,0.25 -0.205,0 -0.343,-0.073 -0.413,-0.22 -0.07,-0.146 -0.105,-0.475 -0.105,-0.984 l 0,-5.502 c 0,-0.416 0.052,-0.729 0.158,-0.937 0.105,-0.208 0.261,-0.311 0.466,-0.311 0.24,0 0.402,0.108 0.487,0.325 0.085,0.217 0.128,0.627 0.128,1.23 l 0,1.389 3.164,0 C -0.006,-3.393 -0.04,-4.092 -0.101,-4.557 -0.163,-5.023 -0.359,-5.501 -0.69,-5.99 -1.021,-6.479 -1.453,-6.849 -1.986,-7.098 -2.52,-7.346 -3.179,-7.471 -3.964,-7.471 c -1.002,0 -1.796,0.172 -2.382,0.514 -0.586,0.344 -1.001,0.823 -1.243,1.441 -0.244,0.619 -0.365,1.496 -0.365,2.633 l 0,3.314 c 0,0.99 0.1,1.737 0.299,2.241 0.199,0.504 0.624,0.953 1.274,1.349 0.651,0.395 1.442,0.593 2.373,0.593 0.926,0 1.717,-0.196 2.373,-0.589 C -0.979,3.633 -0.542,3.138 -0.325,2.54 -0.108,1.942 0,1.096 0,0"
             id="path56"
             style="fill:#ffffff;fill-opacity:1;fill-rule:nonzero;stroke:none" /></g><g
           transform="translate(412.0662,165.0049)"
           id="g58"><path
             d="m 0,0 c -0.568,-0.416 -0.898,-0.765 -0.989,-1.046 -0.091,-0.281 -0.136,-0.685 -0.136,-1.213 0,-0.603 0.04,-0.993 0.118,-1.169 0.08,-0.176 0.236,-0.263 0.471,-0.263 0.223,0 0.367,0.068 0.435,0.206 C -0.034,-3.348 0,-2.985 0,-2.399 L 0,0 z m -1.125,1.6 -3.331,0 0,0.782 c 0,0.902 0.103,1.597 0.312,2.088 0.207,0.488 0.625,0.921 1.252,1.296 0.627,0.375 1.442,0.562 2.444,0.562 1.201,0 2.106,-0.213 2.716,-0.638 C 2.877,5.266 3.243,4.744 3.366,4.126 3.489,3.508 3.551,2.235 3.551,0.308 l 0,-5.854 -3.454,0 0,1.039 c -0.217,-0.417 -0.496,-0.729 -0.84,-0.937 -0.342,-0.208 -0.751,-0.313 -1.226,-0.313 -0.621,0 -1.19,0.175 -1.71,0.524 -0.517,0.347 -0.777,1.111 -0.777,2.289 l 0,0.958 c 0,0.873 0.138,1.467 0.413,1.784 0.275,0.316 0.958,0.685 2.048,1.107 1.166,0.457 1.79,0.765 1.872,0.923 C -0.041,1.986 0,2.309 0,2.795 0,3.404 -0.046,3.802 -0.136,3.985 -0.228,4.171 -0.378,4.263 -0.589,4.263 -0.829,4.263 -0.979,4.185 -1.037,4.03 -1.096,3.874 -1.125,3.472 -1.125,2.821 l 0,-1.221 z"
             id="path60"
             style="fill:#ffffff;fill-opacity:1;fill-rule:nonzero;stroke:none" /></g><g
           transform="translate(214.9729,184.0733)"
           id="g62"><path
             d="m 0,0 c -2.244,-1.615 -4.964,-2.568 -7.902,-2.568 -2.938,0 -5.658,0.953 -7.902,2.568 l -153.106,0 0,-5.865 384.094,0 0,5.865 L 0,0 z"
             id="path64"
             style="fill:#242628;fill-opacity:1;fill-rule:nonzero;stroke:none" /></g><g
           transform="translate(171.9285,232.9038)"
           id="g66"><path
             d="M 0,0 C 0.134,0.642 0.094,1.207 -0.117,1.695 -0.33,2.183 -0.831,2.509 -1.619,2.675 -2.352,2.828 -2.908,2.695 -3.287,2.274 -3.667,1.854 -3.905,1.409 -4.002,0.941 -4.055,0.69 -4.019,0.324 -3.896,-0.156 c 0.122,-0.48 0.43,-1.261 0.925,-2.342 0.919,0.467 1.62,0.882 2.102,1.248 C -0.388,-0.885 -0.098,-0.469 0,0 m -1.927,-13.509 c -0.681,1.222 -1.212,2.186 -1.59,2.89 -0.379,0.704 -0.858,1.64 -1.437,2.808 -1.241,-0.694 -2.17,-1.338 -2.784,-1.931 -0.615,-0.593 -0.997,-1.243 -1.144,-1.951 -0.16,-0.763 -0.055,-1.41 0.315,-1.942 0.369,-0.532 1.023,-0.896 1.964,-1.094 0.712,-0.148 1.447,-0.144 2.206,0.016 0.758,0.159 1.582,0.56 2.47,1.204 m 9.297,-8.088 c -0.897,0.188 -1.772,0.372 -2.626,0.551 -0.854,0.179 -1.707,0.358 -2.561,0.537 -0.426,0.646 -0.763,1.182 -1.01,1.61 -0.248,0.427 -0.58,0.985 -0.996,1.674 -1.331,-0.959 -2.677,-1.535 -4.036,-1.728 -1.36,-0.192 -2.669,-0.156 -3.928,0.108 -2.463,0.516 -4.205,1.475 -5.226,2.877 -1.021,1.402 -1.335,3.051 -0.939,4.946 0.349,1.676 1.102,3.01 2.258,4.002 1.154,0.991 2.846,1.929 5.076,2.814 -0.999,1.835 -1.56,3.161 -1.681,3.977 -0.121,0.814 -0.114,1.549 0.022,2.202 0.339,1.623 1.186,2.835 2.541,3.636 1.355,0.802 2.952,1.01 4.791,0.624 C 1.233,5.776 2.754,4.92 3.618,3.666 4.481,2.41 4.76,1.048 4.453,-0.422 4.178,-1.74 3.615,-2.785 2.763,-3.555 1.911,-4.326 0.492,-5.145 -1.494,-6.013 c 0.416,-0.905 0.835,-1.73 1.258,-2.471 0.422,-0.743 0.957,-1.75 1.606,-3.022 1.09,0.794 1.957,1.549 2.598,2.268 0.64,0.718 1.368,1.713 2.182,2.986 L 9.426,-9.036 C 8.732,-10.22 7.824,-11.399 6.7,-12.573 c -1.125,-1.174 -2.143,-2.057 -3.055,-2.65 1.054,-1.79 1.834,-3.121 2.337,-3.994 0.503,-0.873 0.966,-1.666 1.388,-2.38"
             id="path68"
             style="fill:#242628;fill-opacity:1;fill-rule:nonzero;stroke:none" /></g></g></g><g
       transform="matrix(0.62130224,0,0,0.63181823,-27.538059,-98.463528)"
       id="g70"><g
         clip-path="url(#clipPath74)"
         id="g72"><g
           id="g78"><g
             id="g80"><path
               d="m 205.057,211.273 -0.546,-1.789 c -0.007,-0.008 -0.006,-0.02 0.003,-0.026 l 0,0 0.86,-0.387 c 0.002,-0.002 0.007,-0.004 0.011,-0.004 l 0,0 1.947,0.002 1.028,0 0.516,0.002 -3.792,2.206 c -0.004,0.002 -0.008,0.004 -0.012,0.004 l 0,0 c -0.006,0 -0.011,-0.003 -0.015,-0.008"
               id="path88"
               style="fill:url(#linearGradient82);stroke:none" /></g></g></g></g><g
       transform="matrix(0.62130224,0,0,0.63181823,-27.538059,-98.463528)"
       id="g90"><g
         clip-path="url(#clipPath94)"
         id="g92"><g
           id="g98"><g
             id="g100"><path
               d="m 216.935,219.154 c -0.026,0 -0.052,-0.002 -0.079,-0.003 l 0,0 c -1.163,-0.034 -2.157,-0.808 -2.396,-1.884 l 0,0 -0.444,-1.987 -1.345,-6.028 2.047,0 3.004,-3.117 1.487,0 0,13.019 -2.274,0 z m -0.994,-2.259 c 0,0.495 0.401,0.895 0.896,0.895 l 0,0 c 0.495,0 0.896,-0.4 0.896,-0.895 l 0,0 c 0,-0.495 -0.401,-0.897 -0.896,-0.897 l 0,0 c -0.495,0 -0.896,0.402 -0.896,0.897"
               id="path108"
               style="fill:url(#linearGradient102);stroke:none" /></g></g></g></g><g
       transform="matrix(0.62130224,0,0,0.63181823,-27.538059,-98.463528)"
       id="g110"><g
         clip-path="url(#clipPath114)"
         id="g112"><g
           id="g118"><g
             id="g120"><path
               d="m 212.473,208.677 -1.168,0 -0.636,0 -1.24,0 -2.044,0 -2.413,0 0,-1.664 4.457,0 0.087,0 1.153,0 0.142,0 1.29,0 1.711,0 1.4,-1.454 3.004,-3.117 3.767,0 0,1.664 -3.06,0 -1.4,1.453 -3.003,3.118 -2.047,0 z"
               id="path128"
               style="fill:url(#linearGradient122);stroke:none" /></g></g></g></g><g
       transform="matrix(0.62130224,0,0,0.63181823,-27.538059,-98.463528)"
       id="g130"><g
         clip-path="url(#clipPath134)"
         id="g132"><g
           id="g138"><g
             id="g140"><path
               d="m 223.766,198.961 0,-2.047 c 0,-1.857 1.251,-3.407 2.952,-3.897 l 0,0 0,11.3 -2.952,0.807 0,-6.163 z"
               id="path148"
               style="fill:url(#linearGradient142);stroke:none" /></g></g></g></g><g
       transform="matrix(0.62130224,0,0,0.63181823,-27.538059,-98.463528)"
       id="g150"><g
         clip-path="url(#clipPath154)"
         id="g152"><g
           id="g158"><g
             id="g160"><path
               d="m 224.888,219.313 c -0.014,-0.019 -0.028,-0.037 -0.042,-0.056 l 0,0 -0.503,-0.741 0.853,-0.58 -1.43,-5.886 c 0.295,-0.458 0.771,-0.797 1.347,-0.896 l 0,0 1.605,-0.274 0,8.994 c -0.174,0.068 -0.357,0.101 -0.54,0.101 l 0,0 c -0.485,0 -0.971,-0.233 -1.29,-0.662"
               id="path168"
               style="fill:url(#linearGradient162);stroke:none" /></g></g></g></g><g
       transform="matrix(0.62130224,0,0,0.63181823,-27.538059,-98.463528)"
       id="g170"><g
         clip-path="url(#clipPath174)"
         id="g172"><g
           id="g178"><g
             id="g180"><path
               d="m 198.48,212.437 c -0.006,-0.183 -0.08,-0.365 -0.224,-0.504 l 0,0 -0.131,-0.126 5.675,-1.546 c 0.009,-0.003 0.014,-0.012 0.01,-0.021 l 0,0 -0.001,-0.005 c -0.097,-0.289 0.062,-0.587 0.351,-0.666 l 0,0 0.166,-0.046 c 0.01,-0.002 0.019,0.003 0.022,0.011 l 0,0 0.591,1.781 c 0.004,0.009 -0.002,0.019 -0.011,0.021 l 0,0 -0.166,0.046 c -0.29,0.079 -0.602,-0.092 -0.699,-0.38 l 0,0 -0.002,-0.006 c -0.002,-0.009 -0.012,-0.014 -0.021,-0.012 l 0,0 -5.559,1.516 c 0,-0.022 -0.001,-0.042 -0.001,-0.063"
               id="path188"
               style="fill:url(#linearGradient182);stroke:none" /></g></g></g></g><g
       transform="matrix(0.62130224,0,0,0.63181823,-27.538059,-98.463528)"
       id="g190"><g
         clip-path="url(#clipPath194)"
         id="g192"><g
           id="g198"><g
             id="g200"><path
               d="m 221.46,236.761 0,-2.528 0.003,0 0,-0.577 c 0,-0.555 0.45,-1.005 1.005,-1.005 l 0,0 1.725,0 -1.761,-5.574 c -0.625,-1.981 -1.041,-4.022 -1.24,-6.089 l 0,0 -0.849,-8.817 2.865,0 c -0.092,0.406 -0.063,0.54 -0.092,0.842 l 0,0 c -0.011,0.124 -0.015,0.25 -0.003,0.378 l 0,0 0.94,9.903 c 0.074,0.769 0.232,1.527 0.473,2.26 l 0,0 2.192,6.681 0,4.526 -5.258,0 z"
               id="path208"
               style="fill:url(#linearGradient202);stroke:none" /></g></g></g></g><g
       transform="matrix(0.62130224,0,0,0.63181823,-27.538059,-98.463528)"
       id="g210"><g
         clip-path="url(#clipPath214)"
         id="g212"><g
           id="g218"><g
             id="g220"><path
               d="m 220.343,211.612 -0.078,-4.871 3.501,-1 2.952,-0.843 0,5.458 -1.947,0.327 c -0.575,0.097 -1.052,0.428 -1.346,0.878 l 0,0 c -0.011,0.017 -0.024,0.033 -0.034,0.051 l 0,0 -3.048,0 z"
               id="path228"
               style="fill:url(#linearGradient222);stroke:none" /></g></g></g></g><g
       transform="matrix(0.62130224,0,0,0.63181823,-27.538059,-98.463528)"
       id="g230"><g
         clip-path="url(#clipPath234)"
         id="g232"><g
           id="g238"><g
             id="g240"><path
               d="m 206.841,196.773 c -1.096,-0.109 -1.923,-0.963 -2.005,-2.06 l 0,0 c -0.035,-0.478 0.083,-0.925 0.305,-1.302 l 0,0 c 0.39,-0.661 1.108,-1.104 1.93,-1.104 l 0,0 c 0.944,0 1.75,0.583 2.08,1.409 l 0,0 c 0.103,0.257 0.161,0.536 0.161,0.83 l 0,0 c 0,1.236 -1.003,2.239 -2.24,2.239 l 0,0 c -0.077,0 -0.154,-0.004 -0.231,-0.012"
               id="path248"
               style="fill:url(#linearGradient242);stroke:none" /></g></g></g></g><g
       transform="matrix(0.62130224,0,0,0.63181823,-27.538059,-98.463528)"
       id="g250"><g
         clip-path="url(#clipPath254)"
         id="g252"><g
           id="g258"><g
             id="g260"><path
               d="m 205.249,200.36 c -1.702,-0.495 -3.104,-1.753 -3.772,-3.395 l 0,0 c -0.552,-1.354 -0.602,-2.672 -0.314,-3.857 l 0,0 c 0.646,-2.663 3.045,-4.641 5.908,-4.641 l 0,0 c 3.181,0 5.789,2.441 6.057,5.551 l 0,0 c 0.015,0.174 0.024,0.35 0.024,0.528 l 0,0 c 0,1.368 -0.452,2.63 -1.216,3.646 l 0,0 c -0.036,0.049 -0.076,0.097 -0.115,0.145 l 0,0 c -1.114,1.393 -2.829,2.287 -4.752,2.287 l 0,0 c -0.591,0 -1.201,-0.084 -1.82,-0.264 m 1.362,-1.265 c 0.032,0.051 0.076,0.096 0.126,0.126 l 0,0 c 0.574,0.349 1.172,-0.249 0.824,-0.822 l 0,0 c -0.032,-0.051 -0.076,-0.096 -0.126,-0.126 l 0,0 c -0.118,-0.072 -0.237,-0.104 -0.349,-0.104 l 0,0 c -0.431,0 -0.751,0.472 -0.475,0.926 m -2.214,-0.839 c 0.001,0.06 0.018,0.12 0.046,0.172 l 0,0 c 0.322,0.589 1.14,0.369 1.125,-0.3 l 0,0 c -0.002,-0.061 -0.018,-0.121 -0.047,-0.173 l 0,0 c -0.128,-0.235 -0.336,-0.341 -0.538,-0.341 l 0,0 c -0.304,0 -0.595,0.24 -0.586,0.642 m 4.25,-0.316 c -0.029,0.052 -0.045,0.113 -0.047,0.173 l 0,0 c -0.015,0.669 0.803,0.889 1.125,0.301 l 0,0 c 0.029,-0.052 0.045,-0.113 0.046,-0.173 l 0,0 c 0.01,-0.402 -0.282,-0.642 -0.586,-0.642 l 0,0 c -0.202,0 -0.41,0.106 -0.538,0.341 m -4.038,-4.57 c -0.337,0.703 -0.393,1.567 0.035,2.459 l 0,0 c 0.264,0.552 0.732,0.99 1.299,1.22 l 0,0 c 1.976,0.8 3.86,-0.632 3.86,-2.503 l 0,0 c 0,-0.276 -0.042,-0.54 -0.117,-0.79 l 0,0 c -0.34,-1.122 -1.382,-1.941 -2.615,-1.941 l 0,0 c -1.087,0 -2.022,0.636 -2.462,1.555 m -1.709,3.053 c -0.029,0.052 -0.045,0.112 -0.047,0.172 l 0,0 c -0.016,0.671 0.803,0.889 1.124,0.301 l 0,0 c 0.029,-0.053 0.045,-0.113 0.046,-0.172 l 0,0 c 0.01,-0.403 -0.281,-0.643 -0.585,-0.643 l 0,0 c -0.202,0 -0.41,0.107 -0.538,0.342 m 7.234,0.276 c 0.001,0.058 0.017,0.118 0.046,0.171 l 0,0 c 0.322,0.588 1.14,0.37 1.125,-0.302 l 0,0 c -0.002,-0.058 -0.018,-0.119 -0.047,-0.172 l 0,0 c -0.128,-0.235 -0.336,-0.341 -0.538,-0.341 l 0,0 c -0.304,0 -0.595,0.24 -0.586,0.644 m -7.741,-1.79 c 0.03,0.051 0.075,0.095 0.126,0.126 l 0,0 c 0.573,0.349 1.172,-0.25 0.823,-0.823 l 0,0 c -0.031,-0.051 -0.075,-0.095 -0.126,-0.126 l 0,0 c -0.117,-0.072 -0.236,-0.103 -0.348,-0.103 l 0,0 c -0.431,0 -0.752,0.471 -0.475,0.926 m 8.533,-0.852 c -0.051,0.03 -0.096,0.075 -0.126,0.124 l 0,0 c -0.349,0.574 0.25,1.172 0.823,0.824 l 0,0 c 0.051,-0.032 0.096,-0.075 0.126,-0.126 l 0,0 c 0.277,-0.455 -0.043,-0.926 -0.474,-0.926 l 0,0 c -0.112,0 -0.231,0.032 -0.349,0.104 m -8.089,-1.534 c 0.002,0.059 0.018,0.119 0.047,0.172 l 0,0 c 0.322,0.588 1.141,0.368 1.124,-0.301 l 0,0 c -0.001,-0.06 -0.018,-0.121 -0.046,-0.173 l 0,0 c -0.128,-0.235 -0.336,-0.341 -0.539,-0.341 l 0,0 c -0.303,0 -0.595,0.239 -0.586,0.643 m 7.327,-0.328 c -0.028,0.052 -0.044,0.112 -0.046,0.172 l 0,0 c -0.015,0.671 0.803,0.89 1.125,0.302 l 0,0 c 0.028,-0.053 0.045,-0.113 0.046,-0.173 l 0,0 c 0.01,-0.402 -0.282,-0.642 -0.586,-0.642 l 0,0 c -0.202,0 -0.41,0.106 -0.539,0.341 m -5.747,-1.517 c -0.029,0.052 -0.045,0.113 -0.046,0.172 l 0,0 c -0.016,0.671 0.803,0.89 1.124,0.301 l 0,0 c 0.029,-0.052 0.045,-0.113 0.046,-0.173 l 0,0 c 0.01,-0.402 -0.281,-0.641 -0.585,-0.641 l 0,0 c -0.202,0 -0.41,0.106 -0.539,0.341 m 4.157,0.286 c 0.002,0.059 0.018,0.12 0.047,0.172 l 0,0 c 0.322,0.588 1.139,0.369 1.124,-0.301 l 0,0 c -0.001,-0.059 -0.018,-0.121 -0.046,-0.172 l 0,0 c -0.129,-0.235 -0.337,-0.341 -0.539,-0.341 l 0,0 c -0.304,0 -0.595,0.24 -0.586,0.642 m -1.993,-0.272 c 0.031,0.051 0.075,0.095 0.127,0.126 l 0,0 c 0.573,0.349 1.171,-0.249 0.822,-0.822 l 0,0 c -0.031,-0.051 -0.075,-0.096 -0.125,-0.126 l 0,0 c -0.118,-0.072 -0.237,-0.103 -0.349,-0.103 l 0,0 c -0.431,0 -0.752,0.471 -0.475,0.925"
               id="path268"
               style="fill:url(#linearGradient262);stroke:none" /></g></g></g></g><g
       transform="matrix(0.62130224,0,0,0.63181823,-27.538059,-98.463528)"
       id="g270"><g
         clip-path="url(#clipPath274)"
         id="g272"><g
           id="g278"><g
             id="g280"><path
               d="m 160.219,212.18 c 3.073,-7.376 10.75,-11.667 17.148,-9.582 l 0,0 c 5.028,1.638 7.767,6.728 7.218,12.414 l 0,0 1.132,0.163 c 0.294,0.042 0.534,0.216 0.678,0.451 l 0,0 c 0.111,0.183 0.166,0.402 0.133,0.631 l 0,0 -0.003,0.018 c -0.015,0.108 -0.052,0.208 -0.099,0.3 l 0,0 c -0.182,0.352 -0.569,0.571 -0.984,0.511 l 0,0 -1.161,-0.167 c -0.209,0.934 -0.505,1.875 -0.895,2.811 l 0,0 -23.167,-7.55 z m 24.798,3.662 c -0.136,0.281 -0.018,0.62 0.262,0.756 l 0,0 c 0.281,0.135 0.62,0.017 0.755,-0.264 l 0,0 c 0.135,-0.281 0.018,-0.618 -0.263,-0.754 l 0,0 c -0.079,-0.038 -0.163,-0.056 -0.245,-0.056 l 0,0 c -0.21,0 -0.412,0.117 -0.509,0.318"
               id="path288"
               style="fill:url(#linearGradient282);stroke:none" /></g></g></g></g><g
       transform="matrix(0.62130224,0,0,0.63181823,-27.538059,-98.463528)"
       id="g290"><g
         clip-path="url(#clipPath294)"
         id="g292"><g
           id="g298"><g
             id="g300"><path
               d="m 180.309,224.613 -0.019,-0.006 c -0.508,-0.165 -0.768,-0.661 -0.582,-1.108 l 0,0 0.43,-1.033 -19.698,-6.418 -1.933,2.653 c -0.301,0.412 -0.832,0.584 -1.318,0.426 l 0,0 -0.04,-0.013 2.643,-5.909 21.31,6.944 1.858,0.606 -1.396,3.349 c -0.145,0.348 -0.517,0.563 -0.915,0.563 l 0,0 c -0.113,0 -0.228,-0.017 -0.34,-0.054"
               id="path308"
               style="fill:url(#linearGradient302);stroke:none" /></g></g></g></g><g
       transform="matrix(0.62130224,0,0,0.63181823,-27.538059,-98.463528)"
       id="g310"><g
         clip-path="url(#clipPath314)"
         id="g312"><g
           id="g318"><g
             id="g320"><path
               d="m 197.362,220.882 -0.19,-0.599 -0.161,-0.472 -2.009,0.017 c -1.188,-0.021 -2.299,-0.595 -3.001,-1.553 l 0,0 -7.128,-9.71 c -0.673,-0.916 -0.515,-2.199 0.36,-2.924 l 0,0 0.03,-0.025 c 0.829,-0.688 2.039,-0.656 2.831,0.074 l 0,0 7.844,7.235 0.504,-0.82 c 0.214,-0.349 0.638,-0.509 1.03,-0.388 l 0,0 0.014,0.004 c 0.164,0.051 0.303,0.144 0.41,0.266 l 0,0 c 0.018,0.021 0.034,0.043 0.049,0.066 l 0,0 c 0.138,0.188 0.203,0.426 0.164,0.672 l 0,0 -0.037,0.221 -0.137,0.831 15.567,1.812 0.51,2.292 c 0.202,1.331 1.275,1.369 2.366,1.772 l 0,0 c -0.046,0.002 -0.091,0.006 -0.138,0.005 l 0,0 -17.451,0.139 0.161,0.515 0.019,0.06 c 0.14,0.439 -0.103,0.907 -0.543,1.048 l 0,0 -0.016,0.004 c -0.084,0.027 -0.169,0.04 -0.253,0.04 l 0,0 c -0.353,0 -0.682,-0.227 -0.795,-0.582 m 0.322,-0.314 c 0,0.272 0.222,0.493 0.493,0.493 l 0,0 c 0.273,0 0.494,-0.221 0.494,-0.493 l 0,0 c 0,-0.272 -0.221,-0.492 -0.494,-0.492 l 0,0 c -0.271,0 -0.493,0.22 -0.493,0.492 m -1.063,-7.98 c -0.036,0.307 0.184,0.584 0.491,0.62 l 0,0 c 0.176,0.021 0.341,-0.045 0.457,-0.16 l 0,0 c 0.015,-0.014 0.03,-0.029 0.042,-0.045 l 0,0 c 0.065,-0.079 0.109,-0.176 0.122,-0.285 l 0,0 c 0.028,-0.241 -0.103,-0.463 -0.308,-0.565 l 0,0 c -0.057,-0.027 -0.118,-0.048 -0.184,-0.056 l 0,0 c -0.004,-0.001 -0.009,-0.001 -0.013,-0.001 l 0,0 c -0.007,0.001 -0.013,0.001 -0.018,0 l 0,0 c -0.011,-0.001 -0.022,-0.001 -0.033,-0.001 l 0,0 c -0.281,0 -0.523,0.207 -0.556,0.493 m -10.135,-6.303 c -0.368,0.023 -0.678,0.305 -0.722,0.684 l 0,0 c -0.051,0.428 0.256,0.814 0.683,0.864 l 0,0 c 0.211,0.025 0.411,-0.038 0.567,-0.158 l 0,0 c 0.159,-0.123 0.271,-0.309 0.297,-0.525 l 0,0 c 0.049,-0.427 -0.257,-0.813 -0.683,-0.864 l 0,0 c -0.027,-0.003 -0.053,-0.004 -0.079,-0.004 l 0,0 c -0.021,0 -0.042,10e-4 -0.063,0.003"
               id="path328"
               style="fill:url(#linearGradient322);stroke:none" /></g></g></g></g><g
       transform="matrix(0.62130224,0,0,0.63181823,-27.538059,-98.463528)"
       id="g330"><g
         clip-path="url(#clipPath334)"
         id="g332"><g
           id="g338"><g
             id="g340"><path
               d="m 194.697,225.405 -0.023,-0.02 c -0.558,-0.493 -0.652,-1.31 -0.259,-1.918 l 0,0 -8.184,-6.261 c 0.091,-0.046 0.18,-0.104 0.256,-0.182 l 0,0 0.014,-0.013 c 0.162,-0.165 0.249,-0.373 0.271,-0.584 l 0,0 8.361,6.182 1.94,-2.243 c 0.009,-0.01 0.021,-0.017 0.03,-0.028 l 0,0 -0.019,0.071 c -0.136,0.51 0.194,1.068 0.704,1.203 l 0,0 0.019,0.006 c 0.511,0.136 1.071,-0.101 1.206,-0.611 l 0,0 0.209,-0.717 c 0.012,0.01 0.025,0.017 0.036,0.026 l 0,0 0.023,0.02 c 0.605,0.535 0.612,1.407 0.094,2.021 l 0,0 -0.939,1.067 -0.648,0.731 -0.875,0.99 -0.117,0.132 c -0.294,0.332 -0.703,0.502 -1.114,0.502 l 0,0 c -0.351,0 -0.702,-0.123 -0.985,-0.374 m 0.851,-1.388 c -0.309,0.015 -0.548,0.277 -0.533,0.585 l 0,0 c 0.014,0.31 0.276,0.548 0.585,0.534 l 0,0 c 0.127,-0.006 0.24,-0.055 0.33,-0.13 l 0,0 c 0.131,-0.108 0.211,-0.272 0.203,-0.455 l 0,0 c -0.005,-0.119 -0.047,-0.226 -0.115,-0.314 l 0,0 c -0.103,-0.135 -0.265,-0.22 -0.445,-0.22 l 0,0 c -0.008,0 -0.016,0 -0.025,0"
               id="path348"
               style="fill:url(#linearGradient342);stroke:none" /></g></g></g></g><g
       transform="matrix(0.62130224,0,0,0.63181823,-27.538059,-98.463528)"
       id="g350"><g
         clip-path="url(#clipPath354)"
         id="g352"><g
           id="g358"><g
             id="g360"><path
               d="m 221.914,205.122 -3.435,0 0.608,-0.632 3.28,0 0,-2.431 -4.314,0 -2.952,3.063 -2.259,0 -0.043,0 0,-0.341 0.001,0 c 10e-4,-0.14 0.035,-0.256 0.126,-0.308 l 0,0 c 0.175,-0.106 0.45,0.031 0.737,0.308 l 0,0 c 0.033,0.031 0.065,0.064 0.1,0.1 l 0,0 0.152,0.163 0.181,-0.127 c 0.062,-0.044 0.122,-0.091 0.181,-0.136 l 0,0 c 0.099,-0.074 0.196,-0.145 0.297,-0.224 l 0,0 0.167,-0.129 -0.078,-0.204 c -0.162,-0.314 -0.315,-0.721 -0.131,-0.874 l 0,0 c 0.027,-0.023 0.068,-0.051 0.149,-0.051 l 0,0 c 0.097,0 0.316,0.043 0.698,0.332 l 0,0 0.173,0.131 0.157,-0.15 c 0.165,-0.155 0.321,-0.31 0.475,-0.474 l 0,0 0.149,-0.157 -0.131,-0.173 c -0.215,-0.283 -0.438,-0.659 -0.283,-0.846 l 0,0 c 0.033,-0.04 0.087,-0.086 0.215,-0.086 l 0,0 c 0.113,0 0.32,0.037 0.662,0.215 l 0,0 0.189,0.098 0.153,-0.194 c 0.12,-0.156 0.239,-0.309 0.35,-0.469 l 0,0 0.128,-0.183 -0.164,-0.152 c -0.352,-0.325 -0.513,-0.653 -0.409,-0.835 l 0,0 c 0.02,-0.033 0.074,-0.126 0.323,-0.126 l 0,0 c 0.15,0 0.339,0.035 0.564,0.103 l 0,0 0.195,0.058 0.183,-0.32 c 0.082,-0.146 0.154,-0.273 0.217,-0.4 l 0,0 0.104,-0.206 -0.195,-0.124 c -0.376,-0.24 -0.593,-0.508 -0.575,-0.701 l 0,0 4.055,0 1.302,0 0,6.141 0,0.341 -1.302,0 z"
               id="path368"
               style="fill:url(#linearGradient362);stroke:none" /></g></g></g></g><g
       transform="matrix(0.62130224,0,0,0.63181823,-27.538059,-98.463528)"
       id="g370"><g
         clip-path="url(#clipPath374)"
         id="g372"><g
           id="g378"><g
             id="g380"><path
               d="m 199.351,222.389 c 0.01,-0.01 0.015,-0.022 0.024,-0.032 l 0,0 8.508,-0.69 c 0.012,-0.001 0.02,-0.011 0.019,-0.023 l 0,0 -10e-4,-0.007 c -0.039,-0.382 0.24,-0.723 0.623,-0.762 l 0,0 0.219,-0.022 c 0.012,-0.001 0.023,0.007 0.024,0.019 l 0,0 0.238,2.357 c 0.001,0.011 -0.007,0.022 -0.019,0.023 l 0,0 -0.219,0.023 c -0.384,0.038 -0.725,-0.241 -0.764,-0.622 l 0,0 0,-0.008 c -10e-4,-0.012 -0.011,-0.02 -0.024,-0.019 l 0,0 -9.543,0.798 0.915,-1.035 z"
               id="path388"
               style="fill:url(#linearGradient382);stroke:none" /></g></g></g></g><g
       transform="matrix(0.62130224,0,0,0.63181823,-27.538059,-98.463528)"
       id="g390"><g
         clip-path="url(#clipPath394)"
         id="g392"><g
           transform="translate(213.8035,194.0742)"
           id="g398"><path
             d="m 0,0 c -0.243,-3.519 -3.201,-6.276 -6.732,-6.276 -3.131,0 -5.9,2.214 -6.585,5.263 -0.11,0.49 -0.166,0.989 -0.166,1.485 0,3.72 3.028,6.747 6.751,6.747 1.85,0 3.529,-0.749 4.75,-1.959 C -1.634,4.915 -1.324,4.531 -1.057,4.118 -0.378,3.065 0.018,1.814 0.018,0.472 0.018,0.312 0.011,0.156 0,0 M 5.208,1.236 C 5.193,1.425 5.172,1.612 5.149,1.792 4.523,1.831 4.148,2.038 4.088,2.379 4.027,2.725 4.328,3.059 4.916,3.305 4.876,3.445 4.829,3.583 4.778,3.733 L 4.752,3.806 C 4.749,3.816 4.746,3.825 4.743,3.835 4.212,3.775 3.82,3.879 3.652,4.118 3.628,4.152 3.608,4.189 3.593,4.229 3.474,4.555 3.721,4.947 4.258,5.291 4.196,5.414 4.127,5.537 4.047,5.678 L 4.008,5.747 C 3.994,5.771 3.979,5.796 3.965,5.821 3.337,5.632 2.946,5.683 2.783,5.962 2.61,6.264 2.781,6.688 3.24,7.113 3.129,7.271 3.012,7.423 2.898,7.57 L 2.876,7.599 C 2.289,7.293 1.895,7.278 1.684,7.532 1.47,7.789 1.56,8.171 1.959,8.697 1.809,8.856 1.656,9.009 1.495,9.161 0.972,8.764 0.573,8.678 0.33,8.888 0.075,9.1 0.096,9.49 0.396,10.075 L 0.378,10.09 c -0.159,0.123 -0.31,0.241 -0.466,0.351 -0.431,-0.462 -0.865,-0.631 -1.153,-0.456 -0.277,0.161 -0.326,0.532 -0.154,1.126 0.006,0.018 0.009,0.035 0.015,0.054 l -0.151,0.084 c -0.139,0.08 -0.26,0.148 -0.382,0.209 -0.337,-0.532 -0.741,-0.783 -1.062,-0.664 -0.326,0.118 -0.468,0.534 -0.394,1.149 l -0.18,0.059 c -0.115,0.04 -0.232,0.079 -0.349,0.113 -0.25,-0.599 -0.603,-0.907 -0.936,-0.823 -0.326,0.055 -0.542,0.448 -0.579,1.056 -0.187,0.023 -0.372,0.044 -0.555,0.058 -0.14,-0.607 -0.416,-0.951 -0.765,-0.951 -0.342,0 -0.624,0.353 -0.764,0.951 -0.184,-0.014 -0.369,-0.035 -0.556,-0.058 -0.035,-0.618 -0.247,-1 -0.59,-1.058 -0.02,-0.006 -0.051,-0.009 -0.084,-0.009 -0.314,0 -0.617,0.302 -0.839,0.834 -0.123,-0.036 -0.247,-0.078 -0.366,-0.118 l -0.165,-0.055 c 0.074,-0.614 -0.068,-1.03 -0.394,-1.148 -0.053,-0.02 -0.112,-0.03 -0.171,-0.03 -0.292,0 -0.606,0.245 -0.891,0.693 -0.134,-0.067 -0.263,-0.14 -0.385,-0.209 l -0.147,-0.083 c 0.193,-0.63 0.146,-1.018 -0.143,-1.182 -0.275,-0.169 -0.721,-0.003 -1.148,0.458 -0.166,-0.117 -0.328,-0.242 -0.484,-0.363 l -0.003,-0.002 c 0.301,-0.586 0.323,-0.975 0.067,-1.189 -0.244,-0.207 -0.645,-0.121 -1.165,0.274 -0.163,-0.154 -0.315,-0.307 -0.465,-0.464 0.4,-0.525 0.49,-0.907 0.277,-1.165 -0.213,-0.252 -0.603,-0.236 -1.191,0.067 l -0.042,-0.054 c -0.114,-0.147 -0.223,-0.287 -0.325,-0.432 0.459,-0.423 0.63,-0.847 0.459,-1.147 -0.162,-0.286 -0.542,-0.338 -1.183,-0.145 -0.01,-0.019 -0.021,-0.038 -0.032,-0.057 l -0.051,-0.09 c -0.076,-0.135 -0.147,-0.259 -0.21,-0.383 0.545,-0.347 0.787,-0.73 0.665,-1.062 -0.114,-0.316 -0.542,-0.462 -1.149,-0.395 -0.005,-0.012 -0.009,-0.025 -0.013,-0.038 L -18.247,3.72 c -0.046,-0.134 -0.094,-0.274 -0.135,-0.415 0.589,-0.244 0.889,-0.578 0.827,-0.926 -0.059,-0.34 -0.444,-0.552 -1.06,-0.588 -0.022,-0.173 -0.044,-0.362 -0.058,-0.555 0.606,-0.138 0.951,-0.415 0.951,-0.764 0,-0.342 -0.353,-0.623 -0.951,-0.763 0.014,-0.189 0.035,-0.377 0.058,-0.557 0.499,-0.027 0.85,-0.174 0.995,-0.418 0.035,-0.06 0.056,-0.115 0.066,-0.171 0.059,-0.339 -0.248,-0.68 -0.828,-0.924 0.037,-0.126 0.079,-0.251 0.124,-0.382 l 0.009,-0.028 c 0.014,-0.039 0.027,-0.079 0.04,-0.119 0.598,0.072 1.036,-0.08 1.15,-0.392 0.122,-0.333 -0.121,-0.717 -0.666,-1.064 0.067,-0.132 0.141,-0.262 0.218,-0.396 0.025,-0.044 0.051,-0.088 0.076,-0.134 0.625,0.189 1.02,0.138 1.181,-0.142 0.176,-0.305 0.01,-0.721 -0.456,-1.152 0.107,-0.151 0.223,-0.301 0.335,-0.446 l 0.03,-0.037 c 0.586,0.303 0.98,0.319 1.19,0.066 0.213,-0.254 0.121,-0.645 -0.275,-1.165 0.154,-0.162 0.307,-0.315 0.465,-0.464 0.528,0.402 0.917,0.485 1.166,0.275 0.255,-0.214 0.233,-0.604 -0.067,-1.191 l 0.013,-0.01 c 0.166,-0.129 0.317,-0.247 0.472,-0.354 0.421,0.456 0.853,0.625 1.15,0.455 0.285,-0.165 0.332,-0.562 0.142,-1.18 l 0.013,-0.007 c 0.045,-0.024 0.089,-0.049 0.133,-0.075 0.131,-0.074 0.259,-0.147 0.386,-0.211 0.338,0.536 0.731,0.781 1.061,0.665 0.327,-0.121 0.469,-0.537 0.396,-1.149 l 0.182,-0.062 c 0.119,-0.04 0.232,-0.078 0.347,-0.11 0.223,0.532 0.526,0.834 0.84,0.834 0.032,0 0.063,-0.003 0.093,-0.01 0.335,-0.059 0.546,-0.443 0.581,-1.058 0.178,-0.023 0.366,-0.043 0.556,-0.059 0.141,0.599 0.422,0.951 0.764,0.951 0.347,0 0.623,-0.344 0.765,-0.951 0.193,0.016 0.383,0.037 0.555,0.059 0.035,0.615 0.246,0.999 0.588,1.059 0.028,0.005 0.057,0.008 0.088,0.008 0.309,0 0.618,-0.309 0.839,-0.833 0.118,0.033 0.235,0.072 0.357,0.113 l 0.172,0.059 c -0.071,0.606 0.074,1.032 0.395,1.149 0.351,0.117 0.727,-0.136 1.062,-0.666 0.119,0.061 0.237,0.128 0.36,0.199 l 0.172,0.096 c -0.19,0.617 -0.143,1.014 0.141,1.179 0.294,0.17 0.731,-10e-4 1.151,-0.455 0.157,0.11 0.31,0.229 0.459,0.346 l 0.026,0.02 c -0.3,0.588 -0.322,0.978 -0.065,1.19 0.241,0.207 0.636,0.125 1.165,-0.276 0.161,0.153 0.314,0.305 0.463,0.464 -0.399,0.525 -0.49,0.907 -0.277,1.165 0.211,0.254 0.606,0.237 1.193,-0.066 0.123,0.157 0.249,0.319 0.364,0.485 -0.459,0.424 -0.63,0.85 -0.457,1.15 0.164,0.281 0.556,0.331 1.184,0.142 0.084,0.151 0.195,0.339 0.291,0.53 -0.544,0.347 -0.786,0.73 -0.665,1.062 0.115,0.313 0.554,0.465 1.15,0.394 0.013,0.038 0.024,0.072 0.036,0.106 l 0.008,0.023 c 0.046,0.137 0.091,0.267 0.129,0.4 -0.58,0.244 -0.888,0.585 -0.828,0.925 0.061,0.343 0.445,0.554 1.061,0.588 0.025,0.202 0.045,0.381 0.059,0.557 C 4.706,-0.174 4.379,0.038 4.285,0.312 4.266,0.368 4.256,0.42 4.256,0.472 c 0,0.349 0.346,0.626 0.952,0.764"
             id="path400"
             style="fill:#5f5f5f;fill-opacity:1;fill-rule:nonzero;stroke:none" /></g></g></g><g
       transform="matrix(0.62130224,0,0,0.63181823,-27.538059,-98.463528)"
       id="g402"><g
         clip-path="url(#clipPath406)"
         id="g404"><g
           id="g410"><g
             id="g412"><path
               d="m 215.609,222.587 -6.351,0.638 -0.241,-2.4 6.645,-0.667 0,0.003 2.882,-0.302 0.349,0.071 0.188,1.788 c 0.091,0.868 -0.541,1.648 -1.412,1.738 l 0,0 -0.842,0.089 c -0.039,0.004 -0.079,0.006 -0.117,0.006 l 0,0 c -0.552,0 -1.025,-0.409 -1.101,-0.964 m 1.025,-1.411 c -0.089,0.433 0.19,0.855 0.623,0.944 l 0,0 c 0.432,0.089 0.856,-0.189 0.945,-0.622 l 0,0 c 0.089,-0.433 -0.19,-0.856 -0.623,-0.945 l 0,0 c -0.054,-0.011 -0.108,-0.016 -0.162,-0.016 l 0,0 c -0.371,0 -0.705,0.26 -0.783,0.639"
               id="path420"
               style="fill:url(#linearGradient414);stroke:none" /></g></g></g></g><g
       transform="matrix(0.62130224,0,0,0.63181823,-27.538059,-98.463528)"
       id="g422"><g
         clip-path="url(#clipPath426)"
         id="g424"><g
           transform="translate(55.4798,231.8516)"
           id="g430"><path
             d="m 0,0 0,-12.025 c 0.269,-0.019 0.5,-0.028 0.693,-0.028 0.865,0 1.465,0.277 1.801,0.832 0.335,0.553 0.503,1.707 0.503,3.458 l 0,3.881 c 0,1.615 -0.194,2.665 -0.581,3.153 C 2.027,-0.244 1.222,0 0,0 m -9.417,8.084 9.484,0 c 2.565,0 4.537,-0.263 5.916,-0.788 1.379,-0.525 2.416,-1.285 3.109,-2.277 0.694,-0.992 1.163,-2.193 1.409,-3.604 0.247,-1.411 0.37,-3.594 0.37,-6.552 l 0,-4.114 c 0,-3.016 -0.24,-5.215 -0.716,-6.596 -0.478,-1.382 -1.353,-2.442 -2.629,-3.181 -1.275,-0.74 -2.941,-1.109 -4.999,-1.109 l -2.527,0 0,-19.028 -9.417,0 0,47.249 z"
             id="path432"
             style="fill:#242628;fill-opacity:1;fill-rule:nonzero;stroke:none" /></g><g
           transform="translate(78.4734,239.9356)"
           id="g434"><path
             d="m 0,0 0,-37.794 5.726,0 0,-9.455 -15.143,0 L -9.417,0 0,0 z"
             id="path436"
             style="fill:#242628;fill-opacity:1;fill-rule:nonzero;stroke:none" /></g><g
           transform="translate(98.909,209.5542)"
           id="g438"><path
             d="M 0,0 C -0.477,5.352 -0.956,11.966 -1.435,19.846 -2.394,10.798 -2.997,4.183 -3.242,0 L 0,0 z m 4.991,30.381 5.384,-47.249 -9.624,0 -0.505,8.493 -3.368,0 -0.566,-8.493 -9.736,0 4.804,47.249 13.611,0 z"
             id="path440"
             style="fill:#242628;fill-opacity:1;fill-rule:nonzero;stroke:none" /></g><g
           transform="translate(131.9085,239.9356)"
           id="g442"><path
             d="m 0,0 0,-47.249 -8.253,0 -4.899,21.479 0,-21.479 -7.873,0 0,47.249 7.873,0 5.279,-21.275 L -7.873,0 0,0 z"
             id="path444"
             style="fill:#242628;fill-opacity:1;fill-rule:nonzero;stroke:none" /></g><g
           transform="translate(154.6565,239.9356)"
           id="g446"><path
             d="m 0,0 0,-9.456 -5.592,0 0,-37.793 -9.416,0 0,37.793 -5.57,0 0,9.456 L 0,0 z"
             id="path448"
             style="fill:#242628;fill-opacity:1;fill-rule:nonzero;stroke:none" /></g><g
           transform="translate(229.2097,239.6797)"
           id="g450"><path
             d="m 0,0 15.702,0 0,-9.456 -6.285,0 0,-8.959 5.882,0 0,-8.99 -5.882,0 0,-10.389 6.911,0 0,-9.455 L 0,-47.249 0,0 z"
             id="path452"
             style="fill:#242628;fill-opacity:1;fill-rule:nonzero;stroke:none" /></g><g
           transform="translate(260.3455,227.5386)"
           id="g454"><path
             d="m 0,0 c 0,2.199 -0.094,3.604 -0.28,4.217 -0.187,0.614 -0.571,0.919 -1.152,0.919 -0.493,0 -0.869,-0.247 -1.13,-0.744 C -2.823,3.896 -2.953,2.431 -2.953,0 l 0,-22.063 c 0,-2.744 0.086,-4.436 0.257,-5.078 0.172,-0.643 0.571,-0.963 1.197,-0.963 0.642,0 1.051,0.369 1.23,1.108 0.179,0.74 0.269,2.501 0.269,5.284 L 0,0 z m 9.438,-35.108 0,-5.721 -7.113,0 c -1.715,0 -2.922,0.173 -3.623,0.519 -0.701,0.346 -1.175,0.857 -1.42,1.536 -0.246,0.68 -0.369,1.9 -0.369,3.666 -2.134,0.077 -3.967,0.807 -5.502,2.189 -1.537,1.381 -2.551,3.137 -3.042,5.268 -0.493,2.13 -0.739,5.316 -0.739,9.557 l 0,14.621 c 0,3.21 0.146,5.657 0.437,7.34 0.289,1.683 0.891,3.269 1.8,4.757 0.909,1.488 2.08,2.612 3.512,3.371 1.432,0.759 3.019,1.138 4.764,1.138 2.103,0 3.977,-0.467 5.626,-1.401 C 5.416,10.799 6.646,9.612 7.46,8.173 8.271,6.734 8.801,5.242 9.047,3.694 9.293,2.149 9.416,-0.152 9.416,-3.205 l 0,-15.346 c 0,-4.201 -0.156,-7.051 -0.47,-8.548 -0.313,-1.497 -0.913,-2.689 -1.8,-3.574 -0.887,-0.885 -2.069,-1.561 -3.545,-2.028 0.045,-1.057 0.212,-1.722 0.503,-1.996 0.291,-0.274 0.98,-0.411 2.069,-0.411 l 3.265,0 z"
             id="path456"
             style="fill:#242628;fill-opacity:1;fill-rule:nonzero;stroke:none" /></g><g
           transform="translate(294.6785,239.6797)"
           id="g458"><path
             d="m 0,0 0,-31.578 c 0,-3.58 -0.09,-6.095 -0.269,-7.543 -0.178,-1.45 -0.708,-2.939 -1.586,-4.466 -0.88,-1.527 -2.041,-2.684 -3.479,-3.473 -1.439,-0.789 -3.136,-1.181 -5.089,-1.181 -2.162,0 -4.071,0.467 -5.726,1.4 -1.655,0.934 -2.893,2.15 -3.713,3.648 -0.82,1.498 -1.304,3.079 -1.453,4.742 -0.15,1.664 -0.224,5.161 -0.224,10.493 l 0,27.958 9.417,0 0,-35.43 c 0,-2.062 0.085,-3.38 0.257,-3.954 0.171,-0.575 0.517,-0.862 1.04,-0.862 0.596,0 0.979,0.317 1.152,0.949 0.171,0.632 0.257,2.127 0.257,4.48 L -9.416,0 0,0 z"
             id="path460"
             style="fill:#242628;fill-opacity:1;fill-rule:nonzero;stroke:none" /></g><path
           d="m 307.742,192.431 -9.417,0 0,47.249 9.417,0 0,-47.249 z"
           id="path462"
           style="fill:#242628;fill-opacity:1;fill-rule:nonzero;stroke:none" /><g
           transform="translate(320.9383,231.5957)"
           id="g464"><path
             d="m 0,0 0,-12.025 c 0.269,-0.019 0.5,-0.028 0.693,-0.028 0.866,0 1.465,0.277 1.801,0.832 0.335,0.553 0.503,1.707 0.503,3.458 l 0,3.881 c 0,1.615 -0.194,2.665 -0.581,3.152 C 2.027,-0.244 1.223,0 0,0 m -9.417,8.084 9.483,0 c 2.566,0 4.538,-0.263 5.916,-0.788 1.38,-0.525 2.417,-1.285 3.11,-2.277 0.693,-0.992 1.164,-2.193 1.409,-3.604 0.246,-1.411 0.369,-3.594 0.369,-6.552 l 0,-4.114 c 0,-3.017 -0.239,-5.215 -0.716,-6.596 -0.476,-1.382 -1.352,-2.442 -2.628,-3.181 -1.274,-0.74 -2.941,-1.109 -4.999,-1.109 l -2.527,0 0,-19.028 -9.417,0 0,47.249 z"
             id="path466"
             style="fill:#242628;fill-opacity:1;fill-rule:nonzero;stroke:none" /></g><g
           transform="translate(363.5701,239.6797)"
           id="g468"><path
             d="m 0,0 0,-47.249 -8.231,0 -0.011,31.898 -3.278,-31.898 -5.837,0 -3.456,31.168 -0.011,-31.168 -8.232,0 0,47.249 12.186,0 c 0.36,-2.84 0.733,-6.189 1.117,-10.044 L -14.415,-22.063 -12.252,0 0,0 z"
             id="path470"
             style="fill:#242628;fill-opacity:1;fill-rule:nonzero;stroke:none" /></g><g
           transform="translate(367.3504,239.6797)"
           id="g472"><path
             d="m 0,0 15.702,0 0,-9.456 -6.285,0 0,-8.959 5.882,0 0,-8.99 -5.882,0 0,-10.389 6.911,0 0,-9.455 L 0,-47.249 0,0 z"
             id="path474"
             style="fill:#242628;fill-opacity:1;fill-rule:nonzero;stroke:none" /></g><g
           transform="translate(407.4099,239.6797)"
           id="g476"><path
             d="m 0,0 0,-47.249 -8.253,0 -4.898,21.479 0,-21.479 -7.873,0 0,47.249 7.873,0 5.278,-21.275 L -7.873,0 0,0 z"
             id="path478"
             style="fill:#242628;fill-opacity:1;fill-rule:nonzero;stroke:none" /></g><g
           transform="translate(430.157,239.6797)"
           id="g480"><path
             d="m 0,0 0,-9.456 -5.592,0 0,-37.793 -9.416,0 0,37.793 -5.569,0 0,9.456 L 0,0 z"
             id="path482"
             style="fill:#242628;fill-opacity:1;fill-rule:nonzero;stroke:none" /></g></g></g><g
       transform="matrix(0.62130224,0,0,0.63181823,-27.538059,-98.463528)"
       id="g484"><g
         clip-path="url(#clipPath488)"
         id="g486"><g
           id="g492"><g
             id="g494"><path
               d="m 159.792,213.205 0.427,-1.025 23.167,7.55 -0.426,1.025 -23.168,-7.55 z"
               id="path502"
               style="fill:url(#linearGradient496);stroke:none" /></g></g></g></g></g></svg>