<?xml version="1.0" encoding="UTF-8" standalone="no"?>
<!-- Created with Inkscape (http://www.inkscape.org/) -->

<svg
   xmlns:dc="http://purl.org/dc/elements/1.1/"
   xmlns:cc="http://creativecommons.org/ns#"
   xmlns:rdf="http://www.w3.org/1999/02/22-rdf-syntax-ns#"
   xmlns:svg="http://www.w3.org/2000/svg"
   xmlns="http://www.w3.org/2000/svg"
   version="1.1"
   width="300"
   height="67"
   id="svg2"
   xml:space="preserve"><metadata
     id="metadata8"><rdf:RDF><cc:Work
         rdf:about=""><dc:format>image/svg+xml</dc:format><dc:type
           rdf:resource="http://purl.org/dc/dcmitype/StillImage" /><dc:title></dc:title></cc:Work></rdf:RDF></metadata><defs
     id="defs6"><clipPath
       id="clipPath16"><path
         d="m 0,396.85 476.22,0 L 476.22,0 0,0 0,396.85 z"
         id="path18" /></clipPath><clipPath
       id="clipPath28"><path
         d="m 211.352,209.684 -3.792,-2.206 0.515,-0.003 1.029,0.001 1.946,-0.003 c 0.004,0 0.008,0.002 0.012,0.005 l 0,0 0.859,0.386 c 0.008,0.006 0.01,0.019 0.004,0.027 l 0,0 -0.547,1.789 c -0.003,0.005 -0.009,0.008 -0.015,0.008 l 0,0 c -0.004,0 -0.008,-0.002 -0.011,-0.004"
         id="path30" /></clipPath><linearGradient
       x1="0"
       y1="0"
       x2="1"
       y2="0"
       id="linearGradient36"
       gradientUnits="userSpaceOnUse"
       gradientTransform="matrix(64.25,43.75,-43.75,64.25,189.79379,194.08836)"
       spreadMethod="pad"><stop
         id="stop38"
         style="stop-color:#84c44e;stop-opacity:1"
         offset="0" /><stop
         id="stop40"
         style="stop-color:#2c854d;stop-opacity:1"
         offset="1" /></linearGradient><clipPath
       id="clipPath48"><path
         d="m 197.225,217.561 0,-13.02 1.489,0 3.004,3.118 2.046,0 -1.345,6.027 -0.444,1.988 c -0.239,1.075 -1.233,1.85 -2.396,1.884 l 0,0 c -0.027,0 -0.053,0.003 -0.08,0.003 l 0,0 -2.274,0 z m 1.477,-2.26 c 0,0.495 0.401,0.896 0.896,0.896 l 0,0 c 0.495,0 0.897,-0.401 0.897,-0.896 l 0,0 c 0,-0.494 -0.402,-0.896 -0.897,-0.896 l 0,0 c -0.495,0 -0.896,0.402 -0.896,0.896"
         id="path50" /></clipPath><linearGradient
       x1="0"
       y1="0"
       x2="1"
       y2="0"
       id="linearGradient56"
       gradientUnits="userSpaceOnUse"
       gradientTransform="matrix(64.25,43.75,-43.75,64.25,184.56715,201.76405)"
       spreadMethod="pad"><stop
         id="stop58"
         style="stop-color:#84c44e;stop-opacity:1"
         offset="0" /><stop
         id="stop60"
         style="stop-color:#2c854d;stop-opacity:1"
         offset="1" /></linearGradient><clipPath
       id="clipPath68"><path
         d="m 209.049,207.083 -2.043,0 -1.24,0 -0.636,0 -1.168,0 -2.046,0 -3.004,-3.117 -1.401,-1.453 -3.059,0 0,-1.664 3.767,0 3.004,3.117 1.4,1.453 1.711,0 1.29,0 0.142,0 1.153,0 0.087,0 4.457,0 0,1.664 -2.414,0 z"
         id="path70" /></clipPath><linearGradient
       x1="0"
       y1="0"
       x2="1"
       y2="0"
       id="linearGradient76"
       gradientUnits="userSpaceOnUse"
       gradientTransform="matrix(64.25,43.75,-43.75,64.25,189.36867,194.71269)"
       spreadMethod="pad"><stop
         id="stop78"
         style="stop-color:#84c44e;stop-opacity:1"
         offset="0" /><stop
         id="stop80"
         style="stop-color:#2c854d;stop-opacity:1"
         offset="1" /></linearGradient><clipPath
       id="clipPath88"><path
         d="m 189.717,202.724 0,-11.301 c 1.7,0.49 2.952,2.04 2.952,3.898 l 0,0 0,2.046 -0.001,0 0,6.164 -2.951,-0.807 z"
         id="path90" /></clipPath><linearGradient
       x1="0"
       y1="0"
       x2="1"
       y2="0"
       id="linearGradient96"
       gradientUnits="userSpaceOnUse"
       gradientTransform="matrix(64.25,43.75,-43.75,64.25,188.43855,196.07864)"
       spreadMethod="pad"><stop
         id="stop98"
         style="stop-color:#84c44e;stop-opacity:1"
         offset="0" /><stop
         id="stop100"
         style="stop-color:#2c854d;stop-opacity:1"
         offset="1" /></linearGradient><clipPath
       id="clipPath108"><path
         d="m 189.717,218.281 0,-8.994 1.605,0.274 c 0.576,0.099 1.052,0.437 1.347,0.896 l 0,0 -1.43,5.886 0.853,0.58 -0.503,0.74 c -0.013,0.02 -0.028,0.037 -0.042,0.056 l 0,0 c -0.319,0.43 -0.805,0.663 -1.291,0.663 l 0,0 c -0.183,0 -0.365,-0.033 -0.539,-0.101"
         id="path110" /></clipPath><linearGradient
       x1="0"
       y1="0"
       x2="1"
       y2="0"
       id="linearGradient116"
       gradientUnits="userSpaceOnUse"
       gradientTransform="matrix(64.25,43.75,-43.75,64.25,180.84785,207.2261)"
       spreadMethod="pad"><stop
         id="stop118"
         style="stop-color:#84c44e;stop-opacity:1"
         offset="0" /><stop
         id="stop120"
         style="stop-color:#2c854d;stop-opacity:1"
         offset="1" /></linearGradient><clipPath
       id="clipPath128"><path
         d="m 212.395,209.391 c -0.008,-0.002 -0.018,0.003 -0.021,0.012 l 0,0 -0.002,0.005 c -0.096,0.289 -0.408,0.459 -0.698,0.38 l 0,0 -0.167,-0.045 c -0.009,-0.003 -0.014,-0.012 -0.011,-0.02 l 0,0 0.591,-1.782 c 0.003,-0.009 0.013,-0.014 0.021,-0.011 l 0,0 0.167,0.045 c 0.291,0.079 0.447,0.377 0.351,0.666 l 0,0 -0.001,0.005 c -0.003,0.009 0.002,0.019 0.011,0.021 l 0,0 5.674,1.546 -0.13,0.126 c -0.144,0.14 -0.219,0.322 -0.224,0.504 l 0,0 c 0,0.022 -0.002,0.042 -10e-4,0.063 l 0,0 -5.56,-1.515 z"
         id="path130" /></clipPath><linearGradient
       x1="0"
       y1="0"
       x2="1"
       y2="0"
       id="linearGradient136"
       gradientUnits="userSpaceOnUse"
       gradientTransform="matrix(64.25,43.75,-43.75,64.25,190.35722,193.26093)"
       spreadMethod="pad"><stop
         id="stop138"
         style="stop-color:#84c44e;stop-opacity:1"
         offset="0" /><stop
         id="stop140"
         style="stop-color:#2c854d;stop-opacity:1"
         offset="1" /></linearGradient><clipPath
       id="clipPath148"><path
         d="m 189.717,235.167 0,-4.526 2.193,-6.68 c 0.24,-0.733 0.398,-1.491 0.471,-2.26 l 0,0 0.941,-9.903 c 0.012,-0.129 0.009,-0.254 -0.003,-0.378 l 0,0 c -0.03,-0.303 -10e-4,-0.436 -0.093,-0.842 l 0,0 2.866,0 -0.849,8.817 c -0.199,2.067 -0.614,4.108 -1.24,6.089 l 0,0 -1.76,5.574 1.724,0 c 0.555,0 1.006,0.45 1.006,1.005 l 0,0 0,0.577 10e-4,0 0,2.527 -5.257,0 z"
         id="path150" /></clipPath><linearGradient
       x1="0"
       y1="0"
       x2="1"
       y2="0"
       id="linearGradient156"
       gradientUnits="userSpaceOnUse"
       gradientTransform="matrix(64.25,43.75,-43.75,64.25,177.388,212.30714)"
       spreadMethod="pad"><stop
         id="stop158"
         style="stop-color:#84c44e;stop-opacity:1"
         offset="0" /><stop
         id="stop160"
         style="stop-color:#2c854d;stop-opacity:1"
         offset="1" /></linearGradient><clipPath
       id="clipPath168"><path
         d="m 193.045,210.018 c -0.011,-0.017 -0.024,-0.033 -0.035,-0.05 l 0,0 c -0.295,-0.45 -0.771,-0.782 -1.347,-0.878 l 0,0 -1.946,-0.327 0,-5.458 2.952,0.843 3.5,1 -0.077,4.87 -3.047,0 z"
         id="path170" /></clipPath><linearGradient
       x1="0"
       y1="0"
       x2="1"
       y2="0"
       id="linearGradient176"
       gradientUnits="userSpaceOnUse"
       gradientTransform="matrix(64.25,43.75,-43.75,64.25,184.80571,201.41371)"
       spreadMethod="pad"><stop
         id="stop178"
         style="stop-color:#84c44e;stop-opacity:1"
         offset="0" /><stop
         id="stop180"
         style="stop-color:#2c854d;stop-opacity:1"
         offset="1" /></linearGradient><clipPath
       id="clipPath188"><path
         d="m 207.124,192.952 c 0,-0.294 0.058,-0.573 0.16,-0.83 l 0,0 c 0.331,-0.825 1.137,-1.409 2.08,-1.409 l 0,0 c 0.823,0 1.539,0.444 1.929,1.104 l 0,0 c 0.223,0.378 0.341,0.824 0.305,1.302 l 0,0 c -0.081,1.097 -0.908,1.952 -2.004,2.06 l 0,0 c -0.078,0.008 -0.155,0.012 -0.231,0.012 l 0,0 c -1.236,0 -2.239,-1.002 -2.239,-2.239"
         id="path190" /></clipPath><linearGradient
       x1="0"
       y1="0"
       x2="1"
       y2="0"
       id="linearGradient196"
       gradientUnits="userSpaceOnUse"
       gradientTransform="matrix(3.7870343,2.4061077,-2.4061077,3.7870343,207.47418,191.75214)"
       spreadMethod="pad"><stop
         id="stop198"
         style="stop-color:#84c44e;stop-opacity:1"
         offset="0" /><stop
         id="stop200"
         style="stop-color:#2c854d;stop-opacity:1"
         offset="1" /></linearGradient><clipPath
       id="clipPath208"><path
         d="m 204.614,196.744 c -0.039,-0.049 -0.077,-0.097 -0.115,-0.145 l 0,0 c -0.763,-1.017 -1.216,-2.279 -1.216,-3.647 l 0,0 c 0,-0.177 0.009,-0.353 0.024,-0.528 l 0,0 c 0.268,-3.11 2.877,-5.55 6.057,-5.55 l 0,0 c 2.863,0 5.263,1.978 5.909,4.641 l 0,0 c 0.288,1.185 0.237,2.502 -0.313,3.856 l 0,0 c -0.669,1.643 -2.071,2.9 -3.775,3.395 l 0,0 c -0.619,0.18 -1.23,0.264 -1.82,0.264 l 0,0 c -1.923,0 -3.637,-0.893 -4.751,-2.286 m 4.387,-0.064 c -0.051,0.03 -0.096,0.075 -0.126,0.126 l 0,0 c -0.35,0.572 0.25,1.171 0.823,0.822 l 0,0 c 0.051,-0.031 0.095,-0.075 0.126,-0.126 l 0,0 c 0.277,-0.454 -0.044,-0.925 -0.475,-0.926 l 0,0 c -0.112,0 -0.231,0.032 -0.348,0.104 m 1.913,-0.319 c -0.029,0.053 -0.045,0.114 -0.047,0.173 l 0,0 c -0.015,0.67 0.803,0.889 1.125,0.301 l 0,0 c 0.029,-0.052 0.045,-0.113 0.046,-0.172 l 0,0 c 0.01,-0.403 -0.282,-0.643 -0.586,-0.643 l 0,0 c -0.202,0 -0.41,0.106 -0.538,0.341 m -4.25,0.286 c 0.001,0.06 0.018,0.121 0.046,0.173 l 0,0 c 0.322,0.588 1.14,0.369 1.124,-0.301 l 0,0 c -0.001,-0.06 -0.017,-0.12 -0.046,-0.172 l 0,0 c -0.128,-0.235 -0.336,-0.341 -0.538,-0.341 l 0,0 c -0.304,0 -0.595,0.239 -0.586,0.641 m 0.086,-4.484 c -0.076,0.25 -0.117,0.514 -0.117,0.789 l 0,0 c 0,1.871 1.883,3.303 3.86,2.504 l 0,0 c 0.566,-0.23 1.035,-0.669 1.299,-1.221 l 0,0 c 0.426,-0.892 0.371,-1.755 0.035,-2.458 l 0,0 c -0.44,-0.919 -1.376,-1.554 -2.463,-1.554 l 0,0 c -1.234,0 -2.275,0.817 -2.614,1.94 m 5.662,2.968 c 0.001,0.058 0.018,0.119 0.046,0.172 l 0,0 c 0.322,0.587 1.14,0.369 1.125,-0.301 l 0,0 c -0.002,-0.059 -0.018,-0.12 -0.046,-0.173 l 0,0 c -0.129,-0.234 -0.337,-0.341 -0.539,-0.341 l 0,0 c -0.304,0 -0.595,0.24 -0.586,0.643 m -7.235,-0.327 c -0.028,0.051 -0.045,0.112 -0.046,0.172 l 0,0 c -0.016,0.67 0.803,0.889 1.125,0.301 l 0,0 c 0.028,-0.053 0.044,-0.113 0.046,-0.172 l 0,0 c 0.009,-0.403 -0.282,-0.643 -0.586,-0.643 l 0,0 c -0.203,0 -0.411,0.106 -0.539,0.342 m 8.043,-2.311 c -0.051,0.03 -0.096,0.075 -0.127,0.126 l 0,0 c -0.348,0.572 0.25,1.171 0.824,0.822 l 0,0 c 0.05,-0.03 0.095,-0.075 0.125,-0.126 l 0,0 c 0.277,-0.454 -0.044,-0.925 -0.474,-0.925 l 0,0 c -0.112,0 -0.23,0.031 -0.348,0.103 m -8.534,0.792 c 0.031,0.051 0.076,0.096 0.126,0.126 l 0,0 c 0.573,0.349 1.172,-0.249 0.823,-0.822 l 0,0 c -0.031,-0.051 -0.075,-0.096 -0.126,-0.126 l 0,0 c -0.118,-0.072 -0.238,-0.103 -0.349,-0.103 l 0,0 c -0.431,-0.001 -0.751,0.47 -0.474,0.925 m 7.787,-2.657 c -0.028,0.051 -0.045,0.113 -0.046,0.172 l 0,0 c -0.015,0.67 0.802,0.889 1.124,0.302 l 0,0 c 0.029,-0.053 0.045,-0.114 0.046,-0.173 l 0,0 c 0.01,-0.402 -0.281,-0.642 -0.585,-0.642 l 0,0 c -0.202,0 -0.41,0.106 -0.539,0.341 m -7.327,0.276 c 0.001,0.058 0.018,0.119 0.046,0.171 l 0,0 c 0.322,0.588 1.14,0.369 1.125,-0.301 l 0,0 c -0.002,-0.06 -0.018,-0.12 -0.047,-0.172 l 0,0 c -0.128,-0.235 -0.336,-0.342 -0.538,-0.342 l 0,0 c -0.304,0 -0.595,0.24 -0.586,0.644 m 5.747,-1.518 c 0.002,0.059 0.018,0.12 0.046,0.172 l 0,0 c 0.323,0.589 1.141,0.369 1.125,-0.301 l 0,0 c -0.002,-0.06 -0.018,-0.12 -0.046,-0.172 l 0,0 c -0.128,-0.236 -0.336,-0.342 -0.539,-0.342 l 0,0 c -0.304,0 -0.595,0.24 -0.586,0.643 m -4.157,-0.317 c -0.028,0.053 -0.045,0.114 -0.046,0.172 l 0,0 c -0.016,0.671 0.802,0.89 1.124,0.302 l 0,0 c 0.029,-0.053 0.045,-0.114 0.046,-0.173 l 0,0 c 0.01,-0.402 -0.281,-0.642 -0.585,-0.642 l 0,0 c -0.202,0 -0.41,0.106 -0.539,0.341 m 2.295,-0.793 c -0.051,0.032 -0.095,0.076 -0.127,0.126 l 0,0 c -0.348,0.573 0.251,1.171 0.824,0.824 l 0,0 c 0.05,-0.032 0.095,-0.077 0.126,-0.127 l 0,0 c 0.277,-0.455 -0.044,-0.926 -0.475,-0.926 l 0,0 c -0.111,0 -0.23,0.032 -0.348,0.103"
         id="path210" /></clipPath><linearGradient
       x1="0"
       y1="0"
       x2="1"
       y2="0"
       id="linearGradient216"
       gradientUnits="userSpaceOnUse"
       gradientTransform="matrix(10.290573,6.538157,-6.538157,10.290573,204.23271,189.69119)"
       spreadMethod="pad"><stop
         id="stop218"
         style="stop-color:#84c44e;stop-opacity:1"
         offset="0" /><stop
         id="stop220"
         style="stop-color:#2c854d;stop-opacity:1"
         offset="1" /></linearGradient><clipPath
       id="clipPath228"><path
         d="m 232.155,215.326 -1.162,0.166 c -0.415,0.061 -0.802,-0.158 -0.984,-0.511 l 0,0 c -0.046,-0.092 -0.083,-0.191 -0.099,-0.299 l 0,0 -0.002,-0.019 c -0.034,-0.228 0.021,-0.448 0.133,-0.63 l 0,0 c 0.143,-0.235 0.383,-0.41 0.677,-0.452 l 0,0 1.133,-0.162 c -0.55,-5.686 2.189,-10.776 7.217,-12.415 l 0,0 c 6.398,-2.084 14.075,2.206 17.148,9.583 l 0,0 -23.167,7.55 c -0.39,-0.936 -0.686,-1.878 -0.894,-2.811 m -1.49,-1.339 c -0.281,0.136 -0.399,0.473 -0.263,0.754 l 0,0 c 0.136,0.281 0.473,0.399 0.754,0.263 l 0,0 c 0.281,-0.136 0.399,-0.474 0.263,-0.755 l 0,0 c -0.097,-0.201 -0.299,-0.319 -0.509,-0.319 l 0,0 c -0.082,0 -0.166,0.018 -0.245,0.057"
         id="path230" /></clipPath><linearGradient
       x1="0"
       y1="0"
       x2="1"
       y2="0"
       id="linearGradient236"
       gradientUnits="userSpaceOnUse"
       gradientTransform="matrix(64.25,43.75,-43.75,64.25,198.53046,181.25795)"
       spreadMethod="pad"><stop
         id="stop238"
         style="stop-color:#84c44e;stop-opacity:1"
         offset="0" /><stop
         id="stop240"
         style="stop-color:#2c854d;stop-opacity:1"
         offset="1" /></linearGradient><clipPath
       id="clipPath248"><path
         d="m 234.871,222.511 -1.395,-3.35 1.856,-0.605 21.31,-6.944 2.645,5.908 -0.041,0.014 c -0.485,0.158 -1.018,-0.015 -1.319,-0.427 l 0,0 -1.933,-2.653 -19.697,6.42 0.43,1.032 c 0.186,0.446 -0.074,0.943 -0.581,1.108 l 0,0 -0.019,0.006 c -0.113,0.036 -0.227,0.054 -0.34,0.054 l 0,0 c -0.398,0 -0.771,-0.215 -0.916,-0.563"
         id="path250" /></clipPath><linearGradient
       x1="0"
       y1="0"
       x2="1"
       y2="0"
       id="linearGradient256"
       gradientUnits="userSpaceOnUse"
       gradientTransform="matrix(64.25,43.75,-43.75,64.25,196.79591,183.80525)"
       spreadMethod="pad"><stop
         id="stop258"
         style="stop-color:#84c44e;stop-opacity:1"
         offset="0" /><stop
         id="stop260"
         style="stop-color:#2c854d;stop-opacity:1"
         offset="1" /></linearGradient><clipPath
       id="clipPath268"><path
         d="m 218.025,219.831 -0.016,-0.005 c -0.439,-0.14 -0.682,-0.609 -0.543,-1.047 l 0,0 0.02,-0.061 0.16,-0.514 -17.451,-0.139 c -0.047,0 -0.092,-0.003 -0.138,-0.006 l 0,0 c 1.092,-0.403 2.165,-0.44 2.366,-1.771 l 0,0 0.511,-2.293 15.566,-1.811 -0.137,-0.831 -0.037,-0.221 c -0.04,-0.246 0.027,-0.484 0.164,-0.673 l 0,0 c 0.017,-0.022 0.031,-0.045 0.049,-0.065 l 0,0 c 0.106,-0.122 0.246,-0.216 0.41,-0.266 l 0,0 0.015,-0.005 c 0.391,-0.12 0.814,0.04 1.029,0.389 l 0,0 0.504,0.819 7.845,-7.234 c 0.791,-0.731 2.001,-0.762 2.83,-0.074 l 0,0 0.031,0.024 c 0.875,0.726 1.032,2.008 0.359,2.925 l 0,0 -7.127,9.71 c -0.704,0.958 -1.814,1.532 -3.002,1.552 l 0,0 -2.009,-0.016 -0.161,0.471 -0.19,0.6 c -0.113,0.355 -0.442,0.581 -0.796,0.581 l 0,0 c -0.083,0 -0.168,-0.012 -0.252,-0.039 m -0.26,-0.856 c 0,0.272 0.22,0.493 0.492,0.493 l 0,0 c 0.273,0 0.493,-0.221 0.493,-0.493 l 0,0 c 0,-0.272 -0.22,-0.493 -0.493,-0.493 l 0,0 c -0.272,0 -0.492,0.221 -0.492,0.493 m 1.46,-8.472 c -0.01,0.001 -0.021,0 -0.032,0.001 l 0,0 c -0.065,0.007 -0.126,0.028 -0.182,0.055 l 0,0 c -0.206,0.102 -0.336,0.324 -0.308,0.565 l 0,0 c 0.012,0.109 0.056,0.206 0.121,0.286 l 0,0 c 0.013,0.016 0.028,0.031 0.043,0.045 l 0,0 c 0.117,0.115 0.28,0.18 0.456,0.16 l 0,0 c 0.308,-0.036 0.527,-0.314 0.491,-0.62 l 0,0 c -0.033,-0.286 -0.276,-0.493 -0.556,-0.493 l 0,0 c -0.011,0 -0.022,0 -0.033,10e-4 m 10.583,-5.81 c -0.428,0.05 -0.734,0.437 -0.683,0.863 l 0,0 c 0.025,0.217 0.137,0.402 0.297,0.526 l 0,0 c 0.154,0.12 0.355,0.182 0.566,0.158 l 0,0 c 0.427,-0.05 0.733,-0.436 0.684,-0.864 l 0,0 c -0.045,-0.379 -0.355,-0.661 -0.724,-0.685 l 0,0 c -0.019,-0.002 -0.038,-0.002 -0.057,-0.002 l 0,0 c -0.028,0 -0.055,0.001 -0.083,0.004"
         id="path270" /></clipPath><linearGradient
       x1="0"
       y1="0"
       x2="1"
       y2="0"
       id="linearGradient276"
       gradientUnits="userSpaceOnUse"
       gradientTransform="matrix(64.25,43.75,-43.75,64.25,190.08942,193.65422)"
       spreadMethod="pad"><stop
         id="stop278"
         style="stop-color:#84c44e;stop-opacity:1"
         offset="0" /><stop
         id="stop280"
         style="stop-color:#2c854d;stop-opacity:1"
         offset="1" /></linearGradient><clipPath
       id="clipPath288"><path
         d="m 219.64,223.683 -0.117,-0.132 -0.876,-0.989 -0.646,-0.731 -0.941,-1.068 c -0.517,-0.614 -0.511,-1.485 0.094,-2.02 l 0,0 0.022,-0.02 c 0.012,-0.009 0.025,-0.016 0.036,-0.026 l 0,0 0.21,0.717 c 0.137,0.509 0.696,0.747 1.206,0.611 l 0,0 0.019,-0.006 c 0.51,-0.136 0.841,-0.693 0.705,-1.204 l 0,0 -0.019,-0.07 c 0.009,0.011 0.02,0.017 0.029,0.028 l 0,0 1.941,2.242 8.361,-6.182 c 0.021,0.211 0.109,0.419 0.271,0.584 l 0,0 0.013,0.013 c 0.078,0.079 0.165,0.136 0.257,0.183 l 0,0 -8.185,6.261 c 0.393,0.607 0.3,1.424 -0.259,1.918 l 0,0 -0.023,0.02 c -0.282,0.25 -0.634,0.373 -0.984,0.373 l 0,0 c -0.411,0 -0.821,-0.17 -1.114,-0.502 m 0.777,-1.039 c -0.067,0.087 -0.11,0.195 -0.116,0.314 l 0,0 c -0.008,0.182 0.073,0.346 0.204,0.454 l 0,0 c 0.09,0.076 0.204,0.125 0.33,0.131 l 0,0 c 0.309,0.014 0.571,-0.224 0.586,-0.534 l 0,0 c 0.014,-0.308 -0.225,-0.57 -0.534,-0.585 l 0,0 c -0.009,0 -0.018,0 -0.027,0 l 0,0 c -0.18,0 -0.341,0.086 -0.443,0.22"
         id="path290" /></clipPath><linearGradient
       x1="0"
       y1="0"
       x2="1"
       y2="0"
       id="linearGradient296"
       gradientUnits="userSpaceOnUse"
       gradientTransform="matrix(64.25,43.75,-43.75,64.25,189.11378,195.08701)"
       spreadMethod="pad"><stop
         id="stop298"
         style="stop-color:#84c44e;stop-opacity:1"
         offset="0" /><stop
         id="stop300"
         style="stop-color:#2c854d;stop-opacity:1"
         offset="1" /></linearGradient><clipPath
       id="clipPath308"><path
         d="m 203.593,203.529 -2.258,0 -2.953,-3.064 -4.314,0 0,2.432 3.28,0 0.609,0.632 -3.436,0 -1.302,0 0,-0.342 0,-6.141 1.302,0 4.055,0 c 0.017,0.194 -0.199,0.462 -0.575,0.702 l 0,0 -0.194,0.123 0.103,0.207 c 0.064,0.126 0.135,0.254 0.218,0.4 l 0,0 0.182,0.319 0.195,-0.058 c 0.225,-0.068 0.414,-0.102 0.564,-0.102 l 0,0 c 0.249,0 0.303,0.093 0.323,0.125 l 0,0 c 0.105,0.182 -0.055,0.51 -0.409,0.836 l 0,0 -0.164,0.152 0.128,0.182 c 0.112,0.16 0.23,0.313 0.351,0.469 l 0,0 0.153,0.195 0.189,-0.098 c 0.342,-0.178 0.548,-0.215 0.661,-0.215 l 0,0 c 0.128,0 0.182,0.045 0.215,0.086 l 0,0 c 0.156,0.187 -0.068,0.563 -0.282,0.846 l 0,0 -0.132,0.173 0.149,0.157 c 0.155,0.164 0.31,0.319 0.475,0.474 l 0,0 0.158,0.15 0.172,-0.132 c 0.381,-0.288 0.602,-0.332 0.699,-0.332 l 0,0 c 0.08,0 0.121,0.028 0.148,0.052 l 0,0 c 0.184,0.153 0.03,0.56 -0.13,0.874 l 0,0 -0.078,0.203 0.167,0.13 c 0.1,0.079 0.198,0.15 0.295,0.223 l 0,0 c 0.06,0.045 0.121,0.093 0.182,0.137 l 0,0 0.182,0.127 0.152,-0.163 c 0.033,-0.036 0.066,-0.069 0.101,-0.101 l 0,0 c 0.285,-0.277 0.56,-0.413 0.736,-0.307 l 0,0 c 0.091,0.052 0.124,0.167 0.125,0.307 l 0,0 0.001,0 0,0.342 -0.043,0 z"
         id="path310" /></clipPath><linearGradient
       x1="0"
       y1="0"
       x2="1"
       y2="0"
       id="linearGradient316"
       gradientUnits="userSpaceOnUse"
       gradientTransform="matrix(64.25,43.75,-43.75,64.25,188.84349,195.48395)"
       spreadMethod="pad"><stop
         id="stop318"
         style="stop-color:#84c44e;stop-opacity:1"
         offset="0" /><stop
         id="stop320"
         style="stop-color:#2c854d;stop-opacity:1"
         offset="1" /></linearGradient><clipPath
       id="clipPath328"><path
         d="m 208.456,221.032 c -0.011,-0.001 -0.022,0.008 -0.023,0.02 l 0,0 -0.002,0.007 c -0.038,0.381 -0.38,0.66 -0.761,0.622 l 0,0 -0.221,-0.023 c -0.012,-10e-4 -0.02,-0.011 -0.019,-0.023 l 0,0 0.238,-2.356 c 0.002,-0.012 0.012,-0.021 0.024,-0.02 l 0,0 0.22,0.022 c 0.381,0.039 0.66,0.38 0.622,0.763 l 0,0 0,0.007 c -0.002,0.012 0.007,0.022 0.018,0.023 l 0,0 8.508,0.689 c 0.008,0.011 0.015,0.022 0.024,0.033 l 0,0 0.917,1.035 -9.545,-0.799 z"
         id="path330" /></clipPath><linearGradient
       x1="0"
       y1="0"
       x2="1"
       y2="0"
       id="linearGradient336"
       gradientUnits="userSpaceOnUse"
       gradientTransform="matrix(64.25,43.75,-43.75,64.25,184.29028,202.17067)"
       spreadMethod="pad"><stop
         id="stop338"
         style="stop-color:#84c44e;stop-opacity:1"
         offset="0" /><stop
         id="stop340"
         style="stop-color:#2c854d;stop-opacity:1"
         offset="1" /></linearGradient><clipPath
       id="clipPath348"><path
         d="m 0,396.85 476.22,0 L 476.22,0 0,0 0,396.85 z"
         id="path350" /></clipPath><clipPath
       id="clipPath360"><path
         d="m 199.607,221.952 -0.842,-0.089 c -0.869,-0.091 -1.501,-0.87 -1.409,-1.739 l 0,0 0.186,-1.787 0.349,-0.072 2.882,0.303 0,-0.004 6.646,0.668 -0.242,2.4 -6.35,-0.638 c -0.077,0.554 -0.55,0.964 -1.102,0.964 l 0,0 c -0.039,0 -0.078,-0.002 -0.118,-0.006 m -0.751,-2.992 c -0.433,0.089 -0.712,0.511 -0.623,0.944 l 0,0 c 0.089,0.433 0.512,0.712 0.945,0.623 l 0,0 c 0.433,-0.089 0.712,-0.512 0.623,-0.945 l 0,0 c -0.078,-0.378 -0.411,-0.639 -0.783,-0.639 l 0,0 c -0.053,0 -0.108,0.006 -0.162,0.017"
         id="path362" /></clipPath><linearGradient
       x1="0"
       y1="0"
       x2="1"
       y2="0"
       id="linearGradient368"
       gradientUnits="userSpaceOnUse"
       gradientTransform="matrix(64.25,43.75,-43.75,64.25,181.64368,206.05739)"
       spreadMethod="pad"><stop
         id="stop370"
         style="stop-color:#84c44e;stop-opacity:1"
         offset="0" /><stop
         id="stop372"
         style="stop-color:#2c854d;stop-opacity:1"
         offset="1" /></linearGradient><clipPath
       id="clipPath380"><path
         d="m 233.049,218.137 23.167,-7.55 0.426,1.025 -23.166,7.549 -0.427,-1.024 z"
         id="path382" /></clipPath><linearGradient
       x1="0"
       y1="0"
       x2="1"
       y2="0"
       id="linearGradient388"
       gradientUnits="userSpaceOnUse"
       gradientTransform="matrix(18.736612,6.8195696,-6.8195696,18.736612,235.47762,211.46454)"
       spreadMethod="pad"><stop
         id="stop390"
         style="stop-color:#84c44e;stop-opacity:1"
         offset="0" /><stop
         id="stop392"
         style="stop-color:#2c854d;stop-opacity:1"
         offset="1" /></linearGradient><clipPath
       id="clipPath400"><path
         d="m 44.248,154.796 72.062,0 0,24.576 -72.062,0 0,-24.576 z"
         id="path402" /></clipPath><linearGradient
       x1="0"
       y1="0"
       x2="1"
       y2="0"
       id="linearGradient408"
       gradientUnits="userSpaceOnUse"
       gradientTransform="matrix(72.062363,0,0,-72.062363,44.247131,167.08379)"
       spreadMethod="pad"><stop
         id="stop410"
         style="stop-color:#85c44d;stop-opacity:1"
         offset="0" /><stop
         id="stop412"
         style="stop-color:#2b854c;stop-opacity:1"
         offset="1" /></linearGradient><clipPath
       id="clipPath420"><path
         d="m 0,396.85 476.22,0 L 476.22,0 0,0 0,396.85 z"
         id="path422" /></clipPath></defs><g
     transform="matrix(1.25,0,0,-1.25,0,67)"
     id="g10"><g
       transform="matrix(0.61760085,0,0,0.61849153,-26.410231,-95.426734)"
       id="g12"><g
         clip-path="url(#clipPath16)"
         id="g14"><g
           transform="translate(256.1414,232.1519)"
           id="g20"><path
             d="M 0,0 C -0.377,0.946 -0.821,1.729 -1.415,2.352 L -2.763,2.697 C -2.979,2.373 -3.128,2.211 -3.202,2.13 c -0.543,-1.22 -0.53,-2.653 0.007,-4.421 0.583,-1.808 1.373,-3.21 2.499,-4.248 l 0.45,-0.416 C 0.899,-4.719 0.966,-2.387 0,0 m -11.406,-19.329 -7.397,14.302 c 0.781,-0.87 1.6,-1.7 2.5,-2.53 3.918,-3.613 7.352,-5.133 10.335,-4.519 1.294,0.229 2.168,0.544 2.668,0.906 0.015,0.287 -0.316,0.741 -0.992,1.364 -0.585,0.54 -1.434,1.247 -2.635,2.204 -1.237,0.918 -2.13,1.666 -2.671,2.165 -1.305,1.204 -2.057,2.196 -2.307,3.1 -0.303,1.027 0.082,2.168 1.118,3.382 3.742,4.329 7.117,6.453 9.999,6.414 C 0.611,7.44 1.765,6.975 2.711,6.103 4.422,4.524 5.448,1.932 5.663,-1.631 c 0.235,-3.36 -0.479,-6.665 -2.017,-9.96 -0.617,-1.301 -1.406,-2.518 -2.413,-3.61 -0.968,-1.051 -2.118,-1.936 -3.44,-2.737 -2.531,-1.48 -5.612,-1.93 -9.199,-1.391"
             id="path22"
             style="fill:#242628;fill-opacity:1;fill-rule:nonzero;stroke:none" /></g></g></g><g
       transform="matrix(0.61760085,0,0,0.61849153,-26.410231,-95.426734)"
       id="g24"><g
         clip-path="url(#clipPath28)"
         id="g26"><g
           id="g32"><g
             id="g34"><path
               d="m 211.352,209.684 -3.792,-2.206 0.515,-0.003 1.029,0.001 1.946,-0.003 c 0.004,0 0.008,0.002 0.012,0.005 l 0,0 0.859,0.386 c 0.008,0.006 0.01,0.019 0.004,0.027 l 0,0 -0.547,1.789 c -0.003,0.005 -0.009,0.008 -0.015,0.008 l 0,0 c -0.004,0 -0.008,-0.002 -0.011,-0.004"
               id="path42"
               style="fill:url(#linearGradient36);stroke:none" /></g></g></g></g><g
       transform="matrix(0.61760085,0,0,0.61849153,-26.410231,-95.426734)"
       id="g44"><g
         clip-path="url(#clipPath48)"
         id="g46"><g
           id="g52"><g
             id="g54"><path
               d="m 197.225,217.561 0,-13.02 1.489,0 3.004,3.118 2.046,0 -1.345,6.027 -0.444,1.988 c -0.239,1.075 -1.233,1.85 -2.396,1.884 l 0,0 c -0.027,0 -0.053,0.003 -0.08,0.003 l 0,0 -2.274,0 z m 1.477,-2.26 c 0,0.495 0.401,0.896 0.896,0.896 l 0,0 c 0.495,0 0.897,-0.401 0.897,-0.896 l 0,0 c 0,-0.494 -0.402,-0.896 -0.897,-0.896 l 0,0 c -0.495,0 -0.896,0.402 -0.896,0.896"
               id="path62"
               style="fill:url(#linearGradient56);stroke:none" /></g></g></g></g><g
       transform="matrix(0.61760085,0,0,0.61849153,-26.410231,-95.426734)"
       id="g64"><g
         clip-path="url(#clipPath68)"
         id="g66"><g
           id="g72"><g
             id="g74"><path
               d="m 209.049,207.083 -2.043,0 -1.24,0 -0.636,0 -1.168,0 -2.046,0 -3.004,-3.117 -1.401,-1.453 -3.059,0 0,-1.664 3.767,0 3.004,3.117 1.4,1.453 1.711,0 1.29,0 0.142,0 1.153,0 0.087,0 4.457,0 0,1.664 -2.414,0 z"
               id="path82"
               style="fill:url(#linearGradient76);stroke:none" /></g></g></g></g><g
       transform="matrix(0.61760085,0,0,0.61849153,-26.410231,-95.426734)"
       id="g84"><g
         clip-path="url(#clipPath88)"
         id="g86"><g
           id="g92"><g
             id="g94"><path
               d="m 189.717,202.724 0,-11.301 c 1.7,0.49 2.952,2.04 2.952,3.898 l 0,0 0,2.046 -0.001,0 0,6.164 -2.951,-0.807 z"
               id="path102"
               style="fill:url(#linearGradient96);stroke:none" /></g></g></g></g><g
       transform="matrix(0.61760085,0,0,0.61849153,-26.410231,-95.426734)"
       id="g104"><g
         clip-path="url(#clipPath108)"
         id="g106"><g
           id="g112"><g
             id="g114"><path
               d="m 189.717,218.281 0,-8.994 1.605,0.274 c 0.576,0.099 1.052,0.437 1.347,0.896 l 0,0 -1.43,5.886 0.853,0.58 -0.503,0.74 c -0.013,0.02 -0.028,0.037 -0.042,0.056 l 0,0 c -0.319,0.43 -0.805,0.663 -1.291,0.663 l 0,0 c -0.183,0 -0.365,-0.033 -0.539,-0.101"
               id="path122"
               style="fill:url(#linearGradient116);stroke:none" /></g></g></g></g><g
       transform="matrix(0.61760085,0,0,0.61849153,-26.410231,-95.426734)"
       id="g124"><g
         clip-path="url(#clipPath128)"
         id="g126"><g
           id="g132"><g
             id="g134"><path
               d="m 212.395,209.391 c -0.008,-0.002 -0.018,0.003 -0.021,0.012 l 0,0 -0.002,0.005 c -0.096,0.289 -0.408,0.459 -0.698,0.38 l 0,0 -0.167,-0.045 c -0.009,-0.003 -0.014,-0.012 -0.011,-0.02 l 0,0 0.591,-1.782 c 0.003,-0.009 0.013,-0.014 0.021,-0.011 l 0,0 0.167,0.045 c 0.291,0.079 0.447,0.377 0.351,0.666 l 0,0 -0.001,0.005 c -0.003,0.009 0.002,0.019 0.011,0.021 l 0,0 5.674,1.546 -0.13,0.126 c -0.144,0.14 -0.219,0.322 -0.224,0.504 l 0,0 c 0,0.022 -0.002,0.042 -10e-4,0.063 l 0,0 -5.56,-1.515 z"
               id="path142"
               style="fill:url(#linearGradient136);stroke:none" /></g></g></g></g><g
       transform="matrix(0.61760085,0,0,0.61849153,-26.410231,-95.426734)"
       id="g144"><g
         clip-path="url(#clipPath148)"
         id="g146"><g
           id="g152"><g
             id="g154"><path
               d="m 189.717,235.167 0,-4.526 2.193,-6.68 c 0.24,-0.733 0.398,-1.491 0.471,-2.26 l 0,0 0.941,-9.903 c 0.012,-0.129 0.009,-0.254 -0.003,-0.378 l 0,0 c -0.03,-0.303 -10e-4,-0.436 -0.093,-0.842 l 0,0 2.866,0 -0.849,8.817 c -0.199,2.067 -0.614,4.108 -1.24,6.089 l 0,0 -1.76,5.574 1.724,0 c 0.555,0 1.006,0.45 1.006,1.005 l 0,0 0,0.577 10e-4,0 0,2.527 -5.257,0 z"
               id="path162"
               style="fill:url(#linearGradient156);stroke:none" /></g></g></g></g><g
       transform="matrix(0.61760085,0,0,0.61849153,-26.410231,-95.426734)"
       id="g164"><g
         clip-path="url(#clipPath168)"
         id="g166"><g
           id="g172"><g
             id="g174"><path
               d="m 193.045,210.018 c -0.011,-0.017 -0.024,-0.033 -0.035,-0.05 l 0,0 c -0.295,-0.45 -0.771,-0.782 -1.347,-0.878 l 0,0 -1.946,-0.327 0,-5.458 2.952,0.843 3.5,1 -0.077,4.87 -3.047,0 z"
               id="path182"
               style="fill:url(#linearGradient176);stroke:none" /></g></g></g></g><g
       transform="matrix(0.61760085,0,0,0.61849153,-26.410231,-95.426734)"
       id="g184"><g
         clip-path="url(#clipPath188)"
         id="g186"><g
           id="g192"><g
             id="g194"><path
               d="m 207.124,192.952 c 0,-0.294 0.058,-0.573 0.16,-0.83 l 0,0 c 0.331,-0.825 1.137,-1.409 2.08,-1.409 l 0,0 c 0.823,0 1.539,0.444 1.929,1.104 l 0,0 c 0.223,0.378 0.341,0.824 0.305,1.302 l 0,0 c -0.081,1.097 -0.908,1.952 -2.004,2.06 l 0,0 c -0.078,0.008 -0.155,0.012 -0.231,0.012 l 0,0 c -1.236,0 -2.239,-1.002 -2.239,-2.239"
               id="path202"
               style="fill:url(#linearGradient196);stroke:none" /></g></g></g></g><g
       transform="matrix(0.61760085,0,0,0.61849153,-26.410231,-95.426734)"
       id="g204"><g
         clip-path="url(#clipPath208)"
         id="g206"><g
           id="g212"><g
             id="g214"><path
               d="m 204.614,196.744 c -0.039,-0.049 -0.077,-0.097 -0.115,-0.145 l 0,0 c -0.763,-1.017 -1.216,-2.279 -1.216,-3.647 l 0,0 c 0,-0.177 0.009,-0.353 0.024,-0.528 l 0,0 c 0.268,-3.11 2.877,-5.55 6.057,-5.55 l 0,0 c 2.863,0 5.263,1.978 5.909,4.641 l 0,0 c 0.288,1.185 0.237,2.502 -0.313,3.856 l 0,0 c -0.669,1.643 -2.071,2.9 -3.775,3.395 l 0,0 c -0.619,0.18 -1.23,0.264 -1.82,0.264 l 0,0 c -1.923,0 -3.637,-0.893 -4.751,-2.286 m 4.387,-0.064 c -0.051,0.03 -0.096,0.075 -0.126,0.126 l 0,0 c -0.35,0.572 0.25,1.171 0.823,0.822 l 0,0 c 0.051,-0.031 0.095,-0.075 0.126,-0.126 l 0,0 c 0.277,-0.454 -0.044,-0.925 -0.475,-0.926 l 0,0 c -0.112,0 -0.231,0.032 -0.348,0.104 m 1.913,-0.319 c -0.029,0.053 -0.045,0.114 -0.047,0.173 l 0,0 c -0.015,0.67 0.803,0.889 1.125,0.301 l 0,0 c 0.029,-0.052 0.045,-0.113 0.046,-0.172 l 0,0 c 0.01,-0.403 -0.282,-0.643 -0.586,-0.643 l 0,0 c -0.202,0 -0.41,0.106 -0.538,0.341 m -4.25,0.286 c 0.001,0.06 0.018,0.121 0.046,0.173 l 0,0 c 0.322,0.588 1.14,0.369 1.124,-0.301 l 0,0 c -0.001,-0.06 -0.017,-0.12 -0.046,-0.172 l 0,0 c -0.128,-0.235 -0.336,-0.341 -0.538,-0.341 l 0,0 c -0.304,0 -0.595,0.239 -0.586,0.641 m 0.086,-4.484 c -0.076,0.25 -0.117,0.514 -0.117,0.789 l 0,0 c 0,1.871 1.883,3.303 3.86,2.504 l 0,0 c 0.566,-0.23 1.035,-0.669 1.299,-1.221 l 0,0 c 0.426,-0.892 0.371,-1.755 0.035,-2.458 l 0,0 c -0.44,-0.919 -1.376,-1.554 -2.463,-1.554 l 0,0 c -1.234,0 -2.275,0.817 -2.614,1.94 m 5.662,2.968 c 0.001,0.058 0.018,0.119 0.046,0.172 l 0,0 c 0.322,0.587 1.14,0.369 1.125,-0.301 l 0,0 c -0.002,-0.059 -0.018,-0.12 -0.046,-0.173 l 0,0 c -0.129,-0.234 -0.337,-0.341 -0.539,-0.341 l 0,0 c -0.304,0 -0.595,0.24 -0.586,0.643 m -7.235,-0.327 c -0.028,0.051 -0.045,0.112 -0.046,0.172 l 0,0 c -0.016,0.67 0.803,0.889 1.125,0.301 l 0,0 c 0.028,-0.053 0.044,-0.113 0.046,-0.172 l 0,0 c 0.009,-0.403 -0.282,-0.643 -0.586,-0.643 l 0,0 c -0.203,0 -0.411,0.106 -0.539,0.342 m 8.043,-2.311 c -0.051,0.03 -0.096,0.075 -0.127,0.126 l 0,0 c -0.348,0.572 0.25,1.171 0.824,0.822 l 0,0 c 0.05,-0.03 0.095,-0.075 0.125,-0.126 l 0,0 c 0.277,-0.454 -0.044,-0.925 -0.474,-0.925 l 0,0 c -0.112,0 -0.23,0.031 -0.348,0.103 m -8.534,0.792 c 0.031,0.051 0.076,0.096 0.126,0.126 l 0,0 c 0.573,0.349 1.172,-0.249 0.823,-0.822 l 0,0 c -0.031,-0.051 -0.075,-0.096 -0.126,-0.126 l 0,0 c -0.118,-0.072 -0.238,-0.103 -0.349,-0.103 l 0,0 c -0.431,-0.001 -0.751,0.47 -0.474,0.925 m 7.787,-2.657 c -0.028,0.051 -0.045,0.113 -0.046,0.172 l 0,0 c -0.015,0.67 0.802,0.889 1.124,0.302 l 0,0 c 0.029,-0.053 0.045,-0.114 0.046,-0.173 l 0,0 c 0.01,-0.402 -0.281,-0.642 -0.585,-0.642 l 0,0 c -0.202,0 -0.41,0.106 -0.539,0.341 m -7.327,0.276 c 0.001,0.058 0.018,0.119 0.046,0.171 l 0,0 c 0.322,0.588 1.14,0.369 1.125,-0.301 l 0,0 c -0.002,-0.06 -0.018,-0.12 -0.047,-0.172 l 0,0 c -0.128,-0.235 -0.336,-0.342 -0.538,-0.342 l 0,0 c -0.304,0 -0.595,0.24 -0.586,0.644 m 5.747,-1.518 c 0.002,0.059 0.018,0.12 0.046,0.172 l 0,0 c 0.323,0.589 1.141,0.369 1.125,-0.301 l 0,0 c -0.002,-0.06 -0.018,-0.12 -0.046,-0.172 l 0,0 c -0.128,-0.236 -0.336,-0.342 -0.539,-0.342 l 0,0 c -0.304,0 -0.595,0.24 -0.586,0.643 m -4.157,-0.317 c -0.028,0.053 -0.045,0.114 -0.046,0.172 l 0,0 c -0.016,0.671 0.802,0.89 1.124,0.302 l 0,0 c 0.029,-0.053 0.045,-0.114 0.046,-0.173 l 0,0 c 0.01,-0.402 -0.281,-0.642 -0.585,-0.642 l 0,0 c -0.202,0 -0.41,0.106 -0.539,0.341 m 2.295,-0.793 c -0.051,0.032 -0.095,0.076 -0.127,0.126 l 0,0 c -0.348,0.573 0.251,1.171 0.824,0.824 l 0,0 c 0.05,-0.032 0.095,-0.077 0.126,-0.127 l 0,0 c 0.277,-0.455 -0.044,-0.926 -0.475,-0.926 l 0,0 c -0.111,0 -0.23,0.032 -0.348,0.103"
               id="path222"
               style="fill:url(#linearGradient216);stroke:none" /></g></g></g></g><g
       transform="matrix(0.61760085,0,0,0.61849153,-26.410231,-95.426734)"
       id="g224"><g
         clip-path="url(#clipPath228)"
         id="g226"><g
           id="g232"><g
             id="g234"><path
               d="m 232.155,215.326 -1.162,0.166 c -0.415,0.061 -0.802,-0.158 -0.984,-0.511 l 0,0 c -0.046,-0.092 -0.083,-0.191 -0.099,-0.299 l 0,0 -0.002,-0.019 c -0.034,-0.228 0.021,-0.448 0.133,-0.63 l 0,0 c 0.143,-0.235 0.383,-0.41 0.677,-0.452 l 0,0 1.133,-0.162 c -0.55,-5.686 2.189,-10.776 7.217,-12.415 l 0,0 c 6.398,-2.084 14.075,2.206 17.148,9.583 l 0,0 -23.167,7.55 c -0.39,-0.936 -0.686,-1.878 -0.894,-2.811 m -1.49,-1.339 c -0.281,0.136 -0.399,0.473 -0.263,0.754 l 0,0 c 0.136,0.281 0.473,0.399 0.754,0.263 l 0,0 c 0.281,-0.136 0.399,-0.474 0.263,-0.755 l 0,0 c -0.097,-0.201 -0.299,-0.319 -0.509,-0.319 l 0,0 c -0.082,0 -0.166,0.018 -0.245,0.057"
               id="path242"
               style="fill:url(#linearGradient236);stroke:none" /></g></g></g></g><g
       transform="matrix(0.61760085,0,0,0.61849153,-26.410231,-95.426734)"
       id="g244"><g
         clip-path="url(#clipPath248)"
         id="g246"><g
           id="g252"><g
             id="g254"><path
               d="m 234.871,222.511 -1.395,-3.35 1.856,-0.605 21.31,-6.944 2.645,5.908 -0.041,0.014 c -0.485,0.158 -1.018,-0.015 -1.319,-0.427 l 0,0 -1.933,-2.653 -19.697,6.42 0.43,1.032 c 0.186,0.446 -0.074,0.943 -0.581,1.108 l 0,0 -0.019,0.006 c -0.113,0.036 -0.227,0.054 -0.34,0.054 l 0,0 c -0.398,0 -0.771,-0.215 -0.916,-0.563"
               id="path262"
               style="fill:url(#linearGradient256);stroke:none" /></g></g></g></g><g
       transform="matrix(0.61760085,0,0,0.61849153,-26.410231,-95.426734)"
       id="g264"><g
         clip-path="url(#clipPath268)"
         id="g266"><g
           id="g272"><g
             id="g274"><path
               d="m 218.025,219.831 -0.016,-0.005 c -0.439,-0.14 -0.682,-0.609 -0.543,-1.047 l 0,0 0.02,-0.061 0.16,-0.514 -17.451,-0.139 c -0.047,0 -0.092,-0.003 -0.138,-0.006 l 0,0 c 1.092,-0.403 2.165,-0.44 2.366,-1.771 l 0,0 0.511,-2.293 15.566,-1.811 -0.137,-0.831 -0.037,-0.221 c -0.04,-0.246 0.027,-0.484 0.164,-0.673 l 0,0 c 0.017,-0.022 0.031,-0.045 0.049,-0.065 l 0,0 c 0.106,-0.122 0.246,-0.216 0.41,-0.266 l 0,0 0.015,-0.005 c 0.391,-0.12 0.814,0.04 1.029,0.389 l 0,0 0.504,0.819 7.845,-7.234 c 0.791,-0.731 2.001,-0.762 2.83,-0.074 l 0,0 0.031,0.024 c 0.875,0.726 1.032,2.008 0.359,2.925 l 0,0 -7.127,9.71 c -0.704,0.958 -1.814,1.532 -3.002,1.552 l 0,0 -2.009,-0.016 -0.161,0.471 -0.19,0.6 c -0.113,0.355 -0.442,0.581 -0.796,0.581 l 0,0 c -0.083,0 -0.168,-0.012 -0.252,-0.039 m -0.26,-0.856 c 0,0.272 0.22,0.493 0.492,0.493 l 0,0 c 0.273,0 0.493,-0.221 0.493,-0.493 l 0,0 c 0,-0.272 -0.22,-0.493 -0.493,-0.493 l 0,0 c -0.272,0 -0.492,0.221 -0.492,0.493 m 1.46,-8.472 c -0.01,0.001 -0.021,0 -0.032,0.001 l 0,0 c -0.065,0.007 -0.126,0.028 -0.182,0.055 l 0,0 c -0.206,0.102 -0.336,0.324 -0.308,0.565 l 0,0 c 0.012,0.109 0.056,0.206 0.121,0.286 l 0,0 c 0.013,0.016 0.028,0.031 0.043,0.045 l 0,0 c 0.117,0.115 0.28,0.18 0.456,0.16 l 0,0 c 0.308,-0.036 0.527,-0.314 0.491,-0.62 l 0,0 c -0.033,-0.286 -0.276,-0.493 -0.556,-0.493 l 0,0 c -0.011,0 -0.022,0 -0.033,10e-4 m 10.583,-5.81 c -0.428,0.05 -0.734,0.437 -0.683,0.863 l 0,0 c 0.025,0.217 0.137,0.402 0.297,0.526 l 0,0 c 0.154,0.12 0.355,0.182 0.566,0.158 l 0,0 c 0.427,-0.05 0.733,-0.436 0.684,-0.864 l 0,0 c -0.045,-0.379 -0.355,-0.661 -0.724,-0.685 l 0,0 c -0.019,-0.002 -0.038,-0.002 -0.057,-0.002 l 0,0 c -0.028,0 -0.055,0.001 -0.083,0.004"
               id="path282"
               style="fill:url(#linearGradient276);stroke:none" /></g></g></g></g><g
       transform="matrix(0.61760085,0,0,0.61849153,-26.410231,-95.426734)"
       id="g284"><g
         clip-path="url(#clipPath288)"
         id="g286"><g
           id="g292"><g
             id="g294"><path
               d="m 219.64,223.683 -0.117,-0.132 -0.876,-0.989 -0.646,-0.731 -0.941,-1.068 c -0.517,-0.614 -0.511,-1.485 0.094,-2.02 l 0,0 0.022,-0.02 c 0.012,-0.009 0.025,-0.016 0.036,-0.026 l 0,0 0.21,0.717 c 0.137,0.509 0.696,0.747 1.206,0.611 l 0,0 0.019,-0.006 c 0.51,-0.136 0.841,-0.693 0.705,-1.204 l 0,0 -0.019,-0.07 c 0.009,0.011 0.02,0.017 0.029,0.028 l 0,0 1.941,2.242 8.361,-6.182 c 0.021,0.211 0.109,0.419 0.271,0.584 l 0,0 0.013,0.013 c 0.078,0.079 0.165,0.136 0.257,0.183 l 0,0 -8.185,6.261 c 0.393,0.607 0.3,1.424 -0.259,1.918 l 0,0 -0.023,0.02 c -0.282,0.25 -0.634,0.373 -0.984,0.373 l 0,0 c -0.411,0 -0.821,-0.17 -1.114,-0.502 m 0.777,-1.039 c -0.067,0.087 -0.11,0.195 -0.116,0.314 l 0,0 c -0.008,0.182 0.073,0.346 0.204,0.454 l 0,0 c 0.09,0.076 0.204,0.125 0.33,0.131 l 0,0 c 0.309,0.014 0.571,-0.224 0.586,-0.534 l 0,0 c 0.014,-0.308 -0.225,-0.57 -0.534,-0.585 l 0,0 c -0.009,0 -0.018,0 -0.027,0 l 0,0 c -0.18,0 -0.341,0.086 -0.443,0.22"
               id="path302"
               style="fill:url(#linearGradient296);stroke:none" /></g></g></g></g><g
       transform="matrix(0.61760085,0,0,0.61849153,-26.410231,-95.426734)"
       id="g304"><g
         clip-path="url(#clipPath308)"
         id="g306"><g
           id="g312"><g
             id="g314"><path
               d="m 203.593,203.529 -2.258,0 -2.953,-3.064 -4.314,0 0,2.432 3.28,0 0.609,0.632 -3.436,0 -1.302,0 0,-0.342 0,-6.141 1.302,0 4.055,0 c 0.017,0.194 -0.199,0.462 -0.575,0.702 l 0,0 -0.194,0.123 0.103,0.207 c 0.064,0.126 0.135,0.254 0.218,0.4 l 0,0 0.182,0.319 0.195,-0.058 c 0.225,-0.068 0.414,-0.102 0.564,-0.102 l 0,0 c 0.249,0 0.303,0.093 0.323,0.125 l 0,0 c 0.105,0.182 -0.055,0.51 -0.409,0.836 l 0,0 -0.164,0.152 0.128,0.182 c 0.112,0.16 0.23,0.313 0.351,0.469 l 0,0 0.153,0.195 0.189,-0.098 c 0.342,-0.178 0.548,-0.215 0.661,-0.215 l 0,0 c 0.128,0 0.182,0.045 0.215,0.086 l 0,0 c 0.156,0.187 -0.068,0.563 -0.282,0.846 l 0,0 -0.132,0.173 0.149,0.157 c 0.155,0.164 0.31,0.319 0.475,0.474 l 0,0 0.158,0.15 0.172,-0.132 c 0.381,-0.288 0.602,-0.332 0.699,-0.332 l 0,0 c 0.08,0 0.121,0.028 0.148,0.052 l 0,0 c 0.184,0.153 0.03,0.56 -0.13,0.874 l 0,0 -0.078,0.203 0.167,0.13 c 0.1,0.079 0.198,0.15 0.295,0.223 l 0,0 c 0.06,0.045 0.121,0.093 0.182,0.137 l 0,0 0.182,0.127 0.152,-0.163 c 0.033,-0.036 0.066,-0.069 0.101,-0.101 l 0,0 c 0.285,-0.277 0.56,-0.413 0.736,-0.307 l 0,0 c 0.091,0.052 0.124,0.167 0.125,0.307 l 0,0 0.001,0 0,0.342 -0.043,0 z"
               id="path322"
               style="fill:url(#linearGradient316);stroke:none" /></g></g></g></g><g
       transform="matrix(0.61760085,0,0,0.61849153,-26.410231,-95.426734)"
       id="g324"><g
         clip-path="url(#clipPath328)"
         id="g326"><g
           id="g332"><g
             id="g334"><path
               d="m 208.456,221.032 c -0.011,-0.001 -0.022,0.008 -0.023,0.02 l 0,0 -0.002,0.007 c -0.038,0.381 -0.38,0.66 -0.761,0.622 l 0,0 -0.221,-0.023 c -0.012,-10e-4 -0.02,-0.011 -0.019,-0.023 l 0,0 0.238,-2.356 c 0.002,-0.012 0.012,-0.021 0.024,-0.02 l 0,0 0.22,0.022 c 0.381,0.039 0.66,0.38 0.622,0.763 l 0,0 0,0.007 c -0.002,0.012 0.007,0.022 0.018,0.023 l 0,0 8.508,0.689 c 0.008,0.011 0.015,0.022 0.024,0.033 l 0,0 0.917,1.035 -9.545,-0.799 z"
               id="path342"
               style="fill:url(#linearGradient336);stroke:none" /></g></g></g></g><g
       transform="matrix(0.61760085,0,0,0.61849153,-26.410231,-95.426734)"
       id="g344"><g
         clip-path="url(#clipPath348)"
         id="g346"><g
           transform="translate(202.6135,192.9522)"
           id="g352"><path
             d="M 0,0 C 0,1.343 0.396,2.594 1.075,3.646 1.342,4.06 1.652,4.443 2,4.789 c 1.221,1.21 2.9,1.959 4.75,1.959 3.723,0 6.751,-3.027 6.751,-6.748 0,-0.495 -0.056,-0.994 -0.166,-1.483 C 12.65,-4.533 9.881,-6.747 6.75,-6.747 3.219,-6.747 0.261,-3.99 0.018,-0.471 0.007,-0.315 0,-0.158 0,0 m -4.238,0 c 0,-0.052 -0.01,-0.104 -0.029,-0.159 -0.094,-0.274 -0.42,-0.487 -0.923,-0.604 0.014,-0.175 0.034,-0.355 0.059,-0.556 0.616,-0.034 1,-0.245 1.061,-0.588 0.06,-0.34 -0.248,-0.682 -0.827,-0.926 0.038,-0.132 0.082,-0.263 0.128,-0.399 l 0.008,-0.024 c 0.012,-0.033 0.024,-0.067 0.036,-0.104 0.596,0.07 1.035,-0.081 1.15,-0.396 0.121,-0.331 -0.121,-0.715 -0.665,-1.06 0.096,-0.193 0.207,-0.379 0.291,-0.532 0.628,0.19 1.02,0.14 1.184,-0.141 0.174,-0.301 0.003,-0.726 -0.457,-1.151 0.116,-0.166 0.242,-0.328 0.365,-0.485 0.586,0.304 0.982,0.32 1.192,0.066 0.213,-0.257 0.123,-0.638 -0.277,-1.165 0.15,-0.158 0.302,-0.311 0.463,-0.464 0.529,0.402 0.924,0.483 1.166,0.276 0.256,-0.211 0.235,-0.601 -0.065,-1.19 l 0.025,-0.019 c 0.149,-0.116 0.302,-0.236 0.459,-0.346 0.42,0.453 0.857,0.624 1.151,0.454 0.284,-0.165 0.331,-0.56 0.141,-1.178 l 0.172,-0.096 c 0.123,-0.071 0.241,-0.139 0.361,-0.198 0.335,0.528 0.711,0.782 1.061,0.665 0.321,-0.118 0.466,-0.543 0.395,-1.15 l 0.172,-0.057 c 0.122,-0.041 0.24,-0.081 0.358,-0.115 0.22,0.525 0.53,0.834 0.839,0.834 0.03,0 0.06,-0.003 0.087,-0.008 0.342,-0.06 0.553,-0.445 0.588,-1.06 0.173,-0.021 0.362,-0.042 0.555,-0.058 0.142,0.606 0.418,0.951 0.765,0.951 0.342,0 0.624,-0.353 0.764,-0.951 0.19,0.016 0.378,0.037 0.556,0.058 0.035,0.615 0.246,1 0.581,1.059 0.03,0.006 0.061,0.01 0.093,0.01 0.315,0 0.617,-0.302 0.84,-0.835 0.115,0.033 0.228,0.072 0.348,0.112 l 0.182,0.061 c -0.073,0.613 0.068,1.029 0.396,1.15 0.329,0.114 0.722,-0.13 1.06,-0.666 0.127,0.064 0.255,0.136 0.386,0.212 0.044,0.025 0.089,0.049 0.133,0.075 l 0.013,0.007 c -0.19,0.617 -0.143,1.013 0.142,1.178 0.297,0.171 0.729,0.002 1.151,-0.454 0.154,0.108 0.305,0.225 0.471,0.354 l 0.014,0.01 c -0.301,0.586 -0.322,0.977 -0.067,1.19 0.249,0.21 0.637,0.127 1.165,-0.275 0.158,0.15 0.311,0.302 0.465,0.464 -0.396,0.52 -0.488,0.912 -0.275,1.166 0.21,0.252 0.604,0.237 1.19,-0.067 l 0.03,0.038 c 0.112,0.145 0.228,0.294 0.336,0.445 -0.467,0.431 -0.633,0.848 -0.457,1.154 0.161,0.279 0.557,0.33 1.181,0.141 0.025,0.045 0.051,0.09 0.076,0.133 0.077,0.134 0.152,0.265 0.218,0.397 -0.545,0.346 -0.787,0.73 -0.666,1.064 0.114,0.313 0.552,0.463 1.15,0.393 0.013,0.04 0.026,0.079 0.04,0.118 l 0.009,0.027 c 0.045,0.131 0.087,0.256 0.124,0.382 -0.58,0.244 -0.887,0.586 -0.827,0.925 0.01,0.056 0.03,0.11 0.066,0.171 0.144,0.244 0.495,0.39 0.994,0.418 0.023,0.179 0.044,0.367 0.058,0.556 -0.598,0.14 -0.951,0.421 -0.951,0.763 0,0.351 0.345,0.626 0.951,0.766 -0.014,0.191 -0.036,0.38 -0.058,0.553 -0.616,0.036 -1.001,0.248 -1.06,0.588 -0.062,0.349 0.239,0.683 0.827,0.926 -0.041,0.142 -0.088,0.282 -0.135,0.415 l -0.026,0.077 c -0.004,0.013 -0.008,0.026 -0.012,0.038 -0.608,-0.067 -1.036,0.078 -1.15,0.395 -0.121,0.332 0.12,0.715 0.665,1.061 -0.063,0.125 -0.133,0.249 -0.21,0.384 L 17.481,5.292 17.449,5.35 c -0.64,-0.193 -1.021,-0.141 -1.183,0.145 -0.171,0.299 0,0.724 0.459,1.147 -0.101,0.145 -0.21,0.285 -0.325,0.432 L 16.358,7.127 C 15.771,6.825 15.38,6.809 15.167,7.061 c -0.213,0.258 -0.123,0.64 0.277,1.165 -0.15,0.157 -0.302,0.31 -0.465,0.463 -0.52,-0.395 -0.921,-0.48 -1.165,-0.274 -0.256,0.214 -0.234,0.604 0.067,1.189 L 13.878,9.606 C 13.722,9.728 13.561,9.853 13.395,9.97 12.967,9.508 12.522,9.343 12.247,9.512 c -0.29,0.164 -0.337,0.551 -0.143,1.182 l -0.147,0.082 c -0.123,0.07 -0.252,0.143 -0.386,0.21 -0.285,-0.448 -0.599,-0.694 -0.891,-0.694 -0.059,0 -0.117,0.011 -0.171,0.031 -0.325,0.117 -0.467,0.533 -0.394,1.148 L 9.95,11.525 C 9.831,11.566 9.708,11.608 9.585,11.644 9.362,11.112 9.06,10.809 8.745,10.809 c -0.033,0 -0.064,0.004 -0.084,0.009 -0.343,0.058 -0.555,0.441 -0.59,1.058 C 7.884,11.9 7.699,11.921 7.515,11.935 7.375,11.336 7.094,10.983 6.751,10.983 6.402,10.983 6.126,11.328 5.986,11.935 5.803,11.921 5.618,11.9 5.431,11.876 5.395,11.269 5.178,10.876 4.852,10.82 4.519,10.736 4.167,11.044 3.917,11.644 3.799,11.609 3.682,11.57 3.567,11.531 l -0.18,-0.06 C 3.461,10.856 3.319,10.44 2.993,10.323 2.673,10.204 2.269,10.455 1.931,10.986 1.81,10.925 1.688,10.857 1.549,10.777 L 1.398,10.693 C 1.404,10.675 1.407,10.658 1.413,10.64 1.585,10.045 1.536,9.674 1.259,9.514 0.971,9.339 0.537,9.508 0.107,9.97 -0.05,9.859 -0.201,9.742 -0.36,9.618 L -0.378,9.604 C -0.078,9.018 -0.057,8.629 -0.312,8.416 -0.555,8.207 -0.954,8.293 -1.477,8.689 -1.638,8.538 -1.791,8.384 -1.941,8.225 -1.542,7.7 -1.452,7.318 -1.666,7.061 -1.876,6.807 -2.271,6.822 -2.857,7.127 L -2.879,7.099 C -2.994,6.952 -3.111,6.8 -3.222,6.642 -2.762,6.217 -2.591,5.792 -2.765,5.491 -2.928,5.211 -3.319,5.161 -3.947,5.35 -3.961,5.325 -3.976,5.3 -3.99,5.275 L -4.029,5.207 C -4.109,5.065 -4.178,4.942 -4.24,4.819 -3.703,4.476 -3.456,4.084 -3.575,3.758 -3.59,3.718 -3.61,3.681 -3.634,3.646 -3.802,3.408 -4.194,3.304 -4.725,3.363 -4.728,3.354 -4.731,3.345 -4.734,3.335 L -4.759,3.262 C -4.811,3.112 -4.858,2.974 -4.898,2.833 -4.309,2.587 -4.009,2.253 -4.07,1.908 -4.13,1.567 -4.505,1.36 -5.131,1.32 -5.153,1.141 -5.175,0.954 -5.19,0.766 -4.583,0.626 -4.238,0.351 -4.238,0"
             id="path354"
             style="fill:#606060;fill-opacity:1;fill-rule:nonzero;stroke:none" /></g></g></g><g
       transform="matrix(0.61760085,0,0,0.61849153,-26.410231,-95.426734)"
       id="g356"><g
         clip-path="url(#clipPath360)"
         id="g358"><g
           id="g364"><g
             id="g366"><path
               d="m 199.607,221.952 -0.842,-0.089 c -0.869,-0.091 -1.501,-0.87 -1.409,-1.739 l 0,0 0.186,-1.787 0.349,-0.072 2.882,0.303 0,-0.004 6.646,0.668 -0.242,2.4 -6.35,-0.638 c -0.077,0.554 -0.55,0.964 -1.102,0.964 l 0,0 c -0.039,0 -0.078,-0.002 -0.118,-0.006 m -0.751,-2.992 c -0.433,0.089 -0.712,0.511 -0.623,0.944 l 0,0 c 0.089,0.433 0.512,0.712 0.945,0.623 l 0,0 c 0.433,-0.089 0.712,-0.512 0.623,-0.945 l 0,0 c -0.078,-0.378 -0.411,-0.639 -0.783,-0.639 l 0,0 c -0.053,0 -0.108,0.006 -0.162,0.017"
               id="path374"
               style="fill:url(#linearGradient368);stroke:none" /></g></g></g></g><g
       transform="matrix(0.61760085,0,0,0.61849153,-26.410231,-95.426734)"
       id="g376"><g
         clip-path="url(#clipPath380)"
         id="g378"><g
           id="g384"><g
             id="g386"><path
               d="m 233.049,218.137 23.167,-7.55 0.426,1.025 -23.166,7.549 -0.427,-1.024 z"
               id="path394"
               style="fill:url(#linearGradient388);stroke:none" /></g></g></g></g><g
       transform="matrix(0.61760085,0,0,0.61849153,-26.410231,-95.426734)"
       id="g396"><g
         clip-path="url(#clipPath400)"
         id="g398"><g
           id="g404"><g
             id="g406"><path
               d="m 44.248,154.796 72.062,0 0,24.576 -72.062,0 0,-24.576 z"
               id="path414"
               style="fill:url(#linearGradient408);stroke:none" /></g></g></g></g><g
       transform="matrix(0.61760085,0,0,0.61849153,-26.410231,-95.426734)"
       id="g416"><g
         clip-path="url(#clipPath420)"
         id="g418"><g
           transform="translate(57.6033,160.7393)"
           id="g424"><path
             d="m 0,0 0,11.416 2.016,0 0,-9.399 3.988,0 L 6.004,0 0,0 z"
             id="path426"
             style="fill:#ffffff;fill-opacity:1;fill-rule:nonzero;stroke:none" /></g><g
           transform="translate(67.6819,157.9571)"
           id="g428"><path
             d="m 0,0 c -0.285,0 -0.504,0.109 -0.679,0.307 -0.175,0.197 -0.263,0.438 -0.263,0.722 0,0.242 0.088,0.46 0.263,0.658 0.197,0.197 0.416,0.307 0.657,0.307 0.285,0 0.526,-0.088 0.723,-0.285 C 0.898,1.512 0.986,1.271 0.986,0.985 0.986,0.328 0.657,0 0,0 m -2.498,0.044 c -0.657,0 -0.986,0.328 -0.986,1.008 0,0.262 0.088,0.481 0.285,0.657 0.197,0.197 0.416,0.285 0.701,0.285 0.636,0 0.942,-0.329 0.942,-1.009 0,-0.634 -0.306,-0.941 -0.942,-0.941 m -2.344,2.738 0,2.017 3.133,0 c 0.153,0 0.263,0.109 0.285,0.35 l 0,2.717 2.191,0 0,-3.067 2.936,0 0,-2.017 -8.545,0 z"
             id="path430"
             style="fill:#ffffff;fill-opacity:1;fill-rule:nonzero;stroke:none" /></g><g
           transform="translate(76.7522,168.3867)"
           id="g432"><path
             d="m 0,0 c -0.57,0 -0.854,0.285 -0.854,0.854 0,0.219 0.087,0.417 0.241,0.614 0.153,0.197 0.35,0.285 0.57,0.285 0.262,0 0.481,-0.088 0.657,-0.263 C 0.811,1.314 0.898,1.096 0.898,0.854 0.898,0.285 0.592,0 0,0 m -0.679,-2.651 -1.03,0 c -0.307,0 -0.592,-0.132 -0.833,-0.372 -0.241,-0.264 -0.372,-0.548 -0.372,-0.877 l 0,-1.731 2.081,0 c 0.11,0.066 0.154,0.131 0.154,0.196 l 0,2.784 z M -2.279,0 c -0.241,0 -0.46,0.088 -0.613,0.241 -0.153,0.175 -0.241,0.395 -0.241,0.657 0,0.242 0.088,0.439 0.263,0.592 0.175,0.175 0.394,0.263 0.635,0.263 0.241,0 0.46,-0.088 0.613,-0.263 C -1.468,1.314 -1.38,1.096 -1.38,0.854 -1.38,0.285 -1.687,0 -2.279,0 m -3.878,-7.647 0,2.016 1.271,0 c 0,1.512 0.197,2.651 0.614,3.418 0.547,1.052 1.533,1.577 2.914,1.577 l 2.651,0 0,-4.995 2.673,0 0,-2.016 -10.123,0 z"
             id="path434"
             style="fill:#ffffff;fill-opacity:1;fill-rule:nonzero;stroke:none" /></g><g
           transform="translate(83.7625,158.2852)"
           id="g436"><path
             d="m 0,0 c -0.241,0 -0.46,0.088 -0.613,0.241 -0.176,0.176 -0.263,0.395 -0.263,0.636 0,0.592 0.307,0.876 0.898,0.876 0.57,0 0.854,-0.284 0.854,-0.876 C 0.876,0.285 0.592,0 0,0 m -2.279,0 c -0.241,0 -0.438,0.088 -0.591,0.264 -0.153,0.174 -0.241,0.393 -0.241,0.634 0,0.571 0.284,0.855 0.854,0.855 0.57,0 0.855,-0.284 0.855,-0.876 C -1.402,0.285 -1.687,0 -2.279,0 M 0.876,2.63 C 0.679,2.521 0.482,2.454 0.329,2.454 l -4.054,0 0,2.017 2.06,0 c 0.394,0 0.657,0.021 0.767,0.131 0.109,0.109 0.175,0.35 0.175,0.723 0,0.11 -0.022,0.394 -0.022,0.876 -0.044,0.504 -0.044,0.943 -0.044,1.337 l 1.973,0 0,-4.492 C 1.184,2.893 1.074,2.739 0.876,2.63"
             id="path438"
             style="fill:#ffffff;fill-opacity:1;fill-rule:nonzero;stroke:none" /></g><g
           transform="translate(90.5325,160.7393)"
           id="g440"><path
             d="m 0,0 c 0,-1.205 -0.109,-2.081 -0.329,-2.629 -0.372,-0.898 -1.073,-1.358 -2.103,-1.358 l -1.687,0 0,1.906 c 0.898,0 1.424,0.044 1.577,0.109 0.351,0.154 0.526,0.57 0.526,1.293 l 0,5.719 2.016,0 0,-3.023 2.323,0 L 2.323,0 0,0 z"
             id="path442"
             style="fill:#ffffff;fill-opacity:1;fill-rule:nonzero;stroke:none" /></g><g
           transform="translate(98.0476,168.6494)"
           id="g444"><path
             d="m 0,0 c -0.175,-0.175 -0.395,-0.263 -0.636,-0.263 -0.24,0 -0.46,0.088 -0.613,0.263 -0.153,0.176 -0.241,0.395 -0.241,0.636 0,0.569 0.285,0.854 0.854,0.854 0.592,0 0.899,-0.285 0.899,-0.877 C 0.263,0.373 0.175,0.176 0,0 m -0.395,-2.87 -0.985,0 c -0.286,0 -0.548,-0.109 -0.833,-0.351 -0.285,-0.241 -0.416,-0.526 -0.416,-0.81 l 0,-1.906 1.993,0 c 0.154,0 0.241,0.086 0.241,0.24 l 0,2.827 z M 1.292,-7.646 C 1.096,-7.822 0.92,-7.91 0.767,-7.91 l -6.64,0 0,2.016 1.271,0 c 0,1.183 0.022,1.907 0.066,2.191 0.11,0.701 0.482,1.337 1.118,1.929 0.635,0.591 1.293,0.898 1.994,0.898 l 3.002,0 0,-6.267 c 0,-0.175 -0.088,-0.35 -0.286,-0.503"
             id="path446"
             style="fill:#ffffff;fill-opacity:1;fill-rule:nonzero;stroke:none" /></g><g
           transform="translate(103.261,172.5059)"
           id="g448"><path
             d="m 0,0 -1.928,0 0,0.526 0.416,0 c 0,0.066 -0.022,0.154 -0.044,0.263 -0.043,0.109 -0.065,0.197 -0.065,0.241 0,0.198 0.065,0.351 0.197,0.504 0.153,0.153 0.307,0.219 0.504,0.219 l 1.008,0 0,-0.482 -0.219,0 -0.242,0 c -0.503,0 -0.744,-0.131 -0.744,-0.394 0,-0.22 0.372,-0.351 1.117,-0.351 l 0.088,0 0,-0.373 C 0.066,0.109 0.044,0.066 0,0"
             id="path450"
             style="fill:#ffffff;fill-opacity:1;fill-rule:nonzero;stroke:none" /></g><path
           d="m 101.333,172.111 1.972,0 0,-11.372 -1.972,0 0,11.372 z"
           id="path452"
           style="fill:#ffffff;fill-opacity:1;fill-rule:nonzero;stroke:none" /><g
           transform="translate(217.759,182.3008)"
           id="g454"><path
             d="m 0,0 c -2.262,-1.613 -5.005,-2.564 -7.966,-2.564 -2.962,0 -5.704,0.951 -7.967,2.564 l -157.579,0 0,-5.857 387.726,0 0,5.857 L 0,0 z"
             id="path456"
             style="fill:#242628;fill-opacity:1;fill-rule:nonzero;stroke:none" /></g><g
           transform="translate(67.2366,212.5616)"
           id="g458"><path
             d="m 0,0 c -2.042,0 -3.024,1.059 -3.024,3.101 0,0.831 0.302,1.587 0.907,2.117 0.605,0.529 1.361,0.832 2.193,0.832 0.832,0 1.588,-0.303 2.117,-0.908 C 2.723,4.537 3.025,3.781 3.025,2.949 3.025,0.982 2.042,0 0,0 m -7.864,0 c -1.891,0 -2.874,1.059 -2.874,3.101 0,1.965 0.983,2.949 2.949,2.949 1.966,0 2.949,-0.984 2.949,-3.026 C -4.84,0.982 -5.823,0 -7.864,0 m 21.476,-18.527 c -0.453,-0.681 -0.907,-0.984 -1.437,-0.984 l -32.517,0 c -0.681,0 -1.286,0.378 -1.815,1.135 -0.53,0.831 -0.832,1.588 -0.832,2.269 l 0,14.141 6.806,0 0,-8.697 c 0.076,-1.361 0.529,-2.042 1.286,-2.042 l 21.174,0 1.058,0.983 0,9.756 6.882,0 0,-14.822 c 0,-0.529 -0.227,-1.135 -0.605,-1.739"
             id="path460"
             style="fill:#242628;fill-opacity:1;fill-rule:nonzero;stroke:none" /></g><g
           transform="translate(87.2762,193.0508)"
           id="g462"><path
             d="m 0,0 0,43.399 6.958,0 0,-36.442 13.763,0 L 20.721,0 0,0 z"
             id="path464"
             style="fill:#242628;fill-opacity:1;fill-rule:nonzero;stroke:none" /></g><g
           transform="translate(122.0618,183.4463)"
           id="g466"><path
             d="m 0,0 c -0.983,0 -1.739,0.379 -2.344,1.06 -0.605,0.679 -0.908,1.511 -0.908,2.495 0,0.832 0.303,1.588 0.908,2.268 0.68,0.681 1.437,1.059 2.268,1.059 0.983,0 1.815,-0.303 2.496,-0.983 C 3.101,5.219 3.403,4.387 3.403,3.403 3.403,1.135 2.269,0 0,0 m -8.621,0.151 c -2.269,0 -3.403,1.135 -3.403,3.479 0,0.908 0.302,1.664 0.983,2.269 0.681,0.68 1.437,0.983 2.42,0.983 2.193,0 3.252,-1.134 3.252,-3.479 0,-2.193 -1.059,-3.252 -3.252,-3.252 m -8.091,9.453 0,6.958 10.814,0 c 0.529,0 0.907,0.377 0.982,1.209 l 0,9.378 7.563,0 0,-10.587 10.133,0 0,-6.958 -29.492,0 z"
             id="path468"
             style="fill:#242628;fill-opacity:1;fill-rule:nonzero;stroke:none" /></g><g
           transform="translate(134.7883,193.0508)"
           id="g470"><path
             d="m 0,0 0,6.957 8.772,0 0,36.291 6.504,0 L 15.276,0 0,0 z"
             id="path472"
             style="fill:#242628;fill-opacity:1;fill-rule:nonzero;stroke:none" /></g><path
           d="m 154.979,236.072 6.504,0 0,-31.829 -6.504,0 0,31.829 z m -0.151,-43.021 0,6.957 12.704,0 0,36.215 6.655,0 0,-43.172 -19.359,0 z"
           id="path474"
           style="fill:#242628;fill-opacity:1;fill-rule:nonzero;stroke:none" /><path
           d="m 180.312,236.299 6.806,0 0,-43.248 -6.806,0 0,43.248 z"
           id="path476"
           style="fill:#242628;fill-opacity:1;fill-rule:nonzero;stroke:none" /><g
           transform="translate(287.1941,212.689)"
           id="g478"><path
             d="m 0,0 c -2.042,0 -3.024,1.059 -3.024,3.101 0,0.831 0.302,1.587 0.907,2.117 0.604,0.529 1.361,0.832 2.193,0.832 0.831,0 1.588,-0.303 2.117,-0.908 C 2.723,4.537 3.025,3.781 3.025,2.949 3.025,0.982 2.042,0 0,0 m -7.864,0 c -1.891,0 -2.874,1.059 -2.874,3.101 0,1.965 0.983,2.949 2.949,2.949 1.967,0 2.949,-0.984 2.949,-3.026 C -4.84,0.982 -5.822,0 -7.864,0 m 21.476,-18.528 c -0.454,-0.68 -0.907,-0.983 -1.436,-0.983 l -32.518,0 c -0.68,0 -1.286,0.378 -1.815,1.135 -0.53,0.831 -0.832,1.587 -0.832,2.268 l 0,14.142 6.806,0 0,-8.697 c 0.076,-1.361 0.53,-2.042 1.286,-2.042 l 21.174,0 1.059,0.983 0,9.756 6.882,0 0,-14.823 c 0,-0.529 -0.228,-1.134 -0.606,-1.739"
             id="path480"
             style="fill:#242628;fill-opacity:1;fill-rule:nonzero;stroke:none" /></g><path
           d="m 306.63,236.426 6.806,0 0,-43.249 -6.806,0 0,43.249 z"
           id="path482"
           style="fill:#242628;fill-opacity:1;fill-rule:nonzero;stroke:none" /><g
           transform="translate(319.3338,193.1778)"
           id="g484"><path
             d="m 0,0 0,6.655 14.065,0 0,5.219 c 0,2.721 -1.965,4.385 -5.822,5.066 C 7.108,17.167 4.311,17.243 0,17.243 l 0,6.805 9.453,0 c 2.647,0 5.293,-1.134 7.789,-3.403 2.495,-2.344 3.781,-4.84 3.781,-7.562 l 0,-6.125 9.075,0 L 30.098,0 0,0 z"
             id="path486"
             style="fill:#242628;fill-opacity:1;fill-rule:nonzero;stroke:none" /></g><g
           transform="translate(349.0164,193.1778)"
           id="g488"><path
             d="m 0,0 0,6.958 6.806,0 c -1.588,1.815 -2.42,4.084 -2.42,6.73 0,3.403 1.286,6.125 3.857,8.016 2.269,1.664 5.218,2.496 8.773,2.496 l 8.09,0 0,-6.957 c -0.301,0 -0.982,0 -2.041,0.075 -1.059,0.076 -1.89,0.076 -2.571,0.076 -6.201,0 -9.302,-1.815 -9.302,-5.369 0,-1.135 0.53,-2.27 1.513,-3.403 0.983,-1.135 2.117,-1.664 3.251,-1.664 l 17.016,0 L 32.972,0 0,0 z"
             id="path490"
             style="fill:#242628;fill-opacity:1;fill-rule:nonzero;stroke:none" /></g><g
           transform="translate(398.7752,200.0601)"
           id="g492"><path
             d="m 0,0 c 0,-0.076 -0.15,0.378 -0.453,1.21 -0.606,2.042 -2.42,3.101 -5.445,3.101 l -1.362,0 0,-8.018 7.26,0 L 0,0 z m 6.58,-6.882 0,-3.782 -16.638,0 c -1.663,0 -2.721,0.303 -3.251,0.832 -0.302,0.378 -0.605,1.362 -0.908,2.95 l -5.293,0 0,6.957 5.369,0 0,10.588 10.436,0 c 3.252,0 5.823,-0.908 7.714,-2.723 1.89,-1.89 2.873,-4.386 2.798,-7.637 l 0.378,-0.228 6.881,0 0,36.215 6.806,0 0,-43.172 -14.292,0 z"
             id="path494"
             style="fill:#242628;fill-opacity:1;fill-rule:nonzero;stroke:none" /></g><path
           d="m 425.168,236.426 6.806,0 0,-43.249 -6.806,0 0,43.249 z"
           id="path496"
           style="fill:#242628;fill-opacity:1;fill-rule:nonzero;stroke:none" /></g></g></g></svg>