<svg width="19" height="20" viewBox="0 0 19 20" version="1.1" xmlns="http://www.w3.org/2000/svg" xmlns:xlink="http://www.w3.org/1999/xlink">
<title>Group</title>
<desc>Created using Figma</desc>
<g id="Canvas" transform="translate(259 1543)">
<g id="Group">
<g id="Combined Shape">
<use xlink:href="#path0_fill" transform="translate(-259 -1542.29)" fill="#FFFFFF"/>
</g>
</g>
</g>
<defs>
<path id="path0_fill" fill-rule="evenodd" d="M 4 0C 1.79086 0 0 1.79089 0 4L 0 15C 0 17.2091 1.79086 19 4 19L 15 19C 17.2091 19 19 17.2091 19 15L 19 4C 19 1.79089 17.2091 0 15 0L 4 0ZM 10.5886 14.7858C 11.6055 14.4398 12.4916 13.9376 13.2468 13.2794C 12.7321 13.2753 12.0295 13.2815 11.1392 13.2985C 10.5105 13.2773 10.0675 13.2583 9.81012 13.2415C 9.55273 13.2246 9.26582 13.1866 8.94937 13.1276C 7.94936 13.0094 7.1076 12.7014 6.42406 12.2035C 6.11603 11.8617 5.96202 11.5537 5.96202 11.2794C 5.96202 9.74353 7.3924 8.64233 10.2532 7.97559C 10.8481 7.85754 11.2278 7.79846 11.3924 7.79846L 11.4367 7.79846L 12.0253 5.96936C 11.7468 6.03687 11.5264 6.08643 11.3639 6.11804C 11.2015 6.14966 10.9557 6.19714 10.6266 6.2605C 9.60548 6.51782 9.01477 6.6571 8.85443 6.67822C 8.77849 6.64868 8.55275 6.52209 8.17722 6.29846C 7.80168 6.07483 7.61392 5.86377 7.61392 5.66553C 7.61392 5.46716 7.74895 5.271 8.01898 5.0769C 8.28903 4.88281 8.54958 4.7489 8.80063 4.67505C 9.05168 4.6012 9.25739 4.56421 9.41772 4.56421C 9.82278 4.56421 10.3165 4.66968 10.8987 4.88074C 10.9156 4.88074 10.9262 4.87012 10.9304 4.849C 10.9304 4.71399 10.8808 4.57373 10.7816 4.42822C 10.6825 4.28259 10.5601 4.14758 10.4146 4.02307C 10.269 3.89868 10.039 3.74463 9.72469 3.56104C 9.41034 3.37756 9.09705 3.28577 8.78481 3.28577C 8.16455 3.28577 7.59705 3.58325 7.08228 4.17822C 6.33543 5.19507 5.97258 5.96301 5.99367 6.48193C 5.99367 6.9292 6.26582 7.38916 6.81012 7.86169C 6.73418 7.90808 6.64662 7.98511 6.54747 8.09277C 6.44832 8.20032 6.29958 8.36377 6.10127 8.58325C 5.68776 9.0769 5.40085 9.56531 5.24051 10.0485C 5.08017 10.5315 5 11.0305 5 11.5453C 5 12.7858 5.34494 13.6824 6.03481 14.2351C 6.72469 14.7878 7.57805 15.0642 8.59494 15.0642C 9.27005 15.0642 9.9346 14.9714 10.5886 14.7858Z"/>
</defs>
</svg>
