<svg width="20" height="20" viewBox="0 0 20 20" version="1.1" xmlns="http://www.w3.org/2000/svg" xmlns:xlink="http://www.w3.org/1999/xlink">
<title>edit (1)</title>
<desc>Created using Figma</desc>
<g id="Canvas" transform="translate(2901 2973)">
<g id="edit (1)">
<g id="Shape">
<use xlink:href="#path0_fill" transform="translate(-2900.88 -2954.49)" fill="#CFB362"/>
</g>
<g id="Shape">
<use xlink:href="#path1_fill" transform="translate(-2900.9 -2972.85)" fill="#CFB362"/>
</g>
</g>
</g>
<defs>
<path id="path0_fill" d="M 19.0756 0L 0.689076 0C 0.302521 0 0 0.324786 0 0.700855C 0 1.07692 0.319328 1.40171 0.689076 1.40171L 19.0924 1.40171C 19.479 1.40171 19.7815 1.07692 19.7815 0.700855C 19.7815 0.324786 19.4622 0 19.0756 0Z"/>
<path id="path1_fill" fill-rule="evenodd" d="M 0.0168457 12.1538L 0 15.4871C 0 15.6753 0.0671387 15.8633 0.20166 16C 0.336182 16.1367 0.50415 16.2051 0.688965 16.2051L 3.94946 16.188C 4.13452 16.188 4.30249 16.1196 4.43701 15.9829L 15.6975 4.53003C 15.9663 4.25635 15.9663 3.81201 15.6975 3.52148L 12.4707 0.205078C 12.2017 -0.0683594 11.7646 -0.0683594 11.479 0.205078L 9.22681 2.51294L 0.218506 11.6582C 0.10083 11.7949 0.0168457 11.9658 0.0168457 12.1538ZM 11.9832 1.70947L 14.252 4.01709L 12.9746 5.31641L 10.7058 3.00854L 11.9832 1.70947ZM 9.71436 4.01709L 1.41187 12.4614L 1.39502 14.7693L 3.68066 14.7522L 11.9832 6.32471L 9.71436 4.01709Z"/>
</defs>
</svg>
