<svg width="22" height="19" viewBox="0 0 22 19" version="1.1" xmlns="http://www.w3.org/2000/svg" xmlns:xlink="http://www.w3.org/1999/xlink">
<title>photo-camera copy</title>
<desc>Created using Figma</desc>
<g id="Canvas" transform="translate(-54 2983)">
<g id="photo-camera copy">
<g id="Shape">
<use xlink:href="#path0_fill" transform="translate(54 -2982.98)" fill="#B2B2B7"/>
</g>
<g id="Shape">
<use xlink:href="#path1_fill" transform="translate(61.6882 -2975.68)" fill="#B2B2B7"/>
</g>
</g>
</g>
<defs>
<path id="path0_fill" fill-rule="evenodd" d="M 19.038 2.78198C 19.8466 2.78198 20.5367 3.05371 21.1088 3.59717C 21.6806 4.14038 21.9667 4.7959 21.9665 5.56396L 21.9665 15.3008C 21.9665 16.0688 21.6805 16.7246 21.1085 17.2676C 20.5363 17.811 19.8463 18.0828 19.0377 18.0828L 2.92889 18.0828C 2.1203 18.0828 1.43012 17.811 0.858002 17.2676C 0.285999 16.7246 0 16.0688 0 15.3008L 0 5.56396C 0 4.7959 0.285999 4.14038 0.858002 3.59717C 1.43012 3.05371 2.12025 2.78198 2.92889 2.78198L 5.49166 2.78198L 6.07513 1.3042C 6.22007 0.949219 6.48503 0.643066 6.87025 0.385986C 7.25547 0.128662 7.65023 0 8.05449 0L 13.9124 0C 14.3167 0 14.7113 0.128662 15.0966 0.385986C 15.4819 0.643066 15.7469 0.949219 15.8919 1.3042L 16.4752 2.78198L 19.038 2.78198ZM 10.9833 15.301C 12.3945 15.301 13.6014 14.8247 14.6044 13.8718C 15.6075 12.9192 16.1089 11.7727 16.1089 10.4326C 16.1089 9.09229 15.6074 7.9458 14.6044 6.99316C 13.6014 6.04053 12.3945 5.56421 10.9833 5.56421C 9.5722 5.56421 8.36521 6.04053 7.36226 6.99316C 6.35936 7.94604 5.85777 9.09229 5.85777 10.4326C 5.85777 11.7727 6.3592 12.9194 7.36226 13.8718C 8.36533 14.8247 9.57216 15.301 10.9833 15.301Z"/>
<path id="path1_fill" d="M 3.29511 0C 2.38742 0 1.61133 0.306097 0.966798 0.918367C 0.322266 1.53056 0 2.2676 0 3.12994C 0 3.99193 0.322266 4.72909 0.966798 5.34128C 1.61133 5.95336 2.38738 6.25946 3.29511 6.25946C 4.20268 6.25946 4.97885 5.95336 5.62338 5.34128C 6.26792 4.72909 6.59022 3.99197 6.59022 3.12994C 6.59022 2.26764 6.26792 1.5306 5.62338 0.918367C 4.97889 0.306135 4.20268 0 3.29511 0Z"/>
</defs>
</svg>
