<svg width="20" height="21" viewBox="0 0 20 21" version="1.1" xmlns="http://www.w3.org/2000/svg" xmlns:xlink="http://www.w3.org/1999/xlink">
<title>Shape</title>
<desc>Created using Figma</desc>
<g id="Canvas" transform="translate(-862 1544)">
<g id="Shape">
<use xlink:href="#path0_fill" transform="translate(862.042 -1544)" fill="#FFFFFF"/>
</g>
</g>
<defs>
<path id="path0_fill" fill-rule="evenodd" d="M 4.65986 6.05408C 4.65986 9.53137 7.01301 12.3524 9.91737 12.3524C 12.8221 12.3524 15.1773 9.53137 15.1773 6.05408C 15.1773 2.57727 12.8222 0 9.91737 0C 7.01301 0 4.65986 2.57727 4.65986 6.05408ZM 0.13276 20.2635C 0.623971 20.9404 1.73914 20.8668 1.73914 20.8668L 18.2653 20.8669C 18.2653 20.8669 19.2991 20.9548 19.7596 20.2922C 20.0176 19.9218 19.8245 19.1844 19.6361 18.7739L 19.1805 17.7805C 19.1805 17.7805 18.0718 14.9812 16.672 13.3879C 15.8348 12.4363 14.9111 12.6232 14.3041 12.927C 14.0339 13.0623 13.744 13.3702 13.4808 13.6495C 13.351 13.7874 13.2277 13.9183 13.1166 14.0181C 12.6532 14.4341 11.8345 14.9067 10.4968 14.9333L 9.67561 14.9333C 8.33711 14.9067 7.51838 14.4341 7.05464 14.0181C 6.95173 13.9258 6.83729 13.8085 6.71632 13.6844C 6.44148 13.403 6.13307 13.0868 5.85029 12.951C 5.18897 12.6333 4.16657 12.4109 3.30695 13.3878C 1.90754 14.9811 0.678232 17.7305 0.678232 17.7305L 0.233713 18.7435C 0.0521941 19.157 -0.132681 19.8979 0.13276 20.2635Z"/>
</defs>
</svg>
