<?xml version="1.0" encoding="UTF-8"?>
<svg width="32px" height="32px" viewBox="0 0 32 32" version="1.1" xmlns="http://www.w3.org/2000/svg" xmlns:xlink="http://www.w3.org/1999/xlink">
    <!-- Generator: Sketch 44.1 (41455) - http://www.bohemiancoding.com/sketch -->
    <title>ic_circle_pdf</title>
    <desc>Created with Sketch.</desc>
    <defs></defs>
    <g id="Page-1" stroke="none" stroke-width="1" fill="none" fill-rule="evenodd">
        <g id="ic_circle_pdf">
            <rect id="Rectangle-6" fill="#FFFFFF" x="0" y="0" width="32" height="32" rx="16"></rect>
            <path d="M16.1428355,8.47114617 C16.0439837,9.45164256 15.7156298,11.2374688 15.0817339,12.9905876 C14.4471468,14.7458869 13.5056351,16.4684788 12.6850959,17.7455226 C11.8659393,19.0211128 11.1636075,19.8504281 10.6292547,20.3286836 C10.0921369,20.8069391 9.7209241,20.9341347 9.47828784,20.9777446 C9.23772538,21.0213545 9.1285045,20.9777446 9.06352499,20.850549 C8.99854547,20.7233534 8.97573352,20.508938 9.0317265,20.2552736 C9.08633694,19.9987019 9.21698724,19.7007008 9.58750872,19.3198408 C9.96148655,18.9368003 10.5732618,18.4694473 11.426982,18.0318945 C12.2807022,17.5965221 13.3736023,17.1916766 14.2715638,16.9162073 C15.1695254,16.6392843 15.8690921,16.4910106 16.4815585,16.3747175 C17.0954076,16.2576975 17.6200826,16.1726582 18.1336972,16.1305019 C18.6486944,16.086892 19.1526313,16.086892 19.6448165,16.1305019 C20.1370018,16.1726582 20.618818,16.2576975 21.0349634,16.3623613 C21.4504175,16.4692056 21.8008921,16.5971281 22.1071253,16.7999142 C22.4126673,17.0012467 22.6760417,17.2781697 22.806692,17.5863464 C22.9394161,17.89525 22.9394161,18.2354074 22.8295039,18.479623 C22.7202831,18.7238385 22.5004587,18.8735659 22.2495272,18.9571516 C21.9985957,19.042191 21.7137919,19.0632691 21.3743776,18.9571516 C21.0349634,18.8510341 20.6395561,18.6177211 20.2247933,18.3080906 C19.8100304,18.0006407 19.3717643,17.6190539 18.802848,17.0230516 C18.2339316,16.4270494 17.5329824,15.6173585 16.9426366,14.8316531 C16.3522908,14.044494 15.8690921,13.2791399 15.5407381,12.6308058 C15.2137668,11.9817448 15.0381838,11.4504306 14.8957819,10.9176627 C14.75338,10.3863485 14.6441591,9.85503432 14.600609,9.37677886 C14.5570589,8.89706973 14.5777971,8.471873 14.6220384,8.13389612 C14.6655885,7.79228507 14.7326419,7.53789387 14.8411715,7.36781518 C14.9503924,7.19700965 15.1045459,7.11197031 15.2137668,7.06981405 C15.3229876,7.02620413 15.3893497,7.02620413 15.4543292,7.01675532 C15.5193087,7.00657967 15.5842882,6.98477471 15.6845226,7.01675532 C15.7799181,7.0458286 15.907112,7.12723378 16.0128765,7.19046817 C16.3039018,7.32347842 16.2389223,7.52481089 16.1428355,8.47114617 Z" id="Shape" stroke="#FF626D"></path>
        </g>
    </g>
</svg>
