<svg width="18" height="18" viewBox="0 0 18 18" version="1.1" xmlns="http://www.w3.org/2000/svg" xmlns:xlink="http://www.w3.org/1999/xlink">
<title>instagram</title>
<desc>Created using Figma</desc>
<g id="Canvas" transform="translate(7806 1683)">
<g id="instagram">
<mask id="mask0_outline" mask-type="alpha">
<g id="Clip 2">
<use xlink:href="#path0_fill" transform="translate(-7805.74 -1683)" fill="#FFFFFF"/>
</g>
</mask>
<g id="Fill 1" mask="url(#mask0_outline)">
<use xlink:href="#path1_fill" transform="translate(-7805.74 -1683)" fill="#C7AD66"/>
</g>
</g>
</g>
<defs>
<path id="path0_fill" fill-rule="evenodd" d="M 0 17.3342L 17.3785 17.3342L 17.3785 0L 0 0L 0 17.3342Z"/>
<path id="path1_fill" fill-rule="evenodd" d="M 15.4475 4.81602C 15.4475 5.08199 15.2314 5.29763 14.9648 5.29763L 12.5511 5.29763C 12.2845 5.29763 12.0684 5.08199 12.0684 4.81602L 12.0684 2.408C 12.0684 2.14203 12.2845 1.92639 12.5511 1.92639L 14.9648 1.92639C 15.2314 1.92639 15.4475 2.14203 15.4475 2.408L 15.4475 4.81602ZM 15.4477 14.9298C 15.4477 15.1958 15.2316 15.4114 14.965 15.4114L 2.41389 15.4114C 2.1473 15.4114 1.93115 15.1958 1.93115 14.9298L 1.93115 7.22412L 3.57933 7.22412C 3.44911 7.68339 3.37936 8.16807 3.37936 8.66894C 3.37936 11.5947 5.75676 13.9666 8.68944 13.9666C 11.6221 13.9666 13.9995 11.5947 13.9995 8.66894C 13.9995 8.16807 13.9298 7.68339 13.7995 7.22412L 15.4477 7.22412L 15.4477 14.9298ZM 8.6892 5.29761C 10.5555 5.29761 12.0683 6.80696 12.0683 8.66885C 12.0683 10.5307 10.5555 12.0401 8.6892 12.0401C 6.82295 12.0401 5.31006 10.5307 5.31006 8.66885C 5.31006 6.80696 6.82295 5.29761 8.6892 5.29761ZM 14.9648 0L 2.41367 0C 1.08066 0 0 1.07813 0 2.40803L 0 14.9298C 0 16.2597 1.08066 17.3378 2.41367 17.3378L 14.9648 17.3378C 16.2978 17.3378 17.3785 16.2597 17.3785 14.9298L 17.3785 2.40803C 17.3785 1.07813 16.2978 0 14.9648 0Z"/>
</defs>
</svg>
