<svg width="18" height="18" viewBox="0 0 18 18" version="1.1" xmlns="http://www.w3.org/2000/svg" xmlns:xlink="http://www.w3.org/1999/xlink">
<title>linkedin</title>
<desc>Created using Figma</desc>
<g id="Canvas" transform="translate(7970 1683)">
<g id="linkedin">
<mask id="mask0_outline" mask-type="alpha">
<g id="Clip 9">
<use xlink:href="#path0_fill" transform="translate(-7969.97 -1683)" fill="#FFFFFF"/>
</g>
</mask>
<g id="Fill 10" mask="url(#mask0_outline)">
<use xlink:href="#path1_fill" transform="translate(-7969.97 -1683)" fill="#C7AD66"/>
</g>
</g>
</g>
<defs>
<path id="path0_fill" fill-rule="evenodd" d="M 0 17.3089L 17.8799 17.3089L 17.8799 0L 0 0L 0 17.3089Z"/>
<path id="path1_fill" fill-rule="evenodd" d="M 15.2365 14.7737L 12.5852 14.7737L 12.5852 10.7499C 12.5852 9.79053 12.5678 8.55617 11.2069 8.55617C 9.82715 8.55617 9.61656 9.60174 9.61656 10.6815L 9.61656 14.7737L 6.96777 14.7737L 6.96777 6.49972L 9.50977 6.49972L 9.50977 7.63101L 9.54603 7.63101C 9.89966 6.98036 10.7654 6.29456 12.0557 6.29456C 14.7403 6.29456 15.2365 8.00763 15.2365 10.236L 15.2365 14.7737ZM 3.97718 5.36942C 3.12537 5.36942 2.43896 4.70144 2.43896 3.87789C 2.43896 3.05483 3.12537 2.38684 3.97718 2.38684C 4.8255 2.38684 5.5144 3.05483 5.5144 3.87789C 5.5144 4.70144 4.8255 5.36942 3.97718 5.36942ZM 2.6499 14.7737L 5.30415 14.7737L 5.30415 6.49976L 2.6499 6.49976L 2.6499 14.7737ZM 16.5573 0L 1.31918 0C 0.591544 0 0 0.559625 0 1.25025L 0 16.0866C 0 16.7772 0.591544 17.3378 1.31918 17.3378L 16.5573 17.3378C 17.2869 17.3378 17.8799 16.7772 17.8799 16.0866L 17.8799 1.25025C 17.8799 0.559625 17.2869 0 16.5573 0Z"/>
</defs>
</svg>
