<svg width="28" height="28" viewBox="0 0 28 28" version="1.1" xmlns="http://www.w3.org/2000/svg" xmlns:xlink="http://www.w3.org/1999/xlink">
<title>login</title>
<desc>Created using Figma</desc>
<g id="Canvas" transform="translate(7366 3163)">
<rect x="-7366" y="-3163" width="28" height="28" fill="#FFFFFF"/>
<clipPath id="clip-0" clip-rule="evenodd">
<path d="M -7643 -3174L -7323 -3174L -7323 -1651L -7643 -1651L -7643 -3174Z" fill="#FFFFFF"/>
</clipPath>
<g id="Home - Signed out" clip-path="url(#clip-0)">
<path d="M -7643 -3174L -7323 -3174L -7323 -1651L -7643 -1651L -7643 -3174Z" fill="#FFFFFF"/>
<g id="header-sign-out">
<g id="Rectangle">
<use xlink:href="#path0_fill" transform="translate(-7643 -3174)" fill="#FFFFFF"/>
</g>
<g id="login">
<g id="Shape">
<use xlink:href="#path1_fill" transform="translate(-7366 -3155.42)" fill="#BABABD"/>
</g>
<g id="Shape">
<use xlink:href="#path2_fill" transform="translate(-7365.44 -3162.95)" fill="#BABABD"/>
</g>
</g>
</g>
</g>
</g>
<defs>
<path id="path0_fill" fill-rule="evenodd" d="M 0 0L 320 0L 320 84L 0 84L 0 0Z"/>
<path id="path1_fill" d="M 0 6.1726C 0 6.7046 0.4312 7.1358 0.9632 7.1358L 19.3088 7.1358L 15.7304 10.7086C 15.3552 11.0838 15.3552 11.6942 15.7304 12.0694C 15.9152 12.2542 16.1616 12.3494 16.408 12.3494C 16.6544 12.3494 16.9008 12.2542 17.0856 12.0694L 22.2992 6.8558C 22.6744 6.4806 22.6744 5.8702 22.2992 5.495L 17.0856 0.2814C 16.7104 -0.0938 16.1 -0.0938 15.7248 0.2814C 15.3496 0.6566 15.3496 1.267 15.7248 1.6422L 19.2976 5.215L 0.9632 5.215C 0.4312 5.215 0 5.6406 0 6.1726Z"/>
<path id="path2_fill" d="M 21.6384 27.4008C 24.8136 27.4008 27.3896 24.8192 27.3896 21.644L 27.3896 5.7568C 27.3896 2.5816 24.808 0 21.6384 0L 5.7512 0C 2.576 0 0 2.5816 0 5.7568L 0 9.0216C 0 9.5536 0.4312 9.9792 0.9576 9.9792C 1.4896 9.9792 1.9208 9.548 1.9208 9.0216L 1.9208 5.7568C 1.9208 3.6456 3.64 1.9208 5.7512 1.9208L 21.6384 1.9208C 23.7496 1.9208 25.4688 3.64 25.4688 5.7568L 25.4688 21.644C 25.4688 23.7552 23.7496 25.48 21.6384 25.48L 5.7512 25.48C 3.64 25.48 1.9208 23.7608 1.9208 21.644L 1.9208 18.4184C 1.9208 17.8864 1.4896 17.4552 0.9576 17.4552C 0.4256 17.4552 0 17.8864 0 18.4184L 0 21.644C 0 24.8192 2.5816 27.4008 5.7512 27.4008L 21.6384 27.4008Z"/>
</defs>
</svg>
