<svg width="21" height="21" viewBox="0 0 21 21" version="1.1" xmlns="http://www.w3.org/2000/svg" xmlns:xlink="http://www.w3.org/1999/xlink">
<title>Group</title>
<desc>Created using Figma</desc>
<g id="Canvas" transform="translate(5787 3160)">
<g id="Group">
<g id="Rectangle 2">
<use xlink:href="#path0_fill" transform="translate(-5787 -3160)" fill="#BABABD"/>
</g>
<g id="&#216;&#185;">
<use xlink:href="#path1_fill" transform="translate(-5785 -3163)" fill="#FFFFFF"/>
</g>
</g>
</g>
<defs>
<path id="path0_fill" fill-rule="evenodd" d="M 0 5C 0 2.23858 2.23858 0 5 0L 16 0C 18.7614 0 21 2.23858 21 5L 21 16C 21 18.7614 18.7614 21 16 21L 5 21C 2.23858 21 0 18.7614 0 16L 0 5Z"/>
<path id="path1_fill" d="M 13.7239 17.2694C 12.8607 18.0217 11.848 18.5955 10.6859 18.991C 9.93844 19.2031 9.17894 19.3092 8.40739 19.3092C 7.24525 19.3092 6.26876 18.9934 5.47792 18.3617C 4.6919 17.73 4.2989 16.7052 4.2989 15.2875C 4.2989 14.6992 4.39052 14.1302 4.57376 13.5805C 4.757 13.0259 5.08491 12.4665 5.55748 11.9024C 5.78413 11.6516 5.9529 11.4659 6.06381 11.3454C 6.17955 11.22 6.28081 11.1308 6.36761 11.0778C 5.74555 10.5377 5.43452 10.0121 5.43452 9.5009C 5.41041 8.90778 5.82512 8.03014 6.67864 6.86799C 7.26695 6.18807 7.91553 5.8481 8.62439 5.8481C 8.98123 5.8481 9.33808 5.95419 9.69492 6.16637C 10.0566 6.37372 10.3194 6.54973 10.4833 6.69439C 10.6521 6.83424 10.792 6.98855 10.9029 7.15732C 11.0186 7.32128 11.0765 7.48041 11.0765 7.63472C 11.0717 7.65883 11.0596 7.67089 11.0403 7.67089C 10.3748 7.42978 9.81065 7.30922 9.34772 7.30922C 9.16448 7.30922 8.92819 7.35262 8.63886 7.43942C 8.35435 7.5214 8.05779 7.6733 7.74917 7.89512C 7.44055 8.11694 7.28624 8.34117 7.28624 8.56781C 7.28624 8.79445 7.50082 9.03556 7.93 9.29114C 8.35917 9.54671 8.61716 9.69138 8.70396 9.72514C 8.8872 9.70102 9.56231 9.54189 10.7293 9.24774C 11.1054 9.17541 11.3851 9.12236 11.5683 9.08861C 11.7564 9.05003 12.0096 8.99216 12.3278 8.91501L 11.6551 11.0054L 11.6045 11.0054C 11.4164 11.0054 10.9824 11.0729 10.3025 11.208C 7.03307 11.9699 5.39835 13.2285 5.39835 14.9837C 5.39835 15.2972 5.57436 15.6492 5.92638 16.0398C 6.70758 16.6088 7.6696 16.9608 8.81246 17.0958C 9.17412 17.1634 9.50203 17.2068 9.79618 17.226C 10.0903 17.2453 10.5967 17.267 11.3152 17.2911C 12.3327 17.2719 13.1355 17.2646 13.7239 17.2694Z"/>
</defs>
</svg>
