<svg width="25" height="17" viewBox="0 0 25 17" version="1.1" xmlns="http://www.w3.org/2000/svg" xmlns:xlink="http://www.w3.org/1999/xlink">
<title>menu-button</title>
<desc>Created using Figma</desc>
<g id="Canvas" transform="translate(6012 3158)">
<rect x="-6012" y="-3158" width="25" height="17" fill="#FFFFFF"/>
<clipPath id="clip-0" clip-rule="evenodd">
<path d="M -6027 -3174L -5707 -3174L -5707 -1597L -6027 -1597L -6027 -3174Z" fill="#FFFFFF"/>
</clipPath>
<g id="Home - Signed in" clip-path="url(#clip-0)">
<path d="M -6027 -3174L -5707 -3174L -5707 -1597L -6027 -1597L -6027 -3174Z" fill="#FFFFFF"/>
<g id="header-sign-in">
<g id="Rectangle">
<use xlink:href="#path0_fill" transform="translate(-6027 -3174)" fill="#FFFFFF"/>
</g>
<g id="menu-button">
<g id="Shape">
<use xlink:href="#path1_fill" transform="translate(-6012 -3157.97)" fill="#BABABD"/>
</g>
</g>
</g>
</g>
</g>
<defs>
<path id="path0_fill" fill-rule="evenodd" d="M 0 0L 320 0L 320 84L 0 84L 0 0Z"/>
<path id="path1_fill" fill-rule="evenodd" d="M 0 2.77783L 0 0L 25 0L 25 2.77783L 0 2.77783ZM 0 9.72217L 25 9.72217L 25 6.94434L 0 6.94434L 0 9.72217ZM 0 16.6667L 25 16.6667L 25 13.8889L 0 13.8889L 0 16.6667Z"/>
</defs>
</svg>
