<?xml version="1.0" encoding="utf-8"?>
<!-- Generator: Adobe Illustrator 22.1.0, SVG Export Plug-In . SVG Version: 6.00 Build 0)  -->
<svg version="1.1" id="Layer_1" xmlns="http://www.w3.org/2000/svg" xmlns:xlink="http://www.w3.org/1999/xlink" x="0px" y="0px"
	 viewBox="0 0 300 67" style="enable-background:new 0 0 300 67;" xml:space="preserve">
<style type="text/css">
	.st0{filter:url(#Adobe_OpacityMaskFilter);}
	.st1{fill:#FFFFFF;}
	.st2{mask:url(#mask-2_1_);fill:#EB8B2D;}
	.st3{filter:url(#Adobe_OpacityMaskFilter_1_);}
	.st4{mask:url(#mask-2_2_);fill:#EB8B2D;}
	.st5{fill:#000203;}
	.st6{fill:#EB8B2D;}
	.st7{fill:#4F4F4C;}
	.st8{fill:#D37829;}
</style>
<g id="Desktop---Others">
	<g id="MEPE-ENG-Outline">
		<g id="Group-4" transform="translate(219.740260, 46.753247)">
			<g id="Clip-2">
			</g>
			<defs>
				<filter id="Adobe_OpacityMaskFilter" filterUnits="userSpaceOnUse" x="0.6" y="0.3" width="79" height="19.1">
					<feColorMatrix  type="matrix" values="1 0 0 0 0  0 1 0 0 0  0 0 1 0 0  0 0 0 1 0"/>
				</filter>
			</defs>
			<mask maskUnits="userSpaceOnUse" x="0.6" y="0.3" width="79" height="19.1" id="mask-2_1_">
				<g class="st0">
					<polygon id="path-1_1_" class="st1" points="0.6,0.3 79.6,0.3 79.6,19.4 0.6,19.4 					"/>
				</g>
			</mask>
			<polygon id="Fill-1" class="st2" points="0.6,19.4 79.6,19.4 79.6,0.3 0.6,0.3 			"/>
			<defs>
				<filter id="Adobe_OpacityMaskFilter_1_" filterUnits="userSpaceOnUse" x="0.6" y="0.3" width="79" height="19.1">
					<feColorMatrix  type="matrix" values="1 0 0 0 0  0 1 0 0 0  0 0 1 0 0  0 0 0 1 0"/>
				</filter>
			</defs>
			<mask maskUnits="userSpaceOnUse" x="0.6" y="0.3" width="79" height="19.1" id="mask-2_2_">
				<g class="st3">
					<polygon id="path-1_2_" class="st1" points="0.6,0.3 79.6,0.3 79.6,19.4 0.6,19.4 					"/>
				</g>
			</mask>
			<polygon id="Fill-3" class="st4" points="0.6,19.4 79.6,19.4 79.6,0.3 0.6,0.3 			"/>
		</g>
		<path id="Fill-5" class="st5" d="M236.1,52.6v11.1h-2.5l0-7.5l-1,7.5h-1.8l-1.1-7.3l0,7.3h-2.5V52.6h3.7c0.1,0.7,0.2,1.5,0.3,2.4
			l0.4,2.8l0.7-5.2H236.1"/>
		<path id="Fill-6" class="st5" d="M237.2,63.7h2.8v-9.1h-2.8V63.7z M237.2,54h2.8v-1.4h-2.8V54z"/>
		<path id="Fill-7" class="st5" d="M244.6,56.9c0-0.3,0-0.6-0.1-0.7c-0.1-0.1-0.2-0.2-0.3-0.2c-0.2,0-0.3,0.1-0.3,0.2
			c-0.1,0.1-0.1,0.3-0.1,0.7v4.4c0,0.4,0,0.6,0.1,0.7c0.1,0.1,0.2,0.2,0.3,0.2c0.2,0,0.3-0.1,0.4-0.2c0.1-0.1,0.1-0.4,0.1-1V56.9z
			 M247.4,52.6v11.1h-2.8V63c-0.3,0.3-0.5,0.5-0.8,0.6c-0.3,0.1-0.6,0.2-0.9,0.2c-0.4,0-0.8-0.1-1.1-0.3c-0.3-0.2-0.5-0.5-0.6-0.8
			c-0.1-0.3-0.1-0.8-0.1-1.5V57c0-0.7,0-1.2,0.1-1.5c0.1-0.3,0.3-0.5,0.6-0.8c0.3-0.2,0.7-0.3,1.1-0.3c0.3,0,0.7,0.1,0.9,0.2
			c0.3,0.1,0.5,0.3,0.8,0.6v-2.6H247.4z"/>
		<path id="Fill-8" class="st5" d="M252,56.9c0-0.3,0-0.6-0.1-0.7c-0.1-0.1-0.2-0.2-0.3-0.2c-0.2,0-0.3,0.1-0.3,0.2
			c-0.1,0.1-0.1,0.3-0.1,0.7v4.4c0,0.4,0,0.6,0.1,0.7c0.1,0.1,0.2,0.2,0.3,0.2c0.2,0,0.3-0.1,0.4-0.2c0.1-0.1,0.1-0.4,0.1-1V56.9z
			 M254.7,52.6v11.1H252V63c-0.3,0.3-0.5,0.5-0.8,0.6c-0.3,0.1-0.6,0.2-0.9,0.2c-0.4,0-0.8-0.1-1.1-0.3c-0.3-0.2-0.5-0.5-0.6-0.8
			c-0.1-0.3-0.1-0.8-0.1-1.5V57c0-0.7,0-1.2,0.1-1.5c0.1-0.3,0.3-0.5,0.6-0.8c0.3-0.2,0.7-0.3,1.1-0.3c0.3,0,0.7,0.1,0.9,0.2
			c0.3,0.1,0.5,0.3,0.8,0.6v-2.6H254.7z"/>
		<polygon id="Fill-9" class="st5" points="255.8,63.7 258.6,63.7 258.6,52.6 255.8,52.6 		"/>
		<path id="Fill-10" class="st5" d="M263.2,57.8v-0.7c0-0.5,0-0.8-0.1-0.9c0-0.1-0.2-0.2-0.3-0.2c-0.2,0-0.3,0.1-0.4,0.2
			c0,0.1-0.1,0.4-0.1,0.9v0.7H263.2z M266,59.3h-3.6v2c0,0.4,0,0.7,0.1,0.8c0.1,0.1,0.2,0.2,0.3,0.2c0.2,0,0.3-0.1,0.4-0.2
			c0.1-0.2,0.1-0.5,0.1-0.9v-1.2h2.6v0.7c0,0.6,0,1-0.1,1.3c-0.1,0.3-0.2,0.6-0.5,1c-0.3,0.3-0.6,0.6-1,0.8
			c-0.4,0.2-0.9,0.3-1.5,0.3c-0.6,0-1.1-0.1-1.5-0.3c-0.4-0.2-0.8-0.4-1-0.7c-0.2-0.3-0.4-0.6-0.5-1c-0.1-0.4-0.1-0.9-0.1-1.5v-2.6
			c0-0.8,0.1-1.4,0.3-1.9c0.2-0.5,0.6-0.8,1.1-1.1c0.5-0.2,1-0.4,1.7-0.4c0.8,0,1.4,0.1,1.9,0.4c0.5,0.3,0.9,0.7,1.1,1.2
			c0.2,0.5,0.3,1.2,0.3,2V59.3z"/>
		<polyline id="Fill-11" class="st5" points="269.6,52.6 274.4,52.6 274.4,54.8 272.4,54.8 272.4,56.9 274.2,56.9 274.2,59 
			272.4,59 272.4,61.5 274.6,61.5 274.6,63.7 269.6,63.7 269.6,52.6 		"/>
		<path id="Fill-12" class="st5" d="M278.7,59.4c-0.4,0.3-0.7,0.6-0.8,0.8c-0.1,0.2-0.1,0.5-0.1,0.9c0,0.5,0,0.8,0.1,0.9
			c0.1,0.1,0.2,0.2,0.4,0.2c0.2,0,0.3-0.1,0.3-0.2c0.1-0.1,0.1-0.4,0.1-0.8V59.4z M277.8,58.1h-2.6v-0.6c0-0.7,0.1-1.2,0.2-1.6
			c0.2-0.4,0.5-0.7,1-1c0.5-0.3,1.1-0.4,1.9-0.4c0.9,0,1.6,0.2,2.1,0.5c0.5,0.3,0.8,0.7,0.9,1.2c0.1,0.5,0.1,1.5,0.1,3v4.6h-2.7
			v-0.8c-0.2,0.3-0.4,0.6-0.7,0.7c-0.3,0.2-0.6,0.2-1,0.2c-0.5,0-0.9-0.1-1.3-0.4c-0.4-0.3-0.6-0.9-0.6-1.8v-0.7
			c0-0.7,0.1-1.1,0.3-1.4c0.2-0.2,0.7-0.5,1.6-0.9c0.9-0.4,1.4-0.6,1.5-0.7c0.1-0.1,0.1-0.4,0.1-0.8c0-0.5,0-0.8-0.1-0.9
			c-0.1-0.1-0.2-0.2-0.4-0.2c-0.2,0-0.3,0.1-0.3,0.2c0,0.1-0.1,0.4-0.1,0.9V58.1z"/>
		<path id="Fill-13" class="st5" d="M288.1,57.5h-2.4V57c0-0.4,0-0.7-0.1-0.8c0-0.1-0.2-0.2-0.4-0.2c-0.2,0-0.3,0.1-0.3,0.2
			c-0.1,0.1-0.1,0.3-0.1,0.5c0,0.3,0,0.5,0.1,0.6c0,0.1,0.2,0.3,0.3,0.4c0.2,0.2,0.6,0.4,1.2,0.7c0.8,0.4,1.3,0.8,1.6,1.1
			c0.3,0.3,0.4,0.9,0.4,1.5c0,0.7-0.1,1.3-0.3,1.7c-0.2,0.4-0.5,0.7-1,0.9c-0.5,0.2-1,0.3-1.6,0.3c-0.7,0-1.3-0.1-1.8-0.3
			c-0.5-0.2-0.8-0.5-1-0.9c-0.2-0.4-0.3-0.9-0.3-1.7v-0.4h2.4v0.6c0,0.5,0,0.8,0.1,1c0.1,0.1,0.2,0.2,0.4,0.2c0.2,0,0.3,0,0.4-0.1
			c0.1-0.1,0.1-0.3,0.1-0.6c0-0.4,0-0.7-0.2-0.8c-0.1-0.1-0.6-0.4-1.6-1c-0.8-0.5-1.3-0.9-1.5-1.2c-0.2-0.4-0.3-0.8-0.3-1.3
			c0-0.7,0.1-1.3,0.3-1.6c0.2-0.3,0.5-0.6,1-0.8c0.5-0.2,1-0.3,1.6-0.3c0.6,0,1.1,0.1,1.5,0.2c0.4,0.2,0.7,0.4,1,0.6
			c0.2,0.3,0.4,0.5,0.4,0.7c0,0.2,0.1,0.5,0.1,1V57.5"/>
		<g id="Group-17" transform="translate(0.000000, 44.415584)">
			<path id="Fill-14" class="st5" d="M292.1,9v1.4h0.7v1.4h-0.7v4.9c0,0.6,0,0.9,0.1,1c0.1,0.1,0.3,0.1,0.8,0.1v1.5h-1.1
				c-0.6,0-1.1,0-1.3-0.1c-0.3-0.1-0.5-0.2-0.7-0.4c-0.2-0.2-0.3-0.4-0.4-0.7c0-0.2-0.1-0.8-0.1-1.7v-4.6h-0.6v-1.4h0.6V9H292.1"/>
			<path id="Fill-16" class="st5" d="M131.6,0.4c-1.7,1.3-3.9,2-6.2,2c-2.3,0-4.4-0.7-6.2-2H0V5h299.3V0.4H131.6"/>
		</g>
		<path id="Fill-18" class="st5" d="M98.1,6.8c0.1-0.5,0.1-0.9-0.1-1.3c-0.2-0.4-0.6-0.6-1.2-0.8c-0.6-0.1-1,0-1.3,0.3
			C95.2,5.3,95,5.7,95,6c0,0.2,0,0.5,0.1,0.9c0.1,0.4,0.3,1,0.7,1.8c0.7-0.4,1.3-0.7,1.6-1C97.8,7.4,98,7.1,98.1,6.8z M96.6,17.3
			c-0.5-1-0.9-1.7-1.2-2.3s-0.7-1.3-1.1-2.2c-1,0.5-1.7,1-2.2,1.5c-0.5,0.5-0.8,1-0.9,1.5c-0.1,0.6,0,1.1,0.2,1.5s0.8,0.7,1.5,0.9
			c0.6,0.1,1.1,0.1,1.7,0C95.2,18.1,95.9,17.8,96.6,17.3z M103.8,23.6c-0.7-0.1-1.4-0.3-2-0.4c-0.7-0.1-1.3-0.3-2-0.4
			c-0.3-0.5-0.6-0.9-0.8-1.3c-0.2-0.3-0.5-0.8-0.8-1.3c-1,0.7-2.1,1.2-3.1,1.3C94,21.7,93,21.6,92,21.4c-1.9-0.4-3.3-1.2-4.1-2.2
			c-0.8-1.1-1-2.4-0.7-3.9c0.3-1.3,0.9-2.3,1.8-3.1c0.9-0.8,2.2-1.5,4-2.2c-0.8-1.4-1.2-2.5-1.3-3.1c-0.1-0.6-0.1-1.2,0-1.7
			c0.3-1.3,0.9-2.2,2-2.8c1.1-0.6,2.3-0.8,3.7-0.5c1.7,0.4,2.9,1,3.6,2s0.9,2,0.7,3.2c-0.2,1-0.7,1.8-1.3,2.4
			c-0.7,0.6-1.8,1.2-3.3,1.9c0.3,0.7,0.7,1.3,1,1.9c0.3,0.6,0.7,1.4,1.3,2.4c0.9-0.6,1.5-1.2,2-1.8c0.5-0.6,1.1-1.3,1.7-2.3l2.6,2.2
			c-0.5,0.9-1.2,1.8-2.1,2.8c-0.9,0.9-1.7,1.6-2.4,2.1c0.8,1.4,1.4,2.4,1.8,3.1C103.1,22.4,103.5,23,103.8,23.6z"/>
		<path id="Fill-19" class="st6" d="M124.1,25.3C124.1,25.3,124.1,25.3,124.1,25.3l1.5,0h0.8l0.4,0l-3-1.7c0,0,0,0,0,0l-0.4,1.4
			c0,0,0,0,0,0L124.1,25.3"/>
		<path id="Fill-20" class="st6" d="M133.1,19.9c-0.4,0-0.7-0.3-0.7-0.7c0-0.4,0.3-0.7,0.7-0.7s0.7,0.3,0.7,0.7
			C133.8,19.6,133.5,19.9,133.1,19.9z M134.9,17.5h-1.8c0,0,0,0-0.1,0c-0.9,0-1.7,0.6-1.9,1.5l-1.4,6.2h1.6l2.3,2.4h1.2V17.5z"/>
		<polyline id="Fill-21" class="st6" points="127.4,26.9 130.7,26.9 134.1,30.5 137.1,30.5 137.1,29.2 134.7,29.2 131.3,25.6 
			123.8,25.6 123.8,26.9 127.4,26.9 		"/>
		<path id="Fill-22" class="st6" d="M140.8,29l-2.3-0.6v6.4c0,1.4,1,2.7,2.3,3V29"/>
		<path id="Fill-23" class="st6" d="M139.5,23.7l1.3,0.2v-7c-0.5-0.2-1.1,0-1.4,0.4c0,0,0,0,0,0l-0.4,0.6l0.7,0.5l-1.1,4.6
			C138.7,23.4,139.1,23.6,139.5,23.7"/>
		<path id="Fill-24" class="st6" d="M123.2,24.9l0.1,0c0,0,0,0,0,0l0.5-1.4c0,0,0,0,0,0l-0.1,0c-0.2-0.1-0.5,0.1-0.5,0.3l0,0
			c0,0,0,0,0,0l-4.3-1.2c0,0,0,0,0,0c0,0.1-0.1,0.3-0.2,0.4l-0.1,0.1l4.4,1.2c0,0,0,0,0,0l0,0C122.8,24.6,123,24.9,123.2,24.9"/>
		<path id="Fill-25" class="st6" d="M138,22.3c0-0.1,0-0.2,0-0.3l0.7-7.7c0.1-0.6,0.2-1.2,0.4-1.8l1.7-5.2V3.7h-4.1v2h0v0.4
			c0,0.4,0.4,0.8,0.8,0.8h1.3l-1.4,4.3c-0.5,1.5-0.8,3.1-1,4.7l-0.7,6.9h2.2C138,22.6,138,22.5,138,22.3"/>
		<path id="Fill-26" class="st6" d="M140.8,28.6v-4.3l-1.5-0.3c-0.4-0.1-0.8-0.3-1-0.7c0,0,0,0,0,0h-2.4l-0.1,3.8L140.8,28.6"/>
		<path id="Fill-27" class="st6" d="M125.3,34.9c-0.9,0.1-1.5,0.8-1.6,1.6c0,0.4,0.1,0.7,0.2,1c0.3,0.5,0.9,0.9,1.5,0.9
			c0.7,0,1.4-0.5,1.6-1.1c0.1-0.2,0.1-0.4,0.1-0.6C127.2,35.6,126.3,34.8,125.3,34.9"/>
		<path id="Fill-28" class="st6" d="M128.5,37C128.4,37,128.4,37,128.5,37c-0.4-0.5,0.1-1,0.5-0.7c0,0,0.1,0.1,0.1,0.1
			C129.4,36.8,128.9,37.3,128.5,37z M127.9,38.5c0,0,0-0.1,0-0.1c0-0.5,0.6-0.7,0.9-0.2c0,0,0,0.1,0,0.1
			C128.8,38.8,128.1,38.9,127.9,38.5z M127.5,37.3c-0.3,0.9-1.1,1.5-2,1.5c-0.8,0-1.6-0.5-1.9-1.2c-0.3-0.5-0.3-1.2,0-1.9
			c0.2-0.4,0.6-0.8,1-1c1.5-0.6,3,0.5,3,2C127.6,36.9,127.6,37.1,127.5,37.3z M127.5,39.7c-0.3,0.5-0.9,0.3-0.9-0.2c0,0,0-0.1,0-0.1
			c0.3-0.5,0.9-0.3,0.9,0.2C127.5,39.6,127.5,39.6,127.5,39.7z M125.8,40.2C125.8,40.2,125.8,40.3,125.8,40.2
			c-0.5,0.4-1-0.1-0.7-0.5c0,0,0.1-0.1,0.1-0.1C125.6,39.3,126.1,39.7,125.8,40.2z M123.4,39.7c0,0,0-0.1,0-0.1
			c0-0.5,0.6-0.7,0.9-0.2c0,0,0,0.1,0,0.1C124.3,39.9,123.6,40.1,123.4,39.7z M122.2,35.2c0,0,0-0.1,0-0.1c0-0.5,0.6-0.7,0.9-0.2
			c0,0,0,0.1,0,0.1C123.1,35.5,122.5,35.6,122.2,35.2z M123,38.5c-0.3,0.5-0.9,0.3-0.9-0.2c0,0,0-0.1,0-0.1c0.3-0.5,0.9-0.3,0.9,0.2
			C123.1,38.4,123.1,38.4,123,38.5z M121.8,36.4C121.8,36.3,121.9,36.3,121.8,36.4c0.5-0.4,1,0.1,0.7,0.5c0,0-0.1,0.1-0.1,0.1
			C122,37.3,121.5,36.8,121.8,36.4z M123.4,33.6c0.3-0.5,0.9-0.3,0.9,0.2c0,0,0,0.1,0,0.1c-0.3,0.5-0.9,0.3-0.9-0.2
			C123.4,33.7,123.4,33.7,123.4,33.6z M125.1,33.1C125.1,33.1,125.2,33,125.1,33.1c0.5-0.4,1,0.1,0.7,0.5c0,0-0.1,0.1-0.1,0.1
			C125.3,34,124.8,33.5,125.1,33.1z M127.5,33.6c0,0,0,0.1,0,0.1c0,0.5-0.6,0.7-0.9,0.2c0,0,0-0.1,0-0.1
			C126.6,33.3,127.3,33.2,127.5,33.6z M127.9,34.8c0.3-0.5,0.9-0.3,0.9,0.2c0,0,0,0.1,0,0.1c-0.3,0.5-0.9,0.3-0.9-0.2
			C127.8,34.9,127.9,34.9,127.9,34.8z M129.2,33.7c-1.1-1.4-3.1-2.2-5.1-1.6c-1.3,0.4-2.4,1.4-2.9,2.6c-0.4,1.1-0.5,2.1-0.2,3
			c0.5,2.1,2.4,3.6,4.6,3.6c2.5,0,4.5-1.9,4.7-4.3c0-0.1,0-0.3,0-0.4c0-1.1-0.4-2-0.9-2.8C129.2,33.8,129.2,33.7,129.2,33.7z"/>
		<path id="Fill-29" class="st6" d="M108.5,19.5c0.2-0.1,0.5,0,0.6,0.2c0.1,0.2,0,0.5-0.2,0.6c-0.2,0.1-0.5,0-0.6-0.2
			C108.2,19.8,108.3,19.6,108.5,19.5z M107.9,20.7l0.9-0.1c0.2,0,0.4-0.2,0.5-0.4c0.1-0.1,0.1-0.3,0.1-0.5l0,0c0-0.1,0-0.2-0.1-0.2
			c-0.1-0.3-0.4-0.4-0.8-0.4l-0.9,0.1c-0.2-0.7-0.4-1.5-0.7-2.2L89,22.9c2.4,5.7,8.4,9.1,13.4,7.5C106.2,29.1,108.4,25.1,107.9,20.7
			z"/>
		<path id="Fill-30" class="st6" d="M106.7,16.2l-1.1-2.6c-0.1-0.3-0.6-0.5-1-0.4l0,0c-0.4,0.1-0.6,0.5-0.5,0.9l0.3,0.8l-15.3,5
			l-1.5-2.1c-0.2-0.3-0.6-0.5-1-0.3l0,0l2.1,4.6l16.6-5.4L106.7,16.2"/>
		<path id="Fill-31" class="st6" d="M109.5,27.5c0,0-0.1,0-0.1,0c-0.3,0-0.5-0.2-0.6-0.5c0-0.3,0.2-0.6,0.5-0.7c0.2,0,0.3,0,0.4,0.1
			c0.1,0.1,0.2,0.2,0.2,0.4C110.1,27.2,109.9,27.5,109.5,27.5z M117.7,22.1c0.1,0,0.3,0,0.4,0.1c0,0,0,0,0,0c0,0.1,0.1,0.1,0.1,0.2
			c0,0.2-0.1,0.4-0.2,0.4c0,0-0.1,0-0.1,0c0,0,0,0,0,0c-0.2,0-0.4-0.2-0.5-0.4C117.3,22.3,117.5,22.1,117.7,22.1z M118.5,16
			c0.2,0,0.4,0.2,0.4,0.4s-0.2,0.4-0.4,0.4c-0.2,0-0.4-0.2-0.4-0.4S118.3,16,118.5,16z M117.2,23c0.2,0.3,0.5,0.4,0.8,0.3l0,0
			c0.1,0,0.2-0.1,0.3-0.2c0,0,0,0,0-0.1c0.1-0.1,0.2-0.3,0.1-0.5l0-0.2l-0.1-0.6l12.1-1.4l0.4-1.8c0.2-1,1-1.1,1.8-1.4
			c0,0-0.1,0-0.1,0L119,17l0.1-0.4l0,0c0.1-0.3-0.1-0.7-0.4-0.8l0,0c-0.3-0.1-0.7,0.1-0.8,0.4l-0.1,0.5l-0.1,0.4l-1.6,0
			c-0.9,0-1.8,0.5-2.3,1.2l-5.6,7.6c-0.5,0.7-0.4,1.7,0.3,2.3l0,0c0.6,0.5,1.6,0.5,2.2-0.1l6.1-5.6L117.2,23z"/>
		<path id="Fill-32" class="st6" d="M116.5,12.8c0.1,0,0.2,0,0.3,0.1c0.1,0.1,0.2,0.2,0.2,0.4c0,0.1,0,0.2-0.1,0.2
			c-0.1,0.1-0.2,0.2-0.4,0.2c-0.2,0-0.4-0.2-0.4-0.5C116.1,13,116.3,12.8,116.5,12.8z M118.7,14.1l-0.5-0.6l-0.7-0.8l-0.1-0.1
			c-0.4-0.5-1.2-0.5-1.6-0.1l0,0c-0.4,0.4-0.5,1-0.2,1.5l-6.4,4.9c0.1,0,0.1,0.1,0.2,0.1l0,0c0.1,0.1,0.2,0.3,0.2,0.5l6.5-4.8
			l1.5,1.7c0,0,0,0,0,0l0-0.1c-0.1-0.4,0.2-0.8,0.5-0.9l0,0c0.4-0.1,0.8,0.1,0.9,0.5l0.2,0.6c0,0,0,0,0,0l0,0
			c0.5-0.4,0.5-1.1,0.1-1.6L118.7,14.1z"/>
		<path id="Fill-33" class="st6" d="M134.3,28.4l0.5,0.5h2.6v1.9H134l-2.3-2.4h-1.8v0.3h0c0,0.1,0,0.2,0.1,0.2
			c0.1,0.1,0.4,0,0.6-0.2c0,0,0.1-0.1,0.1-0.1l0.1-0.1l0.1,0.1c0,0,0.1,0.1,0.1,0.1c0.1,0.1,0.2,0.1,0.2,0.2l0.1,0.1l-0.1,0.2
			c-0.1,0.2-0.2,0.6-0.1,0.7c0,0,0.1,0,0.1,0c0.1,0,0.2,0,0.5-0.3l0.1-0.1l0.1,0.1c0.1,0.1,0.3,0.2,0.4,0.4l0.1,0.1l-0.1,0.1
			c-0.2,0.2-0.3,0.5-0.2,0.7c0,0,0.1,0.1,0.2,0.1c0.1,0,0.2,0,0.5-0.2l0.1-0.1l0.1,0.2c0.1,0.1,0.2,0.2,0.3,0.4l0.1,0.1l-0.1,0.1
			c-0.3,0.3-0.4,0.5-0.3,0.7c0,0,0.1,0.1,0.3,0.1c0.1,0,0.3,0,0.4-0.1l0.2,0l0.1,0.2c0.1,0.1,0.1,0.2,0.2,0.3l0.1,0.2l-0.2,0.1
			c-0.3,0.2-0.5,0.4-0.4,0.5h4.2v-5.1H134.3"/>
		<path id="Fill-34" class="st6" d="M119.5,15l6.6,0.5c0,0,0,0,0,0l0,0c0,0.3,0.2,0.6,0.5,0.6l0.2,0c0,0,0,0,0,0l0.2-1.8
			c0,0,0,0,0,0l-0.2,0c-0.3,0-0.6,0.2-0.6,0.5l0,0c0,0,0,0,0,0l-7.4-0.6L119.5,15C119.5,15,119.5,15,119.5,15"/>
		<path id="Fill-35" class="st7" d="M130.7,37c-0.2,2.7-2.5,4.9-5.2,4.9c-2.4,0-4.6-1.7-5.1-4.1c-0.1-0.4-0.1-0.8-0.1-1.2
			c0-2.9,2.4-5.3,5.3-5.3c1.4,0,2.7,0.6,3.7,1.5c0.3,0.3,0.5,0.6,0.7,0.9c0.5,0.8,0.8,1.8,0.8,2.8C130.7,36.8,130.7,36.9,130.7,37z
			 M134.8,36c0-0.1,0-0.3,0-0.4c-0.5,0-0.8-0.2-0.8-0.5c0-0.3,0.2-0.5,0.6-0.7c0-0.1-0.1-0.2-0.1-0.3l0-0.1c0,0,0,0,0,0
			c-0.4,0-0.7,0-0.8-0.2c0,0,0-0.1,0-0.1c-0.1-0.3,0.1-0.6,0.5-0.8c0-0.1-0.1-0.2-0.2-0.3l0-0.1c0,0,0,0,0-0.1
			c-0.5,0.1-0.8,0.1-0.9-0.1c-0.1-0.2,0-0.6,0.4-0.9c-0.1-0.1-0.2-0.2-0.3-0.4l0,0c-0.5,0.2-0.8,0.2-0.9,0.1
			c-0.2-0.2-0.1-0.5,0.2-0.9c-0.1-0.1-0.2-0.2-0.4-0.4c-0.4,0.3-0.7,0.4-0.9,0.2c-0.2-0.2-0.2-0.5,0.1-0.9l0,0
			c-0.1-0.1-0.2-0.2-0.4-0.3c-0.3,0.4-0.7,0.5-0.9,0.4c-0.2-0.1-0.3-0.4-0.1-0.9c0,0,0,0,0,0l-0.1-0.1c-0.1-0.1-0.2-0.1-0.3-0.2
			c-0.3,0.4-0.6,0.6-0.8,0.5c-0.3-0.1-0.4-0.4-0.3-0.9l-0.1,0c-0.1,0-0.2-0.1-0.3-0.1c-0.2,0.5-0.5,0.7-0.7,0.6
			c-0.3,0-0.4-0.3-0.5-0.8c-0.1,0-0.3,0-0.4,0c-0.1,0.5-0.3,0.7-0.6,0.7c-0.3,0-0.5-0.3-0.6-0.7c-0.1,0-0.3,0-0.4,0
			c0,0.5-0.2,0.8-0.5,0.8c0,0,0,0-0.1,0c-0.2,0-0.5-0.2-0.7-0.7c-0.1,0-0.2,0.1-0.3,0.1l-0.1,0c0.1,0.5-0.1,0.8-0.3,0.9
			c0,0-0.1,0-0.1,0c-0.2,0-0.5-0.2-0.7-0.5c-0.1,0.1-0.2,0.1-0.3,0.2l-0.1,0.1c0.2,0.5,0.1,0.8-0.1,0.9c-0.2,0.1-0.6,0-0.9-0.4
			c-0.1,0.1-0.3,0.2-0.4,0.3l0,0c0.2,0.5,0.3,0.8,0.1,0.9c-0.2,0.2-0.5,0.1-0.9-0.2c-0.1,0.1-0.2,0.2-0.4,0.4
			c0.3,0.4,0.4,0.7,0.2,0.9c-0.2,0.2-0.5,0.2-0.9-0.1l0,0c-0.1,0.1-0.2,0.2-0.3,0.3c0.4,0.3,0.5,0.7,0.4,0.9
			c-0.1,0.2-0.4,0.3-0.9,0.1c0,0,0,0,0,0l0,0.1c-0.1,0.1-0.1,0.2-0.2,0.3c0.4,0.3,0.6,0.6,0.5,0.8c-0.1,0.2-0.4,0.4-0.9,0.3
			c0,0,0,0,0,0l0,0.1c0,0.1-0.1,0.2-0.1,0.3c0.5,0.2,0.7,0.5,0.6,0.7c0,0.3-0.3,0.4-0.8,0.5c0,0.1,0,0.3,0,0.4
			c0.5,0.1,0.7,0.3,0.7,0.6c0,0.3-0.3,0.5-0.7,0.6c0,0.1,0,0.3,0,0.4c0.4,0,0.7,0.1,0.8,0.3c0,0,0,0.1,0.1,0.1
			c0,0.3-0.2,0.5-0.6,0.7c0,0.1,0.1,0.2,0.1,0.3l0,0c0,0,0,0.1,0,0.1c0.5-0.1,0.8,0.1,0.9,0.3c0.1,0.3-0.1,0.6-0.5,0.8
			c0.1,0.1,0.1,0.2,0.2,0.3c0,0,0,0.1,0.1,0.1c0.5-0.1,0.8-0.1,0.9,0.1c0.1,0.2,0,0.6-0.4,0.9c0.1,0.1,0.2,0.2,0.3,0.3l0,0
			c0.5-0.2,0.8-0.2,0.9-0.1c0.2,0.2,0.1,0.5-0.2,0.9c0.1,0.1,0.2,0.2,0.4,0.4c0.4-0.3,0.7-0.4,0.9-0.2c0.2,0.2,0.2,0.5-0.1,0.9l0,0
			c0.1,0.1,0.2,0.2,0.4,0.3c0.3-0.4,0.7-0.5,0.9-0.4c0.2,0.1,0.3,0.4,0.1,0.9l0,0c0,0,0.1,0,0.1,0.1c0.1,0.1,0.2,0.1,0.3,0.2
			c0.3-0.4,0.6-0.6,0.8-0.5c0.3,0.1,0.4,0.4,0.3,0.9l0.1,0c0.1,0,0.2,0.1,0.3,0.1c0.2-0.4,0.4-0.6,0.7-0.6c0,0,0,0,0.1,0
			c0.3,0,0.4,0.3,0.5,0.8c0.1,0,0.3,0,0.4,0c0.1-0.5,0.3-0.7,0.6-0.7c0.3,0,0.5,0.3,0.6,0.7c0.2,0,0.3,0,0.4,0
			c0-0.5,0.2-0.8,0.5-0.8c0,0,0,0,0.1,0c0.2,0,0.5,0.2,0.7,0.6c0.1,0,0.2-0.1,0.3-0.1l0.1,0c-0.1-0.5,0.1-0.8,0.3-0.9
			c0.3-0.1,0.6,0.1,0.8,0.5c0.1,0,0.2-0.1,0.3-0.2l0.1-0.1c-0.1-0.5-0.1-0.8,0.1-0.9c0.2-0.1,0.6,0,0.9,0.4c0.1-0.1,0.2-0.2,0.4-0.3
			l0,0c-0.2-0.5-0.3-0.8-0.1-0.9c0.2-0.2,0.5-0.1,0.9,0.2c0.1-0.1,0.2-0.2,0.4-0.4c-0.3-0.4-0.4-0.7-0.2-0.9
			c0.2-0.2,0.5-0.2,0.9,0.1c0.1-0.1,0.2-0.2,0.3-0.4c-0.4-0.3-0.5-0.7-0.4-0.9c0.1-0.2,0.4-0.3,0.9-0.1c0.1-0.1,0.2-0.3,0.2-0.4
			c-0.4-0.3-0.6-0.6-0.5-0.8c0.1-0.2,0.4-0.4,0.9-0.3c0,0,0-0.1,0-0.1l0,0c0-0.1,0.1-0.2,0.1-0.3c-0.5-0.2-0.7-0.5-0.6-0.7
			c0-0.3,0.3-0.4,0.8-0.5c0-0.2,0-0.3,0-0.4c-0.4-0.1-0.6-0.3-0.7-0.5c0,0,0-0.1,0-0.1C134,36.4,134.3,36.2,134.8,36z"/>
		<g id="Group-39" transform="translate(0.000000, 0.779221)">
			<path id="Fill-36" class="st6" d="M133.4,14.4c0.3-0.1,0.7,0.1,0.7,0.5c0.1,0.3-0.1,0.7-0.5,0.7c-0.3,0.1-0.7-0.1-0.7-0.5
				C132.8,14.8,133.1,14.4,133.4,14.4z M132.2,15.9l2.2,0.2l0.3-0.1l0.1-1.4c0.1-0.7-0.4-1.3-1.1-1.4l-0.7-0.1
				c-0.5,0-0.9,0.3-0.9,0.7l-4.9-0.5l-0.2,1.9L132.2,15.9L132.2,15.9z"/>
			<path id="Fill-38" class="st5" d="M7.3,6.8v9.4c0.2,0,0.4,0,0.5,0c0.7,0,1.1-0.2,1.4-0.6c0.3-0.4,0.4-1.3,0.4-2.7v-3
				c0-1.3-0.2-2.1-0.5-2.5C8.9,7,8.3,6.8,7.3,6.8z M0,0.5h7.4c2,0,3.5,0.2,4.6,0.6c1.1,0.4,1.9,1,2.4,1.8c0.5,0.8,0.9,1.7,1.1,2.8
				c0.2,1.1,0.3,2.8,0.3,5.1V14c0,2.4-0.2,4.1-0.6,5.1c-0.4,1.1-1.1,1.9-2,2.5c-1,0.6-2.3,0.9-3.9,0.9h-2v14.8H0V0.5z"/>
		</g>
		<polyline id="Fill-40" class="st5" points="25.3,1.3 25.3,30.7 29.7,30.7 29.7,38.1 17.9,38.1 17.9,1.3 25.3,1.3 		"/>
		<path id="Fill-41" class="st5" d="M41.2,24.9c-0.4-4.2-0.7-9.3-1.1-15.5c-0.7,7.1-1.2,12.2-1.4,15.5H41.2z M45.1,1.3l4.2,36.8
			h-7.5l-0.4-6.6h-2.6l-0.4,6.6h-7.6l3.7-36.8H45.1z"/>
		<polyline id="Fill-42" class="st5" points="66.9,1.3 66.9,38.1 60.5,38.1 56.6,21.4 56.6,38.1 50.5,38.1 50.5,1.3 56.6,1.3 
			60.8,17.9 60.8,1.3 66.9,1.3 		"/>
		<polyline id="Fill-43" class="st5" points="84.6,1.3 84.6,8.6 80.3,8.6 80.3,38.1 72.9,38.1 72.9,8.6 68.6,8.6 68.6,1.3 84.6,1.3 
					"/>
		<polyline id="Fill-44" class="st5" points="142.7,1.5 154.9,1.5 154.9,8.8 150,8.8 150,15.8 154.6,15.8 154.6,22.8 150,22.8 
			150,30.9 155.4,30.9 155.4,38.3 142.7,38.3 142.7,1.5 		"/>
		<path id="Fill-45" class="st5" d="M167,10.9c0-1.7-0.1-2.8-0.2-3.3c-0.1-0.5-0.4-0.7-0.9-0.7c-0.4,0-0.7,0.2-0.9,0.6
			c-0.2,0.4-0.3,1.5-0.3,3.4v17.2c0,2.1,0.1,3.5,0.2,4c0.1,0.5,0.4,0.8,0.9,0.8c0.5,0,0.8-0.3,1-0.9c0.1-0.6,0.2-1.9,0.2-4.1V10.9z
			 M174.3,38.3v4.5h-5.5c-1.3,0-2.3-0.1-2.8-0.4c-0.5-0.3-0.9-0.7-1.1-1.2c-0.2-0.5-0.3-1.5-0.3-2.9c-1.7-0.1-3.1-0.6-4.3-1.7
			c-1.2-1.1-2-2.4-2.4-4.1c-0.4-1.7-0.6-4.1-0.6-7.4V13.6c0-2.5,0.1-4.4,0.3-5.7c0.2-1.3,0.7-2.5,1.4-3.7c0.7-1.2,1.6-2,2.7-2.6
			c1.1-0.6,2.4-0.9,3.7-0.9c1.6,0,3.1,0.4,4.4,1.1c1.3,0.7,2.2,1.7,2.9,2.8c0.6,1.1,1,2.3,1.2,3.5c0.2,1.2,0.3,3,0.3,5.4v12
			c0,3.3-0.1,5.5-0.4,6.7c-0.2,1.2-0.7,2.1-1.4,2.8c-0.7,0.7-1.6,1.2-2.8,1.6c0,0.8,0.2,1.3,0.4,1.6c0.2,0.2,0.8,0.3,1.6,0.3H174.3z
			"/>
		<path id="Fill-46" class="st5" d="M193.7,1.5v24.6c0,2.8-0.1,4.7-0.2,5.9c-0.1,1.1-0.6,2.3-1.2,3.5c-0.7,1.2-1.6,2.1-2.7,2.7
			c-1.1,0.6-2.4,0.9-4,0.9c-1.7,0-3.2-0.4-4.5-1.1c-1.3-0.7-2.3-1.7-2.9-2.8c-0.6-1.2-1-2.4-1.1-3.7c-0.1-1.3-0.2-4-0.2-8.2V1.5h7.3
			v27.6c0,1.6,0.1,2.6,0.2,3.1c0.1,0.4,0.4,0.7,0.8,0.7c0.5,0,0.8-0.2,0.9-0.7c0.1-0.5,0.2-1.7,0.2-3.5V1.5H193.7"/>
		<polygon id="Fill-47" class="st5" points="196.6,38.3 203.9,38.3 203.9,1.5 196.6,1.5 		"/>
		<path id="Fill-48" class="st5" d="M214.2,7.8v9.4c0.2,0,0.4,0,0.5,0c0.7,0,1.1-0.2,1.4-0.6c0.3-0.4,0.4-1.3,0.4-2.7v-3
			c0-1.3-0.2-2.1-0.5-2.5C215.8,8,215.1,7.8,214.2,7.8z M206.9,1.5h7.4c2,0,3.5,0.2,4.6,0.6c1.1,0.4,1.9,1,2.4,1.8
			c0.5,0.8,0.9,1.7,1.1,2.8c0.2,1.1,0.3,2.8,0.3,5.1V15c0,2.4-0.2,4.1-0.6,5.1c-0.4,1.1-1.1,1.9-2,2.5c-1,0.6-2.3,0.9-3.9,0.9h-2
			v14.8h-7.3V1.5z"/>
		<path id="Fill-49" class="st5" d="M247.4,1.5v36.8H241l0-24.9l-2.6,24.9h-4.5L231.2,14l0,24.3h-6.4V1.5h9.5
			c0.3,2.2,0.6,4.8,0.9,7.8l1,9.4l1.7-17.2H247.4"/>
		<polyline id="Fill-50" class="st5" points="250.4,1.5 262.6,1.5 262.6,8.8 257.7,8.8 257.7,15.8 262.3,15.8 262.3,22.8 
			257.7,22.8 257.7,30.9 263.1,30.9 263.1,38.3 250.4,38.3 250.4,1.5 		"/>
		<polyline id="Fill-51" class="st5" points="281.6,1.5 281.6,38.3 275.1,38.3 271.3,21.6 271.3,38.3 265.2,38.3 265.2,1.5 
			271.3,1.5 275.4,18.1 275.4,1.5 281.6,1.5 		"/>
		<polyline id="Fill-52" class="st5" points="299.3,1.5 299.3,8.8 294.9,8.8 294.9,38.3 287.6,38.3 287.6,8.8 283.3,8.8 283.3,1.5 
			299.3,1.5 		"/>
		<polyline id="Fill-53" class="st8" points="107,17 89,22.9 88.6,22.1 106.7,16.2 107,17 		"/>
	</g>
</g>
</svg>
