<?xml version="1.0" encoding="utf-8"?>
<!-- Generator: Adobe Illustrator 22.1.0, SVG Export Plug-In . SVG Version: 6.00 Build 0)  -->
<svg version="1.1" id="Layer_1" xmlns="http://www.w3.org/2000/svg" xmlns:xlink="http://www.w3.org/1999/xlink" x="0px" y="0px"
	 viewBox="0 0 300 67" style="enable-background:new 0 0 300 67;" xml:space="preserve">
<style type="text/css">
	.st0{filter:url(#Adobe_OpacityMaskFilter);}
	.st1{fill:#FFFFFF;}
	.st2{mask:url(#mask-2_1_);fill:#EB8B2D;}
	.st3{fill:#000203;}
	.st4{fill:#EB8B2D;}
	.st5{fill:#4F4F4C;}
	.st6{fill:#D37829;}
</style>
<g id="Desktop---Others">
	<g id="MEPE-ARB-Outline">
		<g id="Group-3" transform="translate(0.000000, 46.753247)">
			<g id="Clip-2">
			</g>
			<defs>
				<filter id="Adobe_OpacityMaskFilter" filterUnits="userSpaceOnUse" x="0" y="0.5" width="78.3" height="18.9">
					<feColorMatrix  type="matrix" values="1 0 0 0 0  0 1 0 0 0  0 0 1 0 0  0 0 0 1 0"/>
				</filter>
			</defs>
			<mask maskUnits="userSpaceOnUse" x="0" y="0.5" width="78.3" height="18.9" id="mask-2_1_">
				<g class="st0">
					<polygon id="path-1_1_" class="st1" points="0,0.5 78.3,0.5 78.3,19.4 0,19.4 					"/>
				</g>
			</mask>
			<polygon id="Fill-1" class="st2" points="0,19.4 78.3,19.4 78.3,0.5 0,0.5 			"/>
		</g>
		<path id="Fill-4" class="st3" d="M13.4,58.7c0-0.2-0.1-0.4-0.4-0.6c-0.2-0.2-0.5-0.3-0.7-0.3H8.7c-0.2,0-0.5,0.1-0.7,0.4
			c-0.3,0.3-0.5,0.5-0.5,0.7v1.3h5.9V58.7z M5.3,61.6v-1.5h0.7v-7.2h1.6v4.3c0.5-0.7,1.2-1,2.1-1h2.7c1.8,0,2.7,1.3,2.7,3.9h1.8v1.6
			H5.3z"/>
		<polygon id="Fill-5" class="st3" points="16.2,61.6 17.6,61.6 17.6,60.1 16.2,60.1 		"/>
		<path id="Fill-6" class="st3" d="M24.5,61.5c-0.1,0.1-0.3,0.2-0.4,0.2h-6.9v-3.9h1.5v2.4h1.4v-2.4h1.5v2.4h1.5v-2.4h1.6v3.4
			C24.8,61.3,24.7,61.4,24.5,61.5"/>
		<path id="Fill-7" class="st3" d="M29,57.8h-0.3c-0.3,0-0.5,0.1-0.7,0.4c-0.2,0.3-0.3,0.5-0.3,0.8v1.2H29V57.8z M30,64
			c-0.4,0.5-0.9,0.7-1.4,0.7h-2.4v-1.5c0.3,0,0.6,0,0.9,0c0.4,0,0.6,0,0.7,0c0.5,0,0.8-0.1,0.9-0.3c0.2-0.2,0.2-0.7,0.2-1.3h-2.8v-3
			c0-0.6,0.2-1.1,0.7-1.6c0.5-0.5,1-0.8,1.5-0.8h2.1v6.2C30.6,63.1,30.4,63.6,30,64z"/>
		<path id="Fill-8" class="st3" d="M33.3,52.6h-1.5v-0.4h0.3c0-0.1,0-0.1,0-0.2c0-0.1-0.1-0.2-0.1-0.2c0-0.2,0.1-0.3,0.2-0.4
			c0.1-0.1,0.2-0.2,0.4-0.2h0.8v0.4c0,0-0.1,0-0.2,0c-0.1,0-0.2,0-0.2,0c-0.4,0-0.6,0.1-0.6,0.3c0,0.2,0.3,0.3,0.9,0.3h0.1v0.3
			C33.3,52.5,33.3,52.5,33.3,52.6"/>
		<path id="Fill-9" class="st3" d="M31.8,59.1h1.5v-6.2h-1.5V59.1z M31.8,61.6v-1.6h2.8v-7.2h1.5v8.8H31.8z"/>
		<polygon id="Fill-10" class="st3" points="37.5,61.6 39,61.6 39,52.9 37.5,52.9 		"/>
		<path id="Fill-11" class="st3" d="M50.7,55.8c-0.4,0-0.7-0.2-0.7-0.7c0-0.5,0.2-0.7,0.7-0.7c0.2,0,0.4,0.1,0.5,0.2
			c0.1,0.1,0.2,0.3,0.2,0.5C51.3,55.5,51.1,55.8,50.7,55.8z M50.2,57.8h-0.8c-0.2,0-0.4,0.1-0.6,0.3c-0.2,0.2-0.3,0.4-0.3,0.5v1.5
			H50c0.1,0,0.1-0.1,0.1-0.2V57.8z M48.9,55.8c-0.4,0-0.7-0.2-0.7-0.7c0-0.5,0.2-0.7,0.7-0.7c0.2,0,0.4,0.1,0.5,0.2
			c0.1,0.1,0.2,0.3,0.2,0.5C49.6,55.5,49.4,55.8,48.9,55.8z M51.2,61.3c-0.3,0.3-0.6,0.4-0.9,0.4h-6.8c-0.2,0-0.4-0.1-0.5-0.3
			c-0.2-0.2-0.3-0.4-0.3-0.6v-4.5h1.5v3.9h2.6c0-2.6,0.9-3.9,2.7-3.9h2.1v4.2C51.7,60.7,51.5,61,51.2,61.3z"/>
		<path id="Fill-12" class="st3" d="M56.1,61.6c0,0.9-0.1,1.6-0.3,2c-0.3,0.7-0.8,1-1.6,1h-1.3v-1.5c0.7,0,1.1,0,1.2-0.1
			c0.3-0.1,0.4-0.4,0.4-1v-4.4h1.6v2.3h1.8v1.6H56.1"/>
		<polygon id="Fill-13" class="st3" points="57.4,61.6 58.8,61.6 58.8,60.1 57.4,60.1 		"/>
		<path id="Fill-14" class="st3" d="M63.4,57c-0.1,0.1-0.3,0.2-0.5,0.2c-0.4,0-0.7-0.2-0.7-0.7c0-0.4,0.2-0.7,0.7-0.7
			c0.5,0,0.7,0.2,0.7,0.7C63.6,56.8,63.5,56.9,63.4,57z M61.9,55.8c-0.2,0-0.3-0.1-0.4-0.2c-0.1-0.1-0.2-0.3-0.2-0.4V55
			c0-0.2,0.1-0.3,0.2-0.4c0.2-0.1,0.3-0.2,0.5-0.2c0.2,0,0.4,0.1,0.5,0.2c0.1,0.1,0.2,0.3,0.2,0.5C62.7,55.5,62.4,55.8,61.9,55.8z
			 M61.7,57c-0.1,0.2-0.3,0.2-0.4,0.2c-0.2,0-0.3,0-0.3,0c-0.3-0.1-0.5-0.3-0.5-0.7c0-0.4,0.3-0.6,0.8-0.6c0.2,0,0.3,0.1,0.4,0.2
			c0.1,0.1,0.2,0.3,0.2,0.5C61.8,56.7,61.8,56.9,61.7,57z M67.7,61.6h-9.3v-3.9h1.5v2.4h1.4v-2.4h1.5v2.4h1.5v-2.4h1.5v2.3h1.8V61.6
			z"/>
		<polyline id="Fill-15" class="st3" points="67.1,61.6 67.1,60.1 69.1,60.1 69.1,52.9 70.5,52.9 70.5,61.6 67.1,61.6 		"/>
		<g id="Group-20">
			<polygon id="Fill-16" class="st3" points="71.6,61.6 73.2,61.6 73.2,52.9 71.6,52.9 			"/>
			<path id="Fill-18" class="st3" d="M163.6,6c-0.3-0.7-0.6-1.3-1.1-1.8l-1-0.3c-0.2,0.3-0.3,0.4-0.3,0.4c-0.4,0.9-0.4,2,0,3.4
				c0.5,1.4,1.1,2.5,1.9,3.3l0.3,0.3C164.3,9.6,164.3,7.8,163.6,6z M154.8,20.9l-5.7-11c0.6,0.7,1.2,1.3,1.9,2c3,2.8,5.7,4,8,3.5
				c1-0.2,1.7-0.4,2.1-0.7c0-0.2-0.2-0.6-0.8-1.1c-0.5-0.4-1.1-1-2-1.7c-1-0.7-1.6-1.3-2.1-1.7c-1-0.9-1.6-1.7-1.8-2.4
				c-0.2-0.8,0.1-1.7,0.9-2.6c2.9-3.3,5.5-5,7.7-5c1.1,0,2,0.4,2.7,1c1.3,1.2,2.1,3.2,2.3,6c0.2,2.6-0.4,5.1-1.6,7.7
				c-0.5,1-1.1,1.9-1.9,2.8c-0.7,0.8-1.6,1.5-2.7,2.1C159.9,21,157.5,21.3,154.8,20.9z"/>
			<path id="Fill-19" class="st3" d="M133.9,45c-1.7,1.2-3.9,2-6.1,2c-2.3,0-4.4-0.7-6.1-2H0v4.5h299.3V45H133.9"/>
		</g>
		<path id="Fill-21" class="st4" d="M128.9,24.3C128.9,24.3,128.9,24.3,128.9,24.3l-1.5,0h-0.8l-0.4,0l3-1.7c0,0,0,0,0,0l0.4,1.4
			c0,0,0,0,0,0L128.9,24.3"/>
		<path id="Fill-22" class="st4" d="M119.3,18.2c0-0.4,0.3-0.7,0.7-0.7c0.4,0,0.7,0.3,0.7,0.7s-0.3,0.7-0.7,0.7
			C119.6,18.9,119.3,18.6,119.3,18.2z M118.1,26.6h1.2l2.3-2.4h1.6l-1.4-6.2c-0.2-0.8-1-1.4-1.9-1.5c0,0,0,0-0.1,0h-1.8V26.6z"/>
		<polyline id="Fill-23" class="st4" points="125.7,25.9 122.3,25.9 121.3,27.1 118.9,29.5 116,29.5 116,28.2 118.4,28.2 
			119.5,27.1 121.8,24.7 129.2,24.7 129.2,25.9 125.7,25.9 		"/>
		<path id="Fill-24" class="st4" d="M112.3,28l2.3-0.6v6.4c0,1.4-1,2.7-2.3,3V28"/>
		<path id="Fill-25" class="st4" d="M113.5,22.7l-1.2,0.2v-7c0.5-0.2,1.1,0,1.4,0.4c0,0,0,0,0,0l0.4,0.6l-0.7,0.5l1.1,4.6
			C114.4,22.4,114,22.6,113.5,22.7"/>
		<path id="Fill-26" class="st4" d="M129.9,24l-0.1,0c0,0,0,0,0,0l-0.5-1.4c0,0,0,0,0,0l0.1,0c0.2-0.1,0.5,0.1,0.5,0.3l0,0
			c0,0,0,0,0,0l4.3-1.2c0,0,0,0,0,0c0,0.1,0.1,0.3,0.2,0.4h0l0.1,0.1l-4.4,1.2c0,0,0,0,0,0l0,0C130.2,23.7,130.1,23.9,129.9,24"/>
		<path id="Fill-27" class="st4" d="M115.1,21.3c0-0.1,0-0.2,0-0.3l-0.7-7.7c-0.1-0.6-0.2-1.2-0.4-1.8l-1.7-5.2V2.8h4.1v2h0v0.4
			c0,0.4-0.4,0.8-0.8,0.8h-1.3l1.4,4.3c0.5,1.5,0.8,3.1,1,4.7l0.7,6.9H115C115.1,21.6,115.1,21.5,115.1,21.3"/>
		<path id="Fill-28" class="st4" d="M112.3,27.6v-4.3l1.5-0.3c0.4-0.1,0.8-0.3,1-0.7c0,0,0,0,0,0h2.4l0.1,3.8l-2.7,0.8L112.3,27.6"
			/>
		<path id="Fill-29" class="st4" d="M127.8,33.9c0.9,0.1,1.5,0.8,1.6,1.6c0,0.4-0.1,0.7-0.2,1c-0.3,0.5-0.9,0.9-1.5,0.9
			c-0.7,0-1.4-0.5-1.6-1.1c-0.1-0.2-0.1-0.4-0.1-0.6C125.9,34.6,126.7,33.8,127.8,33.9"/>
		<path id="Fill-30" class="st4" d="M124,35.4C124,35.4,124,35.3,124,35.4c0.5-0.4,1,0.1,0.7,0.5c0,0-0.1,0.1-0.1,0.1
			C124.2,36.3,123.7,35.9,124,35.4z M124.3,37.3c0,0,0-0.1,0-0.1c0.3-0.5,0.9-0.3,0.9,0.2c0,0,0,0.1,0,0.1
			C124.9,38,124.3,37.8,124.3,37.3z M125.5,35.7c0-1.5,1.5-2.6,3-2c0.4,0.2,0.8,0.5,1,1c0.3,0.7,0.3,1.4,0,1.9
			c-0.3,0.7-1.1,1.2-1.9,1.2c-1,0-1.8-0.6-2-1.5C125.5,36.1,125.5,35.9,125.5,35.7z M125.5,38.6c0-0.5,0.6-0.7,0.9-0.2
			c0,0,0,0.1,0,0.1c0,0.5-0.6,0.7-0.9,0.2C125.5,38.6,125.5,38.6,125.5,38.6z M127.9,38.6C127.9,38.6,128,38.6,127.9,38.6
			c0.4,0.5-0.1,1-0.5,0.7c0,0-0.1-0.1-0.1-0.1C127,38.8,127.4,38.3,127.9,38.6z M128.8,38.4c0,0,0-0.1,0-0.1
			c0.3-0.5,0.9-0.3,0.9,0.2c0,0,0,0.1,0,0.1C129.4,39.1,128.8,39,128.8,38.4z M130,34c0,0,0-0.1,0-0.1c0.3-0.5,0.9-0.3,0.9,0.2
			c0,0,0,0.1,0,0.1C130.6,34.7,130,34.5,130,34z M130,37.3c0-0.5,0.6-0.7,0.9-0.2c0,0,0,0.1,0,0.1c0,0.5-0.6,0.7-0.9,0.2
			C130,37.4,130,37.4,130,37.3z M130.6,36C130.6,36,130.5,36,130.6,36c-0.4-0.5,0.1-1,0.5-0.7c0,0,0.1,0.1,0.1,0.1
			C131.5,35.8,131.1,36.3,130.6,36z M129.7,32.8c0,0.5-0.6,0.7-0.9,0.2c0,0,0-0.1,0-0.1c0-0.5,0.6-0.7,0.9-0.2
			C129.7,32.7,129.7,32.7,129.7,32.8z M127.3,32.8C127.3,32.7,127.2,32.7,127.3,32.8c-0.4-0.5,0.1-1,0.5-0.7c0,0,0.1,0.1,0.1,0.1
			C128.2,32.6,127.8,33,127.3,32.8z M126.4,32.9c0,0,0,0.1,0,0.1c-0.3,0.5-0.9,0.3-0.9-0.2c0,0,0-0.1,0-0.1
			C125.8,32.2,126.4,32.4,126.4,32.9z M125.2,34c0,0.5-0.6,0.7-0.9,0.2c0,0,0-0.1,0-0.1c0-0.5,0.6-0.7,0.9-0.2
			C125.2,33.9,125.2,33.9,125.2,34z M123.8,32.8c-0.6,0.8-0.9,1.8-0.9,2.8c0,0.1,0,0.3,0,0.4c0.2,2.4,2.2,4.3,4.7,4.3
			c2.2,0,4.1-1.5,4.6-3.6c0.2-0.9,0.2-1.9-0.2-3c-0.5-1.3-1.6-2.3-2.9-2.6c-2.1-0.6-4,0.2-5.1,1.6C123.9,32.7,123.8,32.8,123.8,32.8
			z"/>
		<path id="Fill-31" class="st4" d="M144.8,19.1c-0.1,0.2-0.4,0.3-0.6,0.2c-0.2-0.1-0.3-0.4-0.2-0.6c0.1-0.2,0.4-0.3,0.6-0.2
			C144.8,18.6,144.9,18.8,144.8,19.1z M150.7,29.4c5,1.6,11-1.7,13.4-7.5L146.1,16c-0.3,0.7-0.5,1.5-0.7,2.2l-0.9-0.1
			c-0.3,0-0.6,0.1-0.8,0.4c0,0.1-0.1,0.1-0.1,0.2l0,0c0,0.2,0,0.3,0.1,0.5c0.1,0.2,0.3,0.3,0.5,0.4l0.9,0.1
			C144.7,24.1,146.8,28.1,150.7,29.4z"/>
		<path id="Fill-32" class="st4" d="M146.4,15.2l1.1-2.6c0.1-0.3,0.6-0.5,1-0.4l0,0c0.4,0.1,0.6,0.5,0.5,0.9l-0.3,0.8l15.3,5
			l1.5-2.1c0.2-0.3,0.6-0.5,1-0.3l0,0l-2.1,4.6l-16.6-5.4L146.4,15.2"/>
		<path id="Fill-33" class="st4" d="M143,25.8c0-0.2,0.1-0.3,0.2-0.4c0.1-0.1,0.3-0.1,0.4-0.1c0.3,0,0.6,0.3,0.5,0.7
			c0,0.3-0.3,0.5-0.6,0.5c0,0-0.1,0-0.1,0C143.2,26.5,143,26.2,143,25.8z M135.7,21.6c0,0.2-0.2,0.4-0.5,0.4c0,0,0,0,0,0
			c-0.1,0-0.1,0-0.1,0c-0.2-0.1-0.3-0.3-0.2-0.4c0-0.1,0-0.2,0.1-0.2c0,0,0,0,0,0c0.1-0.1,0.2-0.1,0.4-0.1
			C135.6,21.1,135.8,21.4,135.7,21.6z M134.9,15.4c0,0.2-0.2,0.4-0.4,0.4c-0.2,0-0.4-0.2-0.4-0.4c0-0.2,0.2-0.4,0.4-0.4
			C134.7,15,134.9,15.2,134.9,15.4z M136.3,21.3l6.1,5.6c0.6,0.6,1.6,0.6,2.2,0.1l0,0c0.7-0.6,0.8-1.6,0.3-2.3l-5.6-7.6
			c-0.5-0.7-1.4-1.2-2.3-1.2l-1.6,0l-0.1-0.4l-0.1-0.5c-0.1-0.3-0.5-0.5-0.8-0.4l0,0c-0.3,0.1-0.5,0.5-0.4,0.8l0,0l0.1,0.4
			l-13.6,0.1c0,0-0.1,0-0.1,0c0.9,0.3,1.7,0.3,1.8,1.4l0.4,1.8l12.1,1.4l-0.1,0.6l0,0.2c0,0.2,0,0.4,0.1,0.5c0,0,0,0,0,0.1
			c0.1,0.1,0.2,0.2,0.3,0.2l0,0c0.3,0.1,0.6,0,0.8-0.3L136.3,21.3z"/>
		<path id="Fill-34" class="st4" d="M137,12.2c0,0.2-0.2,0.4-0.4,0.5c-0.1,0-0.3-0.1-0.4-0.2c-0.1-0.1-0.1-0.2-0.1-0.2
			c0-0.1,0.1-0.3,0.2-0.4c0.1-0.1,0.2-0.1,0.3-0.1C136.8,11.8,137,12,137,12.2z M133.6,14c-0.4,0.5-0.4,1.2,0.1,1.6l0,0c0,0,0,0,0,0
			l0.2-0.6c0.1-0.4,0.5-0.6,0.9-0.5l0,0c0.4,0.1,0.7,0.5,0.5,0.9l0,0.1c0,0,0,0,0,0l1.5-1.7l6.5,4.8c0-0.2,0.1-0.3,0.2-0.5l0,0
			c0.1-0.1,0.1-0.1,0.2-0.1l-6.4-4.9c0.3-0.5,0.2-1.1-0.2-1.5l0,0c-0.5-0.4-1.2-0.4-1.6,0.1l-0.1,0.1l-0.7,0.8l-0.5,0.6L133.6,14z"
			/>
		<path id="Fill-35" class="st4" d="M118.7,27.4l-0.5,0.5h-2.6v1.9h3.4l2.3-2.4h1.8v0.3h0c0,0.1,0,0.2-0.1,0.2
			c-0.1,0.1-0.4,0-0.6-0.2c0,0-0.1-0.1-0.1-0.1l-0.1-0.1l-0.1,0.1c0,0-0.1,0.1-0.1,0.1c-0.1,0.1-0.2,0.1-0.2,0.2l-0.1,0.1l0.1,0.2
			c0.1,0.2,0.2,0.6,0.1,0.7c0,0-0.1,0-0.1,0c-0.1,0-0.2,0-0.5-0.3l-0.1-0.1l-0.1,0.1c-0.1,0.1-0.2,0.2-0.4,0.4l-0.1,0.1l0.1,0.1
			c0.2,0.2,0.3,0.5,0.2,0.7c0,0-0.1,0.1-0.2,0.1c-0.1,0-0.2,0-0.5-0.2l-0.1-0.1l-0.1,0.2c-0.1,0.1-0.2,0.2-0.3,0.4l-0.1,0.1l0.1,0.1
			c0.3,0.3,0.4,0.5,0.3,0.7c0,0-0.1,0.1-0.3,0.1c-0.1,0-0.3,0-0.4-0.1l-0.2,0l-0.1,0.2c-0.1,0.1-0.1,0.2-0.2,0.3l-0.1,0.2l0.2,0.1
			c0.3,0.2,0.5,0.4,0.4,0.5H115v-5.1H118.7"/>
		<path id="Fill-36" class="st4" d="M133.6,14l-6.6,0.5c0,0,0,0,0,0v0c0,0.3-0.2,0.6-0.5,0.6l-0.2,0c0,0,0,0,0,0l-0.2-1.8
			c0,0,0,0,0,0l0.2,0c0.3,0,0.6,0.2,0.6,0.5l0,0c0,0,0,0,0,0l7.4-0.6L133.6,14C133.6,14,133.6,14,133.6,14"/>
		<path id="Fill-37" class="st5" d="M122.3,35.7c0-1,0.3-2,0.8-2.8c0.2-0.3,0.4-0.6,0.7-0.9c1-0.9,2.3-1.5,3.7-1.5
			c2.9,0,5.3,2.4,5.3,5.3c0,0.4,0,0.8-0.1,1.2c-0.5,2.4-2.7,4.1-5.1,4.1c-2.8,0-5.1-2.1-5.2-4.9C122.3,35.9,122.3,35.8,122.3,35.7z
			 M119,35.7c0,0,0,0.1,0,0.1c-0.1,0.2-0.3,0.4-0.7,0.5c0,0.1,0,0.3,0,0.4c0.5,0,0.8,0.2,0.8,0.5c0,0.3-0.2,0.5-0.6,0.7
			c0,0.1,0.1,0.2,0.1,0.3l0,0c0,0,0,0.1,0,0.1c0.5-0.1,0.8,0.1,0.9,0.3c0.1,0.3-0.1,0.6-0.5,0.8c0.1,0.1,0.2,0.3,0.2,0.4
			c0.5-0.1,0.8-0.1,0.9,0.1c0.1,0.2,0,0.6-0.4,0.9c0.1,0.1,0.2,0.3,0.3,0.4c0.5-0.2,0.8-0.2,0.9-0.1c0.2,0.2,0.1,0.5-0.2,0.9
			c0.1,0.1,0.2,0.2,0.4,0.4c0.4-0.3,0.7-0.4,0.9-0.2c0.2,0.2,0.2,0.5-0.1,0.9l0,0c0.1,0.1,0.2,0.2,0.4,0.3c0.3-0.4,0.7-0.5,0.9-0.4
			c0.2,0.1,0.3,0.4,0.1,0.9l0.1,0.1c0.1,0.1,0.2,0.1,0.3,0.2c0.3-0.4,0.6-0.6,0.8-0.5c0.3,0.1,0.4,0.4,0.3,0.9l0.1,0
			c0.1,0,0.2,0.1,0.3,0.1c0.2-0.4,0.4-0.6,0.7-0.6c0,0,0,0,0.1,0c0.3,0,0.4,0.3,0.5,0.8c0.1,0,0.3,0,0.4,0c0.1-0.5,0.3-0.7,0.6-0.7
			c0.3,0,0.5,0.3,0.6,0.7c0.1,0,0.3,0,0.4,0c0-0.5,0.2-0.8,0.5-0.8c0,0,0,0,0.1,0c0.2,0,0.5,0.2,0.7,0.6c0.1,0,0.2-0.1,0.3-0.1
			l0.1,0c-0.1-0.5,0.1-0.8,0.3-0.9c0.3-0.1,0.6,0.1,0.8,0.5c0.1-0.1,0.2-0.1,0.3-0.2c0,0,0.1,0,0.1-0.1l0,0
			c-0.1-0.5-0.1-0.8,0.1-0.9c0.2-0.1,0.6,0,0.9,0.4c0.1-0.1,0.2-0.2,0.4-0.3l0,0c-0.2-0.5-0.3-0.8-0.1-0.9c0.2-0.2,0.5-0.1,0.9,0.2
			c0.1-0.1,0.2-0.2,0.4-0.4c-0.3-0.4-0.4-0.7-0.2-0.9c0.2-0.2,0.5-0.2,0.9,0.1l0,0c0.1-0.1,0.2-0.2,0.3-0.3
			c-0.4-0.3-0.5-0.7-0.4-0.9c0.1-0.2,0.4-0.3,0.9-0.1c0,0,0-0.1,0.1-0.1c0.1-0.1,0.1-0.2,0.2-0.3c-0.4-0.3-0.6-0.6-0.5-0.8
			c0.1-0.2,0.4-0.4,0.9-0.3c0,0,0-0.1,0-0.1l0,0c0-0.1,0.1-0.2,0.1-0.3c-0.5-0.2-0.7-0.5-0.6-0.7c0,0,0-0.1,0.1-0.1
			c0.1-0.2,0.4-0.3,0.8-0.3c0-0.1,0-0.3,0-0.4c-0.5-0.1-0.7-0.3-0.7-0.6c0-0.3,0.3-0.5,0.7-0.6c0-0.2,0-0.3,0-0.4
			c-0.5,0-0.8-0.2-0.8-0.5c0-0.3,0.2-0.5,0.6-0.7c0-0.1-0.1-0.2-0.1-0.3l0-0.1c0,0,0,0,0,0c-0.5,0.1-0.8-0.1-0.9-0.3
			c-0.1-0.3,0.1-0.6,0.5-0.8c0-0.1-0.1-0.2-0.2-0.3l0-0.1c0,0,0,0,0,0c-0.5,0.2-0.8,0.1-0.9-0.1c-0.1-0.2,0-0.6,0.4-0.9
			c-0.1-0.1-0.2-0.2-0.3-0.3l0,0c-0.5,0.2-0.8,0.2-0.9,0.1c-0.2-0.2-0.1-0.5,0.2-0.9c-0.1-0.1-0.2-0.2-0.4-0.4
			c-0.4,0.3-0.7,0.4-0.9,0.2c-0.2-0.2-0.2-0.5,0.1-0.9l0,0c-0.1-0.1-0.2-0.2-0.4-0.3c-0.3,0.4-0.7,0.5-0.9,0.4
			c-0.2-0.1-0.3-0.4-0.1-0.9l-0.1-0.1c-0.1-0.1-0.2-0.1-0.3-0.2c-0.2,0.3-0.5,0.5-0.7,0.5c0,0-0.1,0-0.1,0c-0.3-0.1-0.4-0.4-0.3-0.9
			l-0.1,0c-0.1,0-0.2-0.1-0.3-0.1c-0.2,0.4-0.4,0.7-0.7,0.7c0,0,0,0-0.1,0c-0.3,0-0.4-0.3-0.5-0.8c-0.1,0-0.3,0-0.4,0
			c-0.1,0.5-0.3,0.7-0.6,0.7c-0.3,0-0.5-0.3-0.6-0.7c-0.1,0-0.3,0-0.4,0c0,0.5-0.2,0.8-0.5,0.8c-0.3,0.1-0.5-0.2-0.7-0.6
			c-0.1,0-0.2,0.1-0.3,0.1l-0.1,0c0.1,0.5-0.1,0.8-0.3,0.9c-0.2,0.1-0.6-0.1-0.8-0.5c-0.1,0-0.2,0.1-0.3,0.2l-0.1,0.1c0,0,0,0,0,0
			c0.1,0.5,0.1,0.8-0.1,0.9c-0.2,0.1-0.6,0-0.9-0.4c-0.1,0.1-0.2,0.2-0.4,0.3l0,0c0.2,0.5,0.3,0.8,0.1,0.9c-0.2,0.2-0.5,0.1-0.9-0.2
			c-0.1,0.1-0.2,0.2-0.4,0.4c0.3,0.4,0.4,0.7,0.2,0.9c-0.2,0.2-0.5,0.2-0.9-0.1l0,0c-0.1,0.1-0.2,0.2-0.3,0.4
			c0.4,0.3,0.5,0.7,0.4,0.9c-0.1,0.2-0.4,0.3-0.9,0.1c0,0,0,0,0,0.1l0,0.1c-0.1,0.1-0.1,0.2-0.2,0.3c0.4,0.3,0.6,0.6,0.5,0.8
			c0,0,0,0.1,0,0.1c-0.1,0.2-0.4,0.3-0.9,0.2c0,0,0,0,0,0l0,0.1c0,0.1-0.1,0.2-0.1,0.3c0.5,0.2,0.7,0.5,0.6,0.7
			c0,0.3-0.3,0.4-0.8,0.5c0,0.1,0,0.3,0,0.4C118.8,35.2,119,35.4,119,35.7z"/>
		<path id="Fill-38" class="st4" d="M120.1,14.9c-0.1,0.3-0.4,0.6-0.7,0.5c-0.3-0.1-0.6-0.4-0.5-0.7c0.1-0.3,0.4-0.6,0.7-0.5
			C120,14.2,120.2,14.6,120.1,14.9z M120.9,15.7l5.2-0.5l-0.2-1.9l-4.9,0.5c-0.1-0.5-0.5-0.8-0.9-0.7l-0.7,0.1
			c-0.7,0.1-1.2,0.7-1.1,1.4l0.1,1.4l0.3,0.1L120.9,15.7L120.9,15.7z"/>
		<g id="Group-42" transform="translate(0.000000, 14.805195)">
			<polyline id="Fill-39" class="st6" points="146.1,1.2 164.1,7.1 164.4,6.3 146.4,0.4 146.1,1.2 			"/>
			<path id="Fill-41" class="st3" d="M17.7,6.3c-1.6,0-2.3-0.8-2.3-2.4c0-0.6,0.2-1.2,0.7-1.6c0.5-0.4,1.1-0.6,1.7-0.6
				c0.6,0,1.2,0.2,1.6,0.7c0.4,0.5,0.6,1.1,0.6,1.7C20.1,5.5,19.3,6.3,17.7,6.3z M11.7,6.3c-1.5,0-2.2-0.8-2.2-2.4
				c0-1.5,0.8-2.3,2.3-2.3C13.3,1.6,14,2.4,14,4S13.3,6.3,11.7,6.3z M28.3,20.6c-0.4,0.5-0.7,0.8-1.1,0.8H2c-0.5,0-1-0.3-1.4-0.9
				C0.2,19.8,0,19.2,0,18.7V7.8h5.3c0,4.4,0,6.7,0,6.7c0.1,1.1,0.4,1.6,1,1.6h16.3l0.8-0.8V7.8h5.3v11.4
				C28.7,19.7,28.5,20.1,28.3,20.6z"/>
		</g>
		<polyline id="Fill-43" class="st3" points="33.2,36.2 33.2,2.7 38.6,2.7 38.6,30.8 49.2,30.8 49.2,36.2 33.2,36.2 		"/>
		<path id="Fill-44" class="st3" d="M60.1,43.6c-0.8,0-1.3-0.3-1.8-0.8c-0.5-0.5-0.7-1.2-0.7-1.9c0-0.6,0.2-1.2,0.7-1.8
			c0.5-0.5,1.1-0.8,1.8-0.8c0.8,0,1.4,0.2,1.9,0.8c0.5,0.5,0.8,1.2,0.8,1.9C62.7,42.7,61.8,43.6,60.1,43.6z M53.4,43.4
			c-1.8,0-2.6-0.9-2.6-2.7c0-0.7,0.2-1.3,0.8-1.8c0.5-0.5,1.1-0.8,1.9-0.8c1.7,0,2.5,0.9,2.5,2.7C55.9,42.6,55.1,43.4,53.4,43.4z
			 M47.2,36.2v-5.4h8.3c0.4,0,0.7-0.3,0.8-0.9v-7.2h5.8v8.2h7.8v5.4H47.2z"/>
		<polyline id="Fill-45" class="st3" points="69.9,36.2 69.9,30.8 76.7,30.8 76.7,2.8 81.7,2.8 81.7,36.2 69.9,36.2 		"/>
		<path id="Fill-46" class="st3" d="M85.5,27.5h5V2.9h-5V27.5z M85.4,36.2v-5.4h9.8v-28h5.1v33.3H85.4z"/>
		<polygon id="Fill-47" class="st3" points="105,36.2 110.3,36.2 110.3,2.8 105,2.8 		"/>
		<path id="Fill-48" class="st3" d="M187.5,21c-1.6,0-2.3-0.8-2.3-2.4c0-0.6,0.2-1.2,0.7-1.6c0.5-0.4,1.1-0.6,1.7-0.6
			s1.2,0.2,1.6,0.7c0.4,0.5,0.6,1.1,0.6,1.7C189.9,20.2,189.1,21,187.5,21z M181.5,21c-1.5,0-2.2-0.8-2.2-2.4c0-1.5,0.8-2.3,2.3-2.3
			c1.5,0,2.3,0.8,2.3,2.3S183,21,181.5,21z M198,35.3c-0.4,0.5-0.7,0.8-1.1,0.8h-25.1c-0.5,0-1-0.3-1.4-0.9
			c-0.4-0.6-0.6-1.2-0.6-1.8V22.5h5.3c0,4.4,0,6.7,0,6.7c0.1,1.1,0.4,1.6,1,1.6h16.3l0.8-0.8v-7.5h5.3V34
			C198.5,34.4,198.3,34.8,198,35.3z"/>
		<polygon id="Fill-49" class="st3" points="202.5,36.1 207.8,36.1 207.8,2.7 202.5,2.7 		"/>
		<path id="Fill-50" class="st3" d="M212.3,36.1v-5.1h10.9v-4c0-2.1-1.5-3.4-4.5-3.9c-0.9-0.2-3-0.2-6.4-0.2v-5.3h7.3
			c2,0,4.1,0.9,6,2.6c1.9,1.8,2.9,3.7,2.9,5.8v4.7h7v5.4H212.3"/>
		<path id="Fill-51" class="st3" d="M235.3,36.1v-5.4h5.3c-1.2-1.4-1.9-3.2-1.9-5.2c0-2.6,1-4.7,3-6.2c1.8-1.3,4-1.9,6.8-1.9h6.2
			v5.4c-0.2,0-0.8,0-1.6-0.1c-0.8-0.1-1.5-0.1-2-0.1c-4.8,0-7.2,1.4-7.2,4.1c0,0.9,0.4,1.8,1.2,2.6c0.8,0.9,1.6,1.3,2.5,1.3h13.1
			v5.4H235.3"/>
		<path id="Fill-52" class="st3" d="M273.7,30.7c0,0.1-0.1-0.3-0.3-0.9c-0.5-1.6-1.9-2.4-4.2-2.4h-1.1v6.2h5.6V30.7z M278.7,36.1V39
			h-12.8c-1.3,0-2.1-0.2-2.5-0.6c-0.2-0.3-0.5-1-0.7-2.3h-4.1v-5.4h4.1v-8.2h8.1c2.5,0,4.5,0.7,6,2.1c1.5,1.5,2.2,3.4,2.2,5.9
			l0.3,0.2h5.3v-28h5.3v33.3H278.7z"/>
		<polygon id="Fill-53" class="st3" points="294,36.1 299.3,36.1 299.3,2.7 294,2.7 		"/>
	</g>
</g>
</svg>
