<?xml version="1.0" encoding="UTF-8" standalone="no"?>
<!-- Created with Inkscape (http://www.inkscape.org/) -->

<svg
   xmlns:dc="http://purl.org/dc/elements/1.1/"
   xmlns:cc="http://creativecommons.org/ns#"
   xmlns:rdf="http://www.w3.org/1999/02/22-rdf-syntax-ns#"
   xmlns:svg="http://www.w3.org/2000/svg"
   xmlns="http://www.w3.org/2000/svg"
   version="1.1"
   width="486.91251"
   height="467.9375"
   id="svg2"
   xml:space="preserve"><metadata
     id="metadata8"><rdf:RDF><cc:Work
         rdf:about=""><dc:format>image/svg+xml</dc:format><dc:type
           rdf:resource="http://purl.org/dc/dcmitype/StillImage" /><dc:title></dc:title></cc:Work></rdf:RDF></metadata><defs
     id="defs6" /><g
     transform="matrix(1.25,0,0,-1.25,0,467.9375)"
     id="g10"><g
       transform="scale(0.1,0.1)"
       id="g12"><path
         d="m 1000.43,3015.1 0,-725.13 c 21.29,-1.18 39.61,-1.75 54.98,-1.75 68.57,0 116.17,16.72 142.76,50.17 26.61,33.42 39.91,102.95 39.91,208.54 l 0,234.07 c 0,97.38 -15.4,160.74 -46.1,190.09 -30.76,29.3 -94.62,44.01 -191.55,44.01 z m -746.582,487.5 751.912,0 c 203.34,0 359.69,-15.83 469.08,-47.53 109.33,-31.67 191.52,-77.43 246.5,-137.26 54.98,-59.84 92.19,-132.3 111.71,-217.37 19.5,-85.07 29.27,-216.78 29.27,-395.11 l 0,-248.15 c 0,-181.88 -18.94,-314.46 -56.75,-397.75 -37.86,-83.32 -107.29,-147.27 -208.37,-191.84 -101.1,-44.6 -233.21,-66.87 -396.37,-66.87 l -200.4,0 0,-1147.509 -746.582,0 0,2849.389"
         id="path14"
         style="fill:#ffffff;fill-opacity:1;fill-rule:nonzero;stroke:none" /><path
         d="m 2076.91,3502.6 1294.56,0 0,-570.23 -547.98,0 0,-540.31 547.98,0 0,-542.06 -547.98,0 0,-537.94 547.98,0 0,-658.849 -1294.56,0 0,2849.389"
         id="path16"
         style="fill:#ffffff;fill-opacity:1;fill-rule:nonzero;stroke:none" /><path
         d="m 3610.32,1213.71 0,2281.43 -233.34,233.34 -3361.98,0 0,-3402.082 1831.78,0"
         id="path18"
         style="fill:none;stroke:#c1a752;stroke-width:30;stroke-linecap:butt;stroke-linejoin:miter;stroke-miterlimit:10;stroke-opacity:1;stroke-dasharray:none" /><path
         d="m 1582.79,1086.53 c 2.9,13.86 2.04,26.08 -2.54,36.63 -4.61,10.52 -15.45,17.59 -32.52,21.15 -15.88,3.32 -27.93,0.44 -36.13,-8.65 -8.23,-9.08 -13.39,-18.69 -15.5,-28.8 -1.13,-5.41 -0.36,-13.32 2.29,-23.69 2.65,-10.38 9.33,-27.25 20.04,-50.61 19.91,10.09 35.1,19.06 45.53,26.95 10.43,7.9 16.71,16.88 18.83,27.02 z m -41.74,-291.858 c -14.76,26.418 -26.25,47.238 -34.43,62.449 -8.21,15.219 -18.59,35.43 -31.13,60.66 -26.89,-14.992 -47,-28.91 -60.31,-41.722 -13.32,-12.809 -21.58,-26.86 -24.78,-42.149 -3.44,-16.48 -1.17,-30.461 6.83,-41.941 7.98,-11.508 22.16,-19.379 42.55,-23.641 15.41,-3.219 31.34,-3.117 47.77,0.332 16.42,3.43 34.27,12.09 53.5,26.012 z m 201.38,-174.731 c -19.44,4.079 -38.4,8.039 -56.89,11.911 -18.49,3.859 -36.98,7.718 -55.47,11.589 -9.22,13.957 -16.51,25.547 -21.87,34.778 -5.37,9.222 -12.56,21.281 -21.58,36.191 -28.82,-20.738 -57.96,-33.191 -87.41,-37.351 -29.46,-4.137 -57.81,-3.379 -85.08,2.332 -53.33,11.148 -91.08,31.879 -113.19,62.179 -22.13,30.27 -28.91,65.879 -20.35,106.828 7.58,36.223 23.87,65.051 48.9,86.473 25.01,21.41 61.66,41.68 109.96,60.801 -21.65,39.648 -33.79,68.278 -36.41,85.898 -2.64,17.6 -2.47,33.47 0.48,47.59 7.33,35.05 25.67,61.24 55.03,78.56 29.35,17.3 63.95,21.79 103.78,13.46 47.18,-9.86 80.12,-28.35 98.82,-55.45 18.69,-27.13 24.74,-56.57 18.1,-88.33 -5.96,-28.47 -18.17,-51.03 -36.62,-67.67 -18.45,-16.66 -49.18,-34.359 -92.21,-53.109 9.02,-19.562 18.1,-37.359 27.26,-53.391 9.14,-16.05 20.73,-37.808 34.78,-65.289 23.63,17.149 42.39,33.489 56.28,49.008 13.87,15.512 29.64,37.012 47.27,64.52 l 70.94,-60.149 c -15.02,-25.57 -34.69,-51.058 -59.05,-76.41 -24.36,-25.371 -46.42,-44.461 -66.17,-57.269 22.84,-38.661 39.72,-67.422 50.63,-86.282 10.9,-18.859 20.93,-36.007 30.07,-51.418"
         id="path20"
         style="fill:#ffffff;fill-opacity:1;fill-rule:nonzero;stroke:none" /><path
         d="m 2086.49,864.91 -13.74,19.969 -180.18,-137.481 c 1.99,-1.007 3.89,-2.269 5.55,-3.949 l 0.29,-0.289 c 3.51,-3.558 5.41,-8.039 5.87,-12.621 l 182.21,134.371"
         id="path22"
         style="fill:#c1a752;fill-opacity:1;fill-rule:nonzero;stroke:none" /><path
         d="m 3539.08,970.051 -18.55,0 0,20.508 0.18,0 c 0,29.031 15.66,53.561 34.2,53.561 l 0,27.65 c -34.31,0 -61.23,-34.84 -61.88,-79.59 l -0.06,0 0,-22.129 -18.54,0 0,-112.231 64.65,0 0,112.231"
         id="path24"
         style="fill:#c1a752;fill-opacity:1;fill-rule:nonzero;stroke:none" /><path
         d="m 2933.13,271.148 99.5195,0 0,57.6016 -99.5195,0 0,-57.6016 z"
         id="path26"
         style="fill:#c1a752;fill-opacity:1;fill-rule:nonzero;stroke:none" /><path
         d="m 2933.13,343.641 99.5195,0 0,57.5898 -99.5195,0 0,-57.5898 z"
         id="path28"
         style="fill:#c1a752;fill-opacity:1;fill-rule:nonzero;stroke:none" /><path
         d="m 2833.55,797.852 41.28,-31.582 c 3.82,-2.93 8.72,-3.391 12.89,-1.719 2.1,0.847 4.04,2.199 5.53,4.129 l 0.15,0.211 c 4.42,5.73 3.33,13.949 -2.42,18.359 l -97.94,74.961 c -5.75,4.398 -14,3.32 -18.42,-2.41 l -0.16,-0.223 c -0.74,-0.949 -1.27,-1.996 -1.7,-3.066 -2.16,-5.332 -0.67,-11.614 4.12,-15.282 l 42.37,-32.429 -18.46,-23.969 -1.11,0.746 -23.94,16.211 c -14.67,9.941 -34.88,5.891 -45.86,-8.891 -0.31,-0.41 -0.63,-0.789 -0.91,-1.207 l -10.91,-16 18.49,-12.519 -30.98,-127.16 c 6.39,-9.91 16.71,-17.231 29.18,-19.364 l 81.07,-13.839 8.15,-1.387 -8.1,95.59 -1.11,13.187 22.88,-15.5 1.6,-1.078 10.91,16 c 10.76,15.789 7.26,36.859 -7.81,47.07 l -26.61,18.02 11.49,14.918 6.33,8.223"
         id="path30"
         style="fill:#c1a752;fill-opacity:1;fill-rule:nonzero;stroke:none" /><path
         d="m 2830.56,464.102 304.51,0 c 43.1,0 78.03,34.16 78.03,76.296 l 0,13.434 -33.92,-48.344 c -14.42,-20.547 -34.98,-32.316 -56.4,-32.316 l -238.64,0 0,54.797 238.64,-0.11 c 8.9,0 17.58,5.082 23.78,13.911 l 43.6,62.171 -63.46,0 -11.08,-15.281 -15.85,-21.851 c -2.95,-4.059 -6.89,-7.5 -11.5,-10.219 -7.28,-4.281 -16.22,-6.719 -25.62,-6.719 l -37.04,0 c -23.59,0 -42.72,15.02 -42.72,33.539 l 0,20.531 -65.93,0 c -8.45,-15.16 -25.95,-24.543 -44.77,-21.703 -0.24,0.032 -0.48,0.043 -0.72,0.082 l -54.89,9.2 -89.22,14.941 c -12.48,2.09 -22.8,9.258 -29.18,18.98 -0.24,0.36 -0.51,0.719 -0.74,1.09 l -66,0 -1.69,-105.242 75.82,-21.59 124.99,-35.597"
         id="path32"
         style="fill:#c1a752;fill-opacity:1;fill-rule:nonzero;stroke:none" /><path
         d="m 3383.5,305.961 c -23.74,-2.359 -41.66,-20.813 -43.42,-44.52 -0.76,-10.32 1.79,-19.98 6.61,-28.14 8.44,-14.25 23.97,-23.852 41.78,-23.852 20.45,0 37.9,12.61 45.05,30.449 2.23,5.543 3.49,11.582 3.49,17.934 0,28.348 -24.48,51.008 -53.51,48.129"
         id="path34"
         style="fill:#c1a752;fill-opacity:1;fill-rule:nonzero;stroke:none" /><path
         d="m 3479.16,297.82 c -6.97,-12.711 -24.68,-7.98 -24.35,6.5 0.03,1.289 0.38,2.602 1,3.719 6.98,12.711 24.69,7.981 24.36,-6.5 -0.04,-1.277 -0.39,-2.598 -1.01,-3.719 z m 7.91,-30.07 c 1.1,-0.672 2.06,-1.621 2.73,-2.73 7.56,-12.372 -5.41,-25.301 -17.82,-17.77 -1.11,0.672 -2.06,1.629 -2.74,2.719 -7.55,12.383 5.42,25.312 17.83,17.781 z m -31.59,-60.711 c -0.61,1.133 -0.96,2.453 -0.99,3.723 -0.35,14.488 17.38,19.218 24.35,6.508 0.62,-1.122 0.97,-2.43 1,-3.711 0.34,-14.477 -17.38,-19.219 -24.36,-6.52 z m -10.38,33.731 c -7.34,-24.25 -29.9,-41.918 -56.63,-41.918 -23.53,0 -43.8,13.738 -53.33,33.578 -7.29,15.199 -8.49,33.859 0.76,53.121 5.73,11.91 15.86,21.41 28.14,26.359 42.79,17.27 83.59,-13.66 83.59,-54.078 0,-5.941 -0.9,-11.66 -2.53,-17.062 z m 0.29,-66.829 c -6.97,-12.711 -24.68,-7.98 -24.35,6.5 0.03,1.289 0.38,2.598 1,3.719 6.97,12.719 24.69,7.981 24.35,-6.5 -0.03,-1.281 -0.38,-2.59 -1,-3.719 z m -46.96,-14.421 c -0.67,-1.09 -1.63,-2.051 -2.73,-2.711 -12.41,-7.528 -25.38,5.402 -17.83,17.769 0.67,1.102 1.64,2.051 2.73,2.731 12.41,7.531 25.38,-5.411 17.83,-17.789 z m -67.44,14.742 c -0.61,1.129 -0.97,2.437 -1,3.718 -0.34,14.481 17.39,19.219 24.36,6.512 0.61,-1.133 0.97,-2.441 1,-3.722 0.33,-14.481 -17.39,-19.211 -24.36,-6.508 z m -32.88,124.117 c -0.62,1.121 -0.97,2.43 -1,3.723 -0.33,14.48 17.39,19.207 24.36,6.507 0.61,-1.14 0.97,-2.449 0.99,-3.718 0.34,-14.493 -17.38,-19.219 -24.35,-6.512 z m 23.03,-90.77 c -6.98,-12.699 -24.69,-7.98 -24.36,6.5 0.03,1.282 0.39,2.602 1.01,3.723 6.97,12.707 24.68,7.969 24.35,-6.512 -0.03,-1.281 -0.38,-2.59 -1,-3.711 z m -34,58.071 c 0.68,1.09 1.63,2.05 2.74,2.718 12.41,7.532 25.38,-5.398 17.83,-17.777 -0.67,-1.101 -1.63,-2.051 -2.74,-2.723 -12.41,-7.527 -25.38,5.403 -17.83,17.782 z m 44.42,76.031 c 6.97,12.711 24.68,7.969 24.35,-6.5 -0.03,-1.289 -0.38,-2.602 -0.99,-3.723 -6.98,-12.718 -24.7,-7.976 -24.37,6.5 0.04,1.282 0.39,2.59 1.01,3.723 z m 46.96,14.41 c 0.67,1.098 1.63,2.059 2.73,2.719 12.42,7.539 25.38,-5.399 17.83,-17.77 -0.67,-1.101 -1.63,-2.05 -2.73,-2.73 -12.41,-7.531 -25.38,5.398 -17.83,17.781 z m 67.44,-14.73 c 0.62,-1.129 0.97,-2.442 1,-3.719 0.34,-14.481 -17.39,-19.223 -24.36,-6.512 -0.61,1.121 -0.97,2.442 -0.99,3.719 -0.35,14.48 17.38,19.211 24.35,6.512 z m -96.93,42.039 c -36.89,-10.692 -67.27,-37.86 -81.74,-73.34 -11.93,-29.262 -13.03,-57.711 -6.8,-83.32 14.01,-57.532 65.97,-100.258 127.98,-100.258 68.9,0 125.4,52.726 131.2,119.918 0.32,3.761 0.52,7.55 0.52,11.402 0,85.289 -81.55,151.59 -171.16,125.598"
         id="path36"
         style="fill:#c1a752;fill-opacity:1;fill-rule:nonzero;stroke:none" /><path
         d="m 3534.3,247.648 c -5.27,-76.039 -69.33,-135.597 -145.83,-135.597 -67.8,0 -127.78,47.84 -142.63,113.719 -2.37,10.57 -3.58,21.351 -3.58,32.062 0,80.379 65.59,145.77 146.21,145.77 80.63,0 146.22,-65.391 146.22,-145.77 0,-3.434 -0.15,-6.812 -0.39,-10.184 z m 112.8,26.711 c -0.32,4.071 -0.79,8.11 -1.28,11.993 -13.55,0.847 -21.68,5.32 -22.96,12.687 -1.34,7.461 5.17,14.68 17.92,20 -0.87,3.031 -1.89,6.012 -3,9.242 l -0.55,1.598 c -0.07,0.203 -0.14,0.41 -0.2,0.609 -13.17,-1.476 -22.39,1.684 -24.9,8.532 -2.59,7.039 2.77,15.5 14.4,22.921 -1.35,2.649 -2.84,5.321 -4.58,8.379 l -0.84,1.481 c -0.32,0.531 -0.62,1.058 -0.92,1.597 -13.61,-4.078 -22.07,-2.988 -25.61,3.063 -3.76,6.5 -0.05,15.68 9.9,24.848 -2.4,3.421 -4.94,6.691 -7.42,9.882 l -0.47,0.61 c -12.72,-6.59 -21.26,-6.922 -25.81,-1.442 -4.63,5.563 -2.69,13.801 5.96,25.172 -3.26,3.438 -6.58,6.739 -10.06,10.02 -11.32,-8.559 -19.97,-10.422 -25.24,-5.903 -5.52,4.602 -5.06,13.012 1.44,25.672 l -0.4,0.301 c -3.43,2.668 -6.71,5.207 -10.1,7.59 -9.33,-9.981 -18.72,-13.633 -24.96,-9.852 -6.18,3.582 -7.17,11.942 -3.01,25.493 l -3.28,1.82 c -3.01,1.719 -5.63,3.187 -8.25,4.5 -7.33,-11.473 -16.08,-16.91 -23.01,-14.32 -7.07,2.527 -10.14,11.519 -8.54,24.808 l -3.9,1.289 c -2.48,0.84 -5.03,1.692 -7.57,2.422 -5.41,-12.941 -13.05,-19.601 -20.27,-17.781 -7.06,1.199 -11.73,9.68 -12.54,22.808 -4.05,0.512 -8.04,0.961 -12.02,1.262 -3.02,-13.101 -9,-20.558 -16.57,-20.558 -7.41,0 -13.5,7.636 -16.54,20.558 -3.99,-0.301 -7.99,-0.75 -12.04,-1.262 -0.76,-13.316 -5.36,-21.597 -12.78,-22.847 -0.44,-0.121 -1.12,-0.199 -1.81,-0.199 -6.82,0 -13.38,6.527 -18.2,18.019 -2.66,-0.769 -5.33,-1.672 -7.92,-2.543 l -3.56,-1.18 c 1.58,-13.277 -1.48,-22.269 -8.55,-24.82 -1.15,-0.43 -2.41,-0.648 -3.7,-0.648 -6.32,0 -13.11,5.3 -19.28,14.992 -2.91,-1.461 -5.72,-3.024 -8.35,-4.531 l -3.2,-1.782 c 4.19,-13.621 3.18,-21.988 -3.09,-25.539 -5.97,-3.64 -15.62,-0.07 -24.88,9.891 -3.59,-2.52 -7.08,-5.223 -10.46,-7.852 l -0.07,-0.027 c 6.53,-12.66 7,-21.07 1.45,-25.703 -5.29,-4.457 -13.96,-2.617 -25.24,5.922 -3.51,-3.313 -6.82,-6.61 -10.05,-10.02 8.65,-11.34 10.6,-19.59 5.98,-25.172 -4.59,-5.449 -13.06,-5.078 -25.79,1.442 l -0.91,-1.16 c -2.47,-3.172 -4.83,-6.18 -7.03,-9.332 9.94,-9.137 13.65,-18.297 9.94,-24.778 -3.51,-6.179 -11.75,-7.293 -25.62,-3.133 -0.23,-0.41 -0.47,-0.816 -0.7,-1.226 l -1.1,-1.953 c -1.67,-2.91 -3.19,-5.59 -4.56,-8.278 11.8,-7.48 17.05,-15.761 14.42,-22.921 -2.48,-6.84 -11.75,-9.989 -24.9,-8.54 -0.1,-0.269 -0.19,-0.55 -0.29,-0.82 l -0.55,-1.66 c -1.01,-2.879 -2.04,-5.91 -2.92,-8.961 12.74,-5.277 19.24,-12.48 17.91,-20 -1.28,-7.359 -9.61,-11.93 -22.97,-12.707 -0.47,-3.73 -0.94,-7.832 -1.25,-11.973 13.13,-3.007 20.6,-8.968 20.6,-16.527 0,-7.391 -7.65,-13.461 -20.61,-16.473 0.32,-4.097 0.78,-8.148 1.26,-12.031 10.81,-0.609 18.42,-3.777 21.55,-9.027 0.76,-1.313 1.21,-2.481 1.43,-3.699 1.29,-7.332 -5.37,-14.704 -17.93,-19.981 0.8,-2.723 1.73,-5.43 2.68,-8.25 l 0.21,-0.582 c 0.29,-0.848 0.58,-1.707 0.87,-2.57 12.94,1.531 22.43,-1.731 24.91,-8.481 2.62,-7.207 -2.63,-15.508 -14.43,-22.988 1.43,-2.852 3.04,-5.68 4.71,-8.559 0.55,-0.941 1.11,-1.91 1.66,-2.882 13.52,4.07 22.08,2.98 25.59,-3.071 3.8,-6.597 0.19,-15.59 -9.9,-24.886 2.32,-3.282 4.83,-6.512 7.26,-9.641 l 0.65,-0.813 c 12.7,6.551 21.23,6.903 25.78,1.434 4.61,-5.4726 2.6,-13.9414 -5.95,-25.1601 3.32,-3.5117 6.64,-6.8203 10.05,-10.0235 11.45,8.6602 19.86,10.461 25.25,5.9219 5.53,-4.6094 5.06,-13.039 -1.44,-25.7109 l 0.28,-0.2188 c 3.6,-2.789 6.87,-5.332 10.22,-7.6601 9.13,9.8711 18.47,13.5195 24.93,9.8398 6.16,-3.582 7.18,-12.1406 3.06,-25.4805 l 0.28,-0.1601 c 0.96,-0.5313 1.93,-1.0586 2.89,-1.6211 2.84,-1.6094 5.6,-3.1797 8.36,-4.5703 7.32,11.582 15.84,16.8711 22.97,14.3906 7.09,-2.6172 10.16,-11.6172 8.57,-24.8398 l 3.94,-1.32816 c 2.58,-0.8711 5.04,-1.69141 7.53,-2.39063 4.83,11.49999 11.39,18.03129 18.21,18.03129 0.68,0 1.34,-0.0703 2.01,-0.2305 7.24,-1.2813 11.82,-9.582 12.57,-22.8711 3.87,-0.46875 7.93,-0.917969 12.05,-1.25 3.04,12.9219 9.13,20.5391 16.54,20.5391 7.53,0 13.51,-7.4375 16.57,-20.5391 4.17,0.339844 8.29,0.789063 12.02,1.25 0.76,13.2891 5.35,21.5898 12.74,22.8984 0.59,0.1133 1.25,0.1797 1.89,0.1797 6.7,0 13.4,-6.6875 18.19,-18.01951 2.55,0.72266 5.09,1.58204 7.74,2.47266 l 3.73,1.25005 c -1.55,13.0976 1.58,22.3085 8.54,24.8398 7.59,2.5195 15.74,-2.9492 23,-14.3906 2.58,1.3086 5.14,2.7695 7.81,4.289 l 3.71,2.0821 c -4.11,13.3398 -3.09,21.8984 3.06,25.457 6.37,3.6719 15.83,-0.0195 24.93,-9.8203 3.4,2.3711 6.72,4.9531 9.94,7.4609 l 0.56,0.4414 c -6.5,12.7188 -6.96,21.1289 -1.41,25.6992 5.23,4.4688 13.78,2.711 25.23,-5.9414 3.49,3.2735 6.81,6.5821 10.05,10.0235 -8.66,11.3476 -10.62,19.5976 -6,25.1601 4.55,5.477 13.11,5.117 25.83,-1.434 2.65,3.403 5.39,6.891 7.9,10.493 -9.96,9.16 -13.67,18.347 -9.92,24.839 3.56,6.079 12.05,7.141 25.65,3.071 1.82,3.269 4.24,7.308 6.31,11.461 -11.79,7.476 -17.02,15.75 -14.4,22.918 2.49,6.789 12,10.058 24.9,8.539 0.27,0.812 0.52,1.543 0.78,2.261 l 0.17,0.508 c 1.01,2.961 1.97,5.774 2.8,8.633 -12.57,5.277 -19.23,12.649 -17.92,19.988 1.3,7.422 9.62,11.993 22.96,12.719 0.55,4.344 0.98,8.223 1.28,12.031 -10.89,2.52 -17.96,7.11 -20,13.032 -0.42,1.199 -0.61,2.32 -0.61,3.441 0,7.559 7.48,13.508 20.61,16.527"
         id="path38"
         style="fill:#4f5052;fill-opacity:1;fill-rule:nonzero;stroke:none" /><path
         d="m 2338.99,305.961 c -23.74,-2.359 -41.66,-20.813 -43.42,-44.52 -0.77,-10.32 1.79,-19.98 6.61,-28.14 8.44,-14.25 23.97,-23.852 41.78,-23.852 20.44,0 37.9,12.61 45.05,30.449 2.22,5.543 3.48,11.582 3.48,17.934 0,28.348 -24.47,51.008 -53.5,48.129"
         id="path40"
         style="fill:#c1a752;fill-opacity:1;fill-rule:nonzero;stroke:none" /><path
         d="m 2427.47,247.25 c -1.11,0.672 -2.07,1.629 -2.74,2.719 -7.55,12.383 5.42,25.312 17.83,17.781 1.1,-0.672 2.06,-1.621 2.73,-2.73 7.56,-12.372 -5.41,-25.301 -17.82,-17.77 z m -16.5,-40.211 c -0.61,1.133 -0.97,2.453 -1,3.723 -0.34,14.488 17.38,19.218 24.36,6.508 0.62,-1.122 0.97,-2.43 1,-3.711 0.33,-14.477 -17.39,-19.219 -24.36,-6.52 z m -10.38,33.731 c -7.34,-24.25 -29.9,-41.918 -56.63,-41.918 -23.54,0 -43.8,13.738 -53.33,33.578 -7.3,15.199 -8.49,33.859 0.76,53.121 5.71,11.91 15.85,21.41 28.14,26.359 42.79,17.27 83.59,-13.66 83.59,-54.078 0,-5.941 -0.9,-11.66 -2.53,-17.062 z m 0.29,-66.829 c -6.97,-12.711 -24.68,-7.98 -24.35,6.5 0.03,1.289 0.38,2.598 0.99,3.719 6.98,12.719 24.69,7.981 24.36,-6.5 -0.03,-1.281 -0.38,-2.59 -1,-3.719 z m -46.96,-14.421 c -0.67,-1.09 -1.64,-2.051 -2.73,-2.711 -12.42,-7.528 -25.39,5.402 -17.84,17.769 0.68,1.102 1.63,2.051 2.74,2.731 12.41,7.531 25.38,-5.411 17.83,-17.789 z m -67.44,14.742 c -0.62,1.129 -0.97,2.437 -1,3.718 -0.34,14.481 17.39,19.219 24.36,6.512 0.61,-1.133 0.96,-2.441 0.99,-3.722 0.34,-14.481 -17.38,-19.211 -24.35,-6.508 z m -32.88,124.117 c -0.62,1.121 -0.97,2.43 -1,3.723 -0.34,14.48 17.38,19.207 24.36,6.507 0.61,-1.14 0.96,-2.449 0.99,-3.718 0.34,-14.493 -17.38,-19.219 -24.35,-6.512 z m 23.03,-90.77 c -6.98,-12.699 -24.69,-7.98 -24.36,6.5 0.03,1.282 0.38,2.602 1.01,3.723 6.97,12.707 24.68,7.969 24.35,-6.512 -0.03,-1.281 -0.39,-2.59 -1,-3.711 z m -34,58.071 c 0.67,1.09 1.63,2.05 2.74,2.718 12.41,7.532 25.38,-5.398 17.83,-17.777 -0.68,-1.101 -1.63,-2.051 -2.74,-2.723 -12.41,-7.527 -25.38,5.403 -17.83,17.782 z m 44.42,76.031 c 6.97,12.711 24.68,7.969 24.35,-6.5 -0.03,-1.289 -0.38,-2.602 -1,-3.723 -6.97,-12.718 -24.69,-7.976 -24.36,6.5 0.03,1.282 0.39,2.59 1.01,3.723 z m 46.96,14.41 c 0.66,1.098 1.63,2.059 2.73,2.719 12.41,7.539 25.38,-5.399 17.82,-17.77 -0.66,-1.101 -1.63,-2.05 -2.72,-2.73 -12.41,-7.531 -25.38,5.398 -17.83,17.781 z m 67.44,-14.73 c 0.61,-1.129 0.97,-2.442 1,-3.719 0.34,-14.481 -17.39,-19.223 -24.36,-6.512 -0.62,1.121 -0.97,2.442 -1,3.719 -0.34,14.48 17.38,19.211 24.36,6.512 z m 9.84,-33.352 c 6.98,12.711 24.7,7.981 24.36,-6.5 -0.03,-1.277 -0.38,-2.598 -1,-3.719 -6.97,-12.711 -24.68,-7.98 -24.35,6.5 0.03,1.289 0.38,2.602 0.99,3.719 z m 35.56,31.711 c -31.55,39.332 -85.29,60.219 -142.33,43.68 -36.89,-10.692 -67.27,-37.86 -81.74,-73.34 -11.94,-29.262 -13.03,-57.711 -6.8,-83.32 14,-57.532 65.98,-100.258 127.98,-100.258 68.9,0 125.4,52.726 131.2,119.918 0.32,3.761 0.52,7.55 0.52,11.402 0,29.559 -9.81,56.816 -26.34,78.758 -0.8,1.082 -1.65,2.109 -2.49,3.16"
         id="path42"
         style="fill:#c1a752;fill-opacity:1;fill-rule:nonzero;stroke:none" /><path
         d="m 2489.79,247.648 c -5.27,-76.039 -69.33,-135.597 -145.83,-135.597 -67.8,0 -127.78,47.84 -142.63,113.719 -2.37,10.57 -3.58,21.351 -3.58,32.062 0,80.379 65.58,145.77 146.21,145.77 40.09,0 76.45,-16.192 102.89,-42.321 7.55,-7.461 14.26,-15.742 20.05,-24.691 14.71,-22.731 23.28,-49.762 23.28,-78.758 0,-3.434 -0.17,-6.812 -0.39,-10.184 z m 112.8,26.711 c -0.32,4.071 -0.79,8.11 -1.28,11.993 -13.55,0.847 -21.68,5.32 -22.97,12.687 -1.33,7.461 5.17,14.68 17.92,20 -0.87,3.031 -1.88,6.012 -2.99,9.242 l -0.55,1.598 c -0.07,0.203 -0.14,0.41 -0.21,0.609 -11.49,-1.297 -19.98,0.961 -23.62,6.102 -0.53,0.762 -0.96,1.558 -1.27,2.43 -2.6,7.039 2.76,15.5 14.4,22.921 -1.35,2.649 -2.85,5.321 -4.58,8.379 l -0.84,1.481 c -0.32,0.531 -0.62,1.058 -0.92,1.597 -13.62,-4.078 -22.08,-2.988 -25.61,3.063 -3.76,6.5 -0.06,15.68 9.9,24.848 -2.4,3.421 -4.95,6.691 -7.42,9.882 l -0.48,0.61 c -12.71,-6.59 -21.26,-6.922 -25.81,-1.442 -4.63,5.563 -2.68,13.801 5.97,25.172 -3.26,3.438 -6.58,6.739 -10.06,10.02 -11.33,-8.559 -19.97,-10.422 -25.24,-5.903 -5.52,4.602 -5.06,13.012 1.44,25.672 l -0.4,0.301 c -3.43,2.668 -6.72,5.207 -10.1,7.59 -9.33,-9.981 -18.73,-13.633 -24.98,-9.852 -5.97,3.469 -7.05,11.481 -3.31,24.34 0.12,0.391 0.19,0.742 0.32,1.153 l -3.28,1.82 c -3.01,1.719 -5.63,3.187 -8.26,4.5 -7.32,-11.473 -16.07,-16.91 -23,-14.32 -7.07,2.527 -10.14,11.519 -8.54,24.808 l -3.91,1.289 c -2.48,0.84 -5.03,1.692 -7.56,2.422 -5.42,-12.941 -13.05,-19.601 -20.27,-17.781 -7.06,1.199 -11.75,9.68 -12.54,22.808 -4.05,0.512 -8.05,0.961 -12.02,1.262 -3.04,-13.101 -9,-20.558 -16.57,-20.558 -7.41,0 -13.52,7.636 -16.54,20.558 -3.99,-0.301 -7.99,-0.75 -12.05,-1.262 -0.76,-13.316 -5.36,-21.597 -12.77,-22.847 -0.44,-0.121 -1.12,-0.199 -1.82,-0.199 -6.81,0 -13.37,6.527 -18.2,18.019 -2.65,-0.769 -5.32,-1.672 -7.91,-2.543 l -3.56,-1.18 c 1.58,-13.277 -1.49,-22.269 -8.55,-24.82 -1.15,-0.43 -2.41,-0.648 -3.7,-0.648 -6.32,0 -13.11,5.3 -19.29,14.992 -2.91,-1.461 -5.71,-3.024 -8.34,-4.531 l -3.2,-1.782 c 4.19,-13.621 3.18,-21.988 -3.09,-25.539 -5.97,-3.64 -15.62,-0.07 -24.88,9.891 -3.59,-2.52 -7.08,-5.223 -10.48,-7.852 l -0.05,-0.027 c 6.53,-12.66 7,-21.07 1.45,-25.703 -5.29,-4.457 -13.96,-2.617 -25.24,5.922 -3.52,-3.313 -6.82,-6.61 -10.05,-10.02 8.65,-11.34 10.59,-19.59 5.97,-25.172 -4.6,-5.449 -13.06,-5.078 -25.79,1.442 l -0.9,-1.16 c -2.48,-3.172 -4.84,-6.18 -7.04,-9.332 9.95,-9.137 13.66,-18.297 9.95,-24.778 -3.51,-6.179 -11.75,-7.293 -25.62,-3.133 -0.23,-0.41 -0.47,-0.816 -0.7,-1.226 l -1.11,-1.953 c -1.66,-2.91 -3.18,-5.59 -4.55,-8.278 11.8,-7.48 17.04,-15.761 14.42,-22.921 -2.48,-6.84 -11.76,-9.989 -24.91,-8.54 -0.09,-0.269 -0.18,-0.55 -0.28,-0.82 l -0.56,-1.66 c -1,-2.879 -2.03,-5.91 -2.92,-8.961 12.75,-5.277 19.25,-12.48 17.91,-20 -1.27,-7.359 -9.6,-11.93 -22.96,-12.707 -0.47,-3.73 -0.94,-7.832 -1.25,-11.973 13.13,-3.007 20.6,-8.968 20.6,-16.527 0,-7.391 -7.65,-13.461 -20.61,-16.473 0.32,-4.097 0.78,-8.148 1.26,-12.031 10.81,-0.609 18.41,-3.777 21.55,-9.027 0.76,-1.313 1.21,-2.481 1.42,-3.699 1.29,-7.332 -5.37,-14.704 -17.93,-19.981 0.81,-2.723 1.73,-5.43 2.69,-8.25 l 0.21,-0.582 c 0.29,-0.848 0.58,-1.707 0.86,-2.57 12.94,1.531 22.44,-1.731 24.92,-8.481 2.61,-7.207 -2.63,-15.508 -14.44,-22.988 1.44,-2.852 3.05,-5.68 4.71,-8.559 0.56,-0.941 1.11,-1.91 1.67,-2.882 13.52,4.07 22.08,2.98 25.58,-3.071 3.8,-6.597 0.2,-15.59 -9.9,-24.886 2.33,-3.282 4.84,-6.512 7.27,-9.641 l 0.64,-0.813 c 12.71,6.551 21.23,6.903 25.79,1.434 4.6,-5.4726 2.6,-13.9414 -5.95,-25.1601 3.32,-3.5117 6.64,-6.8203 10.05,-10.0235 11.45,8.6602 19.86,10.461 25.25,5.9219 5.53,-4.6094 5.06,-13.039 -1.44,-25.7109 l 0.28,-0.2188 c 3.6,-2.789 6.86,-5.332 10.22,-7.6601 9.12,9.8711 18.47,13.5195 24.93,9.8398 6.16,-3.582 7.18,-12.1406 3.06,-25.4805 l 0.27,-0.1601 c 0.97,-0.5313 1.94,-1.0586 2.9,-1.6211 2.84,-1.6094 5.6,-3.1797 8.35,-4.5703 7.33,11.582 15.84,16.8711 22.97,14.3906 7.1,-2.6172 10.17,-11.6172 8.58,-24.8398 l 3.94,-1.32816 c 2.58,-0.8711 5.04,-1.69141 7.53,-2.39063 4.83,11.49999 11.39,18.03129 18.2,18.03129 0.69,0 1.35,-0.0703 2.02,-0.2305 7.24,-1.2813 11.81,-9.582 12.57,-22.8711 3.87,-0.46875 7.93,-0.917969 12.05,-1.25 3.03,12.9219 9.13,20.5391 16.54,20.5391 7.53,0 13.51,-7.4375 16.57,-20.5391 4.17,0.339844 8.29,0.789063 12.02,1.25 0.76,13.2891 5.34,21.5898 12.74,22.8984 0.59,0.1133 1.24,0.1797 1.89,0.1797 6.7,0 13.4,-6.6875 18.18,-18.01951 2.55,0.72266 5.09,1.58204 7.75,2.47266 l 3.73,1.25005 c -1.55,13.0976 1.58,22.3085 8.54,24.8398 7.59,2.5195 15.74,-2.9492 22.99,-14.3906 2.59,1.3086 5.15,2.7695 7.82,4.289 l 3.71,2.0821 c -4.11,13.3398 -3.09,21.8984 3.05,25.457 6.38,3.6719 15.83,-0.0195 24.94,-9.8203 3.39,2.3711 6.71,4.9531 9.94,7.4609 l 0.56,0.4414 c -6.5,12.7188 -6.97,21.1289 -1.41,25.6992 5.23,4.4688 13.78,2.711 25.23,-5.9414 3.49,3.2735 6.81,6.5821 10.05,10.0235 -8.66,11.3476 -10.62,19.5976 -6.01,25.1601 4.56,5.477 13.12,5.117 25.83,-1.434 2.66,3.403 5.4,6.891 7.9,10.493 -9.96,9.16 -13.66,18.347 -9.91,24.839 3.56,6.079 12.04,7.141 25.65,3.071 1.82,3.269 4.23,7.308 6.31,11.461 -11.79,7.476 -17.03,15.75 -14.4,22.918 2.49,6.789 11.99,10.058 24.89,8.539 0.28,0.812 0.53,1.543 0.78,2.261 l 0.18,0.508 c 1.01,2.961 1.96,5.774 2.79,8.633 -12.56,5.277 -19.22,12.649 -17.92,19.988 1.31,7.422 9.63,11.993 22.97,12.719 0.55,4.344 0.99,8.223 1.28,12.031 -10.89,2.52 -17.96,7.11 -20,13.032 -0.42,1.199 -0.61,2.32 -0.61,3.441 0,7.559 7.48,13.508 20.61,16.527"
         id="path44"
         style="fill:#4f5052;fill-opacity:1;fill-rule:nonzero;stroke:none" /><path
         d="m 3057.53,227.75 -24.88,0 0,28.512 -99.52,0 0,-28.512 -24.88,0 0,216.891 24.88,0 0,-28.52 99.52,0 0,28.52 24.88,0 0,-216.891 z m 477.91,326.621 -302.81,1.789 0,-29.519 c 0,-10.75 -5.94,-19.621 -10.79,-29.219 -14.15,-27.992 -38.95,-43.063 -61.36,-44.641 l -331.73,0 -123.17,33.578 0,-133.14 -0.01,0 0,-44.231 c 0,-48.617 39.54,-88.027 88.3,-88.027 l 342.12,0 c -3.52,1.328 -8.15,2.129 -13.61,2.238 l -2.41,0.051 -0.29,2.371 c -0.69,5.508 -1.41,11.379 -1.78,17.359 l -0.15,2.418 2.38,0.461 c 11.56,2.27 19.03,6.961 19.03,11.973 0,5.137 -7.28,9.738 -19.02,12 l -2.39,0.469 0.15,2.418 c 0.39,6.082 1.12,12.133 1.78,17.32 l 0.3,2.359 2.38,0.051 c 11.83,0.289 19.72,3.563 20.59,8.539 0.92,5.121 -5.67,10.981 -17.19,15.274 l -2.35,0.879 0.64,2.41 c 1.09,4.121 2.45,8.168 3.75,11.918 l 0.57,1.703 c 0.34,0.969 0.67,1.949 0.98,2.937 l 0.7,2.25 2.35,-0.347 c 11.35,-1.672 20.16,0.328 21.81,4.847 1.76,4.813 -3.95,11.942 -14.56,18.161 l -2.18,1.281 1.08,2.277 c 1.76,3.723 3.74,7.211 5.84,10.902 l 1.24,2.18 c 0.6,1.051 1.2,2.102 1.79,3.16 l 1.09,2.012 2.19,-0.703 c 6.02,-1.949 10.95,-2.938 14.67,-2.938 5.55,0 6.8,2.207 7.21,2.93 2.53,4.43 -1.72,12.309 -10.83,20.109 l -1.85,1.59 1.35,2.032 c 2.76,4.128 5.69,7.886 8.8,11.878 l 3.78,4.879 2.08,-1.129 c 11.01,-5.98 18.62,-7.449 21.59,-3.898 2.92,3.527 0.2,10.867 -7.66,20.668 l -1.5,1.871 1.62,1.738 c 4.44,4.762 8.99,9.301 13.92,13.883 l 1.76,1.629 1.86,-1.5 c 9.09,-7.242 14.4,-8.769 17.26,-8.769 1.42,0 2.55,0.367 3.47,1.148 3.48,2.91 2.1,10.539 -3.9,21.512 l -1.13,2.047 3.76,2.929 c 4.18,3.231 8.48,6.563 13.02,9.614 l 2.05,1.378 1.61,-1.859 c 7.75,-8.961 15.86,-13.41 20.11,-10.82 3.99,2.258 3.97,9.988 0.02,21.82 l -0.71,2.149 7.19,4.039 c 3.47,1.98 7.23,4.07 11.19,5.921 l 2.28,1.059 1.27,-2.16 c 6.22,-10.547 13.32,-16.32 18.19,-14.469 4.8,1.731 6.66,10.039 4.87,21.711 l -0.35,2.301 8.02,2.637 c 3.51,1.203 7.15,2.429 10.87,3.382 l 2.4,0.598 0.88,-2.309 c 4.02,-10.621 9.53,-17.218 14.37,-17.218 0.28,0 0.53,0.027 0.74,0.078 5.21,0.89 8.48,8.73 8.75,20.512 l 0.05,2.378 2.37,0.301 c 5.87,0.75 11.62,1.449 17.41,1.77 l 2.41,0.14 0.47,-2.359 c 2.27,-11.531 7,-18.973 12.02,-18.973 5.14,0 9.75,7.27 12.05,18.973 l 0.46,2.367 2.41,-0.148 c 5.77,-0.321 11.53,-1.02 17.39,-1.77 l 2.36,-0.301 0.06,-2.371 c 0.29,-11.597 3.65,-19.64 8.55,-20.468 0.57,-0.153 0.94,-0.192 1.31,-0.192 4.54,0 10.05,6.781 14.03,17.281 l 0.88,2.309 2.4,-0.598 c 3.59,-0.921 7.1,-2.101 10.5,-3.242 l 8.39,-2.777 -0.36,-2.313 c -1.81,-11.66 0.05,-19.968 4.83,-21.687 5.05,-1.891 12.13,4.098 18.23,14.449 l 1.27,2.16 2.28,-1.039 c 3.69,-1.703 7.05,-3.601 11.08,-5.89 l 7.31,-4.063 -0.72,-2.168 c -3.93,-11.801 -3.95,-19.539 -0.06,-21.793 4.53,-2.726 12.38,1.813 20.21,10.793 l 1.62,1.859 2.03,-1.371 c 4.34,-2.918 8.38,-6.058 12.63,-9.371 l 4.11,-3.16 -1.12,-2.066 c -5.97,-10.973 -7.36,-18.602 -3.88,-21.512 0.93,-0.789 2.06,-1.172 3.46,-1.172 2.84,0 8.14,1.543 17.25,8.793 l 1.86,1.488 1.75,-1.617 c 4.89,-4.531 9.44,-9.07 13.93,-13.883 l 1.62,-1.738 -1.49,-1.871 c -7.86,-9.809 -10.57,-17.16 -7.64,-20.68 3,-3.601 10.6,-2.121 21.57,3.899 l 2.08,1.14 3.38,-4.328 c 2.92,-3.769 6.24,-8.031 9.18,-12.422 l 1.37,-2.027 -1.87,-1.602 c -9.11,-7.808 -13.36,-15.718 -10.81,-20.152 0.41,-0.687 1.68,-2.859 7.3,-2.859 3.75,0 8.67,0.98 14.59,2.91 l 2.2,0.711 1.1,-2.02 c 0.65,-1.179 1.32,-2.359 2,-3.539 l 0.87,-1.531 c 2,-3.52 3.78,-6.75 5.38,-10.02 l 22.88,0 -11.92,89.84 c -7.62,56.571 -56.05,98.801 -113.31,98.801"
         id="path46"
         style="fill:#c1a752;fill-opacity:1;fill-rule:nonzero;stroke:none" /><path
         d="m 3726.62,619.5 0,-141.27 168.64,0 -27.87,291.879 c -2,20.821 -19.53,36.719 -40.51,36.719 l -261.1,0 0,13.992 c 0,14.262 -11.6,25.809 -25.88,25.809 l -67.94,0 c -14.3,0 -25.88,-11.547 -25.88,-25.809 l 0,-13.992 -213.45,0 0,-69.859 493.99,0 0,-117.469"
         id="path48"
         style="fill:#c1a752;fill-opacity:1;fill-rule:nonzero;stroke:none" /><path
         d="m 3653.78,478.23 64.97,0 0,133.442 -329.9,0 0,-27.192 -141.7,0 c -5.1,0 -10.11,-1.89 -14.52,-5.308 l 0,-16.211 287.47,0.348 c 65.11,0 114.31,-28.957 133.68,-85.079"
         id="path50"
         style="fill:#c1a752;fill-opacity:1;fill-rule:nonzero;stroke:none" /><path
         d="m 3251.04,683.98 20.54,0 0,-19.308 -20.54,0 0,19.308 z m 0,31.352 20.54,0 0,-18.871 -20.54,0 0,18.871 z m 33.07,-31.352 17.97,0 0,-19.308 -17.97,0 0,19.308 z m 0,31.352 17.97,0 0,-18.871 -17.97,0 0,18.871 z m 30.5,-31.352 17.97,0 0,-19.308 -17.97,0 0,19.308 z m 0,31.352 17.97,0 0,-18.871 -17.97,0 0,18.871 z m 30.5,-31.352 17.98,0 0,-19.308 -17.98,0 0,19.308 z m 0,31.352 17.98,0 0,-18.871 -17.98,0 0,18.871 z m 30.51,-31.352 17.97,0 0,-19.308 -17.97,0 0,19.308 z m 0,31.352 17.97,0 0,-18.871 -17.97,0 0,18.871 z m 30.5,-63.152 17.98,0 0,-18.871 -17.98,0 0,18.871 z m 0,31.8 17.98,0 0,-19.308 -17.98,0 0,19.308 z m 0,31.352 17.98,0 0,-18.871 -17.98,0 0,18.871 z m 30.51,-63.152 17.97,0 0,-18.871 -17.97,0 0,18.871 z m 0,31.8 17.97,0 0,-19.308 -17.97,0 0,19.308 z m 0,31.352 17.97,0 0,-18.871 -17.97,0 0,18.871 z m 30.49,-63.152 17.98,0 0,-18.871 -17.98,0 0,18.871 z m 0,31.8 17.98,0 0,-19.308 -17.98,0 0,19.308 z m 0,31.352 17.98,0 0,-18.871 -17.98,0 0,18.871 z m 30.51,-63.152 17.98,0 0,-18.871 -17.98,0 0,18.871 z m 0,31.8 17.98,0 0,-19.308 -17.98,0 0,19.308 z m 0,31.352 17.98,0 0,-18.871 -17.98,0 0,18.871 z m 30.5,-63.152 17.98,0 0,-18.871 -17.98,0 0,18.871 z m 0,31.8 17.98,0 0,-19.308 -17.98,0 0,19.308 z m 0,31.352 17.98,0 0,-18.871 -17.98,0 0,18.871 z m 30.51,-63.152 17.98,0 0,-18.871 -17.98,0 0,18.871 z m 0,31.8 17.98,0 0,-19.308 -17.98,0 0,19.308 z m 0,31.352 17.98,0 0,-18.871 -17.98,0 0,18.871 z m 30.5,-63.152 17.97,0 0,-18.871 -17.97,0 0,18.871 z m 0,31.8 17.97,0 0,-19.308 -17.97,0 0,19.308 z m 0,31.352 17.97,0 0,-18.871 -17.97,0 0,18.871 z m 30.5,-63.152 17.98,0 0,-18.871 -17.98,0 0,18.871 z m 0,31.8 17.98,0 0,-19.308 -17.98,0 0,19.308 z m 0,31.352 17.98,0 0,-18.871 -17.98,0 0,18.871 z m 30.51,-63.152 17.98,0 0,-18.871 -17.98,0 0,18.871 z m 0,31.8 17.98,0 0,-19.308 -17.98,0 0,19.308 z m 0,31.352 17.98,0 0,-18.871 -17.98,0 0,18.871 z m 30.5,-63.152 20.55,0 0,-18.871 -20.55,0 0,18.871 z m 0,31.8 20.55,0 0,-19.308 -20.55,0 0,19.308 z m 0,31.352 20.55,0 0,-18.871 -20.55,0 0,18.871 z m -429.61,-76.16 0,13.008 20.54,0 0,-13.008 12.53,0 0,13.008 17.97,0 0,-13.008 12.53,0 0,13.008 17.97,0 0,-13.008 12.53,0 0,13.008 17.98,0 0,-13.008 12.53,0 0,13.008 17.97,0 0,-18.871 -4.74,0 0,-13.809 329.9,0 0,109.629 -486.12,0 0,-91.899 c 4.75,1.258 9.61,1.942 14.52,1.942 l 3.89,0"
         id="path52"
         style="fill:#c1a752;fill-opacity:1;fill-rule:nonzero;stroke:none" /><path
         d="m 3336.54,857.82 -103.91,0 0,-42.98 131.17,0 -27.26,42.98"
         id="path54"
         style="fill:#c1a752;fill-opacity:1;fill-rule:nonzero;stroke:none" /><path
         d="m 3380.53,592.77 0,38.109 -133.38,0 c -17.74,0 -34.92,-9.969 -47.14,-27.359 l -46.65,-66.5 c -7.76,-11.09 -18.91,-17.45 -30.58,-17.45 l -230.32,0.11 0,-38.219 230.32,0 c 18.67,0 36.75,10.488 49.59,28.789 l 46.65,66.48 c 7.15,10.2 17.4,16.04 28.13,16.04 l 133.38,0"
         id="path56"
         style="fill:#c1a752;fill-opacity:1;fill-rule:nonzero;stroke:none" /><path
         d="m 2982.89,1047.13 0,8.92 c 0,29.97 15.87,54.73 36.59,59.21 l 69.33,0 c 18.44,-4.06 33.26,-24.25 36.03,-50.57 l 23.97,-228.17 c 0.49,-4.629 0.57,-9.188 0.31,-13.649 -1.8,-30.32 -20.13,-55 -43.14,-55 l -79.8,0 c -23.91,0 -43.29,26.867 -43.29,60 l 0,219.259 z M 2691.5,656.809 c -0.26,2.683 -0.34,5.39 -0.08,8.16 l 20.38,213.972 c 1.58,16.598 5.01,32.981 10.23,48.821 l 52.12,158.458 c 5.02,15.24 17.98,26.19 33.39,29.04 l 79.44,0 c 20.09,-3.82 35.29,-21.4 35.29,-42.54 l 0,-436.47 c 0,-7.551 0.68,-14.539 -2.66,-20.66 l 63.28,0 0,92.301 c 0,18.89 19.13,34.199 42.72,34.199 l 85.44,0 c 23.59,0 42.71,-15.309 42.71,-34.199 l 0,-54.129 c 0,-5.93 -1.92,-11.762 -5.59,-16.922 l -15.12,-21.25 65.94,0 c 4.31,4.922 9.07,9.058 14.11,12.512 l 0,229.718 -57.2,235.62 c -1.26,7.76 -3.71,15.06 -7.06,21.82 l 9.99,0 0,31.1 c 0,12.98 -10.55,23.5 -23.57,23.5 l -479.62,0 0,-54.6 0.04,0 0,-12.47 c 0,-12 9.74,-21.72 21.78,-21.72 l 37.36,0 -38.14,-120.422 c -13.55,-42.796 -22.55,-86.886 -26.86,-131.566 l -18.38,-190.453 62.05,0 c -1.99,8.769 -1.37,11.641 -1.99,18.18"
         id="path58"
         style="fill:#c1a752;fill-opacity:1;fill-rule:nonzero;stroke:none" /><path
         d="m 2591.04,486.309 13.19,-13.649 71.05,0 0,-52.519 -93.46,0 -63.94,66.168 -49.85,0 0,-7.368 0.03,0 c 0.03,-3.011 0.74,-5.511 2.71,-6.652 3.79,-2.277 9.77,0.672 15.95,6.652 0.73,0.688 1.45,1.399 2.17,2.188 l 3.29,3.519 3.96,-2.769 c 1.32,-0.918 2.61,-1.969 3.91,-2.938 2.12,-1.582 4.24,-3.121 6.41,-4.812 l 3.62,-2.809 -1.69,-4.379 c -3.48,-6.793 -6.8,-15.582 -2.82,-18.91 0.59,-0.492 1.48,-1.09 3.21,-1.09 2.11,0 6.88,0.918 15.12,7.161 l 3.75,2.839 3.42,-3.23 c 3.56,-3.371 6.93,-6.711 10.27,-10.242 l 3.23,-3.41 -2.84,-3.727 c -4.66,-6.113 -9.49,-14.242 -6.12,-18.281 0.72,-0.871 1.88,-1.852 4.66,-1.852 2.44,0 6.91,0.801 14.33,4.653 l 4.08,2.109 3.32,-4.199 c 2.61,-3.391 5.17,-6.692 7.59,-10.133 l 2.78,-3.949 -3.56,-3.282 c -7.64,-7.039 -11.11,-14.117 -8.85,-18.039 0.42,-0.718 1.59,-2.711 6.99,-2.711 3.24,0 7.35,0.743 12.21,2.192 l 4.23,1.269 3.95,-6.91 c 1.79,-3.148 3.33,-5.898 4.71,-8.629 l 2.25,-4.468 -4.22,-2.68 c -8.14,-5.192 -12.83,-10.973 -12.45,-15.152 l 116.03,0 0,140.039 -102.62,0"
         id="path60"
         style="fill:#c1a752;fill-opacity:1;fill-rule:nonzero;stroke:none" /><path
         d="m 1915.97,530.129 c 1.07,-9.231 -5.56,-17.578 -14.81,-18.649 -1.03,-0.121 -2.04,-0.109 -3.05,-0.039 -7.97,0.508 -14.7,6.598 -15.65,14.797 -1.08,9.231 5.54,17.571 14.8,18.66 4.56,0.524 8.9,-0.828 12.27,-3.429 3.46,-2.668 5.89,-6.66 6.44,-11.34 z m 201.64,117.48 c -0.77,6.629 4,12.641 10.65,13.411 3.8,0.441 7.36,-0.969 9.89,-3.461 0.32,-0.309 0.63,-0.618 0.92,-0.977 1.39,-1.711 2.35,-3.812 2.63,-6.172 0.61,-5.199 -2.22,-9.98 -6.68,-12.18 -1.22,-0.609 -2.54,-1.058 -3.96,-1.23 -0.23,-0.008 -0.45,0.012 -0.68,0 -6.37,-0.391 -12.02,4.211 -12.77,10.609 z m -3.87,-10.429 c 4.65,-7.539 13.82,-10.989 22.3,-8.391 l 0.31,0.102 c 3.57,1.078 6.59,3.121 8.9,5.75 0.39,0.441 0.71,0.929 1.05,1.41 2.98,4.07 4.42,9.23 3.54,14.527 l 0,0.012 -0.79,4.769 -2.97,17.95 337.17,39.132 11.04,49.539 c 4.39,28.75 27.62,29.559 51.26,38.282 -1,0.047 -1.98,0.117 -2.99,0.097 l -460.01,3.672 c -25.73,-0.449 -49.77,-12.859 -65,-33.543 L 1863.16,560.699 c -14.57,-19.801 -11.15,-47.48 7.8,-63.168 l 0.66,-0.539 c 17.94,-14.863 44.16,-14.172 61.3,1.598 l 169.92,156.301 10.9,-17.711"
         id="path62"
         style="fill:#c1a752;fill-opacity:1;fill-rule:nonzero;stroke:none" /><path
         d="m 2555.48,721.301 c -10.72,0 -19.41,8.66 -19.41,19.359 0,10.68 8.69,19.34 19.41,19.34 10.73,0 19.42,-8.66 19.42,-19.34 0,-10.699 -8.69,-19.359 -19.42,-19.359 z m 51.41,68.179 -49.27,0 c -0.57,0 -1.14,-0.058 -1.72,-0.07 -25.18,-0.75 -46.71,-17.469 -51.9,-40.699 l -9.6,-42.941 -29.14,-130.219 44.32,0 65.06,-67.34 32.25,0 0,281.269"
         id="path64"
         style="fill:#c1a752;fill-opacity:1;fill-rule:nonzero;stroke:none" /><path
         d="m 2396.93,527.16 93.04,0 30.34,-31.398 65.05,-67.332 81.6,0 0,35.941 -66.27,0 -30.33,31.391 -65.06,67.347 -206.8,0 0,-35.949 98.43,0"
         id="path66"
         style="fill:#c1a752;fill-opacity:1;fill-rule:nonzero;stroke:none" /><path
         d="m 2293.94,621.559 3.61,-0.981 c 0.2,-0.047 0.31,-0.246 0.24,-0.449 l -12.81,-38.481 c -0.05,-0.179 -0.27,-0.296 -0.46,-0.25 l -3.61,0.993 c -6.28,1.699 -9.69,8.14 -7.61,14.379 l 0.04,0.121 c 0.06,0.187 -0.04,0.39 -0.23,0.449 l -122.92,33.41 2.82,2.711 0.01,0 c 3.13,3.008 4.74,6.949 4.85,10.891 0.01,0.449 0.05,0.91 0.02,1.359 l 120.42,-32.731 c 0.2,-0.058 0.41,0.059 0.47,0.262 l 0.04,0.11 c 2.07,6.238 8.85,9.91 15.12,8.207"
         id="path68"
         style="fill:#c1a752;fill-opacity:1;fill-rule:nonzero;stroke:none" /><path
         d="m 2151.33,873.309 c 0,0 -20.43,-9.477 6.29,-8.399 l 4.39,-5.012 199.54,-16.117 c 0.25,-0.031 0.44,-0.25 0.41,-0.511 l -0.01,-0.149 c -0.84,-8.262 5.19,-15.641 13.47,-16.473 l 4.77,-0.476 c 0.25,-0.024 0.49,0.16 0.51,0.41 l 5.15,50.918 c 0.03,0.262 -0.15,0.488 -0.42,0.512 l -4.75,0.476 c -8.28,0.84 -15.68,-5.187 -16.52,-13.437 l -0.01,-0.153 c -0.02,-0.257 -0.25,-0.437 -0.51,-0.418 l -212.31,17.719 0,-8.89"
         id="path70"
         style="fill:#c1a752;fill-opacity:1;fill-rule:nonzero;stroke:none" /><path
         d="m 2564.58,853.559 c 9.38,1.921 18.55,-4.098 20.47,-13.45 1.94,-9.347 -4.1,-18.488 -13.47,-20.398 -9.38,-1.922 -18.55,4.09 -20.47,13.437 -1.94,9.34 4.1,18.481 13.47,20.411 z m -34.54,-42.399 0.01,0.059 62.41,-6.52 7.56,1.551 4.06,38.602 c 1.97,18.789 -11.7,35.609 -30.55,37.57 l -18.24,1.918 c -13.02,1.359 -24.63,-7.86 -26.41,-20.692 l -137.55,13.774 -5.22,-51.844 143.93,-14.418"
         id="path72"
         style="fill:#c1a752;fill-opacity:1;fill-rule:nonzero;stroke:none" /><path
         d="m 2107.06,906.07 c -0.11,-2.558 -1.04,-4.898 -2.5,-6.781 -2.33,-3.039 -6.05,-4.93 -10.18,-4.75 -6.69,0.32 -11.87,5.973 -11.55,12.652 0.31,6.668 5.98,11.829 12.67,11.52 2.75,-0.121 5.21,-1.18 7.16,-2.813 2.82,-2.328 4.59,-5.886 4.4,-9.828 z m 35.85,-8.558 -18.97,21.386 -2.53,2.852 c -11.79,13.281 -32.15,14.531 -45.47,2.77 l -0.49,-0.43 c -13.33,-11.738 -14.58,-32.039 -2.79,-45.328 l 54.75,-63.102 c 0.19,-0.23 0.44,-0.371 0.64,-0.601 l -0.41,1.523 c -2.95,11.02 4.22,23.059 15.27,26.008 l 0.4,0.109 c 11.06,2.942 23.18,-2.179 26.13,-13.199 l 4.53,-15.461 c 0.24,0.199 0.54,0.34 0.78,0.551 l 0.49,0.43 c 13.32,11.75 13.3,31.062 1.51,44.351 l -33.84,38.141"
         id="path74"
         style="fill:#c1a752;fill-opacity:1;fill-rule:nonzero;stroke:none" /><path
         d="m 2151.33,809.379 c -5.9,0 -10.67,4.762 -10.67,10.641 0,5.878 4.77,10.652 10.67,10.652 5.9,0 10.68,-4.774 10.68,-10.652 0,-5.879 -4.78,-10.641 -10.68,-10.641 z m 5.38,29.031 -0.34,0.121 c -9.52,3.008 -19.68,-2.25 -22.69,-11.73 l -4.13,-12.942 -10.07,-29.359 35.7,-11.18 12.88,41.172 0.42,1.297 c 3.02,9.492 -2.25,19.609 -11.77,22.621"
         id="path76"
         style="fill:#c1a752;fill-opacity:1;fill-rule:nonzero;stroke:none" /><path
         d="m 2307.19,571.641 c 0.08,-0.059 0.17,-0.082 0.27,-0.082 l 42.15,0.043 22.28,-0.02 11.15,0.047 -82.13,47.66 c -0.17,0.152 -0.44,0.109 -0.57,-0.07 l -11.83,-38.649 c -0.15,-0.191 -0.11,-0.441 0.07,-0.59 l 18.61,-8.339"
         id="path78"
         style="fill:#c1a752;fill-opacity:1;fill-rule:nonzero;stroke:none" /><path
         d="m 1821.72,824.059 -30.23,72.363 c -4.02,9.648 -16.2,14.566 -27.19,10.988 l -0.41,-0.121 c -10.99,-3.578 -16.63,-14.301 -12.61,-23.949 l 9.32,-22.309 -426.63,-138.672 -41.88,57.321 c -6.51,8.91 -18.04,12.629 -28.55,9.211 l -0.87,-0.282 57.26,-127.66 461.58,150.031 40.21,13.079"
         id="path80"
         style="fill:#c1a752;fill-opacity:1;fill-rule:nonzero;stroke:none" /><path
         d="m 1871.96,734.23 c 6.09,2.93 13.41,0.391 16.34,-5.679 2.94,-6.071 0.39,-13.36 -5.69,-16.289 -6.09,-2.934 -13.41,-0.383 -16.34,5.679 -2.94,6.071 -0.39,13.36 5.69,16.289 z m -15.04,-34.25 24.52,3.52 c 6.38,0.91 11.57,4.672 14.68,9.75 2.41,3.949 3.6,8.691 2.88,13.629 l -0.06,0.41 c -0.33,2.332 -1.12,4.473 -2.15,6.461 -3.93,7.621 -12.31,12.332 -21.29,11.039 l -25.16,-3.609 c -4.52,20.179 -10.93,40.511 -19.38,60.75 L 1329.17,638.82 c 66.56,-159.371 232.85,-252.07 371.42,-207.031 108.91,35.402 168.23,145.359 156.33,268.191"
         id="path82"
         style="fill:#c1a752;fill-opacity:1;fill-rule:nonzero;stroke:none" /><path
         d="m 1830.96,801.93 -501.76,-163.11 -9.21,22.129 501.73,163.11 9.24,-22.129"
         id="path84"
         style="fill:#ab924a;fill-opacity:1;fill-rule:nonzero;stroke:none" /></g></g></svg>