<?xml version="1.0" encoding="utf-8"?>
<!-- Generator: Adobe Illustrator 22.1.0, SVG Export Plug-In . SVG Version: 6.00 Build 0)  -->
<svg version="1.1" id="Layer_1" xmlns="http://www.w3.org/2000/svg" xmlns:xlink="http://www.w3.org/1999/xlink" x="0px" y="0px"
	 viewBox="0 0 300 59" style="enable-background:new 0 0 300 59;" xml:space="preserve">
<style type="text/css">
	.st0{filter:url(#Adobe_OpacityMaskFilter);}
	.st1{fill:#FFFFFF;}
	.st2{mask:url(#mask-2_1_);fill:#2B2921;}
	.st3{filter:url(#Adobe_OpacityMaskFilter_1_);}
	.st4{mask:url(#mask-2_2_);fill:#BEA764;}
	.st5{filter:url(#Adobe_OpacityMaskFilter_2_);}
	.st6{mask:url(#mask-2_3_);fill:#BEA764;}
	.st7{fill:#BCA563;}
	.st8{fill:#4F4F4C;}
	.st9{filter:url(#Adobe_OpacityMaskFilter_3_);}
	.st10{mask:url(#mask-4_1_);fill:#A79059;}
	.st11{filter:url(#Adobe_OpacityMaskFilter_4_);}
	.st12{mask:url(#mask-4_2_);fill:#2B2921;}
	.st13{fill:#2B2921;}
</style>
<g id="Desktop---Others">
	<g id="P_x26_E-Website-Logo-ARB">
		<g id="Group-5">
			<g id="Clip-2">
			</g>
			<defs>
				<filter id="Adobe_OpacityMaskFilter" filterUnits="userSpaceOnUse" x="149.3" y="9.4" width="19" height="20.9">
					<feColorMatrix  type="matrix" values="1 0 0 0 0  0 1 0 0 0  0 0 1 0 0  0 0 0 1 0"/>
				</filter>
			</defs>
			<mask maskUnits="userSpaceOnUse" x="149.3" y="9.4" width="19" height="20.9" id="mask-2_1_">
				<g class="st0">
					<polygon id="path-1_1_" class="st1" points="0,0.3 299.8,0.3 299.8,58.8 0,58.8 					"/>
				</g>
			</mask>
			<path id="Fill-1" class="st2" d="M163.8,15.1c-0.3-0.7-0.6-1.3-1.1-1.8l-1-0.3c-0.2,0.3-0.3,0.4-0.3,0.4c-0.4,0.9-0.4,2.1,0,3.4
				c0.5,1.4,1.1,2.5,1.9,3.3l0.3,0.3C164.5,18.8,164.6,17,163.8,15.1z M155,30.1L149.3,19c0.6,0.7,1.2,1.3,1.9,2c3,2.8,5.7,4,8,3.5
				c1-0.2,1.7-0.4,2.1-0.7c0-0.2-0.2-0.6-0.8-1.1c-0.5-0.4-1.1-1-2-1.7c-1-0.7-1.6-1.3-2.1-1.7c-1-0.9-1.6-1.7-1.8-2.4
				c-0.2-0.8,0.1-1.7,0.9-2.6c2.9-3.3,5.5-5,7.7-5c1.1,0,2,0.4,2.7,1c1.3,1.2,2.1,3.2,2.3,6c0.2,2.6-0.4,5.2-1.6,7.7
				c-0.5,1-1.1,1.9-1.9,2.8c-0.7,0.8-1.6,1.5-2.7,2.1C160.2,30.2,157.8,30.5,155,30.1z"/>
			<defs>
				<filter id="Adobe_OpacityMaskFilter_1_" filterUnits="userSpaceOnUse" x="0" y="0.3" width="299.7" height="4.5">
					<feColorMatrix  type="matrix" values="1 0 0 0 0  0 1 0 0 0  0 0 1 0 0  0 0 0 1 0"/>
				</filter>
			</defs>
			<mask maskUnits="userSpaceOnUse" x="0" y="0.3" width="299.7" height="4.5" id="mask-2_2_">
				<g class="st3">
					<polygon id="path-1_2_" class="st1" points="0,0.3 299.8,0.3 299.8,58.8 0,58.8 					"/>
				</g>
			</mask>
			<polygon id="Fill-3" class="st4" points="0,4.8 299.8,4.8 299.8,0.3 0,0.3 			"/>
			<defs>
				<filter id="Adobe_OpacityMaskFilter_2_" filterUnits="userSpaceOnUse" x="0" y="54.2" width="299.8" height="4.5">
					<feColorMatrix  type="matrix" values="1 0 0 0 0  0 1 0 0 0  0 0 1 0 0  0 0 0 1 0"/>
				</filter>
			</defs>
			<mask maskUnits="userSpaceOnUse" x="0" y="54.2" width="299.8" height="4.5" id="mask-2_3_">
				<g class="st5">
					<polygon id="path-1_3_" class="st1" points="0,0.3 299.8,0.3 299.8,58.8 0,58.8 					"/>
				</g>
			</mask>
			<path id="Fill-4" class="st6" d="M134.2,54.2c-1.7,1.2-3.9,2-6.2,2c-2.3,0-4.4-0.7-6.2-2H0v4.5h299.8v-4.5H134.2"/>
		</g>
		<path id="Fill-6" class="st7" d="M129.1,33.5C129.1,33.5,129.1,33.5,129.1,33.5l-1.5,0l-0.8,0l-0.4,0l3-1.7c0,0,0,0,0,0l0.4,1.4
			c0,0,0,0,0,0L129.1,33.5"/>
		<path id="Fill-7" class="st7" d="M119.5,27.4c0-0.4,0.3-0.7,0.7-0.7c0.4,0,0.7,0.3,0.7,0.7c0,0.4-0.3,0.7-0.7,0.7
			C119.8,28.1,119.5,27.8,119.5,27.4z M118.3,35.8h1.2l2.3-2.4h1.6l-1.4-6.3c-0.2-0.8-1-1.4-1.9-1.5c0,0,0,0-0.1,0h-1.8V35.8z"/>
		<polyline id="Fill-8" class="st7" points="125.9,35.1 122.6,35.1 121.5,36.3 119.1,38.7 116.2,38.7 116.2,37.4 118.6,37.4 
			122,33.9 129.4,33.9 129.4,35.1 125.9,35.1 		"/>
		<path id="Fill-9" class="st7" d="M112.5,37.3l2.3-0.6v4.8h0V43c0,1.4-1,2.7-2.3,3V37.3"/>
		<path id="Fill-10" class="st7" d="M113.7,31.9l-1.3,0.2v-7c0.5-0.2,1.1,0,1.4,0.4c0,0,0,0,0,0l0.4,0.6l-0.7,0.5l1.1,4.6
			C114.6,31.6,114.2,31.8,113.7,31.9"/>
		<path id="Fill-11" class="st7" d="M130.1,33.2l-0.1,0c0,0,0,0,0,0l-0.5-1.4c0,0,0,0,0,0l0.1,0c0.2-0.1,0.5,0.1,0.5,0.3l0,0
			c0,0,0,0,0,0l4.3-1.2c0,0,0,0,0,0.1c0,0.1,0.1,0.3,0.2,0.4l0.1,0.1l-4.4,1.2c0,0,0,0,0,0l0,0C130.4,32.9,130.3,33.1,130.1,33.2"/>
		<path id="Fill-12" class="st7" d="M115.3,30.5c0-0.1,0-0.2,0-0.3l-0.7-7.7c-0.1-0.6-0.2-1.2-0.4-1.8l-1.7-5.2v-3.5h4.1v2h0v0.5
			c0,0.4-0.4,0.8-0.8,0.8h-1.3l1.4,4.3c0.5,1.5,0.8,3.1,1,4.8l0.7,6.9h-2.2C115.3,30.8,115.3,30.7,115.3,30.5"/>
		<path id="Fill-13" class="st7" d="M112.5,36.8v-4.3l1.5-0.3c0.4-0.1,0.8-0.3,1.1-0.7c0,0,0,0,0,0h2.4l0.1,3.8l-2.7,0.8L112.5,36.8
			"/>
		<path id="Fill-14" class="st7" d="M128,43.1c0.9,0.1,1.5,0.8,1.6,1.6c0,0.4-0.1,0.7-0.2,1c-0.3,0.5-0.9,0.9-1.5,0.9
			c-0.7,0-1.4-0.5-1.6-1.1c-0.1-0.2-0.1-0.4-0.1-0.6C126.1,43.9,126.9,43,128,43.1"/>
		<path id="Fill-15" class="st7" d="M124.2,44.6C124.2,44.6,124.2,44.5,124.2,44.6c0.5-0.4,1,0.1,0.7,0.5c0,0-0.1,0.1-0.1,0.1
			C124.4,45.5,123.9,45.1,124.2,44.6z M124.5,46.5c0,0,0-0.1,0-0.1c0.3-0.5,0.9-0.3,0.9,0.2c0,0,0,0.1,0,0.1
			C125.1,47.2,124.5,47,124.5,46.5z M125.7,44.9c0-1.5,1.5-2.6,3-2c0.4,0.2,0.8,0.5,1,1c0.3,0.7,0.3,1.4,0,1.9
			c-0.3,0.7-1.1,1.2-1.9,1.2c-1,0-1.8-0.6-2-1.5C125.7,45.3,125.7,45.1,125.7,44.9z M125.7,47.8c0-0.5,0.6-0.7,0.9-0.2
			c0,0,0,0.1,0,0.1c0,0.5-0.6,0.7-0.9,0.2C125.7,47.9,125.7,47.8,125.7,47.8z M128.1,47.8C128.1,47.8,128.2,47.8,128.1,47.8
			c0.4,0.5-0.1,1-0.5,0.7c0,0-0.1-0.1-0.1-0.1C127.2,48,127.6,47.5,128.1,47.8z M129,47.7c0,0,0-0.1,0-0.1c0.3-0.5,0.9-0.3,0.9,0.2
			c0,0,0,0.1,0,0.1C129.6,48.4,129,48.2,129,47.7z M130.2,43.2c0,0,0-0.1,0-0.1c0.3-0.5,0.9-0.3,0.9,0.2c0,0,0,0.1,0,0.1
			C130.8,43.9,130.2,43.7,130.2,43.2z M130.2,46.6c0-0.5,0.6-0.7,0.9-0.2c0,0,0,0.1,0,0.1c0,0.5-0.6,0.7-0.9,0.2
			C130.2,46.7,130.2,46.6,130.2,46.6z M130.8,45.2C130.8,45.2,130.7,45.2,130.8,45.2c-0.4-0.5,0.1-1,0.5-0.7c0,0,0.1,0.1,0.1,0.1
			C131.7,45,131.3,45.5,130.8,45.2z M129.9,42c0,0.5-0.6,0.7-0.9,0.2c0,0,0-0.1,0-0.1c0-0.5,0.6-0.7,0.9-0.2
			C129.9,41.9,129.9,41.9,129.9,42z M127.5,42C127.5,41.9,127.5,41.9,127.5,42c-0.4-0.5,0.1-1,0.5-0.7c0,0,0.1,0.1,0.1,0.1
			C128.4,41.8,128,42.2,127.5,42z M126.6,42.1c0,0,0,0.1,0,0.1c-0.3,0.5-0.9,0.3-0.9-0.2c0,0,0-0.1,0-0.1
			C126,41.4,126.6,41.6,126.6,42.1z M125.4,43.2c0,0.5-0.6,0.7-0.9,0.2c0,0,0-0.1,0-0.1c0-0.5,0.6-0.7,0.9-0.2
			C125.4,43.1,125.4,43.2,125.4,43.2z M124,42c-0.6,0.8-0.9,1.8-0.9,2.8c0,0.1,0,0.3,0,0.4c0.2,2.4,2.2,4.3,4.7,4.3
			c2.2,0,4.1-1.5,4.6-3.6c0.2-0.9,0.2-2-0.2-3c-0.5-1.3-1.6-2.3-2.9-2.7c-2.1-0.6-4,0.2-5.1,1.6C124.1,42,124,42,124,42z"/>
		<path id="Fill-16" class="st7" d="M145,28.3c-0.1,0.2-0.4,0.3-0.6,0.2c-0.2-0.1-0.3-0.4-0.2-0.6c0.1-0.2,0.4-0.3,0.6-0.2
			C145,27.8,145.1,28,145,28.3z M151,38.6c5,1.6,11-1.7,13.4-7.5l-18.1-5.9c-0.3,0.7-0.5,1.5-0.7,2.2l-0.9-0.1
			c-0.3,0-0.6,0.1-0.8,0.4c0,0.1-0.1,0.1-0.1,0.2l0,0c0,0.2,0,0.3,0.1,0.5c0.1,0.2,0.3,0.3,0.5,0.4l0.9,0.1
			C144.9,33.3,147.1,37.3,151,38.6z"/>
		<path id="Fill-17" class="st7" d="M146.6,24.4l1.1-2.6c0.1-0.3,0.6-0.5,1-0.4l0,0c0.4,0.1,0.6,0.5,0.5,0.9l-0.3,0.8l15.4,5
			l1.5-2.1c0.2-0.3,0.7-0.5,1-0.3l0,0l-2.1,4.6l-16.6-5.4L146.6,24.4"/>
		<path id="Fill-18" class="st7" d="M143.2,35c0-0.2,0.1-0.3,0.2-0.4c0.1-0.1,0.3-0.1,0.4-0.1c0.3,0,0.6,0.3,0.5,0.7
			c0,0.3-0.3,0.5-0.6,0.5c0,0-0.1,0-0.1,0C143.4,35.7,143.2,35.4,143.2,35z M136,30.8c0,0.2-0.2,0.4-0.5,0.4c0,0,0,0,0,0
			c-0.1,0-0.1,0-0.1,0c-0.2-0.1-0.3-0.3-0.2-0.4c0-0.1,0-0.2,0.1-0.2c0,0,0,0,0,0c0.1-0.1,0.2-0.1,0.4-0.1
			C135.8,30.3,136,30.6,136,30.8z M135.1,24.6c0,0.2-0.2,0.4-0.4,0.4c-0.2,0-0.4-0.2-0.4-0.4c0-0.2,0.2-0.4,0.4-0.4
			C135,24.2,135.1,24.4,135.1,24.6z M136.5,30.5l6.1,5.6c0.6,0.6,1.6,0.6,2.2,0.1l0,0c0.7-0.6,0.8-1.6,0.3-2.3l-5.6-7.6
			c-0.5-0.7-1.4-1.2-2.3-1.2l-1.6,0l-0.1-0.4l-0.1-0.5c-0.1-0.3-0.5-0.5-0.8-0.4l0,0c-0.3,0.1-0.5,0.5-0.4,0.8l0.1,0.4l-13.6,0.1
			c0,0-0.1,0-0.1,0c0.9,0.3,1.7,0.3,1.8,1.4l0.4,1.8l12.2,1.4l-0.1,0.6l0,0.2c0,0.2,0,0.4,0.1,0.5c0,0,0,0,0,0.1
			c0.1,0.1,0.2,0.2,0.3,0.2l0,0c0.3,0.1,0.6,0,0.8-0.3L136.5,30.5z"/>
		<path id="Fill-19" class="st7" d="M137.2,21.4c0,0.2-0.2,0.4-0.4,0.5c-0.1,0-0.3-0.1-0.4-0.2c-0.1-0.1-0.1-0.2-0.1-0.2
			c0-0.1,0.1-0.3,0.2-0.4c0.1-0.1,0.2-0.1,0.3-0.1C137,21,137.2,21.2,137.2,21.4z M144.1,27.2l-6.4-4.9c0.3-0.5,0.2-1.1-0.2-1.5l0,0
			c-0.5-0.4-1.2-0.4-1.6,0.1l-0.8,0.9l-0.5,0.6l0.2,0v0.3c0,0,0.7,0.3-0.2,0.3l-0.2,0.2l-0.5,0c-0.4,0.5-0.4,1.2,0.1,1.6l0,0
			c0,0,0,0,0,0l0.2-0.6c0.1-0.4,0.5-0.6,0.9-0.5l0,0c0.4,0.1,0.7,0.5,0.5,0.9l0,0.1c0,0,0,0,0,0l1.5-1.8l6.5,4.8
			c0-0.2,0.1-0.3,0.2-0.5l0,0C143.9,27.3,144,27.2,144.1,27.2z"/>
		<path id="Fill-20" class="st7" d="M118.9,36.6l-0.5,0.5h-2.6V39h3.4l2.3-2.4h1.8v0.3h0c0,0.1,0,0.2-0.1,0.2
			c-0.1,0.1-0.4,0-0.6-0.2c0,0-0.1-0.1-0.1-0.1l-0.1-0.1l-0.1,0.1c0,0-0.1,0.1-0.1,0.1c-0.1,0.1-0.2,0.1-0.2,0.2l-0.1,0.1l0.1,0.2
			c0.1,0.2,0.2,0.6,0.1,0.7c0,0-0.1,0-0.1,0c-0.1,0-0.2,0-0.5-0.3l-0.1-0.1l-0.1,0.1c-0.1,0.1-0.3,0.2-0.4,0.4l-0.1,0.1l0.1,0.1
			c0.2,0.2,0.3,0.5,0.2,0.7c0,0-0.1,0.1-0.2,0.1c-0.1,0-0.2,0-0.5-0.2l-0.1-0.1l-0.1,0.2c-0.1,0.1-0.2,0.2-0.3,0.4l-0.1,0.1l0.1,0.1
			c0.3,0.3,0.4,0.5,0.3,0.7c0,0-0.1,0.1-0.3,0.1c-0.1,0-0.3,0-0.4-0.1l-0.2,0l-0.1,0.2c-0.1,0.1-0.1,0.2-0.2,0.3l-0.1,0.2l0.2,0.1
			c0.3,0.2,0.5,0.4,0.4,0.5h-4.2v-5.1H118.9"/>
		<path id="Fill-21" class="st7" d="M133.8,23.2l-6.6,0.5c0,0,0,0,0,0l0,0c0,0.3-0.2,0.6-0.5,0.6l-0.2,0c0,0,0,0,0,0l-0.2-1.8
			c0,0,0,0,0,0l0.2,0c0.3,0,0.6,0.2,0.6,0.5l0,0c0,0,0,0,0,0l7.4-0.6L133.8,23.2C133.8,23.2,133.8,23.2,133.8,23.2"/>
		<path id="Fill-22" class="st8" d="M122.5,44.9c0-1,0.3-2,0.8-2.8c0.2-0.3,0.5-0.6,0.7-0.9c1-0.9,2.3-1.5,3.7-1.5
			c2.9,0,5.3,2.4,5.3,5.3c0,0.4,0,0.8-0.1,1.2c-0.5,2.4-2.7,4.1-5.1,4.1c-2.8,0-5.1-2.2-5.3-4.9C122.5,45.1,122.5,45,122.5,44.9z
			 M119.2,44.9c0,0,0,0.1,0,0.1c-0.1,0.2-0.3,0.4-0.7,0.5c0,0.1,0,0.3,0,0.4c0.5,0,0.8,0.2,0.8,0.5c0,0.3-0.2,0.5-0.6,0.7
			c0,0.1,0.1,0.2,0.1,0.3l0,0c0,0,0,0.1,0,0.1c0.5-0.1,0.8,0.1,0.9,0.3c0.1,0.3-0.1,0.6-0.5,0.8c0.1,0.2,0.2,0.3,0.2,0.4
			c0.5-0.1,0.8-0.1,0.9,0.1c0.1,0.2,0,0.6-0.4,0.9c0.1,0.1,0.2,0.3,0.3,0.4c0.5-0.2,0.8-0.3,0.9-0.1c0.2,0.2,0.1,0.5-0.2,0.9
			c0.1,0.1,0.2,0.2,0.4,0.4c0.4-0.3,0.7-0.4,0.9-0.2c0.2,0.2,0.2,0.5-0.1,0.9l0,0c0.1,0.1,0.2,0.2,0.4,0.3c0.3-0.4,0.7-0.5,0.9-0.4
			c0.2,0.1,0.3,0.4,0.1,0.9l0.1,0.1c0.1,0.1,0.2,0.1,0.3,0.2c0.3-0.4,0.6-0.6,0.8-0.5c0.3,0.1,0.4,0.4,0.3,0.9l0.1,0
			c0.1,0,0.2,0.1,0.3,0.1c0.2-0.4,0.4-0.7,0.7-0.7c0,0,0,0,0.1,0c0.3,0,0.4,0.3,0.5,0.8c0.1,0,0.3,0,0.4,0c0.1-0.5,0.3-0.7,0.6-0.7
			c0.3,0,0.5,0.3,0.6,0.7c0.1,0,0.3,0,0.4,0c0-0.5,0.2-0.8,0.5-0.8c0,0,0,0,0.1,0c0.2,0,0.5,0.2,0.7,0.7c0.1,0,0.2-0.1,0.3-0.1
			l0.1,0c-0.1-0.5,0.1-0.8,0.3-0.9c0.3-0.1,0.6,0.1,0.8,0.5c0.1-0.1,0.2-0.1,0.3-0.2c0,0,0.1,0,0.1-0.1l0,0
			c-0.1-0.5-0.1-0.8,0.1-0.9c0.2-0.1,0.6,0,0.9,0.4c0.1-0.1,0.2-0.2,0.4-0.3l0,0c-0.2-0.5-0.3-0.8-0.1-0.9c0.2-0.2,0.5-0.1,0.9,0.2
			c0.1-0.1,0.2-0.2,0.4-0.4c-0.3-0.4-0.4-0.7-0.2-0.9c0.2-0.2,0.5-0.2,0.9,0.1l0,0c0.1-0.1,0.2-0.2,0.3-0.3
			c-0.4-0.3-0.5-0.7-0.4-0.9c0.1-0.2,0.4-0.3,0.9-0.1c0,0,0-0.1,0.1-0.1c0.1-0.1,0.1-0.2,0.2-0.3c-0.4-0.3-0.6-0.6-0.5-0.8
			c0.1-0.2,0.4-0.4,0.9-0.3c0,0,0-0.1,0-0.1l0,0c0-0.1,0.1-0.2,0.1-0.3c-0.5-0.2-0.7-0.5-0.6-0.7c0,0,0-0.1,0.1-0.1
			c0.1-0.2,0.4-0.3,0.8-0.3c0-0.1,0-0.3,0-0.4c-0.5-0.1-0.7-0.3-0.7-0.6c0-0.3,0.3-0.5,0.7-0.6c0-0.2,0-0.3,0-0.4
			c-0.5,0-0.8-0.2-0.8-0.5c0-0.3,0.2-0.5,0.6-0.7c0-0.1-0.1-0.2-0.1-0.3l0-0.1c0,0,0,0,0,0c-0.5,0.1-0.8-0.1-0.9-0.3
			c-0.1-0.3,0.1-0.6,0.5-0.8c0-0.1-0.1-0.2-0.2-0.3l0-0.1c0,0,0,0,0,0c-0.5,0.2-0.8,0.1-0.9-0.1c-0.1-0.2,0-0.6,0.4-0.9
			c-0.1-0.1-0.2-0.2-0.3-0.3l0,0c-0.5,0.2-0.8,0.2-0.9,0.1c-0.2-0.2-0.1-0.5,0.2-0.9c-0.1-0.1-0.2-0.2-0.4-0.4
			c-0.4,0.3-0.7,0.4-0.9,0.2c-0.2-0.2-0.2-0.5,0.1-0.9l0,0c-0.1-0.1-0.2-0.2-0.4-0.3c-0.3,0.4-0.7,0.5-0.9,0.4
			c-0.2-0.1-0.3-0.4-0.1-0.9l-0.1-0.1c-0.1-0.1-0.2-0.1-0.3-0.2c-0.2,0.4-0.5,0.5-0.7,0.5c0,0-0.1,0-0.1,0c-0.3-0.1-0.4-0.4-0.3-0.9
			l-0.1,0c-0.1,0-0.2-0.1-0.3-0.1c-0.2,0.4-0.4,0.7-0.7,0.7c0,0-0.1,0-0.1,0c-0.3,0-0.4-0.3-0.5-0.8c-0.1,0-0.3,0-0.4,0
			c-0.1,0.5-0.3,0.7-0.6,0.7c-0.3,0-0.5-0.3-0.6-0.7c-0.1,0-0.3,0-0.4,0c0,0.5-0.2,0.8-0.5,0.8c-0.3,0.1-0.5-0.2-0.7-0.6
			c-0.1,0-0.2,0.1-0.3,0.1l-0.1,0c0.1,0.5-0.1,0.8-0.3,0.9c-0.3,0.1-0.6-0.1-0.8-0.5c-0.1,0-0.2,0.1-0.3,0.2l-0.1,0.1c0,0,0,0,0,0
			c0.1,0.5,0.1,0.8-0.1,0.9c-0.2,0.1-0.6,0-0.9-0.4c-0.1,0.1-0.2,0.2-0.4,0.3l0,0c0.2,0.5,0.3,0.8,0.1,0.9c-0.2,0.2-0.5,0.1-0.9-0.2
			c-0.1,0.1-0.2,0.2-0.4,0.4c0.3,0.4,0.4,0.7,0.2,0.9c-0.2,0.2-0.5,0.2-0.9-0.1l0,0c-0.1,0.1-0.2,0.2-0.3,0.4
			c0.4,0.3,0.5,0.7,0.4,0.9c-0.1,0.2-0.4,0.3-0.9,0.1c0,0,0,0,0,0.1l0,0.1c-0.1,0.1-0.1,0.2-0.2,0.3c0.4,0.3,0.6,0.6,0.5,0.8
			c0,0,0,0.1,0,0.1c-0.1,0.2-0.4,0.3-0.9,0.2c0,0,0,0,0,0l0,0.1c0,0.1-0.1,0.2-0.1,0.3c0.5,0.2,0.7,0.5,0.6,0.7
			c0,0.3-0.3,0.4-0.8,0.5c0,0.1,0,0.3,0,0.4C119,44.4,119.2,44.6,119.2,44.9z"/>
		<path id="Fill-23" class="st7" d="M120.3,24.1c-0.1,0.3-0.4,0.6-0.7,0.5c-0.3-0.1-0.6-0.4-0.5-0.7c0.1-0.3,0.4-0.6,0.7-0.5
			C120.2,23.4,120.4,23.8,120.3,24.1z M121.1,24.9l5.2-0.5l-0.2-1.9l-5,0.5c-0.1-0.5-0.5-0.8-1-0.7l-0.7,0.1
			c-0.7,0.1-1.2,0.7-1.1,1.4l0.1,1.4l0.3,0.1L121.1,24.9L121.1,24.9z"/>
		<g id="Group-27" transform="translate(0.000000, 23.969072)">
			<g id="Clip-25">
			</g>
			<defs>
				<filter id="Adobe_OpacityMaskFilter_3_" filterUnits="userSpaceOnUse" x="146.3" y="0.5" width="18.4" height="6.7">
					<feColorMatrix  type="matrix" values="1 0 0 0 0  0 1 0 0 0  0 0 1 0 0  0 0 0 1 0"/>
				</filter>
			</defs>
			<mask maskUnits="userSpaceOnUse" x="146.3" y="0.5" width="18.4" height="6.7" id="mask-4_1_">
				<g class="st9">
					<polygon id="path-3_1_" class="st1" points="0,0.5 164.7,0.5 164.7,21.4 0,21.4 					"/>
				</g>
			</mask>
			<polyline id="Fill-24" class="st10" points="146.3,1.3 164.4,7.1 164.7,6.3 146.6,0.5 146.3,1.3 			"/>
			<defs>
				<filter id="Adobe_OpacityMaskFilter_4_" filterUnits="userSpaceOnUse" x="0" y="1.6" width="28.8" height="19.8">
					<feColorMatrix  type="matrix" values="1 0 0 0 0  0 1 0 0 0  0 0 1 0 0  0 0 0 1 0"/>
				</filter>
			</defs>
			<mask maskUnits="userSpaceOnUse" x="0" y="1.6" width="28.8" height="19.8" id="mask-4_2_">
				<g class="st11">
					<polygon id="path-3_2_" class="st1" points="0,0.5 164.7,0.5 164.7,21.4 0,21.4 					"/>
				</g>
			</mask>
			<path id="Fill-26" class="st12" d="M17.8,6.3c-1.6,0-2.3-0.8-2.3-2.4c0-0.6,0.2-1.2,0.7-1.6c0.5-0.4,1.1-0.6,1.7-0.6
				c0.6,0,1.2,0.2,1.6,0.7s0.6,1.1,0.6,1.7C20.1,5.6,19.4,6.3,17.8,6.3z M11.7,6.3c-1.5,0-2.2-0.8-2.2-2.4c0-1.5,0.8-2.3,2.3-2.3
				C13.3,1.6,14,2.4,14,4S13.3,6.3,11.7,6.3z M28.3,20.6c-0.4,0.5-0.7,0.8-1.1,0.8H2c-0.5,0-1-0.3-1.4-0.9C0.2,19.9,0,19.3,0,18.8
				V7.8h5.3c0,4.4,0,6.7,0,6.7c0.1,1.1,0.4,1.6,1,1.6h16.4l0.8-0.8V7.8h5.3v11.5C28.8,19.7,28.6,20.2,28.3,20.6z"/>
		</g>
		<polyline id="Fill-28" class="st13" points="33.3,45.4 33.3,11.8 38.6,11.8 38.6,40 49.3,40 49.3,45.4 33.3,45.4 		"/>
		<path id="Fill-29" class="st13" d="M60.2,52.8c-0.8,0-1.3-0.3-1.8-0.8c-0.5-0.5-0.7-1.2-0.7-1.9c0-0.6,0.2-1.2,0.7-1.8
			c0.5-0.5,1.1-0.8,1.8-0.8c0.8,0,1.4,0.2,1.9,0.8c0.5,0.5,0.8,1.2,0.8,1.9C62.8,51.9,61.9,52.8,60.2,52.8z M53.5,52.7
			c-1.8,0-2.6-0.9-2.6-2.7c0-0.7,0.2-1.3,0.8-1.8c0.5-0.5,1.1-0.8,1.9-0.8c1.7,0,2.5,0.9,2.5,2.7C56,51.9,55.2,52.7,53.5,52.7z
			 M47.2,45.4V40h8.4c0.4,0,0.7-0.3,0.8-0.9v-7.3h5.8V40H70v5.4H47.2z"/>
		<polyline id="Fill-30" class="st13" points="70,45.4 70,40 76.8,40 76.8,11.9 81.8,11.9 81.8,45.4 70,45.4 		"/>
		<path id="Fill-31" class="st13" d="M85.6,36.7h5V12.1h-5V36.7z M85.5,45.4V40h9.8V12h5.1v33.4H85.5z"/>
		<polygon id="Fill-32" class="st13" points="105.2,45.4 110.5,45.4 110.5,11.9 105.2,11.9 		"/>
		<path id="Fill-33" class="st13" d="M187.8,30.2c-1.6,0-2.3-0.8-2.3-2.4c0-0.6,0.2-1.2,0.7-1.6c0.5-0.4,1.1-0.6,1.7-0.6
			c0.6,0,1.2,0.2,1.6,0.7c0.4,0.5,0.6,1.1,0.6,1.7C190.2,29.4,189.4,30.2,187.8,30.2z M181.8,30.2c-1.5,0-2.2-0.8-2.2-2.4
			c0-1.5,0.8-2.3,2.3-2.3c1.5,0,2.3,0.8,2.3,2.3C184.1,29.4,183.3,30.2,181.8,30.2z M198.4,44.5c-0.4,0.5-0.7,0.8-1.1,0.8h-25.1
			c-0.5,0-1-0.3-1.4-0.9c-0.4-0.6-0.6-1.2-0.6-1.8V31.7h5.3c0,4.4,0,6.7,0,6.7c0.1,1.1,0.4,1.6,1,1.6h16.4l0.8-0.8v-7.5h5.3v11.5
			C198.8,43.6,198.7,44,198.4,44.5z"/>
		<polygon id="Fill-34" class="st13" points="202.9,45.3 208.1,45.3 208.1,11.8 202.9,11.8 		"/>
		<path id="Fill-35" class="st13" d="M212.7,45.3v-5.1h10.9v-4c0-2.1-1.5-3.4-4.5-3.9c-0.9-0.2-3-0.2-6.4-0.2v-5.3h7.3
			c2,0,4.1,0.9,6,2.6c1.9,1.8,2.9,3.7,2.9,5.8v4.7h7v5.4H212.7"/>
		<path id="Fill-36" class="st13" d="M235.6,45.3v-5.4h5.3c-1.2-1.4-1.9-3.2-1.9-5.2c0-2.6,1-4.7,3-6.2c1.8-1.3,4-1.9,6.8-1.9h6.3
			v5.4c-0.2,0-0.8,0-1.6-0.1c-0.8-0.1-1.5-0.1-2-0.1c-4.8,0-7.2,1.4-7.2,4.2c0,0.9,0.4,1.8,1.2,2.6c0.8,0.9,1.6,1.3,2.5,1.3h13.2
			v5.4H235.6"/>
		<path id="Fill-37" class="st13" d="M274.1,39.9c0,0.1-0.1-0.3-0.4-0.9c-0.5-1.6-1.9-2.4-4.2-2.4h-1.1v6.2h5.6V39.9z M279.2,45.3
			v2.9h-12.9c-1.3,0-2.1-0.2-2.5-0.6c-0.2-0.3-0.5-1.1-0.7-2.3H259v-5.4h4.2v-8.2h8.1c2.5,0,4.5,0.7,6,2.1c1.5,1.5,2.2,3.4,2.2,5.9
			l0.3,0.2h5.3v-28h5.3v33.4H279.2z"/>
		<polygon id="Fill-38" class="st13" points="294.5,45.3 299.8,45.3 299.8,11.8 294.5,11.8 		"/>
	</g>
</g>
</svg>
