<svg width="18" height="18" viewBox="0 0 18 18" version="1.1" xmlns="http://www.w3.org/2000/svg" xmlns:xlink="http://www.w3.org/1999/xlink">
<title>Pinterest</title>
<desc>Created using Figma</desc>
<g id="Canvas" transform="translate(8008 1683)">
<g id="Pinterest">
<g id="Fill 4">
<use xlink:href="#path0_fill" transform="translate(-8008 -1683)" fill="#C7AD66"/>
</g>
</g>
</g>
<defs>
<path id="path0_fill" fill-rule="evenodd" d="M 0 8.66863C 0 12.3412 2.29024 15.4781 5.5229 16.7409C 5.44671 16.0553 5.37799 15.0029 5.55273 14.2546C 5.71095 13.578 6.57186 9.94527 6.57186 9.94527C 6.57186 9.94527 6.31188 9.42601 6.31188 8.65853C 6.31188 7.45311 7.0119 6.55329 7.88399 6.55329C 8.62556 6.55329 8.98356 7.10817 8.98356 7.77413C 8.98356 8.51822 8.50889 9.6301 8.26383 10.6607C 8.05926 11.5233 8.69748 12.227 9.5504 12.227C 11.0948 12.227 12.2823 10.6022 12.2823 8.25726C 12.2823 6.18178 10.7874 4.73028 8.65273 4.73028C 6.18029 4.73028 4.72912 6.5804 4.72912 8.49271C 4.72912 9.23733 5.0168 10.0367 5.37586 10.4709C 5.44671 10.5565 5.45737 10.632 5.43606 10.7197C 5.37 10.9934 5.2235 11.5823 5.19473 11.7024C 5.15691 11.8613 5.06847 11.8948 4.90385 11.8188C 3.81867 11.3144 3.14049 9.73161 3.14049 8.46029C 3.14049 5.72576 5.13187 3.21446 8.88181 3.21446C 11.8955 3.21446 14.2385 5.35744 14.2385 8.22111C 14.2385 11.2086 12.3499 13.6131 9.7294 13.6131C 8.84878 13.6131 8.02144 13.1565 7.73802 12.6176C 7.73802 12.6176 7.30224 14.2727 7.19676 14.6782C 7.00018 15.4313 6.47064 16.3753 6.11637 16.9509C 6.92932 17.2017 7.79343 17.3373 8.68949 17.3373C 13.4879 17.3373 17.3785 13.4563 17.3785 8.66863C 17.3785 3.88095 13.4879 0 8.68949 0C 3.89059 0 0 3.88095 0 8.66863Z"/>
</defs>
</svg>
