<svg width="22" height="22" viewBox="0 0 22 22" version="1.1" xmlns="http://www.w3.org/2000/svg" xmlns:xlink="http://www.w3.org/1999/xlink">
<title>Group 4</title>
<desc>Created using Figma</desc>
<g id="Canvas" transform="translate(6099 3010)">
<g id="Group 4">
<g id="Oval">
<use xlink:href="#path0_fill" transform="translate(-6097 -3008)" fill="#CFB362"/>
</g>
<g id="plus">
<g id="Shape">
<use xlink:href="#path1_fill" transform="matrix(0.707107 0.707107 -0.707107 0.707107 -6088 -3014.56)" fill="#3C3427"/>
</g>
</g>
</g>
</g>
<defs>
<path id="path0_fill" fill-rule="evenodd" d="M 8 16C 12.4183 16 16 12.4183 16 8C 16 3.58172 12.4183 0 8 0C 3.58172 0 0 3.58172 0 8C 0 12.4183 3.58172 16 8 16Z"/>
<path id="path1_fill" fill-rule="evenodd" d="M -0.000172633 11C -0.000172633 4.93438 4.93473 0.000172633 11 -0.000172633C 17.0652 -4.57412e-13 22.0001 4.93421 22.0001 10.9999C 22.0001 17.0655 17.0653 21.9999 10.9999 22.0001C 4.93473 21.9999 -0.000172633 17.0657 -0.000172633 11ZM 11.8276 11.6205L 16.1725 11.6205C 16.6291 11.6207 16.9999 11.2498 17.0001 10.7929C 16.9999 10.3363 16.6293 9.96561 16.1725 9.96527L 11.8276 9.96527L 11.8276 5.82759C 11.8275 5.37097 11.4566 5.00016 11 4.99998C 10.5431 5.00016 10.1726 5.37063 10.1724 5.82759L 10.1726 9.96544L 5.82776 9.96544C 5.3708 9.96561 4.99998 10.3364 5.00016 10.793C 4.99998 11.25 5.37063 11.6207 5.82776 11.6207L 10.1724 11.6205L 10.1724 16.1725C 10.1726 16.6291 10.5432 16.9997 11 17.0001C 11.457 16.9999 11.8275 16.6294 11.8276 16.1725L 11.8276 11.6205Z"/>
</defs>
</svg>
