<svg width="16" height="16" viewBox="0 0 16 16" version="1.1" xmlns="http://www.w3.org/2000/svg" xmlns:xlink="http://www.w3.org/1999/xlink">
<title>Group 2 Copy</title>
<desc>Created using Figma</desc>
<g id="Canvas" transform="translate(-124 2999)">
<g id="Group 2 Copy">
<g id="Oval">
<use xlink:href="#path0_fill" transform="translate(126 -2997)" fill="#FFFFFF"/>
</g>
<g id="plus">
<g id="Shape">
<use xlink:href="#path1_fill" transform="matrix(0.707107 0.707107 -0.707107 0.707107 131.607 -3002)" fill="#3C3427"/>
</g>
</g>
</g>
</g>
<defs>
<path id="path0_fill" fill-rule="evenodd" d="M 5.5 11C 8.53757 11 11 8.53757 11 5.5C 11 2.46243 8.53757 0 5.5 0C 2.46243 0 0 2.46243 0 5.5C 0 8.53757 2.46243 11 5.5 11Z"/>
<path id="path1_fill" fill-rule="evenodd" d="M -5.3948e-05 7.49994C -2.15792e-05 3.3643 3.36462 1.07896e-05 7.49994 -5.3948e-05C 11.6354 5.3948e-05 15 3.36437 15 7.50001C 15 11.6356 11.6353 14.9999 7.50001 15C 3.36468 15.0001 8.63167e-05 11.6358 -5.3948e-05 7.49994ZM 8.077 8.077L 11.1058 8.07693C 11.4243 8.07704 11.6828 7.81857 11.6827 7.5C 11.6828 7.1816 11.4243 6.92316 11.1058 6.92306L 8.07698 6.92314L 8.07694 4.03848C 8.077 3.72008 7.81857 3.46165 7.5 3.46154C 7.1816 3.4616 6.92313 3.72007 6.92308 4.03846L 6.92312 6.92312L 3.89435 6.92321C 3.57578 6.9231 3.31733 7.18155 3.31743 7.50013C 3.31737 7.81853 3.5758 8.07696 3.89437 8.07707L 6.92313 8.07699L 6.9231 11.25C 6.92321 11.5686 7.18164 11.827 7.50004 11.827C 7.81844 11.8269 8.07691 11.5684 8.07696 11.2501L 8.077 8.077Z"/>
</defs>
</svg>
