<svg width="12" height="12" viewBox="0 0 12 12" version="1.1" xmlns="http://www.w3.org/2000/svg" xmlns:xlink="http://www.w3.org/1999/xlink">
<title>Shape</title>
<desc>Created using Figma</desc>
<g id="Canvas" transform="translate(1767 3113)">
<g id="Shape">
<use xlink:href="#path0_fill" transform="translate(-1767 -3113)" fill="#CFB362"/>
</g>
</g>
<defs>
<path id="path0_fill" fill-rule="evenodd" d="M 9.07446 7.66016L 11.6742 10.26C 12.0647 10.6504 12.0647 11.2837 11.6742 11.6743C 11.2837 12.0647 10.6505 12.0647 10.2599 11.6743L 7.66003 9.07446C 7.65222 9.06665 7.64575 9.05811 7.63928 9.04956C 7.63428 9.04297 7.62939 9.03638 7.62378 9.03003C 6.84778 9.5415 5.91895 9.84009 4.92004 9.84009C 2.20276 9.84009 0 7.63721 0 4.92017C 0 2.20288 2.20276 0 4.92004 0C 7.63733 0 9.84009 2.20288 9.84009 4.92017C 9.84009 5.91895 9.5415 6.8479 9.03003 7.62378C 9.03638 7.62939 9.04309 7.63452 9.0498 7.63965C 9.05835 7.646 9.06677 7.65259 9.07446 7.66016ZM 1.70557 4.91992C 1.70557 6.69531 3.14465 8.13452 4.92004 8.13452C 6.69531 8.13452 8.1344 6.69531 8.1344 4.91992C 8.1344 3.14478 6.69531 1.70557 4.92004 1.70557C 3.14478 1.70557 1.70557 3.14478 1.70557 4.91992Z"/>
</defs>
</svg>
