<svg width="19" height="19" viewBox="0 0 19 19" version="1.1" xmlns="http://www.w3.org/2000/svg" xmlns:xlink="http://www.w3.org/1999/xlink">
<title>musica-searcher</title>
<desc>Created using Figma</desc>
<g id="Canvas" transform="translate(5511 1417)">
<g id="musica-searcher">
<g id="Shape">
<use xlink:href="#path0_fill" transform="translate(-5511 -1417)" fill="#FFFFFF"/>
</g>
</g>
</g>
<defs>
<path id="path0_fill" fill-rule="evenodd" d="M 14.4072 12.162L 18.5352 16.2896C 19.1548 16.9097 19.1548 17.9149 18.5352 18.535C 17.915 19.155 16.9097 19.155 16.2896 18.535L 12.1616 14.4072C 12.1494 14.3949 12.1392 14.3813 12.1289 14.3678L 12.104 14.3368C 10.8721 15.1489 9.39746 15.6229 7.81152 15.6229C 3.49707 15.6229 0 12.1256 0 7.81152C 0 3.49731 3.49756 0 7.81152 0C 12.1255 0 15.623 3.49731 15.623 7.81152C 15.623 9.39758 15.1489 10.8723 14.3369 12.1044C 14.3467 12.1132 14.3569 12.1208 14.3672 12.1287C 14.3809 12.139 14.3945 12.1494 14.4072 12.162ZM 2.70801 7.8114C 2.70801 10.63 4.99268 12.9149 7.81152 12.9149C 10.6299 12.9149 12.915 10.63 12.915 7.8114C 12.915 4.99292 10.6299 2.70789 7.81152 2.70789C 4.99316 2.70789 2.70801 4.9928 2.70801 7.8114Z"/>
</defs>
</svg>
