<svg width="12" height="10" viewBox="0 0 12 10" version="1.1" xmlns="http://www.w3.org/2000/svg" xmlns:xlink="http://www.w3.org/1999/xlink">
<title>settings (1)</title>
<desc>Created using Figma</desc>
<g id="Canvas" transform="translate(5203 3077)">
<g id="settings (1)">
<g id="Shape">
<use xlink:href="#path0_fill" transform="translate(-5203 -3076.98)" fill="#FFFFFF"/>
</g>
<g id="Shape">
<use xlink:href="#path1_fill" transform="translate(-5203 -3073.52)" fill="#FFFFFF"/>
</g>
<g id="Shape">
<use xlink:href="#path2_fill" transform="translate(-5203 -3069.8)" fill="#FFFFFF"/>
</g>
</g>
</g>
<defs>
<path id="path0_fill" fill-rule="evenodd" d="M 4.29297 1.07031L 11.689 1.07031C 11.8608 1.07031 12 1.20972 12 1.38135C 12 1.55322 11.8608 1.69263 11.689 1.69263L 4.29297 1.69263L 4.29297 1.98486C 4.29297 2.41382 3.94434 2.7627 3.51514 2.7627L 2.30811 2.7627C 1.87939 2.7627 1.53027 2.41382 1.53027 1.98486L 1.53027 1.69263L 0.311035 1.69263C 0.13916 1.69263 0 1.55322 0 1.38135C 0 1.20972 0.13916 1.07031 0.311035 1.07031L 1.53027 1.07031L 1.53027 0.777832C 1.53027 0.348877 1.87939 0 2.30811 0L 3.51514 0C 3.94434 0 4.29297 0.348877 4.29297 0.777832L 4.29297 1.07031ZM 3.51562 2.14062C 3.60107 2.14062 3.6709 2.0708 3.6709 1.98486L 3.6709 0.777832C 3.6709 0.692139 3.60107 0.622314 3.51562 0.622314L 2.30859 0.622314C 2.22266 0.622314 2.15283 0.692139 2.15283 0.777832L 2.15283 1.98486C 2.15283 2.0708 2.22266 2.14062 2.30859 2.14062L 3.51562 2.14062Z"/>
<path id="path1_fill" fill-rule="evenodd" d="M 10.4697 1.07031L 11.689 1.07031C 11.8608 1.07031 12 1.20972 12 1.38159C 12 1.55322 11.8608 1.69263 11.689 1.69263L 10.4697 1.69263L 10.4697 1.98486C 10.4697 2.41382 10.1206 2.7627 9.69189 2.7627L 8.48486 2.7627C 8.05566 2.7627 7.70703 2.41382 7.70703 1.98486L 7.70703 1.69263L 0.311035 1.69263C 0.13916 1.69263 0 1.55322 0 1.38159C 0 1.20972 0.13916 1.07031 0.311035 1.07031L 7.70703 1.07031L 7.70703 0.777832C 7.70703 0.348877 8.05566 0 8.48486 0L 9.69189 0C 10.1206 0 10.4697 0.348877 10.4697 0.777832L 10.4697 1.07031ZM 9.69189 2.14062C 9.77734 2.14062 9.84717 2.0708 9.84717 1.98486L 9.84717 0.777832C 9.84717 0.692139 9.77734 0.622314 9.69189 0.622314L 8.48486 0.622314C 8.39893 0.622314 8.3291 0.692139 8.3291 0.777832L 8.3291 1.98486C 8.3291 2.0708 8.39893 2.14062 8.48486 2.14062L 9.69189 2.14062Z"/>
<path id="path2_fill" fill-rule="evenodd" d="M 6.479 1.07007L 11.689 1.07007C 11.8608 1.07007 12 1.20947 12 1.38135C 12 1.55322 11.8608 1.69238 11.689 1.69238L 6.479 1.69238L 6.479 1.98486C 6.479 2.41382 6.12988 2.7627 5.70117 2.7627L 4.49414 2.7627C 4.06494 2.7627 3.71631 2.41382 3.71631 1.98486L 3.71631 1.69238L 0.311035 1.69238C 0.13916 1.69238 0 1.55322 0 1.38135C 0 1.20947 0.13916 1.07007 0.311035 1.07007L 3.71631 1.07007L 3.71631 0.777832C 3.71631 0.348877 4.06494 0 4.49414 0L 5.70117 0C 6.12988 0 6.479 0.348877 6.479 0.777832L 6.479 1.07007ZM 5.70117 2.14062C 5.78662 2.14062 5.85645 2.0708 5.85645 1.98486L 5.85645 0.777832C 5.85645 0.692139 5.78662 0.622314 5.70117 0.622314L 4.49414 0.622314C 4.4082 0.622314 4.33838 0.692139 4.33838 0.777832L 4.33838 1.98486C 4.33838 2.0708 4.4082 2.14062 4.49414 2.14062L 5.70117 2.14062Z"/>
</defs>
</svg>
