<svg width="20" height="17" viewBox="0 0 20 17" version="1.1" xmlns="http://www.w3.org/2000/svg" xmlns:xlink="http://www.w3.org/1999/xlink">
<title>settings (1)</title>
<desc>Created using Figma</desc>
<g id="Canvas" transform="translate(22 1416)">
<g id="settings (1)">
<g id="Shape">
<use xlink:href="#path0_fill" transform="translate(-22 -1415.97)" fill="#CFB362"/>
</g>
<g id="Shape">
<use xlink:href="#path1_fill" transform="translate(-22 -1410.19)" fill="#CFB362"/>
</g>
<g id="Shape">
<use xlink:href="#path2_fill" transform="translate(-22 -1403.99)" fill="#CFB362"/>
</g>
</g>
</g>
<defs>
<path id="path0_fill" fill-rule="evenodd" d="M 7.15512 1.78381L 19.4814 1.78381C 19.7678 1.78381 20 2.01599 19.9999 2.30237C 19.9999 2.58875 19.7678 2.82092 19.4814 2.82092L 7.15508 2.82092L 7.15508 3.30811C 7.15508 4.02295 6.57351 4.60461 5.85867 4.60461L 3.84691 4.60461C 3.13207 4.60461 2.55051 4.02295 2.55051 3.30811L 2.55051 2.82092L 0.518555 2.82092C 0.232149 2.82092 0 2.58875 0 2.30237C 0 2.01599 0.232149 1.78381 0.518555 1.78381L 2.55059 1.78381L 2.55059 1.29639C 2.55059 0.581543 3.13215 0 3.84699 0L 5.85871 0C 6.57355 0 7.15512 0.581543 7.15512 1.29639L 7.15512 1.78381ZM 5.85871 3.5675C 6.00168 3.5675 6.11801 3.45117 6.11801 3.30811L 6.11801 1.29639C 6.11801 1.15344 6.00168 1.03711 5.85871 1.03711L 3.84695 1.03711C 3.70398 1.03711 3.58766 1.15344 3.58766 1.29639L 3.58766 3.30811C 3.58766 3.45117 3.70398 3.5675 3.84695 3.5675L 5.85871 3.5675Z"/>
<path id="path1_fill" fill-rule="evenodd" d="M 17.4495 1.78394L 19.4814 1.78394C 19.7679 1.78394 20 2.01611 20 2.30249C 20 2.58887 19.7678 2.82104 19.4814 2.82104L 17.4494 2.82104L 17.4494 3.30811C 17.4494 4.02295 16.8679 4.60449 16.153 4.60449L 14.1412 4.60449C 13.4264 4.60449 12.8448 4.02295 12.8448 3.30811L 12.8448 2.82104L 0.518555 2.82104C 0.232149 2.82104 0 2.58887 0 2.30249C 0 2.01611 0.232149 1.78394 0.518555 1.78394L 12.8449 1.78394L 12.8449 1.29639C 12.8449 0.581543 13.4264 0 14.1413 0L 16.153 0C 16.8679 0 17.4495 0.581543 17.4495 1.29639L 17.4495 1.78394ZM 16.153 3.5675C 16.296 3.5675 16.4123 3.45117 16.4123 3.30811L 16.4123 1.29639C 16.4123 1.15344 16.296 1.03711 16.153 1.03711L 14.1413 1.03711C 13.9983 1.03711 13.882 1.15344 13.882 1.29639L 13.882 3.30811C 13.882 3.45117 13.9983 3.5675 14.1413 3.5675L 16.153 3.5675Z"/>
<path id="path2_fill" fill-rule="evenodd" d="M 10.7981 1.78369L 19.4814 1.78369C 19.7679 1.78369 20 2.01575 20 2.30225C 20 2.5885 19.7678 2.8208 19.4814 2.8208L 10.7981 2.8208L 10.7981 3.30811C 10.7981 4.02295 10.2165 4.60449 9.50168 4.60449L 7.48992 4.60449C 6.77508 4.60449 6.19352 4.02295 6.19352 3.30811L 6.19352 2.8208L 0.518555 2.8208C 0.232149 2.8208 0 2.5885 0 2.30225C 0 2.01587 0.232149 1.78369 0.518555 1.78369L 6.19355 1.78369L 6.19355 1.29639C 6.19355 0.581543 6.77512 0 7.48996 0L 9.50172 0C 10.2166 0 10.7981 0.581543 10.7981 1.29639L 10.7981 1.78369ZM 9.50168 3.5675C 9.64465 3.5675 9.76098 3.45117 9.76098 3.30811L 9.76098 1.29639C 9.76098 1.15344 9.64465 1.03711 9.50168 1.03711L 7.48992 1.03711C 7.34695 1.03711 7.23063 1.15344 7.23063 1.29639L 7.23063 3.30811C 7.23063 3.45117 7.34695 3.5675 7.48992 3.5675L 9.50168 3.5675Z"/>
</defs>
</svg>
