<svg width="17" height="14" viewBox="0 0 17 14" version="1.1" xmlns="http://www.w3.org/2000/svg" xmlns:xlink="http://www.w3.org/1999/xlink">
<title>settings (1)</title>
<desc>Created using Figma</desc>
<g id="Canvas" transform="translate(3873 2968)">
<g id="settings (1)">
<g id="Shape">
<use xlink:href="#path0_fill" transform="translate(-3873 -2967.97)" fill="#C7AD66"/>
</g>
<g id="Shape">
<use xlink:href="#path1_fill" transform="translate(-3873 -2963.12)" fill="#C7AD66"/>
</g>
<g id="Shape">
<use xlink:href="#path2_fill" transform="translate(-3873 -2957.92)" fill="#C7AD66"/>
</g>
</g>
</g>
<defs>
<path id="path0_fill" fill-rule="evenodd" d="M 6.08179 1.49829L 16.5591 1.49829C 16.8025 1.49829 17 1.69336 17 1.93408C 17 2.17456 16.8025 2.36963 16.5591 2.36963L 6.08179 2.36963L 6.08179 2.77881C 6.08179 3.37939 5.5874 3.86792 4.97998 3.86792L 3.26978 3.86792C 2.66235 3.86792 2.16797 3.37939 2.16797 2.77881L 2.16797 2.36963L 0.440674 2.36963C 0.197266 2.36963 0 2.17456 0 1.93408C 0 1.69336 0.197266 1.49829 0.440674 1.49829L 2.16797 1.49829L 2.16797 1.08887C 2.16797 0.488525 2.66235 0 3.27002 0L 4.97998 0C 5.5874 0 6.08179 0.488525 6.08179 1.08887L 6.08179 1.49829ZM 4.97998 2.99658C 5.10156 2.99658 5.20044 2.89893 5.20044 2.77881L 5.20044 1.08887C 5.20044 0.96875 5.10156 0.871094 4.97998 0.871094L 3.27002 0.871094C 3.14844 0.871094 3.04956 0.96875 3.04956 1.08887L 3.04956 2.77881C 3.04956 2.89893 3.14844 2.99658 3.27002 2.99658L 4.97998 2.99658Z"/>
<path id="path1_fill" fill-rule="evenodd" d="M 14.832 1.49854L 16.5593 1.49854C 16.8027 1.49854 17 1.6936 17 1.93408C 17 2.17456 16.8027 2.36963 16.5591 2.36963L 14.832 2.36963L 14.832 2.77881C 14.832 3.37939 14.3376 3.86792 13.73 3.86792L 12.02 3.86792C 11.4124 3.86792 10.9182 3.37939 10.9182 2.77881L 10.9182 2.36963L 0.440674 2.36963C 0.197266 2.36963 0 2.17456 0 1.93408C 0 1.6936 0.197266 1.49854 0.440674 1.49854L 10.9182 1.49854L 10.9182 1.08887C 10.9182 0.488525 11.4126 0 12.02 0L 13.73 0C 14.3376 0 14.832 0.488525 14.832 1.08887L 14.832 1.49854ZM 13.73 2.99658C 13.8516 2.99658 13.9504 2.89893 13.9504 2.77881L 13.9504 1.08887C 13.9504 0.96875 13.8516 0.871094 13.73 0.871094L 12.02 0.871094C 11.8984 0.871094 11.7996 0.96875 11.7996 1.08887L 11.7996 2.77881C 11.7996 2.89893 11.8984 2.99658 12.02 2.99658L 13.73 2.99658Z"/>
<path id="path2_fill" fill-rule="evenodd" d="M 9.17847 1.49829L 16.5593 1.49829C 16.8027 1.49829 17 1.69336 17 1.93384C 17 2.17432 16.8027 2.36938 16.5591 2.36938L 9.17847 2.36938L 9.17847 2.77881C 9.17847 3.37939 8.68408 3.86792 8.07642 3.86792L 6.36646 3.86792C 5.75879 3.86792 5.2644 3.37939 5.2644 2.77881L 5.2644 2.36938L 0.440674 2.36938C 0.197266 2.36938 0 2.17432 0 1.93384C 0 1.69336 0.197266 1.49829 0.440674 1.49829L 5.2644 1.49829L 5.2644 1.08887C 5.2644 0.488525 5.75879 0 6.36646 0L 8.07642 0C 8.68408 0 9.17847 0.488525 9.17847 1.08887L 9.17847 1.49829ZM 8.07642 2.99658C 8.198 2.99658 8.29688 2.89893 8.29688 2.77881L 8.29688 1.08887C 8.29688 0.96875 8.198 0.871094 8.07642 0.871094L 6.36646 0.871094C 6.24487 0.871094 6.146 0.96875 6.146 1.08887L 6.146 2.77881C 6.146 2.89893 6.24487 2.99658 6.36646 2.99658L 8.07642 2.99658Z"/>
</defs>
</svg>
