<svg width="28" height="29" viewBox="0 0 28 29" version="1.1" xmlns="http://www.w3.org/2000/svg" xmlns:xlink="http://www.w3.org/1999/xlink">
<title>Shape</title>
<desc>Created using Figma</desc>
<g id="Canvas" transform="translate(1560 2707)">
<rect x="-1560" y="-2707" width="28" height="29" fill="#FFFFFF"/>
<clipPath id="clip-0" clip-rule="evenodd">
<path d="M -1782 -3174L -1462 -3174L -1462 -2586L -1782 -2586L -1782 -3174Z" fill="#FFFFFF"/>
</clipPath>
<g id="Profile - Wishlist" clip-path="url(#clip-0)">
<path d="M -1782 -3174L -1462 -3174L -1462 -2586L -1782 -2586L -1782 -3174Z" fill="#FFFFFF"/>
<g id="item copy 4">
<g id="Rectangle">
<mask id="mask0_outline_ins">
<use xlink:href="#path0_fill" fill="white" transform="translate(-1767 -2976)"/>
</mask>
<g mask="url(#mask0_outline_ins)">
<use xlink:href="#path1_stroke_2x" transform="translate(-1767 -2976)" fill="#EAEAEA"/>
</g>
</g>
<g id="Shape">
<use xlink:href="#path2_fill" transform="translate(-1560 -2707)" fill="#D2D2D2"/>
</g>
</g>
</g>
</g>
<defs>
<path id="path0_fill" fill-rule="evenodd" d="M 0 0L 290 0L 290 311L 0 311L 0 0Z"/>
<path id="path1_stroke_2x" d="M 0 0L 0 -1L -1 -1L -1 0L 0 0ZM 290 0L 291 0L 291 -1L 290 -1L 290 0ZM 290 311L 290 312L 291 312L 291 311L 290 311ZM 0 311L -1 311L -1 312L 0 312L 0 311ZM 0 1L 290 1L 290 -1L 0 -1L 0 1ZM 289 0L 289 311L 291 311L 291 0L 289 0ZM 290 310L 0 310L 0 312L 290 312L 290 310ZM 1 311L 1 0L -1 0L -1 311L 1 311Z"/>
<path id="path2_fill" d="M 22.8472 17.9447C 21.2126 17.9447 19.7708 18.7234 18.8288 19.916L 10.0916 15.4478C 10.206 15.0212 10.2882 14.5804 10.2882 14.1165C 10.2882 13.6115 10.1906 13.136 10.0543 12.6733L 18.753 8.22574C 19.6898 9.47228 21.1689 10.287 22.8485 10.287C 25.6936 10.287 27.9952 7.98548 27.9952 5.14289C 27.9952 2.30285 25.6936 0 22.8485 0C 20.0098 0 17.7057 2.30285 17.7057 5.14283C 17.7057 5.60804 17.788 6.05009 17.9036 6.47801L 9.16768 10.9462C 8.22443 9.7524 6.77999 8.97108 5.14283 8.97108C 2.30023 8.97108 0 11.2752 0 14.1165C 0 16.9578 2.30029 19.2606 5.14283 19.2606C 6.82497 19.2606 8.30283 18.4433 9.24345 17.1955L 17.9382 21.6431C 17.802 22.1045 17.7031 22.5838 17.7031 23.0901C 17.7031 25.9314 20.0072 28.2342 22.8459 28.2342C 25.6911 28.2342 27.9926 25.9314 27.9926 23.0901C 27.9939 20.2463 25.6924 17.9447 22.8472 17.9447Z"/>
</defs>
</svg>
