<?xml version="1.0" encoding="UTF-8" standalone="no"?>
<!-- Created with Inkscape (http://www.inkscape.org/) -->

<svg
   xmlns:dc="http://purl.org/dc/elements/1.1/"
   xmlns:cc="http://creativecommons.org/ns#"
   xmlns:rdf="http://www.w3.org/1999/02/22-rdf-syntax-ns#"
   xmlns:svg="http://www.w3.org/2000/svg"
   xmlns="http://www.w3.org/2000/svg"
   version="1.1"
   width="300"
   height="67"
   id="svg2"
   xml:space="preserve"><metadata
     id="metadata8"><rdf:RDF><cc:Work
         rdf:about=""><dc:format>image/svg+xml</dc:format><dc:type
           rdf:resource="http://purl.org/dc/dcmitype/StillImage" /><dc:title></dc:title></cc:Work></rdf:RDF></metadata><defs
     id="defs6" /><g
     transform="matrix(1.25,0,0,-1.25,0,66.999998)"
     id="g10"><g
       transform="matrix(0.06224534,0,0,0.06544795,0.37656864,0)"
       id="g12"><path
         d="m 1640.97,445.047 c 0,20.004 16.22,36.219 36.22,36.219 20.01,0 36.22,-16.215 36.22,-36.219 0,-20.004 -16.21,-36.223 -36.22,-36.223 -20,0 -36.22,16.219 -36.22,36.223 z m -33.14,0 c 0,-38.305 31.06,-69.356 69.36,-69.356 38.31,0 69.36,31.051 69.36,69.356 0,38.305 -31.05,69.359 -69.36,69.359 -38.3,0 -69.36,-31.054 -69.36,-69.359"
         id="path14"
         style="fill:#515257;fill-opacity:1;fill-rule:nonzero;stroke:none" /><path
         d="m 1677.19,461.547 c 9.11,0 16.5,-7.391 16.5,-16.5 0,-9.113 -7.39,-16.496 -16.5,-16.496 -9.11,0 -16.5,7.383 -16.5,16.496 0,9.109 7.39,16.5 16.5,16.5"
         id="path16"
         style="fill:#515257;fill-opacity:1;fill-rule:nonzero;stroke:none" /><path
         d="m 1681.88,647.277 -25.1,0 c -6.67,0 -12.07,5.289 -12.07,11.813 l 0,40.492 c 0,6.523 5.4,11.813 12.07,11.813 l 25.1,0 c 6.66,0 12.06,-5.29 12.06,-11.813 l 0,-40.492 c 0,-6.524 -5.4,-11.813 -12.06,-11.813"
         id="path18"
         style="fill:#1969bc;fill-opacity:1;fill-rule:nonzero;stroke:none" /><path
         d="m 1842.35,519.742 c -8.64,0 -15.67,7.031 -15.67,15.676 l 0,19.949 c 0,8.645 7.03,15.676 15.67,15.676 l 9.98,0 c 0.11,0 0.22,-0.02 0.34,-0.02 l 0,-51.261 c -0.12,-0.004 -0.23,-0.02 -0.34,-0.02 l -9.98,0"
         id="path20"
         style="fill:#9c9c9b;fill-opacity:1;fill-rule:nonzero;stroke:none" /><path
         d="m 1852.67,574.668 c -0.12,0.004 -0.23,0.016 -0.35,0.016 l -10.26,0 c -10.49,0 -19.03,-8.543 -19.03,-19.043 l 0,-20.5 c 0,-10.5 8.54,-19.039 19.03,-19.039 l 10.26,0 c 0.12,0 0.23,0.015 0.35,0.019 l 0,-9.785 -39.93,0 0,76.891 39.93,0 0,-8.559"
         id="path22"
         style="fill:#1969bc;fill-opacity:1;fill-rule:nonzero;stroke:none" /><path
         d="m 1852.67,452.438 c -0.03,0 -0.05,0 -0.08,0 0.05,0.464 0.08,0.933 0.08,1.414 l 0,-1.414"
         id="path24"
         style="fill:#515257;fill-opacity:1;fill-rule:nonzero;stroke:none" /><path
         d="m 1852.67,494.934 c -0.12,0 -0.23,0.015 -0.34,0.015 l -9.98,0 c -8.64,0 -15.67,-5.832 -15.67,-12.992 l 0,-16.539 c 0,-7.164 7.03,-12.992 15.67,-12.992 l 9.98,0 c 0.09,0 0.17,0.008 0.26,0.012 -0.79,-8.43 -8.62,-15.059 -18.16,-15.059 l -21.69,0 0,64.484 39.93,0 0,-6.929"
         id="path26"
         style="fill:#1969bc;fill-opacity:1;fill-rule:nonzero;stroke:none" /><path
         d="m 1852.38,455.477 -8.55,0 c -7.4,0 -13.42,4.996 -13.42,11.128 l 0,14.165 c 0,6.132 6.02,11.128 13.42,11.128 l 8.55,0 c 0.1,0 0.19,-0.011 0.29,-0.015 l 0,-35.188 c 0,-0.41 -0.03,-0.808 -0.07,-1.211 -0.07,-0.004 -0.15,-0.007 -0.22,-0.007"
         id="path28"
         style="fill:#9c9c9b;fill-opacity:1;fill-rule:nonzero;stroke:none" /><path
         d="m 1804.64,630.305 c -4.2,0 -7.6,3.824 -7.6,8.539 l 0,69.976 c 0,4.719 3.4,8.547 7.6,8.547 l 9.09,0 c 5.24,0 9.78,-4.137 10.85,-9.906 l 12.05,-64.398 c 1.23,-6.575 -3.24,-12.758 -9.21,-12.758 l -22.78,0 z m -21.89,27.414 c 0,-8.563 -7.09,-15.504 -15.83,-15.504 l -44.32,0 c -8.74,0 -15.83,6.941 -15.83,15.504 l 0,43.242 c 0,8.559 7.09,15.496 15.83,15.496 l 44.32,0 c 8.74,0 15.83,-6.937 15.83,-15.496 l 0,-43.242 z m -84.92,-1.828 c 0,-7.551 -6.25,-13.676 -13.97,-13.676 l -29.07,0 c -7.71,0 -13.96,6.125 -13.96,13.676 l 0,46.89 c 0,7.555 6.25,13.676 13.96,13.676 l 29.07,0 c 7.72,0 13.97,-6.121 13.97,-13.676 l 0,-46.89 z m 8.94,-34.528 c 0,2.196 1.78,3.973 3.97,3.973 l 10.44,0 c 2.19,0 3.97,-1.777 3.97,-3.973 0,-2.187 -1.78,-3.965 -3.97,-3.965 l -10.44,0 c -2.19,0 -3.97,1.778 -3.97,3.965 z m 101.98,-33.011 43.92,0 0,45.503 c 0,3.305 -0.4,6.59 -1.19,9.75 l -17.23,69.016 c -3.43,13.742 -13.65,23.113 -25.22,23.113 l -159.72,0 c -14.59,0 -26.41,-14.714 -26.41,-32.867 l 0,-114.515 185.85,0"
         id="path30"
         style="fill:#1969bc;fill-opacity:1;fill-rule:nonzero;stroke:none" /><path
         d="m 1736.45,530.98 c -6.84,10.922 -19.61,17.708 -33.34,17.708 l -51.88,0 c -10.87,0 -21.13,-4.262 -28.33,-11.454 l 0,45.993 185.85,0 0,-76.891 -56.85,0 -15.45,24.644"
         id="path32"
         style="fill:#1969bc;fill-opacity:1;fill-rule:nonzero;stroke:none" /><path
         d="m 1808.75,471.352 -41.17,0 -0.07,2.636 -0.07,0 c -0.22,3.633 -1.06,7.2 -2.46,10.586 l 43.77,0 0,-13.222"
         id="path34"
         style="fill:#515257;fill-opacity:1;fill-rule:nonzero;stroke:none" /><path
         d="m 1808.75,488.031 -45.44,0 c -0.29,0.528 -0.59,1.043 -0.91,1.559 l -7.69,12.273 54.04,0 0,-13.832"
         id="path36"
         style="fill:#1969bc;fill-opacity:1;fill-rule:nonzero;stroke:none" /><path
         d="m 1808.75,437.379 -40.2,0 -0.39,13.836 40.59,0 0,-13.836"
         id="path38"
         style="fill:#515257;fill-opacity:1;fill-rule:nonzero;stroke:none" /><path
         d="m 1808.75,454.672 -40.69,0 -0.38,13.223 41.07,0 0,-13.223"
         id="path40"
         style="fill:#1969bc;fill-opacity:1;fill-rule:nonzero;stroke:none" /><path
         d="m 1608.4,506.336 13.61,21.855 c 0.97,1.559 2.08,3.012 3.29,4.383 6.82,7.754 17.16,12.414 28.14,12.414 l 48.91,0 c 12.94,0 24.98,-6.437 31.43,-16.797 l 24.46,-39.253 c 2.81,-4.516 4.43,-9.594 4.75,-14.793 l 0.06,0 1.06,-37.067 -3.07,0 c -4.1,0 -6.41,3.496 -6.86,7.602 l -0.01,0.129 c -0.49,8.543 -1.71,17.031 -3.65,25.363 l -0.62,3.125 c -3.02,8.98 -7.89,17.203 -14.52,24.449 -14.37,15.699 -35.33,24.703 -57.48,24.703 -22.16,0 -43.11,-9.004 -57.48,-24.703 -6.66,-7.281 -11.55,-15.543 -14.57,-24.566 l -13.11,0 c 0.17,5.539 1.83,10.965 4.82,15.758 l 10.84,17.398"
         id="path42"
         style="fill:#515257;fill-opacity:1;fill-rule:nonzero;stroke:none" /><path
         d="m 1617.54,538.883 -9.76,0 c -9.55,0 -17.29,7.742 -17.29,17.293 l 0,65.293 27.05,0 0,-82.586"
         id="path44"
         style="fill:#515257;fill-opacity:1;fill-rule:nonzero;stroke:none" /><path
         d="m 1593.79,649.113 c 0,13.258 10.75,24.004 24,24.004 l 0,-8.949 c -8.31,0 -15.05,-6.738 -15.05,-15.055 0,-8.308 6.74,-15.054 15.05,-15.054 l 0,-8.95 c -13.25,0 -24,10.746 -24,24.004"
         id="path46"
         style="fill:#515257;fill-opacity:1;fill-rule:nonzero;stroke:none" /><path
         d="m 1609.25,649.113 c 0,4.719 3.82,8.547 8.54,8.547 l 0,-17.09 c -4.72,0 -8.54,3.828 -8.54,8.543"
         id="path48"
         style="fill:#515257;fill-opacity:1;fill-rule:nonzero;stroke:none" /><path
         d="m 1461.12,519.156 c 7.08,0 12.82,-5.738 12.82,-12.82 0,-7.074 -5.74,-12.816 -12.82,-12.816 -7.08,0 -12.82,5.742 -12.82,12.816 0,7.082 5.74,12.82 12.82,12.82"
         id="path50"
         style="fill:#515257;fill-opacity:1;fill-rule:nonzero;stroke:none" /><path
         d="m 1187.8,538.883 395.188,0 0,6.51172 -395.188,0 0,-6.51172 z"
         id="path52"
         style="fill:#515257;fill-opacity:1;fill-rule:nonzero;stroke:none" /><path
         d="m 1500.16,519.156 66.33,0 c 4.99,0 9.03,-3.886 9.03,-8.676 l 0,-17.164 -34.72,0 c -0.9,3.418 -3.98,5.954 -7.69,5.954 -3.7,0 -6.78,-2.536 -7.68,-5.954 l -34.3,0 0,17.164 c 0,4.79 4.05,8.676 9.03,8.676"
         id="path54"
         style="fill:#515257;fill-opacity:1;fill-rule:nonzero;stroke:none" /><path
         d="m 1424.1,519.359 c 7.19,0 13.02,-5.832 13.02,-13.023 0,-7.188 -5.83,-13.02 -13.02,-13.02 -7.2,0 -13.03,5.832 -13.03,13.02 0,7.191 5.83,13.023 13.03,13.023"
         id="path56"
         style="fill:#515257;fill-opacity:1;fill-rule:nonzero;stroke:none" /><path
         d="m 1533.11,483.328 c 3.71,0 6.79,2.535 7.69,5.953 l 34.72,0 0,-18.82 c 0,-4.789 -4.04,-8.672 -9.03,-8.672 l -66.33,0 c -4.98,0 -9.03,3.883 -9.03,8.672 l 0,18.82 34.3,0 c 0.9,-3.418 3.98,-5.953 7.68,-5.953"
         id="path58"
         style="fill:#515257;fill-opacity:1;fill-rule:nonzero;stroke:none" /><path
         d="m 1187.8,509.617 0,22.957 153.22,0 c 2.24,0 4.44,-0.14 6.59,-0.414 16.81,-2.148 30.5,-12.383 35.29,-25.824 1.19,-3.336 1.84,-6.871 1.84,-10.531 l 0,-23.235 -14.65,0 c -0.18,0.516 -0.35,1.032 -0.55,1.539 -10.92,28.121 -38.22,48.063 -70.2,48.063 -31.98,0 -59.28,-19.942 -70.19,-48.063 -0.2,-0.507 -0.38,-1.023 -0.56,-1.539 l -11.46,0 c -0.19,0.516 -0.36,1.032 -0.56,1.539 -5.68,14.633 -15.86,26.957 -28.77,35.508"
         id="path60"
         style="fill:#515257;fill-opacity:1;fill-rule:nonzero;stroke:none" /><path
         d="m 1187.8,500.504 c 10.32,-7.723 18.5,-18.164 23.24,-30.375 3.02,-7.777 4.7,-16.234 4.7,-25.082 0,-22.754 -11.01,-42.887 -27.94,-55.539 l 0,110.996"
         id="path62"
         style="fill:#515257;fill-opacity:1;fill-rule:nonzero;stroke:none" /><path
         d="m 1361.04,532.371 0,0.414 258.55,-0.211 c -1.15,-1.371 -2.22,-2.824 -3.15,-4.383 l -13.03,-21.855 -23.5,0 0,7.117 c 0,5.512 -4.46,9.973 -9.97,9.973 l -73.23,0 c -5.5,0 -9.96,-4.461 -9.96,-9.973 l 0,-7.117 -9.77,0 c 0,8.766 -7.1,15.867 -15.86,15.867 -8.77,0 -15.87,-7.101 -15.87,-15.867 l -5.29,0 c 0,8.766 -7.1,15.867 -15.86,15.867 -8.77,0 -15.87,-7.101 -15.87,-15.867 l -20.75,0 c -5.44,14.34 -11.54,20.855 -26.44,26.035"
         id="path64"
         style="fill:#515257;fill-opacity:1;fill-rule:nonzero;stroke:none" /><path
         d="m 1299.34,461.547 c 9.11,0 16.5,-7.391 16.5,-16.5 0,-9.113 -7.39,-16.496 -16.5,-16.496 -9.11,0 -16.49,7.383 -16.49,16.496 0,9.109 7.38,16.5 16.49,16.5"
         id="path66"
         style="fill:#515257;fill-opacity:1;fill-rule:nonzero;stroke:none" /><path
         d="m 1263.12,445.047 c 0,9.742 3.85,18.574 10.11,25.082 6.58,6.859 15.85,11.137 26.11,11.137 10.26,0 19.53,-4.278 26.12,-11.137 6.25,-6.508 10.1,-15.34 10.1,-25.082 0,-20.004 -16.21,-36.223 -36.22,-36.223 -20,0 -36.22,16.219 -36.22,36.223 z m -28.44,25.082 c -3.03,-7.777 -4.7,-16.234 -4.7,-25.082 0,-38.305 31.05,-69.356 69.36,-69.356 38.31,0 69.36,31.051 69.36,69.356 0,8.848 -1.67,17.305 -4.7,25.082 -10.05,25.902 -35.2,44.277 -64.66,44.277 -29.46,0 -54.61,-18.375 -64.66,-44.277"
         id="path68"
         style="fill:#515257;fill-opacity:1;fill-rule:nonzero;stroke:none" /><path
         d="m 0,0 1006.38,0 0,243.719 L 0,243.719 0,0 z"
         id="path70"
         style="fill:#1969bc;fill-opacity:1;fill-rule:nonzero;stroke:none" /><path
         d="m 172.207,96.9688 c 0,2.832 -1.519,5.4292 -4.566,7.8242 -3.043,2.383 -5.864,3.691 -8.692,3.691 l -47.363,0 c -2.613,0 -5.867,-1.523 -9.566,-4.562 -3.9106,-3.262 -5.8677,-6.0822 -5.8677,-8.6915 l 0,-16.7266 76.0547,0 0,18.4649 z M 67.4688,58.9414 l 0,19.5625 8.914,0 0,93.0001 19.9883,0 0,-55.625 c 6.7339,8.465 15.8589,12.594 27.3789,12.594 l 34.336,0 c 22.812,0 34.109,-16.512 34.109,-49.5316 l 22.602,0 0,-20 -147.3282,0"
         id="path72"
         style="fill:#ffffff;fill-opacity:1;fill-rule:nonzero;stroke:none" /><path
         d="m 208.477,58.9414 17.3828,0 0,19.5625 -17.3828,0 0,-19.5625 z"
         id="path74"
         style="fill:#ffffff;fill-opacity:1;fill-rule:nonzero;stroke:none" /><path
         d="m 315.379,60.8945 c -1.738,-1.2968 -3.477,-1.9531 -5.434,-1.9531 l -88.437,0 0,50.4106 19.562,0 0,-30.4106 18.465,0 0,30.4106 19.778,0 0,-30.4106 18.683,0 0,30.4106 19.988,0 0,-43.6723 c 0,-1.9531 -0.867,-3.4766 -2.605,-4.7852"
         id="path76"
         style="fill:#ffffff;fill-opacity:1;fill-rule:nonzero;stroke:none" /><path
         d="m 372.516,108.484 -4.133,0 c -3.262,0 -6.305,-1.523 -8.91,-4.785 -2.61,-3.254 -3.91,-6.7302 -3.91,-9.9881 l 0,-15.6484 16.953,0 0,30.4215 z m 13.031,-79.9606 c -4.996,-6.0859 -11.293,-9.1211 -18.469,-9.1211 l -31.074,0 0,19.1094 c 3.262,0 7.176,-0.2031 11.734,-0.4258 4.563,-0.2187 7.61,-0.4414 9.125,-0.4414 5.867,0 9.782,1.3086 11.735,3.9141 1.957,2.8242 3.043,8.4687 3.043,17.168 l -35.637,0 0,38.2422 c 0,7.1682 3.043,14.1212 9.129,20.8592 6.082,6.731 12.601,10.207 19.773,10.207 l 27.594,0 0,-79.7381 c 0,-7.6055 -2.387,-14.1289 -6.953,-19.7735"
         id="path78"
         style="fill:#ffffff;fill-opacity:1;fill-rule:nonzero;stroke:none" /><path
         d="m 427.691,175.621 -19.128,0 0,5.227 4.132,0 c 0,0.644 -0.215,1.523 -0.433,2.605 -0.438,1.086 -0.653,1.953 -0.653,2.395 0,1.953 0.653,3.476 1.961,4.992 1.52,1.519 3.039,2.164 4.993,2.164 l 9.996,0 0,-4.774 c -0.434,0 -1.082,0 -2.172,0 -1.086,0 -1.957,0 -2.387,0 -5,0 -7.391,-1.3 -7.391,-3.906 0,-2.179 3.692,-3.476 11.082,-3.476 l 0.868,0 0,-3.703 c -0.219,-0.438 -0.434,-0.86 -0.868,-1.524"
         id="path80"
         style="fill:#ffffff;fill-opacity:1;fill-rule:nonzero;stroke:none" /><path
         d="m 408.348,91.1016 0,79.9614 18.695,0 0,-79.9614 -18.695,0 z m -0.426,-32.1602 0,20 36.5,0 0,92.5626 19.125,0 0,-112.5626 -55.625,0"
         id="path82"
         style="fill:#ffffff;fill-opacity:1;fill-rule:nonzero;stroke:none" /><path
         d="m 481.137,58.9414 19.5547,0 0,112.773 -19.5547,0 0,-112.773 z"
         id="path84"
         style="fill:#ffffff;fill-opacity:1;fill-rule:nonzero;stroke:none" /><path
         d="m 651.051,134.566 c -5.653,0 -8.473,2.817 -8.473,8.684 0,5.867 2.82,8.914 8.473,8.914 2.387,0 4.558,-0.879 6.082,-2.605 1.523,-1.75 2.394,-3.918 2.394,-6.524 0,-5.652 -2.828,-8.469 -8.476,-8.469 z m -6.735,-26.082 -10.648,0 c -2.395,0 -4.996,-1.086 -7.609,-3.261 -2.602,-2.168 -3.911,-4.563 -3.911,-6.9535 l 0,-19.3281 20.43,0 c 1.082,0 1.738,0.8594 1.738,2.8164 l 0,26.7262 z m -15.863,26.082 c -5.652,0 -8.473,2.817 -8.473,8.684 0,5.867 2.821,8.914 8.692,8.914 2.387,0 4.558,-0.879 6.078,-2.605 1.738,-1.75 2.613,-3.918 2.613,-6.309 0,-5.867 -3.043,-8.684 -8.91,-8.684 z m 29.551,-70.6324 c -4.133,-3.2539 -7.824,-4.9922 -11.301,-4.9922 l -87.348,0 c -2.613,0 -4.996,1.0859 -6.953,3.4805 -2.172,2.3906 -3.261,4.9883 -3.261,7.6054 l 0,58.4457 19.336,0 0,-49.5316 33.679,0 c 0,33.0196 11.52,49.5316 34.332,49.5316 l 27.379,0 0,-54.5394 c 0,-3.4766 -1.953,-6.9531 -5.863,-10"
         id="path86"
         style="fill:#ffffff;fill-opacity:1;fill-rule:nonzero;stroke:none" /><path
         d="m 721,58.9414 c 0,-11.9531 -1.082,-20.6328 -3.262,-26.0742 -3.691,-8.9024 -10.644,-13.4649 -20.859,-13.4649 l -16.727,0 0,18.9063 c 8.907,0 14.125,0.4297 15.645,1.082 3.476,1.5157 5.215,5.6446 5.215,12.8242 l 0,56.7072 19.988,0 0,-29.9806 23.031,0 0,-20 -23.031,0"
         id="path88"
         style="fill:#ffffff;fill-opacity:1;fill-rule:nonzero;stroke:none" /><path
         d="m 737.5,58.9414 17.3828,0 0,19.5625 -17.3828,0 0,-19.5625 z"
         id="path90"
         style="fill:#ffffff;fill-opacity:1;fill-rule:nonzero;stroke:none" /><path
         d="m 814.199,118.047 c -1.738,-1.742 -3.906,-2.609 -6.515,-2.609 -5.653,0 -8.473,3.046 -8.473,8.906 0,5.652 2.82,8.476 8.473,8.476 5.871,0 8.906,-2.824 8.906,-8.683 0,-2.391 -0.863,-4.571 -2.391,-6.09 z m -18.469,16.519 c -1.953,0 -3.91,0.649 -5.429,2.168 -1.524,1.524 -2.387,3.481 -2.387,5.649 l 0,2.39 c 0,2.168 0.863,3.915 2.602,5.215 1.961,1.524 3.914,2.176 6.086,2.176 2.39,0 4.566,-0.879 6.082,-2.605 1.738,-1.75 2.613,-3.918 2.613,-6.524 0,-5.652 -3.266,-8.469 -9.567,-8.469 z m -3.687,-15.867 c -1.527,-1.953 -3.266,-2.82 -5.219,-2.82 -2.386,0 -3.914,0 -4.344,0.211 -3.91,0.871 -5.871,4.133 -5.871,9.562 0,4.774 3.258,7.168 9.996,7.168 2.172,0 3.911,-0.871 5.215,-2.605 1.52,-1.742 2.172,-3.695 2.172,-6.078 0,-1.961 -0.652,-3.699 -1.949,-5.438 z m 77.566,-59.7576 -119.074,0 0,49.9806 19.559,0 0,-30.4181 18.469,0 0,30.4181 19.777,0 0,-30.4181 18.68,0 0,30.4181 19.562,0 0,-29.9806 23.027,0 0,-20"
         id="path92"
         style="fill:#ffffff;fill-opacity:1;fill-rule:nonzero;stroke:none" /><path
         d="m 861.992,58.9414 0,20 25.211,0 0,92.7736 18.684,0 0,-112.7736 -43.895,0"
         id="path94"
         style="fill:#ffffff;fill-opacity:1;fill-rule:nonzero;stroke:none" /><path
         d="m 920.219,58.9414 19.5547,0 0,112.773 -19.5547,0 0,-112.773 z"
         id="path96"
         style="fill:#ffffff;fill-opacity:1;fill-rule:nonzero;stroke:none" /><path
         d="m 1562.66,272.762 -1562.66,0 0,-58.098 3844.96,0 0,58.098 -2282.3,0"
         id="path98"
         style="fill:#0d0d0d;fill-opacity:1;fill-rule:nonzero;stroke:none" /><path
         d="m 240.641,390.535 c -0.715,-12.812 -1.426,-25.637 -3.563,-37.726 -2.844,-16.375 -10.683,-24.922 -22.781,-24.922 l -182.2579,0 c -9.9688,0 -17.7969,4.98 -24.20316,15.664 C 2.84766,352.809 0,362.059 0,372.73 l 0,181.555 65.4961,0 0,-166.57 109.6449,0 0,427.805 65.5,0 0,-359.489 85.433,0 0,-65.496 -85.433,0"
         id="path100"
         style="fill:#0d0d0d;fill-opacity:1;fill-rule:nonzero;stroke:none" /><path
         d="m 300.414,390.535 156.629,0 0,65.4961 -156.629,0 0,-65.4961 z"
         id="path102"
         style="fill:#0d0d0d;fill-opacity:1;fill-rule:nonzero;stroke:none" /><path
         d="m 639.277,639.008 c -18.507,0 -27.765,9.258 -27.765,27.762 0,7.121 2.847,13.531 7.832,19.933 4.988,6.41 11.394,9.258 18.508,9.258 8.55,0 15.664,-2.848 21.363,-8.547 6.41,-5.691 9.258,-12.812 9.258,-20.644 0,-18.504 -9.973,-27.762 -29.196,-27.762 z m -22.07,-86.145 -33.461,0 c -9.961,0 -19.219,-4.281 -27.051,-12.105 -7.832,-8.543 -12.105,-17.801 -12.105,-28.481 l 0,-56.246 67.633,0 c 3.558,2.141 4.984,4.278 4.984,6.407 l 0,90.425 z m -51.973,86.145 c -7.828,0 -14.945,2.844 -19.933,7.832 -4.985,5.691 -7.832,12.812 -7.832,21.351 0,7.836 2.847,14.239 8.543,19.223 5.703,5.699 12.816,8.547 20.648,8.547 7.832,0 14.949,-2.848 19.938,-8.547 4.98,-5.691 7.824,-12.812 7.824,-20.644 0,-18.504 -9.965,-27.762 -29.188,-27.762 z m -126.011,-248.473 0,65.496 41.289,0 c 0,49.129 6.41,86.149 19.937,111.067 17.797,34.179 49.84,51.257 94.688,51.257 l 86.148,0 0,-162.324 86.856,0 0,-65.496 -328.918,0"
         id="path104"
         style="fill:#0d0d0d;fill-opacity:1;fill-rule:nonzero;stroke:none" /><path
         d="m 824.355,582.055 c -19.222,0 -28.476,9.246 -28.476,27.761 0,19.227 9.254,28.473 28.476,28.473 18.516,0 27.77,-9.965 27.77,-29.191 0,-17.797 -9.254,-27.043 -27.77,-27.043 z m 122.458,-191.52 -199.344,0 0,65.496 40.578,0 c 4.277,4.989 6.41,8.551 6.41,9.973 l 0,91.133 66.211,0 0,-101.106 86.145,0 0,-65.496"
         id="path106"
         style="fill:#0d0d0d;fill-opacity:1;fill-rule:nonzero;stroke:none" /><path
         d="m 923.297,390.535 0,65.496 82.583,0 0,360.203 61.23,0 0,-425.699 -143.813,0"
         id="path108"
         style="fill:#0d0d0d;fill-opacity:1;fill-rule:nonzero;stroke:none" /><path
         d="m 1114.08,390.535 64.0703,0 0,425.699 -64.0703,0 0,-425.699 z"
         id="path110"
         style="fill:#0d0d0d;fill-opacity:1;fill-rule:nonzero;stroke:none" /><path
         d="m 2097.86,574.215 c -19.22,0 -28.48,9.969 -28.48,29.191 0,7.832 2.85,14.949 8.54,19.942 5.7,4.976 12.82,7.824 20.65,7.824 7.83,0 14.95,-2.848 19.93,-8.543 4.98,-5.691 7.83,-12.813 7.83,-20.649 0,-18.507 -9.26,-27.765 -28.47,-27.765 z m -74.05,0 c -17.79,0 -27.05,9.969 -27.05,29.191 0,18.516 9.26,27.766 27.77,27.766 18.5,0 27.76,-9.25 27.76,-28.473 0,-19.226 -9.26,-28.484 -28.48,-28.484 z M 2226,399.793 c -4.27,-6.406 -8.53,-9.258 -13.52,-9.258 l -306.14,0 c -6.4,0 -12.1,3.563 -17.08,10.684 -4.98,7.82 -7.83,14.953 -7.83,21.351 l 0,133.141 64.07,0 c 0,-53.398 0,-81.164 0,-81.879 0.72,-12.812 4.98,-19.227 12.1,-19.227 l 199.35,0 9.97,9.258 0,91.848 64.78,0 0,-139.539 c 0,-4.988 -2.14,-10.68 -5.7,-16.379"
         id="path112"
         style="fill:#0d0d0d;fill-opacity:1;fill-rule:nonzero;stroke:none" /><path
         d="m 2286.49,390.535 0,427.125 65.51,0 0,-361.629 129.58,0 0,-65.496 -195.09,0"
         id="path114"
         style="fill:#0d0d0d;fill-opacity:1;fill-rule:nonzero;stroke:none" /><path
         d="m 2535.66,582.055 c -19.22,0 -28.48,9.246 -28.48,27.761 0,19.227 9.26,28.473 28.48,28.473 18.5,0 27.76,-9.965 27.76,-29.191 0,-17.797 -9.26,-27.043 -27.76,-27.043 z m 122.45,-191.52 -199.35,0 0,65.496 40.59,0 c 4.27,4.989 6.41,8.551 6.41,9.973 l 0,91.133 66.21,0 0,-101.106 86.14,0 0,-65.496"
         id="path116"
         style="fill:#0d0d0d;fill-opacity:1;fill-rule:nonzero;stroke:none" /><path
         d="m 2950.09,401.926 c -9.97,-7.828 -19.93,-11.391 -29.19,-11.391 l -287.01,0 0,65.496 266.37,0 0,50.555 c 0,14.949 -5.7,26.336 -17.8,34.883 -12.11,8.547 -26.34,12.816 -41.3,12.816 l -130.28,0 0,64.07 145.95,0 c 23.5,0 46.27,-8.539 69.77,-26.335 24.91,-19.223 37.72,-39.875 37.72,-62.653 l 0,-102.523 c 0,-9.25 -4.97,-17.805 -14.23,-24.918"
         id="path118"
         style="fill:#0d0d0d;fill-opacity:1;fill-rule:nonzero;stroke:none" /><path
         d="m 3009.2,390.535 0,427.125 65.5,0 0,-361.629 129.58,0 0,-65.496 -195.08,0"
         id="path120"
         style="fill:#0d0d0d;fill-opacity:1;fill-rule:nonzero;stroke:none" /><path
         d="m 3182.18,390.535 56.9688,0 0,64.0703 -56.9688,0 0,-64.0703 z"
         id="path122"
         style="fill:#0d0d0d;fill-opacity:1;fill-rule:nonzero;stroke:none" /><path
         d="m 3433.5,584.184 c -5.69,-5.696 -12.81,-8.543 -21.36,-8.543 -18.51,0 -27.77,9.968 -27.77,29.187 0,18.52 9.26,27.766 27.77,27.766 19.23,0 29.19,-9.246 29.19,-28.469 0,-7.84 -2.85,-14.957 -7.83,-19.941 z m -60.52,54.105 c -6.4,0 -12.81,2.137 -17.8,7.129 -4.98,4.977 -7.82,11.387 -7.82,18.504 l 0,7.832 c 0,7.121 2.84,12.812 8.54,17.086 6.41,4.984 12.81,7.121 19.92,7.121 7.85,0 14.96,-2.848 19.95,-8.547 5.69,-5.691 8.54,-12.812 8.54,-21.351 0,-18.516 -10.68,-27.774 -31.33,-27.774 z m -12.11,-51.969 c -4.97,-6.41 -10.67,-9.257 -17.08,-9.257 -7.83,0 -12.81,0 -14.23,0.718 -12.82,2.848 -19.22,13.52 -19.22,31.317 0,15.672 10.68,23.496 32.75,23.496 7.11,0 12.81,-2.844 17.08,-8.543 4.99,-5.696 7.12,-12.106 7.12,-19.926 0,-6.41 -2.13,-12.105 -6.42,-17.805 z m 254.18,-195.785 -390.15,0 0,163.75 64.07,0 0,-99.68 60.52,0 0,99.68 64.78,0 0,-99.68 61.23,0 0,99.68 64.07,0 0,-98.254 75.48,0 0,-65.496"
         id="path124"
         style="fill:#0d0d0d;fill-opacity:1;fill-rule:nonzero;stroke:none" /><path
         d="m 3590.09,390.535 0,65.496 82.59,0 0,360.203 61.22,0 0,-425.699 -143.81,0"
         id="path126"
         style="fill:#0d0d0d;fill-opacity:1;fill-rule:nonzero;stroke:none" /><path
         d="m 3780.87,390.535 64.0898,0 0,425.699 -64.0898,0 0,-425.699 z"
         id="path128"
         style="fill:#0d0d0d;fill-opacity:1;fill-rule:nonzero;stroke:none" /><path
         d="m 1502.05,739.273 c -3.74,9.387 -8.14,17.157 -14.03,23.321 l -13.37,3.429 c -2.14,-3.218 -3.62,-4.82 -4.36,-5.625 -5.37,-12.101 -5.25,-26.308 0.08,-43.832 5.77,-17.937 13.61,-31.843 24.78,-42.136 l 4.46,-4.121 c 11.36,22.168 12.02,45.293 2.44,68.964 z m -113.11,-191.671 -73.35,141.82 c 7.74,-8.629 15.86,-16.852 24.8,-25.086 38.85,-35.832 72.89,-50.902 102.48,-44.813 12.83,2.274 21.5,5.399 26.46,8.985 0.14,2.844 -3.14,7.347 -9.84,13.527 -5.8,5.356 -14.22,12.363 -26.13,21.86 -12.27,9.097 -21.12,16.511 -26.49,21.46 -12.95,11.942 -20.4,21.786 -22.88,30.747 -3,10.183 0.82,21.5 11.09,33.539 37.11,42.929 70.58,63.988 99.15,63.605 13.88,-0.187 25.33,-4.801 34.71,-13.453 16.97,-15.648 27.14,-41.359 29.27,-76.695 2.34,-33.317 -4.75,-66.094 -20,-98.762 -6.12,-12.906 -13.94,-24.973 -23.92,-35.797 -9.62,-10.43 -21.01,-19.203 -34.12,-27.144 -25.11,-14.684 -55.66,-19.141 -91.23,-13.793"
         id="path130"
         style="fill:#0d0d0d;fill-opacity:1;fill-rule:nonzero;stroke:none" /></g></g></svg>