<?xml version="1.0" encoding="utf-8"?>
<!-- Generator: Adobe Illustrator 22.1.0, SVG Export Plug-In . SVG Version: 6.00 Build 0)  -->
<svg version="1.1" id="Layer_1" xmlns="http://www.w3.org/2000/svg" xmlns:xlink="http://www.w3.org/1999/xlink" x="0px" y="0px"
	 viewBox="0 0 300 61" style="enable-background:new 0 0 300 61;" xml:space="preserve">
<style type="text/css">
	.st0{filter:url(#Adobe_OpacityMaskFilter);}
	.st1{fill:#FFFFFF;}
	.st2{mask:url(#mask-2_1_);fill:#0061A1;}
	.st3{fill:#FFFFFE;}
	.st4{fill:#000203;}
	.st5{fill:#525351;}
	.st6{fill:#0061A1;}
	.st7{fill:#979894;}
	.st8{fill:#1A1919;}
</style>
<g id="Desktop---Others">
	<g id="Trucks-ENG-Outline">
		<g id="Group-3" transform="translate(219.740260, 41.298701)">
			<g id="Clip-2">
			</g>
			<defs>
				<filter id="Adobe_OpacityMaskFilter" filterUnits="userSpaceOnUse" x="0.6" y="0.3" width="79" height="19.1">
					<feColorMatrix  type="matrix" values="1 0 0 0 0  0 1 0 0 0  0 0 1 0 0  0 0 0 1 0"/>
				</filter>
			</defs>
			<mask maskUnits="userSpaceOnUse" x="0.6" y="0.3" width="79" height="19.1" id="mask-2_1_">
				<g class="st0">
					<polygon id="path-1_1_" class="st1" points="0.6,0.3 79.6,0.3 79.6,19.4 0.6,19.4 					"/>
				</g>
			</mask>
			<polygon id="Fill-1" class="st2" points="0.6,19.4 79.6,19.4 79.6,0.3 0.6,0.3 			"/>
		</g>
		<path id="Fill-4" class="st3" d="M236,47.1v11.1h-2.5l0-7.5l-1,7.5h-1.8l-1.1-7.3l0,7.3h-2.5V47.1h3.7c0.1,0.7,0.2,1.5,0.3,2.4
			l0.4,2.8l0.7-5.2H236"/>
		<path id="Fill-5" class="st3" d="M237.2,58.2h2.8v-9.1h-2.8V58.2z M237.2,48.6h2.8v-1.4h-2.8V48.6z"/>
		<path id="Fill-6" class="st3" d="M244.6,51.4c0-0.3,0-0.6-0.1-0.7c-0.1-0.1-0.2-0.2-0.3-0.2c-0.2,0-0.3,0.1-0.3,0.2
			c-0.1,0.1-0.1,0.3-0.1,0.7v4.5c0,0.4,0,0.6,0.1,0.7c0.1,0.1,0.2,0.2,0.3,0.2c0.2,0,0.3-0.1,0.4-0.2c0.1-0.1,0.1-0.4,0.1-1V51.4z
			 M247.4,47.1v11.1h-2.8v-0.7c-0.3,0.3-0.5,0.5-0.8,0.6c-0.3,0.1-0.6,0.2-0.9,0.2c-0.4,0-0.8-0.1-1.1-0.3c-0.3-0.2-0.5-0.5-0.6-0.8
			c-0.1-0.3-0.1-0.8-0.1-1.5v-4.3c0-0.7,0-1.2,0.1-1.5c0.1-0.3,0.3-0.5,0.6-0.8c0.3-0.2,0.7-0.3,1.1-0.3c0.3,0,0.7,0.1,0.9,0.2
			c0.3,0.1,0.5,0.3,0.8,0.6v-2.6H247.4z"/>
		<path id="Fill-7" class="st3" d="M252,51.4c0-0.3,0-0.6-0.1-0.7c-0.1-0.1-0.2-0.2-0.3-0.2c-0.2,0-0.3,0.1-0.3,0.2
			c-0.1,0.1-0.1,0.3-0.1,0.7v4.5c0,0.4,0,0.6,0.1,0.7c0.1,0.1,0.2,0.2,0.3,0.2c0.2,0,0.3-0.1,0.4-0.2c0.1-0.1,0.1-0.4,0.1-1V51.4z
			 M254.7,47.1v11.1H252v-0.7c-0.3,0.3-0.5,0.5-0.8,0.6c-0.3,0.1-0.6,0.2-0.9,0.2c-0.4,0-0.8-0.1-1.1-0.3c-0.3-0.2-0.5-0.5-0.6-0.8
			c-0.1-0.3-0.1-0.8-0.1-1.5v-4.3c0-0.7,0-1.2,0.1-1.5c0.1-0.3,0.3-0.5,0.6-0.8c0.3-0.2,0.7-0.3,1.1-0.3c0.3,0,0.7,0.1,0.9,0.2
			c0.3,0.1,0.5,0.3,0.8,0.6v-2.6H254.7z"/>
		<polygon id="Fill-8" class="st3" points="255.8,58.2 258.6,58.2 258.6,47.1 255.8,47.1 		"/>
		<path id="Fill-9" class="st3" d="M263.2,52.4v-0.7c0-0.5,0-0.8-0.1-0.9c-0.1-0.1-0.2-0.2-0.3-0.2c-0.2,0-0.3,0.1-0.4,0.2
			c0,0.1-0.1,0.4-0.1,0.9v0.7H263.2z M266,53.9h-3.6v2c0,0.4,0,0.7,0.1,0.8c0.1,0.1,0.2,0.2,0.3,0.2c0.2,0,0.3-0.1,0.4-0.2
			c0.1-0.2,0.1-0.5,0.1-0.9v-1.2h2.6v0.7c0,0.6,0,1-0.1,1.3c-0.1,0.3-0.2,0.6-0.5,1c-0.3,0.3-0.6,0.6-1,0.8
			c-0.4,0.2-0.9,0.3-1.5,0.3c-0.6,0-1.1-0.1-1.5-0.3c-0.4-0.2-0.8-0.4-1-0.7c-0.2-0.3-0.4-0.6-0.5-1c-0.1-0.4-0.1-0.9-0.1-1.5v-2.7
			c0-0.8,0.1-1.4,0.3-1.9c0.2-0.5,0.6-0.8,1.1-1.1c0.5-0.2,1.1-0.4,1.7-0.4c0.8,0,1.4,0.1,1.9,0.4c0.5,0.3,0.9,0.7,1.1,1.2
			c0.2,0.5,0.3,1.2,0.3,2.1V53.9z"/>
		<polyline id="Fill-10" class="st3" points="269.6,47.1 274.4,47.1 274.4,49.4 272.5,49.4 272.5,51.5 274.3,51.5 274.3,53.6 
			272.5,53.6 272.5,56 274.6,56 274.6,58.2 269.6,58.2 269.6,47.1 		"/>
		<path id="Fill-11" class="st3" d="M278.7,53.9c-0.4,0.3-0.7,0.6-0.8,0.8c-0.1,0.2-0.1,0.5-0.1,0.9c0,0.5,0,0.8,0.1,0.9
			c0.1,0.1,0.2,0.2,0.4,0.2c0.2,0,0.3-0.1,0.3-0.2c0.1-0.1,0.1-0.4,0.1-0.8V53.9z M277.9,52.7h-2.6v-0.6c0-0.7,0.1-1.2,0.2-1.6
			c0.2-0.4,0.5-0.7,1-1c0.5-0.3,1.1-0.4,1.9-0.4c0.9,0,1.6,0.2,2.1,0.5c0.5,0.3,0.8,0.7,0.9,1.2c0.1,0.5,0.1,1.5,0.1,3v4.6h-2.7
			v-0.8c-0.2,0.3-0.4,0.6-0.7,0.7c-0.3,0.2-0.6,0.2-1,0.2c-0.5,0-0.9-0.1-1.3-0.4c-0.4-0.3-0.6-0.9-0.6-1.8v-0.7
			c0-0.7,0.1-1.1,0.3-1.4c0.2-0.2,0.7-0.5,1.6-0.9c0.9-0.4,1.4-0.6,1.5-0.7c0.1-0.1,0.1-0.4,0.1-0.8c0-0.5,0-0.8-0.1-0.9
			c-0.1-0.1-0.2-0.2-0.4-0.2c-0.2,0-0.3,0.1-0.3,0.2c0,0.1-0.1,0.4-0.1,0.9V52.7z"/>
		<path id="Fill-12" class="st3" d="M288.2,52.1h-2.5v-0.5c0-0.4,0-0.7-0.1-0.8c0-0.1-0.2-0.2-0.4-0.2c-0.2,0-0.3,0.1-0.3,0.2
			c-0.1,0.1-0.1,0.3-0.1,0.5c0,0.3,0,0.5,0.1,0.6c0,0.1,0.2,0.3,0.3,0.4c0.2,0.2,0.6,0.4,1.2,0.7c0.8,0.4,1.3,0.8,1.6,1.1
			c0.3,0.3,0.4,0.9,0.4,1.5c0,0.7-0.1,1.3-0.3,1.7c-0.2,0.4-0.5,0.7-1,0.9c-0.5,0.2-1,0.3-1.6,0.3c-0.7,0-1.3-0.1-1.8-0.3
			c-0.5-0.2-0.8-0.5-1-0.9c-0.2-0.4-0.3-0.9-0.3-1.7V55h2.5v0.6c0,0.5,0,0.8,0.1,1c0.1,0.1,0.2,0.2,0.4,0.2c0.2,0,0.3,0,0.4-0.1
			c0.1-0.1,0.1-0.3,0.1-0.6c0-0.4,0-0.7-0.2-0.8c-0.1-0.1-0.6-0.4-1.6-1c-0.8-0.5-1.3-0.9-1.5-1.2c-0.2-0.4-0.3-0.8-0.3-1.3
			c0-0.7,0.1-1.3,0.3-1.6c0.2-0.3,0.5-0.6,1-0.8c0.5-0.2,1-0.3,1.6-0.3c0.6,0,1.1,0.1,1.5,0.2c0.4,0.2,0.7,0.4,1,0.6
			c0.2,0.3,0.4,0.5,0.4,0.7c0,0.2,0.1,0.6,0.1,1V52.1"/>
		<g id="Group-16" transform="translate(0.000000, 0.779221)">
			<path id="Fill-13" class="st3" d="M292.1,47.2v1.4h0.7V50h-0.7v4.9c0,0.6,0,0.9,0.1,1c0.1,0.1,0.3,0.1,0.8,0.1v1.5h-1.1
				c-0.6,0-1.1,0-1.3-0.1c-0.3-0.1-0.5-0.2-0.7-0.4c-0.2-0.2-0.3-0.4-0.4-0.7c0-0.2-0.1-0.8-0.1-1.7V50h-0.6v-1.4h0.6v-1.4H292.1"/>
			<polyline id="Fill-15" class="st4" points="14.4,0.4 14.4,7.1 10.5,7.1 10.5,33.5 3.9,33.5 3.9,7.1 0,7.1 0,0.4 14.4,0.4 			"/>
		</g>
		<path id="Fill-17" class="st4" d="M22.5,6.9v7.3c0.7,0,1.3-0.1,1.6-0.4c0.3-0.3,0.4-1.1,0.4-2.6V9.4c0-1-0.1-1.7-0.4-2.1
			C23.8,7,23.3,6.9,22.5,6.9z M15.9,1.2h4.7c3.1,0,5.2,0.2,6.3,0.5c1.1,0.3,2,1.1,2.7,2.4c0.7,1.3,1,3.3,1,6.2
			c0,2.6-0.2,4.3-0.7,5.2c-0.5,0.9-1.5,1.4-2.9,1.6c1.3,0.4,2.2,1,2.6,1.7c0.4,0.7,0.7,1.4,0.8,1.9c0.1,0.6,0.2,2.2,0.2,4.9v8.7
			h-6.1v-11c0-1.8-0.1-2.9-0.3-3.3c-0.2-0.4-0.8-0.6-1.7-0.6v14.9h-6.6V1.2z"/>
		<path id="Fill-18" class="st4" d="M48.2,1.2v22.1c0,2.5-0.1,4.3-0.2,5.3c-0.1,1-0.5,2.1-1.1,3.1c-0.6,1.1-1.4,1.9-2.4,2.4
			c-1,0.6-2.2,0.8-3.6,0.8c-1.5,0-2.9-0.3-4-1c-1.2-0.7-2-1.5-2.6-2.6c-0.6-1-0.9-2.2-1-3.3c-0.1-1.2-0.2-3.6-0.2-7.3V1.2h6.6V26
			c0,1.4,0.1,2.4,0.2,2.8s0.4,0.6,0.7,0.6c0.4,0,0.7-0.2,0.8-0.7c0.1-0.4,0.2-1.5,0.2-3.1V1.2H48.2"/>
		<path id="Fill-19" class="st4" d="M66.2,15.6h-6.6V9.9c0-1.7-0.1-2.7-0.2-3.1c-0.1-0.4-0.5-0.6-0.9-0.6c-0.5,0-0.9,0.3-1,0.8
			c-0.1,0.5-0.2,1.6-0.2,3.3v15.3c0,1.6,0.1,2.7,0.2,3.1c0.1,0.5,0.5,0.7,1,0.7c0.5,0,0.8-0.2,1-0.7c0.2-0.5,0.2-1.6,0.2-3.5V21h6.6
			v1.3c0,3.4-0.2,5.8-0.6,7.3c-0.4,1.4-1.2,2.7-2.5,3.8c-1.3,1.1-2.8,1.6-4.7,1.6c-1.9,0-3.5-0.5-4.8-1.4c-1.3-0.9-2.1-2.2-2.5-3.8
			c-0.4-1.6-0.6-4-0.6-7.3v-9.7c0-2.4,0.1-4.2,0.2-5.4c0.1-1.2,0.5-2.3,1.1-3.4s1.5-2,2.6-2.6c1.1-0.6,2.4-0.9,3.8-0.9
			c1.9,0,3.5,0.5,4.8,1.5c1.3,1,2.1,2.2,2.5,3.7c0.4,1.5,0.6,3.7,0.6,6.8V15.6"/>
		<polyline id="Fill-20" class="st4" points="84.3,1.2 80.5,16.1 84.6,34.3 77.8,34.3 75.2,20.1 75.2,34.3 68.6,34.3 68.6,1.2 
			75.2,1.2 75.2,14.1 78.1,1.2 84.3,1.2 		"/>
		<path id="Fill-21" class="st4" d="M99.3,11.2h-6.1V8.8c0-1.1-0.1-1.9-0.2-2.2c-0.2-0.3-0.4-0.5-0.8-0.5c-0.4,0-0.7,0.2-0.9,0.6
			c-0.2,0.4-0.3,1.1-0.3,1.9c0,1.1,0.1,1.9,0.3,2.5c0.2,0.6,0.8,1.2,1.9,2c2.9,2.3,4.8,4.1,5.6,5.6c0.8,1.5,1.1,3.8,1.1,7
			c0,2.4-0.2,4.1-0.6,5.2c-0.4,1.1-1.2,2.1-2.5,2.8c-1.2,0.8-2.6,1.1-4.2,1.1c-1.8,0-3.3-0.4-4.5-1.3c-1.2-0.9-2.1-2-2.5-3.3
			C85.1,29,85,27.1,85,24.6v-2.2h6.1v4c0,1.2,0.1,2,0.3,2.4c0.2,0.4,0.5,0.5,0.9,0.5c0.4,0,0.8-0.2,1-0.7c0.2-0.4,0.3-1.1,0.3-2
			c0-1.9-0.2-3.2-0.6-3.8c-0.4-0.6-1.4-1.6-3.1-3c-1.6-1.4-2.7-2.4-3.3-3.1c-0.5-0.6-1-1.5-1.3-2.7c-0.4-1.1-0.5-2.6-0.5-4.3
			c0-2.5,0.2-4.4,0.7-5.5c0.5-1.2,1.3-2.1,2.4-2.7c1.1-0.7,2.4-1,4-1c1.7,0,3.2,0.4,4.4,1.1c1.2,0.7,2,1.6,2.4,2.7
			c0.4,1.1,0.6,3,0.6,5.6V11.2"/>
		<polyline id="Fill-22" class="st4" points="166,1.2 166,7.8 162,7.8 162,34.3 155.4,34.3 155.4,7.8 151.5,7.8 151.5,1.2 166,1.2 
					"/>
		<path id="Fill-23" class="st4" d="M174.1,6.9v7.3c0.7,0,1.3-0.1,1.6-0.4c0.3-0.3,0.4-1.1,0.4-2.6V9.4c0-1-0.1-1.7-0.4-2.1
			C175.4,7,174.8,6.9,174.1,6.9z M167.5,1.2h4.7c3.1,0,5.2,0.2,6.3,0.5c1.1,0.3,2,1.1,2.7,2.4c0.7,1.3,1,3.3,1,6.2
			c0,2.6-0.2,4.3-0.7,5.2c-0.5,0.9-1.5,1.4-2.9,1.6c1.3,0.4,2.2,1,2.6,1.7c0.5,0.7,0.7,1.4,0.8,1.9c0.1,0.6,0.2,2.2,0.2,4.9v8.7
			h-6.1v-11c0-1.8-0.1-2.9-0.3-3.3c-0.2-0.4-0.8-0.6-1.7-0.6v14.9h-6.6V1.2z"/>
		<path id="Fill-24" class="st4" d="M192.7,22.5c-0.3-3.7-0.7-8.4-1-13.9c-0.7,6.3-1.1,11-1.3,13.9H192.7z M196.2,1.2l3.8,33h-6.7
			l-0.4-5.9h-2.4l-0.4,5.9h-6.8l3.4-33H196.2z"/>
		<polyline id="Fill-25" class="st4" points="215.8,1.2 215.8,34.3 210,34.3 206.6,19.2 206.6,34.3 201.1,34.3 201.1,1.2 206.6,1.2 
			210.3,16.1 210.3,1.2 215.8,1.2 		"/>
		<path id="Fill-26" class="st4" d="M232.4,11.2h-6.1V8.8c0-1.1-0.1-1.9-0.2-2.2c-0.2-0.3-0.4-0.5-0.8-0.5c-0.4,0-0.7,0.2-0.9,0.6
			c-0.2,0.4-0.3,1.1-0.3,1.9c0,1.1,0.1,1.9,0.3,2.5c0.2,0.6,0.8,1.2,1.9,2c2.9,2.3,4.8,4.1,5.6,5.6c0.8,1.5,1.1,3.8,1.1,7
			c0,2.4-0.2,4.1-0.6,5.2c-0.4,1.1-1.2,2.1-2.5,2.8c-1.2,0.8-2.6,1.1-4.2,1.1c-1.8,0-3.3-0.4-4.5-1.3c-1.2-0.9-2.1-2-2.5-3.3
			c-0.4-1.3-0.6-3.3-0.6-5.7v-2.2h6.1v4c0,1.2,0.1,2,0.3,2.4c0.2,0.4,0.5,0.5,0.9,0.5c0.4,0,0.8-0.2,1-0.7c0.2-0.4,0.3-1.1,0.3-2
			c0-1.9-0.2-3.2-0.6-3.8c-0.4-0.6-1.4-1.6-3.1-3c-1.6-1.4-2.7-2.4-3.3-3.1c-0.5-0.6-1-1.5-1.3-2.7c-0.3-1.1-0.5-2.6-0.5-4.3
			c0-2.5,0.2-4.4,0.7-5.5c0.5-1.2,1.3-2.1,2.4-2.7c1.1-0.7,2.4-1,4-1c1.7,0,3.2,0.4,4.4,1.1s2,1.6,2.4,2.7c0.4,1.1,0.6,3,0.6,5.6
			V11.2"/>
		<path id="Fill-27" class="st4" d="M241.6,6.9v8.4c0.2,0,0.4,0,0.5,0c0.6,0,1-0.2,1.3-0.6c0.2-0.4,0.4-1.2,0.4-2.4V9.6
			c0-1.1-0.1-1.9-0.4-2.2C243.1,7,242.5,6.9,241.6,6.9z M235,1.2h6.6c1.8,0,3.2,0.2,4.1,0.6c1,0.4,1.7,0.9,2.2,1.6
			c0.5,0.7,0.8,1.5,1,2.5c0.2,1,0.3,2.5,0.3,4.6v2.9c0,2.1-0.2,3.6-0.5,4.6c-0.3,1-0.9,1.7-1.8,2.2c-0.9,0.5-2.1,0.8-3.5,0.8h-1.8
			v13.3H235V1.2z"/>
		<path id="Fill-28" class="st4" d="M259.6,9.7c0-1.5-0.1-2.5-0.2-2.9c-0.1-0.4-0.4-0.6-0.8-0.6c-0.3,0-0.6,0.2-0.8,0.5
			c-0.2,0.3-0.3,1.4-0.3,3.1v15.4c0,1.9,0.1,3.1,0.2,3.6c0.1,0.4,0.4,0.7,0.8,0.7c0.4,0,0.7-0.3,0.9-0.8c0.1-0.5,0.2-1.7,0.2-3.7
			V9.7z M266.2,20.6c0,3.3-0.1,5.7-0.2,7c-0.1,1.4-0.5,2.6-1.1,3.8c-0.6,1.1-1.5,2-2.6,2.6c-1.1,0.6-2.3,0.9-3.8,0.9
			c-1.4,0-2.6-0.3-3.7-0.9c-1.1-0.6-2-1.4-2.6-2.6c-0.7-1.2-1.1-2.4-1.2-3.8c-0.1-1.4-0.2-3.7-0.2-7.1v-5.7c0-3.3,0.1-5.7,0.2-7
			c0.1-1.4,0.5-2.6,1.1-3.8c0.6-1.1,1.5-2,2.6-2.6c1.1-0.6,2.3-0.9,3.8-0.9c1.4,0,2.6,0.3,3.7,0.9c1.1,0.6,2,1.4,2.6,2.6
			c0.7,1.2,1.1,2.4,1.2,3.8c0.1,1.4,0.2,3.7,0.2,7.1V20.6z"/>
		<path id="Fill-29" class="st4" d="M275.3,6.9v7.3c0.7,0,1.3-0.1,1.6-0.4c0.3-0.3,0.4-1.1,0.4-2.6V9.4c0-1-0.1-1.7-0.4-2.1
			C276.6,7,276.1,6.9,275.3,6.9z M268.7,1.2h4.7c3.1,0,5.2,0.2,6.3,0.5c1.1,0.3,2,1.1,2.7,2.4c0.7,1.3,1,3.3,1,6.2
			c0,2.6-0.2,4.3-0.7,5.2c-0.5,0.9-1.5,1.4-2.9,1.6c1.3,0.4,2.2,1,2.6,1.7c0.4,0.7,0.7,1.4,0.8,1.9c0.1,0.6,0.2,2.2,0.2,4.9v8.7
			h-6.1v-11c0-1.8-0.1-2.9-0.3-3.3c-0.2-0.4-0.8-0.6-1.7-0.6v14.9h-6.6V1.2z"/>
		<polyline id="Fill-30" class="st4" points="299.3,1.2 299.3,7.8 295.4,7.8 295.4,34.3 288.8,34.3 288.8,7.8 284.9,7.8 284.9,1.2 
			299.3,1.2 		"/>
		<path id="Fill-31" class="st5" d="M116.2,31.7c-1.6,0-2.8-1.3-2.8-2.8c0-1.6,1.3-2.8,2.8-2.8c1.6,0,2.8,1.3,2.8,2.8
			C119.1,30.4,117.8,31.7,116.2,31.7z M116.2,23.4c-3,0-5.4,2.4-5.4,5.4s2.4,5.5,5.4,5.5c3,0,5.4-2.4,5.4-5.5S119.2,23.4,116.2,23.4
			z"/>
		<path id="Fill-32" class="st5" d="M116.2,27.5c-0.7,0-1.3,0.6-1.3,1.3c0,0.7,0.6,1.3,1.3,1.3c0.7,0,1.3-0.6,1.3-1.3
			C117.5,28.1,116.9,27.5,116.2,27.5"/>
		<path id="Fill-33" class="st6" d="M115.9,12.9h2c0.5,0,0.9-0.4,0.9-0.9V8.8c0-0.5-0.4-0.9-0.9-0.9h-2c-0.5,0-0.9,0.4-0.9,0.9V12
			C114.9,12.5,115.3,12.9,115.9,12.9"/>
		<path id="Fill-34" class="st7" d="M103.2,22.9c0.7,0,1.2-0.6,1.2-1.2v-1.6c0-0.7-0.6-1.2-1.2-1.2h-0.8c0,0,0,0,0,0v4c0,0,0,0,0,0
			H103.2"/>
		<path id="Fill-35" class="st6" d="M102.4,18.6C102.4,18.6,102.5,18.6,102.4,18.6l0.8,0c0.8,0,1.5,0.7,1.5,1.5v1.6
			c0,0.8-0.7,1.5-1.5,1.5h-0.8c0,0,0,0,0,0V24h3.1v-6h-3.1V18.6"/>
		<path id="Fill-36" class="st5" d="M102.4,28.2C102.4,28.2,102.4,28.2,102.4,28.2c0,0,0-0.1,0-0.1V28.2"/>
		<path id="Fill-37" class="st6" d="M102.4,24.9C102.4,24.9,102.5,24.9,102.4,24.9l0.8,0c0.7,0,1.2,0.5,1.2,1v1.3c0,0.6-0.6,1-1.2,1
			h-0.8c0,0,0,0,0,0c0.1,0.7,0.7,1.2,1.4,1.2h1.7v-5.1h-3.1V24.9"/>
		<path id="Fill-38" class="st7" d="M102.5,28h0.7c0.6,0,1.1-0.4,1.1-0.9V26c0-0.5-0.5-0.9-1.1-0.9h-0.7c0,0,0,0,0,0L102.5,28
			C102.4,27.9,102.4,28,102.5,28C102.4,28,102.5,28,102.5,28"/>
		<path id="Fill-39" class="st6" d="M104.4,14.3c-0.5,0-0.8-0.5-0.7-1l0.9-5.1c0.1-0.5,0.4-0.8,0.9-0.8h0.7c0.3,0,0.6,0.3,0.6,0.7
			v5.5c0,0.4-0.3,0.7-0.6,0.7H104.4z M107.9,8.7c0-0.7,0.6-1.2,1.2-1.2h3.5c0.7,0,1.2,0.5,1.2,1.2v3.4c0,0.7-0.6,1.2-1.2,1.2h-3.5
			c-0.7,0-1.2-0.5-1.2-1.2V8.7z M114.6,8.6c0-0.6,0.5-1.1,1.1-1.1h2.3c0.6,0,1.1,0.5,1.1,1.1v3.7c0,0.6-0.5,1.1-1.1,1.1h-2.3
			c-0.6,0-1.1-0.5-1.1-1.1V8.6z M113.6,15.3h-0.8c-0.2,0-0.3-0.1-0.3-0.3s0.1-0.3,0.3-0.3h0.8c0.2,0,0.3,0.1,0.3,0.3
			S113.8,15.3,113.6,15.3z M120.5,17.5v-9c0-1.4-0.9-2.6-2.1-2.6h-12.6c-0.9,0-1.7,0.7-2,1.8l-1.4,5.4c-0.1,0.2-0.1,0.5-0.1,0.8v3.6
			H120.5z"/>
		<path id="Fill-40" class="st6" d="M111.6,22.1c0.5-0.9,1.5-1.4,2.6-1.4h4.1c0.9,0,1.7,0.3,2.2,0.9V18h-14.6v6h4.5L111.6,22.1"/>
		<path id="Fill-41" class="st5" d="M105.9,26.7h3.2l0-0.2h0c0-0.3,0.1-0.6,0.2-0.8h-3.4V26.7"/>
		<path id="Fill-42" class="st6" d="M105.9,25.4h3.6c0,0,0-0.1,0.1-0.1l0.6-1h-4.2V25.4"/>
		<polyline id="Fill-43" class="st5" points="105.9,29.4 109,29.4 109.1,28.3 105.9,28.3 105.9,29.4 		"/>
		<polyline id="Fill-44" class="st6" points="105.9,28.1 109.1,28.1 109.1,27 105.9,27 105.9,28.1 		"/>
		<path id="Fill-45" class="st5" d="M121.6,24l-1.1-1.7c-0.1-0.1-0.2-0.2-0.3-0.3c-0.5-0.6-1.3-1-2.2-1h-3.8c-1,0-2,0.5-2.5,1.3
			l-1.9,3.1c-0.2,0.4-0.3,0.8-0.4,1.2h0l-0.1,2.9h0.2c0.3,0,0.5-0.3,0.5-0.6v0c0-0.7,0.1-1.3,0.3-2l0-0.2c0.2-0.7,0.6-1.4,1.1-1.9
			c1.1-1.2,2.8-1.9,4.5-1.9c1.7,0,3.4,0.7,4.5,1.9c0.5,0.6,0.9,1.2,1.1,1.9h1c0-0.4-0.1-0.9-0.4-1.2L121.6,24"/>
		<path id="Fill-46" class="st5" d="M120.9,21.4h0.8c0.8,0,1.4-0.6,1.4-1.4v-5.1h-2.1V21.4"/>
		<path id="Fill-47" class="st5" d="M122.8,12.8c0-1-0.8-1.9-1.9-1.9v0.7c0.7,0,1.2,0.5,1.2,1.2c0,0.7-0.5,1.2-1.2,1.2v0.7
			C121.9,14.7,122.8,13.8,122.8,12.8"/>
		<path id="Fill-48" class="st5" d="M121.6,12.8c0-0.4-0.3-0.7-0.7-0.7v1.3C121.3,13.4,121.6,13.1,121.6,12.8"/>
		<path id="Fill-49" class="st8" d="M136,5.7c0-0.5-0.1-0.9-0.3-1.3C135.4,4.2,135,4,134.4,4c-0.6,0-1,0.2-1.2,0.6
			c-0.2,0.4-0.3,0.7-0.3,1.1c0,0.2,0.1,0.5,0.2,0.8c0.2,0.3,0.5,0.9,1,1.6c0.6-0.5,1.1-0.9,1.4-1.3C135.8,6.5,136,6.1,136,5.7z
			 M136.6,16.1c-0.7-0.8-1.2-1.5-1.6-1.9c-0.4-0.5-0.9-1.1-1.5-1.9c-0.8,0.7-1.4,1.3-1.8,1.9c-0.4,0.5-0.6,1.1-0.6,1.6
			c0,0.6,0.2,1.1,0.5,1.4c0.4,0.3,0.9,0.5,1.6,0.5c0.6,0,1.1-0.1,1.6-0.3C135.5,17.2,136,16.8,136.6,16.1z M144.8,20.8
			c-0.7,0-1.4,0-2,0c-0.7,0-1.3,0-2,0c-0.4-0.4-0.7-0.8-1-1.1c-0.3-0.3-0.6-0.6-1-1.1c-0.9,0.9-1.8,1.6-2.8,1.9c-1,0.3-2,0.5-3,0.5
			c-1.9,0-3.4-0.5-4.3-1.4c-1-0.9-1.5-2.1-1.5-3.6c0-1.3,0.4-2.4,1.1-3.3c0.7-0.9,1.8-1.9,3.4-2.9c-1-1.2-1.6-2.1-1.9-2.7
			c-0.2-0.6-0.3-1.1-0.3-1.7c0-1.3,0.5-2.3,1.3-3.1c0.9-0.8,2.1-1.2,3.5-1.2c1.7,0,3,0.4,3.8,1.2c0.8,0.8,1.3,1.8,1.2,2.9
			c0,1-0.3,1.9-0.8,2.6c-0.5,0.7-1.5,1.5-2.8,2.5c0.4,0.6,0.9,1.2,1.3,1.7c0.4,0.5,1,1.2,1.7,2c0.7-0.8,1.2-1.5,1.6-2.1
			c0.4-0.6,0.8-1.5,1.2-2.6l2.9,1.6c-0.3,1-0.8,2-1.5,3.1s-1.3,1.9-1.9,2.4c1.1,1.2,1.8,2.1,2.4,2.6
			C143.9,19.8,144.4,20.3,144.8,20.8z"/>
		<path id="Fill-50" class="st5" d="M133.2,23c-0.6,0-1,0.5-1,1s0.5,1,1,1c0.6,0,1-0.5,1-1S133.8,23,133.2,23"/>
		<polygon id="Fill-51" class="st5" points="123.6,21.4 154.7,21.4 154.7,20.9 123.6,20.9 		"/>
		<path id="Fill-52" class="st5" d="M130.1,23h-5.2c-0.4,0-0.7,0.3-0.7,0.7V25h2.7c0.1-0.3,0.3-0.5,0.6-0.5s0.5,0.2,0.6,0.5h2.7
			v-1.3C130.8,23.3,130.5,23,130.1,23"/>
		<path id="Fill-53" class="st5" d="M136.1,23c-0.6,0-1,0.5-1,1c0,0.6,0.5,1,1,1c0.6,0,1-0.5,1-1C137.1,23.4,136.7,23,136.1,23"/>
		<path id="Fill-54" class="st5" d="M127.5,25.8c-0.3,0-0.5-0.2-0.6-0.5h-2.7v1.5c0,0.4,0.3,0.7,0.7,0.7h5.2c0.4,0,0.7-0.3,0.7-0.7
			v-1.5h-2.7C128.1,25.6,127.8,25.8,127.5,25.8"/>
		<path id="Fill-55" class="st5" d="M154.7,23.7v-1.8h-12c-0.2,0-0.3,0-0.5,0c-1.3,0.2-2.4,1-2.8,2c-0.1,0.3-0.1,0.5-0.1,0.8v1.8
			h1.2c0,0,0-0.1,0-0.1c0.9-2.2,3-3.8,5.5-3.8c2.5,0,4.7,1.6,5.5,3.8c0,0,0,0.1,0,0.1h0.9c0,0,0-0.1,0-0.1
			C152.9,25.4,153.7,24.4,154.7,23.7"/>
		<path id="Fill-56" class="st5" d="M154.7,24.5c-0.8,0.6-1.5,1.4-1.8,2.4c-0.2,0.6-0.4,1.3-0.4,2c0,1.8,0.9,3.4,2.2,4.4V24.5"/>
		<path id="Fill-57" class="st5" d="M141.1,21.9L141.1,21.9l-20.3,0c0.1,0.1,0.2,0.2,0.2,0.3l1,1.7h1.8v-0.6c0-0.4,0.4-0.8,0.8-0.8
			h5.8c0.4,0,0.8,0.4,0.8,0.8V24h0.8c0-0.7,0.6-1.2,1.2-1.2c0.7,0,1.2,0.6,1.2,1.2h0.4c0-0.7,0.6-1.2,1.2-1.2c0.7,0,1.2,0.6,1.2,1.2
			h1.6C139.4,22.9,139.9,22.4,141.1,21.9"/>
		<path id="Fill-58" class="st5" d="M145.9,27.5c-0.7,0-1.3,0.6-1.3,1.3c0,0.7,0.6,1.3,1.3,1.3c0.7,0,1.3-0.6,1.3-1.3
			C147.2,28.1,146.6,27.5,145.9,27.5"/>
		<g id="Group-62" transform="translate(0.000000, 22.597403)">
			<path id="Fill-59" class="st5" d="M145.9,9.1c-1.6,0-2.8-1.3-2.8-2.8c0-0.8,0.3-1.5,0.8-2c0.5-0.5,1.2-0.9,2.1-0.9
				c0.8,0,1.5,0.3,2.1,0.9c0.5,0.5,0.8,1.2,0.8,2C148.8,7.8,147.5,9.1,145.9,9.1z M145.9,0.8c-2.3,0-4.3,1.4-5.1,3.5
				c-0.2,0.6-0.4,1.3-0.4,2c0,3,2.4,5.5,5.5,5.5c3,0,5.4-2.4,5.4-5.5c0-0.7-0.1-1.4-0.4-2C150.2,2.2,148.2,0.8,145.9,0.8z"/>
			<polyline id="Fill-61" class="st8" points="119.3,16.8 0,16.8 0,21.3 299.3,21.3 299.3,16.8 119.3,16.8 			"/>
		</g>
	</g>
</g>
</svg>
