<svg width="23" height="18" viewBox="0 0 23 18" version="1.1" xmlns="http://www.w3.org/2000/svg" xmlns:xlink="http://www.w3.org/1999/xlink">
<title>twitter</title>
<desc>Created using Figma</desc>
<g id="Canvas" transform="translate(7887 1683)">
<g id="twitter">
<mask id="mask0_outline" mask-type="alpha">
<g id="Clip 2">
<use xlink:href="#path0_fill" transform="translate(-7886.17 -1682.94)" fill="#FFFFFF"/>
</g>
</mask>
<g id="Fill 1" mask="url(#mask0_outline)">
<use xlink:href="#path1_fill" transform="translate(-7886.17 -1682.94)" fill="#C7AD66"/>
</g>
</g>
</g>
<defs>
<path id="path0_fill" fill-rule="evenodd" d="M 0 17.2692L 21.3007 17.2692L 21.3007 0L 0 0L 0 17.2692Z"/>
<path id="path1_fill" fill-rule="evenodd" d="M 21.3054 2.04485C 20.5215 2.39168 19.679 2.62609 18.7948 2.73152C 19.6973 2.19179 20.3904 1.33719 20.7167 0.318922C 19.8722 0.818608 18.9367 1.18154 17.9411 1.37715C 17.1437 0.529619 16.0077 0 14.7506 0C 12.3365 0 10.3794 1.95248 10.3794 4.36073C 10.3794 4.70251 10.4181 5.03535 10.4926 5.3545C 6.85981 5.17265 3.63903 3.43654 1.48317 0.798238C 1.10692 1.4423 0.891366 2.1914 0.891366 2.99057C 0.891366 4.50347 1.66311 5.83825 2.83596 6.62024C 2.11939 6.59761 1.44545 6.40145 0.856064 6.07484C 0.855752 6.09303 0.855752 6.1113 0.855752 6.12965C 0.855752 8.24253 2.36246 10.0051 4.36207 10.4056C 3.99525 10.5053 3.60911 10.5586 3.21042 10.5586C 2.92878 10.5586 2.65493 10.5313 2.3881 10.4803C 2.94428 12.2129 4.55853 13.4736 6.47125 13.5089C 4.9753 14.6784 3.09056 15.3756 1.04271 15.3756C 0.689917 15.3756 0.341958 15.355 0 15.3147C 1.93439 16.552 4.232 17.2739 6.70044 17.2739C 14.7404 17.2739 19.1369 10.629 19.1369 4.8664C 19.1369 4.67732 19.1327 4.48924 19.1242 4.30226C 19.9782 3.68743 20.7193 2.91936 21.3054 2.04485Z"/>
</defs>
</svg>
