<svg width="20" height="20" viewBox="0 0 20 20" version="1.1" xmlns="http://www.w3.org/2000/svg" xmlns:xlink="http://www.w3.org/1999/xlink">
<title>upload-button</title>
<desc>Created using Figma</desc>
<g id="Canvas" transform="translate(6341 2562)">
<g id="upload-button">
<g id="Shape">
<use xlink:href="#path0_fill" transform="translate(-6341 -2562)" fill="#FFFFFF"/>
</g>
<g id="Shape">
<use xlink:href="#path1_fill" transform="translate(-6335.59 -2557.01)" fill="#FFFFFF"/>
</g>
</g>
</g>
<defs>
<path id="path0_fill" fill-rule="evenodd" d="M 15.0039 1.33984C 16.5342 2.23291 17.7461 3.44458 18.6392 4.9751C 19.5322 6.50537 19.9785 8.177 19.9785 9.9895C 19.9785 11.8015 19.5322 13.4731 18.6392 15.0037C 17.7461 16.5339 16.5342 17.7461 15.0039 18.6392C 13.4731 19.5322 11.8018 19.9788 9.98926 19.9788C 8.17725 19.9788 6.50586 19.5322 4.9751 18.6392C 3.44482 17.7456 2.23291 16.5339 1.33984 15.0037C 0.446777 13.4729 0 11.8018 0 9.9895C 0 8.17725 0.446289 6.50562 1.33984 4.9751C 2.2334 3.44458 3.44482 2.23291 4.97559 1.33984C 6.50586 0.446533 8.17725 0 9.98975 0C 11.8022 0 13.4731 0.446533 15.0039 1.33984ZM 13.5405 16.1157C 14.624 15.4824 15.4824 14.624 16.1157 13.5403C 16.7485 12.4563 17.0649 11.2727 17.0649 9.98926C 17.0649 8.70581 16.7485 7.52222 16.1157 6.43848C 15.4829 5.35449 14.624 4.49609 13.5405 3.86304C 12.4565 3.22998 11.2729 2.91357 9.98926 2.91357C 8.70605 2.91357 7.52246 3.22998 6.43848 3.86304C 5.35449 4.49585 4.49609 5.35449 3.86328 6.43848C 3.22998 7.52222 2.91357 8.70581 2.91357 9.98926C 2.91357 11.2727 3.22998 12.4563 3.86328 13.5403C 4.49609 14.624 5.35449 15.4824 6.43848 16.1157C 7.52246 16.7488 8.70605 17.0649 9.98926 17.0649C 11.2729 17.0649 12.4565 16.7488 13.5405 16.1157Z"/>
<path id="path1_fill" d="M 4.87759 0.117084C 4.782 0.0391344 4.68255 0 4.57845 0C 4.4744 0 4.37462 0.0391344 4.27927 0.117084L 0.130023 4.26633C 0.0432346 4.37025 0 4.47453 0 4.57845C 0 4.69991 0.0389522 4.79954 0.117084 4.87763C 0.195125 4.95567 0.294897 4.99462 0.416264 4.99462L 2.91358 4.99462L 2.91358 9.57321C 2.91358 9.69467 2.95253 9.79444 3.03066 9.87221C 3.10866 9.95016 3.20847 9.98916 3.32984 9.98916L 5.82733 9.98916C 5.94861 9.98916 6.04843 9.95016 6.12624 9.87221C 6.20419 9.79444 6.24346 9.69467 6.24346 9.57321L 6.24346 4.99462L 8.74073 4.99462C 8.93157 4.99462 9.06146 4.90793 9.1308 4.7344C 9.20018 4.56975 9.17007 4.418 9.03977 4.27923L 4.87759 0.117084Z"/>
</defs>
</svg>
