<svg width="20" height="21" viewBox="0 0 20 21" version="1.1" xmlns="http://www.w3.org/2000/svg" xmlns:xlink="http://www.w3.org/1999/xlink">
<title>Shape</title>
<desc>Created using Figma</desc>
<g id="Canvas" transform="translate(3383 3160)">
<rect x="-3383" y="-3160" width="20" height="21" fill="#FFFFFF"/>
<clipPath id="clip-0" clip-rule="evenodd">
<path d="M -3668 -3174L -3348 -3174L -3348 -2605L -3668 -2605L -3668 -3174Z" fill="#FFFFFF"/>
</clipPath>
<g id="Categories" clip-path="url(#clip-0)">
<path d="M -3668 -3174L -3348 -3174L -3348 -2605L -3668 -2605L -3668 -3174Z" fill="#FFFFFF"/>
<g id="header-sign-in">
<g id="Rectangle">
<use xlink:href="#path0_fill" transform="translate(-3668 -3174)" fill="#FFFFFF"/>
</g>
<g id="black-user-shape">
<g id="Shape">
<use xlink:href="#path1_fill" transform="translate(-3382.96 -3160)" fill="#BABABD"/>
</g>
</g>
</g>
</g>
</g>
<defs>
<path id="path0_fill" fill-rule="evenodd" d="M 0 0L 320 0L 320 84L 0 84L 0 0Z"/>
<path id="path1_fill" fill-rule="evenodd" d="M 4.65959 6.0542C 4.65959 9.53149 7.01287 12.3523 9.91716 12.3523C 12.8219 12.3523 15.1769 9.53149 15.1769 6.0542C 15.1769 2.57715 12.8219 0 9.91716 0C 7.01287 0 4.65959 2.57715 4.65959 6.0542ZM 0.132739 20.2634C 0.62395 20.9402 1.73894 20.8667 1.73894 20.8667L 18.2653 20.8667C 18.2653 20.8667 19.299 20.9546 19.7594 20.2922C 20.0175 19.9216 19.8244 19.1843 19.6359 18.7737L 19.1803 17.7803C 19.1803 17.7803 18.0717 14.9812 16.6718 13.3877C 15.8349 12.4363 14.9111 12.623 14.3041 12.927C 14.0336 13.0623 13.7433 13.3706 13.4799 13.6501C 13.3503 13.7878 13.2272 13.9185 13.1164 14.0181C 12.653 14.4338 11.8344 14.9065 10.4968 14.9331L 9.67546 14.9331C 8.33708 14.9065 7.51824 14.4338 7.05461 14.0181C 6.95159 13.9258 6.83708 13.8083 6.71599 13.6843C 6.44133 13.4026 6.13298 13.0867 5.85027 12.9509C 5.18889 12.6333 4.16643 12.4106 3.30681 13.3877C 1.9074 14.981 0.678149 17.7305 0.678149 17.7305L 0.233569 18.7434C 0.0521728 19.1567 -0.132642 19.8977 0.132739 20.2634Z"/>
</defs>
</svg>
