<svg width="19" height="19" viewBox="0 0 19 19" version="1.1" xmlns="http://www.w3.org/2000/svg" xmlns:xlink="http://www.w3.org/1999/xlink">
<title>Group</title>
<desc>Created using Figma</desc>
<g id="Canvas" transform="translate(-465 2805)">
<g id="Group">
<g id="Oval 2">
<use xlink:href="#path0_fill" transform="translate(466.295 -2803.7)" fill="#FFFFFF"/>
</g>
<g id="checked (1) 2">
<g id="Shape">
<use xlink:href="#path1_fill" transform="translate(465 -2805)" fill="#2FCBFD"/>
</g>
</g>
</g>
</g>
<defs>
<path id="path0_fill" fill-rule="evenodd" d="M 7.98864 15.9773C 12.4006 15.9773 15.9773 12.4006 15.9773 7.98864C 15.9773 3.57663 12.4006 0 7.98864 0C 3.57663 0 0 3.57663 0 7.98864C 0 12.4006 3.57663 15.9773 7.98864 15.9773Z"/>
<path id="path1_fill" fill-rule="evenodd" d="M 0 9.5C 0 4.23193 4.23181 0 9.5 0C 14.7682 0 19 4.23193 19 9.5C 19 14.7681 14.7682 19 9.5 19C 4.23181 19 0 14.7681 0 9.5ZM 8.07498 13.6887L 14.9841 6.52051C 15.1568 6.3479 15.1568 6.08862 14.9841 5.95923L 14.3795 5.35474C 14.2068 5.18188 13.9477 5.18188 13.775 5.35474L 13.7318 5.35474L 7.94543 11.3569C 7.85907 11.4434 7.72952 11.4434 7.64316 11.3569L 5.26816 8.80908L 5.22498 8.76611C 5.05228 8.59326 4.79318 8.59326 4.62045 8.76611L 4.0159 9.37061C 3.92953 9.45703 3.88635 9.58643 3.88635 9.67285C 3.88635 9.75928 3.92953 9.88867 4.0159 9.9751L 4.10226 10.0615L 7.47043 13.6887C 7.51361 13.7751 7.64316 13.8184 7.77271 13.8184C 7.90225 13.8184 7.98862 13.7751 8.07498 13.6887Z"/>
</defs>
</svg>
