<svg width="45" height="45" viewBox="0 0 45 45" version="1.1" xmlns="http://www.w3.org/2000/svg" xmlns:xlink="http://www.w3.org/1999/xlink">
<title>Group 7 Copy 4</title>
<desc>Created using Figma</desc>
<g id="Canvas" transform="translate(8314 2970)">
<g id="Group 7 Copy 4">
<g id="oman">
<g id="Rectangle-path">
<use xlink:href="#path0_fill" transform="translate(-8298.79 -2940.21)" fill="#259245"/>
</g>
<g id="Shape">
<use xlink:href="#path1_fill" transform="translate(-8313.36 -2969.36)" fill="#ED1F34"/>
</g>
<g id="Rectangle-path">
<use xlink:href="#path0_fill" transform="translate(-8298.79 -2969.36)" fill="#FFFFFF"/>
</g>
<g id="Shape">
<use xlink:href="#path2_fill" transform="translate(-8308.51 -2964.11)" fill="#FFFFFF"/>
</g>
</g>
</g>
</g>
<defs>
<path id="path0_fill" d="M 0 0L 29.1463 0L 29.1463 14.5731L 0 14.5731L 0 0Z"/>
<path id="path1_fill" d="M 43.7193 14.5731L 14.5731 14.5731L 14.5731 0L 0 0L 0 43.7193L 14.5731 43.7193L 14.5731 29.1462L 43.7193 29.1462L 43.7193 14.5731Z"/>
<path id="path2_fill" d="M 4.68787 0.187603C 4.43782 -0.0624463 4.03229 -0.0624463 3.78215 0.187603L 2.43769 1.53215L 1.09323 0.187603C 0.843179 -0.0625342 0.437651 -0.0625342 0.187603 0.187603C -0.0625342 0.437651 -0.0625342 0.843179 0.187603 1.09332L 1.53207 2.43787L 0.187603 3.78242C -0.0625342 4.03247 -0.0625342 4.43799 0.187603 4.68813C 0.312671 4.8132 0.476499 4.87569 0.640415 4.87569C 0.804331 4.87569 0.968247 4.81311 1.09323 4.68813L 2.43778 3.34358L 3.78224 4.68813C 3.90731 4.8132 4.07114 4.87569 4.23505 4.87569C 4.39888 4.87569 4.56289 4.81311 4.68787 4.68813C 4.938 4.43808 4.938 4.03255 4.68787 3.78242L 3.34332 2.43787L 4.68787 1.09332C 4.938 0.843179 4.938 0.437739 4.68787 0.187603Z"/>
</defs>
</svg>
