<svg width="44" height="44" viewBox="0 0 44 44" version="1.1" xmlns="http://www.w3.org/2000/svg" xmlns:xlink="http://www.w3.org/1999/xlink">
<title>Group</title>
<desc>Created using Figma</desc>
<g id="Canvas" transform="translate(8397 3049)">
<g id="Group">
<g id="Rectangle-path">
<use xlink:href="#path0_fill" transform="translate(-8397 -3049)" fill="#259245"/>
</g>
<g id="Shape">
<use xlink:href="#path1_fill" transform="translate(-8383.38 -3024.02)" fill="#FFFFFF"/>
</g>
<g id="Shape">
<use xlink:href="#path2_fill" transform="translate(-8380.13 -3035.94)" fill="#FFFFFF"/>
</g>
<g id="Shape">
<use xlink:href="#path3_fill" transform="translate(-8385.92 -3035.94)" fill="#FFFFFF"/>
</g>
<g id="Shape">
<use xlink:href="#path4_fill" transform="translate(-8367.95 -3035.94)" fill="#FFFFFF"/>
</g>
<g id="Shape">
<use xlink:href="#path5_fill" transform="translate(-8377.8 -3034.92)" fill="#FFFFFF"/>
</g>
<g id="Shape">
<use xlink:href="#path6_fill" transform="translate(-8370.28 -3035.62)" fill="#FFFFFF"/>
</g>
<g id="Shape">
<use xlink:href="#path7_fill" transform="translate(-8380.13 -3031.82)" fill="#FFFFFF"/>
</g>
<g id="Shape">
<use xlink:href="#path8_fill" transform="translate(-8368.16 -3035.62)" fill="#FFFFFF"/>
</g>
<g id="Shape">
<use xlink:href="#path9_fill" transform="translate(-8384.79 -3035.94)" fill="#FFFFFF"/>
</g>
</g>
</g>
<defs>
<path id="path0_fill" d="M 0 0L 43.7194 0L 43.7194 43.7194L 0 43.7194L 0 0Z"/>
<path id="path1_fill" d="M 15.558 1.45178L 14.1089 1.45178L 14.1089 0.640459C 14.1089 0.286787 13.8222 0 13.4685 0C 13.1149 0 12.8281 0.286699 12.8281 0.640459L 12.8281 1.45178L 0.640459 1.45178C 0.286787 1.45178 0 1.73848 0 2.09215C 0 2.44582 0.286699 2.73261 0.640459 2.73261L 12.8281 2.73261L 12.8281 3.54401C 12.8281 3.89769 13.1148 4.18438 13.4685 4.18438C 13.8223 4.18438 14.1089 3.89769 14.1089 3.54401L 14.1089 2.73261L 14.9175 2.73261L 14.9175 2.87692C 14.9175 3.2306 15.2042 3.51729 15.5579 3.51729C 15.9115 3.51729 16.1982 3.2306 16.1982 2.87692L 16.1982 2.09215C 16.1983 1.73856 15.9116 1.45178 15.558 1.45178Z"/>
<path id="path2_fill" d="M 0.640371 4.00386C 0.994043 4.00386 1.28074 3.71716 1.28074 3.36349L 1.28074 0.640459C 1.28074 0.286787 0.994043 0 0.640371 0C 0.286699 0 0 0.286699 0 0.640459L 0 3.36349C 0 3.71716 0.286699 4.00386 0.640371 4.00386Z"/>
<path id="path3_fill" d="M 4.70435 6.2129L 6.43491 6.2129C 6.78859 6.2129 7.07529 5.9262 7.07529 5.57244C 7.07529 5.21868 6.78859 4.93207 6.43491 4.93207L 4.7446 4.93207L 4.7446 0.640459C 4.7446 0.286787 4.4579 0 4.10423 0C 3.75056 0 3.46386 0.286699 3.46386 0.640459L 3.46386 5.75437C 3.46386 6.51894 2.84186 7.14094 2.0773 7.14094C 2.04873 7.14094 2.02034 7.14287 1.99222 7.14656C 1.65287 7.12397 1.33752 6.97966 1.09714 6.73506C 0.849202 6.48281 0.443762 6.4793 0.191516 6.72715C -0.0607299 6.97509 -0.0642456 7.38053 0.183606 7.63277C 0.683001 8.14096 1.35044 8.42423 2.06288 8.43029C 2.06473 8.43038 2.06657 8.43038 2.06842 8.43038C 2.10823 8.43038 2.14761 8.42669 2.18611 8.41948C 3.45173 8.36842 4.49227 7.43106 4.70435 6.2129Z"/>
<path id="path4_fill" d="M 2.67616 0C 2.32248 0 2.03578 0.286699 2.03578 0.640459L 2.03578 5.75437C 2.03578 6.51894 1.41378 7.14094 0.649222 7.14094C 0.480472 7.14094 0.31849 7.20756 0.198519 7.3263L 0.18973 7.335C -0.0615491 7.58391 -0.0634827 7.98935 0.185424 8.24063C 0.310668 8.3671 0.475551 8.43038 0.640433 8.43038C 0.679984 8.43038 0.719535 8.42678 0.758558 8.41948C 2.17887 8.36191 3.31661 7.18849 3.31661 5.75429L 3.31661 0.640371C 3.31661 0.286699 3.02983 0 2.67616 0Z"/>
<path id="path5_fill" d="M 0.640371 2.04029C 1.1105 2.04029 1.56313 1.8762 1.93852 1.58247C 2.3139 1.8762 2.76627 2.04029 3.23596 2.04029C 3.70556 2.04029 4.15819 1.87611 4.53375 1.58221C 4.90913 1.87611 5.36177 2.04029 5.83154 2.04029C 6.18521 2.04029 6.47191 1.75359 6.47191 1.39992C 6.47191 1.04625 6.18521 0.759463 5.83154 0.759463C 5.53834 0.759463 5.26201 0.590361 5.07357 0.295488C 4.95589 0.111445 4.7526 8.78906e-05 4.53419 0C 4.5341 0 4.5341 0 4.53401 0C 4.31569 0 4.1124 0.11127 3.99463 0.295137C 3.80566 0.590273 3.52916 0.759463 3.23596 0.759463C 2.94275 0.759463 2.66643 0.590361 2.47799 0.295488C 2.3603 0.111445 2.15684 0 1.93834 0C 1.93825 0 1.93825 0 1.93816 0C 1.71958 8.78906e-05 1.51611 0.111621 1.3986 0.29584C 1.21052 0.590449 0.934189 0.759463 0.640371 0.759463C 0.286699 0.759463 0 1.04616 0 1.39992C 0 1.75368 0.286699 2.04029 0.640371 2.04029Z"/>
<path id="path6_fill" d="M 0.640459 8.11257C 0.994131 8.11257 1.28083 7.82587 1.28083 7.47211L 1.28083 0.640371C 1.28083 0.286699 0.994131 0 0.640459 0C 0.286787 0 0 0.286699 0 0.640371L 0 7.47211C -4.996e-15 7.82578 0.286699 8.11257 0.640459 8.11257Z"/>
<path id="path7_fill" d="M 8.16223 1.28083C 8.51591 1.28083 8.8026 0.994131 8.8026 0.640459C 8.8026 0.286787 8.51591 0 8.16223 0L 4.66621 0C 4.31254 0 4.02575 0.286699 4.02575 0.640459L 4.02575 1.63837C 4.02575 2.40293 3.40375 3.02493 2.63919 3.02493C 2.60456 3.02493 2.57019 3.02774 2.53644 3.03319L 0.64319 3.02493C 0.642223 3.02493 0.641344 3.02493 0.640378 3.02493C 0.287936 3.02493 0.00150068 3.30979 6.54391e-06 3.66258C -0.00157549 4.01625 0.283893 4.30427 0.637653 4.30576L 2.62767 4.31446C 2.62864 4.31446 2.62952 4.31446 2.63049 4.31446C 2.6703 4.31446 2.70959 4.31077 2.74817 4.30356C 3.51475 4.27263 4.19863 3.91623 4.66621 3.36964C 5.1337 3.91623 5.8174 4.27254 6.58381 4.30356C 6.62283 4.31086 6.66238 4.31446 6.70193 4.31446C 6.86681 4.31446 7.0317 4.25118 7.15694 4.12471C 7.40585 3.87343 7.40391 3.46799 7.15263 3.21908L 7.14384 3.21038C 7.02396 3.09155 6.86198 3.02502 6.69314 3.02502C 5.92858 3.02502 5.30658 2.40302 5.30658 1.63846L 5.30658 1.28101L 8.16223 1.28101L 8.16223 1.28083Z"/>
<path id="path8_fill" d="M 0.640459 2.74816C 0.994131 2.74816 1.28083 2.46146 1.28083 2.10779L 1.28083 0.640371C 1.28083 0.286699 0.994131 0 0.640459 0C 0.286787 0 0 0.286699 0 0.640371L 0 2.10779C 8.78906e-05 2.46146 0.286787 2.74816 0.640459 2.74816Z"/>
<path id="path9_fill" d="M 0.640371 5.39684C 0.994043 5.39684 1.28083 5.11014 1.28083 4.75646L 1.28083 0.640459C 1.28083 0.286787 0.994131 0 0.640371 0C 0.286611 0 0 0.286699 0 0.640459L 0 4.75646C 0 5.11014 0.286699 5.39684 0.640371 5.39684Z"/>
</defs>
</svg>
