<svg width="40" height="37" viewBox="0 0 40 37" version="1.1" xmlns="http://www.w3.org/2000/svg" xmlns:xlink="http://www.w3.org/1999/xlink">
<title>Slice</title>
<desc>Created using Figma</desc>
<g id="Canvas" transform="translate(9085 2914)">
<rect x="-9085" y="-2914" width="40" height="37" fill="#FFFFFF"/>
<g id="globe">
<g id="Oval">
<use xlink:href="#path0_fill" transform="translate(-9095 -2925)" fill="#5FD9FD"/>
</g>
<g id="Group">
<g id="Shape">
<use xlink:href="#path1_fill" transform="translate(-9090.04 -2925)" fill="#2EAD62"/>
</g>
<g id="Shape">
<use xlink:href="#path2_fill" transform="translate(-9060.53 -2903.22)" fill="#2EAD62"/>
</g>
</g>
</g>
</g>
<defs>
<path id="path0_fill" d="M 29.5 56C 45.7924 56 59 43.464 59 28C 59 12.536 45.7924 0 29.5 0C 13.2076 0 0 12.536 0 28C 0 43.464 13.2076 56 29.5 56Z"/>
<path id="path1_fill" d="M 42.0325 5.54197L 41.829 5.79298L 34.5659 8.20678C 33.4392 9.08118 32.3787 10.0298 31.3921 11.0454C 31.0259 11.644 28.615 12.5516 28.615 12.5516C 28.615 12.5516 21.2807 13.0344 20.4568 13.5751C 19.643 14.1158 19.7142 17.2731 19.7142 17.2731L 22.5015 22.3711C 22.7081 22.7285 23.1768 22.8654 23.5594 22.68C 23.9765 22.4773 24.4139 22.2262 24.8513 22.0138C 25.3795 21.6673 26.0273 21.5257 26.662 21.6179C 27.0899 21.7335 27.4197 22.0577 27.5266 22.4676C 27.5415 22.9418 27.3282 23.3968 26.9469 23.7035C 26.2247 24.447 25.5227 25.2001 24.8106 25.9725C 24.0782 26.7739 23.3559 27.5656 22.6235 28.3669C 22.4811 28.531 22.3285 28.6856 22.186 28.8497C 21.6311 29.5918 21.3947 30.5067 21.5248 31.4083L 21.6265 32.0649C 21.7625 32.9816 21.5101 33.912 20.9246 34.6525L 18.9105 37.2401C 18.7763 37.4053 18.6604 37.5833 18.5646 37.7711L 16.3674 41.9905C 16.2169 42.2926 15.8956 42.4847 15.5435 42.4829L 13.4887 42.4829C 13.183 42.4812 12.904 42.3172 12.7665 42.0581C 12.5957 41.7126 12.6643 41.3032 12.9394 41.025L 13.1429 40.8416C 13.3755 40.6225 13.4684 40.3028 13.3871 40.0016L 11.4441 32.5381C 11.4339 32.5091 11.4339 32.4801 11.4237 32.4512L 10.0301 28.8884C 9.92857 28.6323 9.87688 28.3607 9.87746 28.087L 9.87746 27.9132C 9.88133 27.048 9.36919 26.2553 8.55509 25.8663L 8.43306 25.8083C 8.02267 25.608 7.55906 25.5273 7.10049 25.5766L 4.36408 25.8662C 3.58081 25.9528 2.80434 25.6587 2.29911 25.0842L 0.569751 23.1434C 0.202966 22.7298 0.00122797 22.2068 5.57553e-05 21.6662L 5.57553e-05 19.9573C -0.00428143 19.3539 0.244579 18.7738 0.691778 18.3449L 2.90937 16.2111C 3.04452 16.0791 3.16397 15.9335 3.26537 15.7766L 3.98757 14.618C 4.41085 13.9334 5.1858 13.5141 6.02206 13.5173L 8.96185 13.5173C 9.63622 13.5123 10.2792 13.7874 10.7217 14.2704C 11.1731 14.7406 11.8113 15.0102 12.4815 15.0138L 13.5699 15.0138L 14.5058 12.069C 13.8109 11.4662 13.2356 10.75 12.8071 9.95446C 12.3595 8.93098 9.83667 7.96546 9.20602 7.9076C 8.17436 7.39892 7.22533 6.75182 6.38826 5.98624L 6.31711 5.89934C 16.7785 -1.82805 31.3871 -1.97814 42.0223 5.5324L 42.0325 5.54197Z"/>
<path id="path2_fill" d="M 24.4127 6.22241C 24.4198 17.0465 17.8468 26.9029 7.53676 31.5286L 3.65088 23.7078C 3.5986 23.5884 3.57093 23.4606 3.56953 23.3313L 3.56953 21.5355C 3.57211 21.1586 3.32313 20.8216 2.94896 20.6954L 1.17892 20.1064C 1.03661 20.0571 0.907904 19.9779 0.802522 19.8747L 0.243025 19.305C 0.0290964 19.0822 -0.0504967 18.7712 0.0319098 18.48C 0.114316 18.1888 0.347235 17.9575 0.650017 17.8663L 4.83083 16.669C 5.12857 16.5882 5.44905 16.6454 5.69545 16.8234L 8.51322 18.9572C 8.6819 19.0818 8.88949 19.1498 9.10319 19.1504L 10.7715 19.1504C 11.088 19.1559 11.3857 19.0078 11.5608 18.7575C 11.736 18.5072 11.7643 18.1893 11.6362 17.9146L 9.20505 13.0194C 9.09381 12.7969 9.08795 12.5399 9.189 12.313C 9.29004 12.0862 9.48838 11.9111 9.73407 11.8318L 10.5275 11.5712C 10.9971 11.419 11.2541 10.9398 11.1073 10.4898L 10.2732 7.94083C 9.86864 6.72753 10.0472 5.40676 10.7614 4.32975L 11.0971 3.82763C 11.271 3.56506 11.574 3.40484 11.9008 3.40284L 13.0401 3.40284C 13.2858 3.40618 13.5228 3.31639 13.6985 3.15317C 13.8742 2.99006 13.9741 2.76709 13.976 2.53389L 13.976 1.54901C 13.9772 1.10241 14.3321 0.728128 14.7999 0.680064L 20.0488 0.0235137C 20.6155 -0.0494734 21.192 0.0484361 21.6967 0.303557L 22.1036 0.506274C 22.4651 0.689187 22.8644 0.794662 23.2735 0.815245L 23.8634 0.834605C 24.2323 2.60921 24.4164 4.41375 24.4127 6.22241L 24.4127 6.22241Z"/>
</defs>
</svg>
