<svg width="56" height="56" viewBox="0 0 56 56" version="1.1" xmlns="http://www.w3.org/2000/svg" xmlns:xlink="http://www.w3.org/1999/xlink">
<title>Group 13</title>
<desc>Created using Figma</desc>
<g id="Canvas" transform="translate(1907 -33)">
<g id="Group 13">
<g id="Group 9">
<g id="Rectangle Copy">
<use xlink:href="#path0_fill" transform="translate(-1907 33)" fill="#4468B0"/>
</g>
<g id="Group 12">
<g id="facebook-logo">
<g id="Shape">
<use xlink:href="#path1_fill" transform="translate(-1886.37 47.2852)" fill="#FFFFFF"/>
</g>
</g>
</g>
</g>
</g>
</g>
<defs>
<path id="path0_fill" fill-rule="evenodd" d="M 0 27.7767C 0 12.436 12.436 0 27.7767 0C 43.1173 0 55.5533 12.436 55.5533 27.7767C 55.5533 43.1173 43.1173 55.5533 27.7767 55.5533C 12.436 55.5533 0 43.1173 0 27.7767Z"/>
<path id="path1_fill" d="M 13.1973 0.00544463L 9.90802 0C 6.2126 0 3.82446 2.52767 3.82446 6.4399L 3.82446 9.40913L 0.517211 9.40913C 0.231425 9.40913 0 9.64815 0 9.94298L 0 14.245C 0 14.5399 0.231689 14.7786 0.517211 14.7786L 3.82446 14.7786L 3.82446 25.6341C 3.82446 25.9289 4.05588 26.1677 4.34167 26.1677L 8.65668 26.1677C 8.94247 26.1677 9.17389 25.9287 9.17389 25.6341L 9.17389 14.7786L 13.0408 14.7786C 13.3266 14.7786 13.558 14.5399 13.558 14.245L 13.5596 9.94298C 13.5596 9.80141 13.505 9.66584 13.4082 9.56566C 13.3113 9.46548 13.1794 9.40913 13.0422 9.40913L 9.17389 9.40913L 9.17389 6.89208C 9.17389 5.68228 9.45335 5.06813 10.981 5.06813L 13.1968 5.06731C 13.4823 5.06731 13.7137 4.82829 13.7137 4.53374L 13.7137 0.539018C 13.7137 0.244736 13.4826 0.00598909 13.1973 0.00544463Z"/>
</defs>
</svg>
