<svg width="11" height="21" viewBox="0 0 11 21" version="1.1" xmlns="http://www.w3.org/2000/svg" xmlns:xlink="http://www.w3.org/1999/xlink">
<title>facebook-logo</title>
<desc>Created using Figma</desc>
<g id="Canvas" transform="translate(7539 2900)">
<g id="facebook-logo">
<g id="Shape">
<use xlink:href="#path0_fill" transform="translate(-7539 -2900)" fill="#FFFFFF"/>
</g>
</g>
</g>
<defs>
<path id="path0_fill" d="M 10.1623 0.00419253L 7.62948 0C 4.78389 0 2.94495 1.94638 2.94495 4.95892L 2.94495 7.24532L 0.398268 7.24532C 0.178205 7.24532 0 7.42937 0 7.6564L 0 10.9691C 0 11.1961 0.178408 11.38 0.398268 11.38L 2.94495 11.38L 2.94495 19.7391C 2.94495 19.9661 3.12315 20.1499 3.34322 20.1499L 6.66591 20.1499C 6.88598 20.1499 7.06418 19.9659 7.06418 19.7391L 7.06418 11.38L 10.0418 11.38C 10.2619 11.38 10.4401 11.1961 10.4401 10.9691L 10.4413 7.6564C 10.4413 7.54739 10.3993 7.443 10.3247 7.36585C 10.2501 7.28871 10.1485 7.24532 10.0429 7.24532L 7.06418 7.24532L 7.06418 5.30711C 7.06418 4.37553 7.27937 3.90262 8.45568 3.90262L 10.1619 3.90199C 10.3818 3.90199 10.56 3.71794 10.56 3.49112L 10.56 0.41506C 10.56 0.188454 10.382 0.00461178 10.1623 0.00419253Z"/>
</defs>
</svg>
