<svg width="22" height="17" viewBox="0 0 22 17" version="1.1" xmlns="http://www.w3.org/2000/svg" xmlns:xlink="http://www.w3.org/1999/xlink">
<title>gmail</title>
<desc>Created using Figma</desc>
<g id="Canvas" transform="translate(7537 2941)">
<g id="gmail">
<g id="Rectangle-path">
<use xlink:href="#path0_fill" transform="translate(-7534.25 -2941)" fill="#ECEFF1"/>
</g>
<g id="Shape">
<use xlink:href="#path1_fill" transform="translate(-7526 -2937.36)" fill="#CFD8DC"/>
</g>
<g id="Shape">
<use xlink:href="#path2_fill" transform="translate(-7537 -2941)" fill="#F44336"/>
</g>
</g>
</g>
<defs>
<path id="path0_fill" d="M 0 0L 16.5 0L 16.5 16.5L 0 16.5L 0 0Z"/>
<path id="path1_fill" d="M 0 6.347L 8.25 12.8617L 8.25 0L 0 6.347Z"/>
<path id="path2_fill" d="M 19.9375 0L 19.25 0L 11 6.51475L 2.75 0L 2.0625 0C 0.924 0 0 0.924 0 2.0625L 0 14.4375C 0 15.576 0.924 16.5 2.0625 16.5L 2.75 16.5L 2.75 3.63825L 11 9.98388L 19.25 3.63687L 19.25 16.5L 19.9375 16.5C 21.076 16.5 22 15.576 22 14.4375L 22 2.0625C 22 0.924 21.076 0 19.9375 0Z"/>
</defs>
</svg>
