<svg width="57" height="56" viewBox="0 0 57 56" version="1.1" xmlns="http://www.w3.org/2000/svg" xmlns:xlink="http://www.w3.org/1999/xlink">
<title>Group 5</title>
<desc>Created using Figma</desc>
<g id="Canvas" transform="translate(1778 -33)">
<g id="Group 5">
<g id="Group 13 Copy 2">
<g id="Rectangle Copy">
<use xlink:href="#path0_fill" transform="translate(-1777.38 33)" fill="#117BB7"/>
</g>
<g id="linkedin-logo (1)">
<g id="LinkedIn">
<use xlink:href="#path1_fill" transform="translate(-1761.5 50.4901)" fill="#FFFFFF"/>
</g>
</g>
</g>
</g>
</g>
<defs>
<path id="path0_fill" fill-rule="evenodd" d="M 0 27.7767C 0 12.436 12.436 0 27.7767 0C 43.1173 0 55.5533 12.436 55.5533 27.7767C 55.5533 43.1173 43.1173 55.5533 27.7767 55.5533C 12.436 55.5533 0 43.1173 0 27.7767Z"/>
<path id="path1_fill" fill-rule="evenodd" d="M 2.87842 0C 1.13831 0 0 1.12937 0 2.61453C 0 4.06732 1.10535 5.23097 2.81091 5.23097L 2.84497 5.23097C 4.6189 5.23097 5.72205 4.06754 5.72205 2.61453C 5.6886 1.12937 4.6189 0 2.87842 0ZM 23.7257 13.7527L 23.7257 22.4314L 18.6405 22.4314L 18.6405 14.3339C 18.6405 12.2998 17.905 10.9115 16.0643 10.9115C 14.6592 10.9115 13.823 11.8471 13.4552 12.7521C 13.321 13.0756 13.2865 13.526 13.2865 13.9788L 13.2865 22.4314L 8.19958 22.4314C 8.19958 22.4314 8.26807 8.71693 8.19958 7.29601L 13.286 7.29601L 13.286 9.44139C 13.2811 9.44893 13.2756 9.45674 13.2701 9.46451L 13.2694 9.4656C 13.2634 9.47403 13.2574 9.48239 13.2526 9.4903L 13.286 9.4903L 13.286 9.44139C 13.9618 8.41158 15.1686 6.94044 17.87 6.94044C 21.2168 6.94039 23.7257 9.10367 23.7257 13.7527ZM 5.38708 22.4314L 0.302124 22.4314L 0.302124 7.29601L 5.38708 7.29601L 5.38708 22.4314Z"/>
</defs>
</svg>
