<svg width="57" height="56" viewBox="0 0 57 56" version="1.1" xmlns="http://www.w3.org/2000/svg" xmlns:xlink="http://www.w3.org/1999/xlink">
<title>Group 8</title>
<desc>Created using Figma</desc>
<g id="Canvas" transform="translate(1843 -33)">
<g id="Group 8">
<g id="Group 13 Copy">
<g id="Rectangle Copy">
<use xlink:href="#path0_fill" transform="translate(-1842.19 33)" fill="#59ADEC"/>
</g>
</g>
<g id="twitter-logo-silhouette">
<g id="Shape">
<use xlink:href="#path1_fill" transform="translate(-1827.9 50.4596)" fill="#FFFFFF"/>
</g>
</g>
</g>
</g>
<defs>
<path id="path0_fill" fill-rule="evenodd" d="M 0 27.7767C 0 12.436 12.436 0 27.7767 0C 43.1173 0 55.5533 12.436 55.5533 27.7767C 55.5533 43.1173 43.1173 55.5533 27.7767 55.5533C 12.436 55.5533 0 43.1173 0 27.7767Z"/>
<path id="path1_fill" d="M 26.7132 2.56731C 25.73 3.00297 24.6751 3.29843 23.5666 3.43034C 24.6984 2.7526 25.5648 1.67761 25.9754 0.400612C 24.9137 1.02824 23.7419 1.48398 22.4933 1.73104C 21.4934 0.664383 20.0712 0 18.4937 0C 15.4673 0 13.0135 2.45382 13.0135 5.47853C 13.0135 5.90752 13.0619 6.3265 13.1554 6.72716C 8.60167 6.49844 4.56373 4.31672 1.8612 1.00153C 1.38878 1.80947 1.12004 2.7509 1.12004 3.75583C 1.12004 5.65714 2.08822 7.33475 3.55718 8.31625C 2.6591 8.28622 1.81445 8.03916 1.07499 7.62851L 1.07499 7.69695C 1.07499 10.3511 2.9646 12.5662 5.47015 13.0703C 5.01109 13.1939 4.52702 13.2623 4.02624 13.2623C 3.67237 13.2623 3.33017 13.2273 2.99464 13.1605C 3.69237 15.3389 5.71555 16.923 8.11263 16.9664C 6.23803 18.4354 3.87434 19.3084 1.30703 19.3084C 0.864689 19.3084 0.428984 19.2817 0 19.2333C 2.42545 20.7907 5.30494 21.6988 8.39975 21.6988C 18.4804 21.6988 23.9907 13.3491 23.9907 6.10786L 23.9723 5.39844C 25.049 4.63052 25.9804 3.6657 26.7132 2.56731Z"/>
</defs>
</svg>
