<svg width="56" height="56" viewBox="0 0 56 56" version="1.1" xmlns="http://www.w3.org/2000/svg" xmlns:xlink="http://www.w3.org/1999/xlink">
<title>Group 4</title>
<desc>Created using Figma</desc>
<g id="Canvas" transform="translate(1713 -33)">
<g id="Group 4">
<g id="Group 13 Copy 3">
<g id="Rectangle Copy">
<use xlink:href="#path0_fill" transform="translate(-1712.56 33)" fill="#33D26A"/>
</g>
</g>
<g id="whatsapp">
<g id="XMLID_469_">
<use xlink:href="#path1_fill" transform="translate(-1691.19 54.2629)" fill="#FFFFFF"/>
</g>
<g id="XMLID_470_">
<use xlink:href="#path2_fill" transform="translate(-1698.28 47.2852)" fill="#FFFFFF"/>
</g>
</g>
</g>
</g>
<defs>
<path id="path0_fill" fill-rule="evenodd" d="M 0 27.7767C 0 12.436 12.436 0 27.7767 0C 43.1173 0 55.5533 12.436 55.5533 27.7767C 55.5533 43.1173 43.1173 55.5533 27.7767 55.5533C 12.436 55.5533 0 43.1173 0 27.7767Z"/>
<path id="path1_fill" d="M 12.8795 8.52708C 12.8269 8.50185 10.8598 7.53318 10.5102 7.40737C 10.3675 7.35612 10.2147 7.3061 10.0521 7.3061C 9.78644 7.3061 9.5633 7.43847 9.38949 7.69849C 9.19298 7.99057 8.59813 8.68591 8.41433 8.89363C 8.39033 8.92105 8.35756 8.95382 8.33794 8.95382C 8.32033 8.95382 8.01589 8.82845 7.92373 8.78841C 5.81353 7.87178 4.21181 5.66749 3.99218 5.29577C 3.96081 5.24233 3.9595 5.21807 3.95924 5.21807C 3.96695 5.18977 4.03791 5.11863 4.07453 5.08192C 4.18167 4.97592 4.29775 4.83619 4.41006 4.70101C 4.46324 4.63697 4.51651 4.57284 4.56881 4.51239C 4.73176 4.32281 4.8043 4.17563 4.8884 4.00514L 4.93247 3.91657C 5.13782 3.50858 4.96243 3.16429 4.90575 3.05311C 4.85923 2.96008 4.02862 0.955445 3.94031 0.744837C 3.72795 0.236627 3.44735 0 3.05741 0C 3.02123 0 3.05741 0 2.90567 0.00639533C 2.72091 0.0141924 1.71474 0.146655 1.26987 0.427086C 0.798102 0.724512 0 1.6726 0 3.33994C 0 4.84057 0.952291 6.25744 1.36115 6.79631C 1.37132 6.80989 1.38998 6.83749 1.41705 6.87709C 2.98285 9.16381 4.93483 10.8585 6.91362 11.649C 8.81864 12.4099 9.72073 12.4979 10.2336 12.4979C 10.2337 12.4979 10.2337 12.4979 10.2337 12.4979C 10.4492 12.4979 10.6217 12.481 10.7739 12.466L 10.8704 12.4568C 11.5285 12.3984 12.9747 11.6491 13.3037 10.7349C 13.5628 10.0148 13.6312 9.22812 13.4588 8.9426C 13.3407 8.74847 13.1372 8.65078 12.8795 8.52708Z"/>
<path id="path2_fill" fill-rule="evenodd" d="M 0.477761 13.1536C 0.477761 5.9007 6.4232 0 13.7311 0C 21.0382 0 26.983 5.9007 26.983 13.1536C 26.983 20.4058 21.0382 26.3058 13.7311 26.3058C 11.5395 26.3058 9.374 25.7654 7.45811 24.7417L 0.45652 26.9666C 0.421608 26.9777 0.385842 26.983 0.350441 26.983C 0.25779 26.983 0.167092 26.9463 0.100319 26.878C 0.00766792 26.7837 -0.0238262 26.6453 0.0185322 26.5201L 2.29478 19.8055C 1.10557 17.7958 0.477761 15.4995 0.477761 13.1536ZM 7.95445 21.8437C 9.67149 22.9704 11.6688 23.5658 13.7309 23.5658C 19.5188 23.5658 24.2274 18.895 24.2273 13.1536C 24.2273 7.41158 19.5185 2.74001 13.7309 2.74001C 7.94248 2.74001 3.23325 7.41158 3.23325 13.1536C 3.23325 15.3606 3.92442 17.4713 5.23179 19.2578C 5.29929 19.35 5.3176 19.4692 5.28098 19.5773L 4.14878 22.9177L 7.65611 21.8028C 7.6909 21.7918 7.72666 21.7864 7.76231 21.7864C 7.82969 21.7864 7.89671 21.8058 7.95445 21.8437Z"/>
</defs>
</svg>
