<svg width="26" height="26" xmlns="http://www.w3.org/2000/svg">

 <g>
  <title>background</title>
  <rect fill="none" id="canvas_background" height="402" width="582" y="-1" x="-1"/>
 </g>
 <g>
  <title>Layer 1</title>
  <path id="svg_1" fill="#C6AC65" d="m24.97266,16.12524c-0.01001,-0.05291 -0.01166,-0.10882 -0.03217,-0.15716c-0.00006,-0.00006 0,-0.00025 -0.00006,-0.00031l-4.5791,-10.79492c-0.00482,-0.01147 -0.01483,-0.01849 -0.02014,-0.0296c-0.02002,-0.04163 -0.04792,-0.0755 -0.07489,-0.11224c-0.0224,-0.03089 -0.03772,-0.06556 -0.06488,-0.0929c-0.0113,-0.01141 -0.02423,-0.01947 -0.0362,-0.03003c-0.03186,-0.02826 -0.06927,-0.04632 -0.10547,-0.06885c-0.01916,-0.0119 -0.0365,-0.02679 -0.05664,-0.03692c-0.01458,-0.00733 -0.02398,-0.02045 -0.03924,-0.02692c-0.00092,-0.00043 -0.00196,-0.00024 -0.00287,-0.00061c-0.01337,-0.00562 -0.02753,-0.0069 -0.0412,-0.01178c-0.03809,-0.01355 -0.07867,-0.01587 -0.11908,-0.02313c-0.05579,-0.01001 -0.1098,-0.02063 -0.16736,-0.01758c-0.01166,0.00055 -0.02203,-0.00464 -0.03375,-0.00354l-4.80249,0.45898c-0.32312,-0.67089 -1.00385,-1.13867 -1.79712,-1.13867c-0.92743,0 -1.70197,0.63758 -1.92737,1.49494l-4.81482,0.46014c-0.03558,0.00348 -0.06451,0.02179 -0.09833,0.02991c-0.03906,0.00928 -0.07946,0.01086 -0.11645,0.02618c-0.00385,0.00159 -0.00793,0.00086 -0.01178,0.0025c-0.01025,0.00446 -0.01642,0.01355 -0.02643,0.01844c-0.04089,0.01989 -0.07409,0.0476 -0.11029,0.07409c-0.03168,0.02295 -0.06592,0.03998 -0.09381,0.06794c-0.01062,0.01068 -0.01916,0.02209 -0.02911,0.03332c-0.03077,0.03467 -0.0503,0.07544 -0.07422,0.11524c-0.0174,0.02874 -0.04303,0.04992 -0.05677,0.0816l-4.5791,10.57617c-0.00042,0.00104 -0.00024,0.00214 -0.00067,0.00318c-0.01654,0.03857 -0.01666,0.08349 -0.02655,0.125c-0.01318,0.05603 -0.03369,0.11138 -0.03381,0.16741c0,0.0008 -0.00049,0.00147 -0.00049,0.00226c0,2.94043 2.39063,5.33301 5.3291,5.33301c2.93897,0 5.32959,-2.39258 5.32959,-5.33301c0,-0.00079 -0.00049,-0.00146 -0.00049,-0.00226c-0.00012,-0.05603 -0.02063,-0.11138 -0.03381,-0.16741c-0.00989,-0.04151 -0.01001,-0.08643 -0.02655,-0.125c-0.00043,-0.00104 -0.00024,-0.00214 -0.00067,-0.00318l-4.16962,-9.62939l3.84192,-0.36719c0.3446,0.60351 0.987,1.01611 1.73053,1.01611c0.8786,0 1.61804,-0.57312 1.88605,-1.36206l3.60235,-0.3443l-4.08752,9.63507c-0.00006,0.00006 0,0.00025 -0.00006,0.00031c-0.02051,0.04834 -0.02216,0.10425 -0.03217,0.15716c-0.00842,0.04535 -0.02728,0.09015 -0.02728,0.13532c0,0.00006 -0.00006,0.00012 -0.00006,0.00018c0,2.94043 2.39062,5.33203 5.32959,5.33203c2.93848,0 5.3291,-2.3916 5.3291,-5.33203c0,-0.00006 -0.00006,-0.00012 -0.00006,-0.00018c0,-0.04517 -0.01886,-0.08997 -0.02728,-0.13532zm-1.85553,-0.6145l-6.89295,0l3.44666,-8.12439l3.44629,8.12439zm-16.78797,-6.88159l3.43732,7.93823l-6.87433,0l3.43701,-7.93823zm-0.00006,12.52124c-1.85473,0 -3.40368,-1.32782 -3.75329,-3.08301l7.50708,0c-0.34961,1.75519 -1.89862,3.08301 -3.75379,3.08301zm6.6709,-14.61133c-0.27588,0 -0.5,-0.22461 -0.5,-0.5s0.22412,-0.5 0.5,-0.5s0.5,0.22461 0.5,0.5s-0.22412,0.5 -0.5,0.5zm6.6709,13.55371c-1.85517,0 -3.40418,-1.32702 -3.75379,-3.08203l7.50708,0c-0.34961,1.75501 -1.89856,3.08203 -3.75329,3.08203z"/>
 </g>
</svg>
