<?xml version="1.0" encoding="UTF-8"?>
<svg width="13px" height="14px" viewBox="0 0 13 14" version="1.1" xmlns="http://www.w3.org/2000/svg" xmlns:xlink="http://www.w3.org/1999/xlink">
    <!-- Generator: Sketch 49.2 (51160) - http://www.bohemiancoding.com/sketch -->
    <title>ic_calendar</title>
    <desc>Created with Sketch.</desc>
    <defs></defs>
    <g id="Symbols" stroke="none" stroke-width="1" fill="none" fill-rule="evenodd">
        <g id="detail-list" transform="translate(-370.000000, -72.000000)" fill="#C6AC65" fill-rule="nonzero">
            <g id="Group-2">
                <g id="Group-13" transform="translate(370.000000, 72.000000)">
                    <g id="ic_calendar">
                        <path d="M11.2021967,1.39891803 L10.5027541,1.39891803 L10.5027541,0 L9.10383607,0 L9.10383607,1.39891803 L3.50819672,1.39891803 L3.50819672,0 L2.10927869,0 L2.10927869,1.39891803 L1.40983607,1.39891803 C0.63695082,1.39891803 0.0179344262,2.02491803 0.0179344262,2.79783607 L0.0109180328,12.5901639 C0.0109180328,13.3630492 0.636918033,13.989082 1.40983607,13.989082 L11.2021967,13.989082 C11.975082,13.989082 12.6011148,13.363082 12.6011148,12.5901639 L12.6011148,2.79780328 C12.601082,2.02491803 11.975082,1.39891803 11.2021967,1.39891803 Z M11.2021967,12.5901639 L1.40983607,12.5901639 L1.40983607,4.89616393 L11.2021967,4.89616393 L11.2021967,12.5901639 Z" id="Shape"></path>
                        <polygon id="Shape" points="9.47452459 7.0364918 8.73311475 6.29508197 5.31977049 9.70842623 3.83695082 8.22557377 3.0955082 8.96698361 5.31977049 11.1912459"></polygon>
                    </g>
                </g>
            </g>
        </g>
    </g>
</svg>