<?xml version="1.0" encoding="utf-8"?>
<!-- Generator: Adobe Illustrator 22.1.0, SVG Export Plug-In . SVG Version: 6.00 Build 0)  -->
<svg version="1.1" id="Layer_1" xmlns="http://www.w3.org/2000/svg" xmlns:xlink="http://www.w3.org/1999/xlink" x="0px" y="0px"
	 viewBox="0 0 26 26" style="enable-background:new 0 0 26 26;" xml:space="preserve">
<style type="text/css">
	.st0{fill:#D2D2D2;}
</style>
<g id="Symbols">
	<g id="item-list" transform="translate(-10.000000, -390.000000)">
		<g id="Group-4">
			<g id="Group-5" transform="translate(10.000000, 387.000000)">
				<g id="Group-7">
					<g id="ic_compare" transform="translate(0.000000, 3.000000)">
						<g id="ic_queue_white_24px">
							<path id="Shape" class="st0" d="M2.6,5.1H0V23c0,1.4,1.2,2.6,2.6,2.6h17.9V23H2.6V5.1z M23,0H7.7C6.3,0,5.1,1.2,5.1,2.6v15.4
								c0,1.4,1.2,2.6,2.6,2.6H23c1.4,0,2.6-1.2,2.6-2.6V2.6C25.6,1.2,24.4,0,23,0z M21.8,11.5h-5.1v5.1h-2.6v-5.1H9V9h5.1V3.8h2.6
								V9h5.1V11.5z"/>
						</g>
					</g>
				</g>
			</g>
		</g>
	</g>
</g>
</svg>
