<?xml version="1.0" encoding="UTF-8"?>
<svg width="29px" height="27px" viewBox="0 0 29 27" version="1.1" xmlns="http://www.w3.org/2000/svg" xmlns:xlink="http://www.w3.org/1999/xlink">
    <!-- Generator: Sketch 49.2 (51160) - http://www.bohemiancoding.com/sketch -->
    <title>ic_favorite</title>
    <desc>Created with Sketch.</desc>
    <defs></defs>
    <g id="Symbols" stroke="none" stroke-width="1" fill="none" fill-rule="evenodd">
        <g id="detail-list" transform="translate(-232.000000, -102.000000)" fill="#D2D2D2" fill-rule="nonzero">
            <g id="Group-2">
                <g id="Group-5" transform="translate(150.000000, 97.000000)">
                    <g id="Group-7" transform="translate(0.000000, 4.000000)">
                        <g id="ic_favorite" transform="translate(82.130435, 0.304348)">
                            <path d="M14.6362174,1.08756522 L18.1916087,9.50256522 L27.2938696,10.2845217 C27.9251739,10.3390435 28.182,11.1267391 27.7027826,11.5413913 L20.7986087,17.523 L22.8675652,26.4215217 C23.0110435,27.039913 22.341,27.5263043 21.7986522,27.1977391 L13.9762174,22.4801739 L6.15378261,27.1977391 C5.61,27.5248696 4.9413913,27.0384783 5.08486957,26.4215217 L7.15382609,17.523 L0.248217391,11.5399565 C-0.231,11.1253043 0.0243913043,10.3376087 0.657130435,10.283087 L9.7593913,9.50113043 L13.3147826,1.08756522 C13.5615652,0.502173913 14.3894348,0.502173913 14.6362174,1.08756522 Z" id="Shape"></path>
                        </g>
                    </g>
                </g>
            </g>
        </g>
    </g>
</svg>