<?xml version="1.0" encoding="UTF-8"?>
<svg width="14px" height="10px" viewBox="0 0 14 10" version="1.1" xmlns="http://www.w3.org/2000/svg" xmlns:xlink="http://www.w3.org/1999/xlink">
    <!-- Generator: Sketch 49.2 (51160) - http://www.bohemiancoding.com/sketch -->
    <title>ic_money</title>
    <desc>Created with Sketch.</desc>
    <defs></defs>
    <g id="Symbols" stroke="none" stroke-width="1" fill="none" fill-rule="evenodd">
        <g id="detail-list" transform="translate(-273.000000, -75.000000)" fill="#C6AC65" fill-rule="nonzero">
            <g id="Group-2">
                <g id="Group-8" transform="translate(273.000000, 73.000000)">
                    <g id="ic_money" transform="translate(0.000000, 2.000000)">
                        <path d="M0,9.41194475 C0,9.61513812 0.165022099,9.77934807 0.368099448,9.77934807 L13.607768,9.77934807 C13.8102652,9.77934807 13.9751326,9.61513812 13.9751326,9.41194475 L13.9751326,3.40358564 L0,3.40358564 L0,9.41194475 Z M8.04860773,6.56669613 L12.4632873,6.56669613 L12.4632873,7.74385635 L8.04860773,7.74385635 L8.04860773,6.56669613 Z" id="Shape"></path>
                        <path d="M13.6077293,0.0189502762 L0.368099448,0.0189502762 C0.165022099,0.0189502762 0,0.183972376 0,0.387049724 L0,2.07907735 L13.9750939,2.07907735 L13.9750939,0.387049724 C13.9750939,0.183972376 13.8102652,0.0189502762 13.6077293,0.0189502762 Z" id="Shape"></path>
                    </g>
                </g>
            </g>
        </g>
    </g>
</svg>