<?xml version="1.0" encoding="UTF-8"?>
<svg width="12px" height="14px" viewBox="0 0 12 14" version="1.1" xmlns="http://www.w3.org/2000/svg" xmlns:xlink="http://www.w3.org/1999/xlink">
    <!-- Generator: Sketch 49.2 (51160) - http://www.bohemiancoding.com/sketch -->
    <title>ic_time</title>
    <desc>Created with Sketch.</desc>
    <defs></defs>
    <g id="Symbols" stroke="none" stroke-width="1" fill="none" fill-rule="evenodd">
        <g id="detail-list" transform="translate(-150.000000, -73.000000)" fill="#C6AC65" fill-rule="nonzero">
            <g id="Group-2">
                <g id="Group-12" transform="translate(150.000000, 73.000000)">
                    <g id="ic_time">
                        <path d="M10.3752976,4.12070031 L10.741518,3.63913491 C10.9346921,3.3853759 10.8856993,3.02348095 10.6319114,2.83027806 L9.68899485,2.11225541 C9.435207,1.91905252 9.07332647,1.96807415 8.88010917,2.22183316 L8.51391761,2.70195675 C9.11371164,2.99897013 9.65726056,3.38970134 10.1344861,3.8669413 C10.2195675,3.95056643 10.2988671,4.03419156 10.3752976,4.12070031 Z" id="Shape"></path>
                        <path d="M5.7715757,2.05890834 C6.02679094,2.05890834 6.27910814,2.07476828 6.52852729,2.10504634 L6.52852729,1.44181256 L6.98414006,1.44181256 C7.30280947,1.44181256 7.56086509,1.18372812 7.56086509,0.865087539 L7.56086509,0.576725026 C7.56086509,0.258084449 7.30280947,0 6.98414006,0 L4.55902575,0 C4.24037075,0 3.98230072,0.258084449 3.98230072,0.576725026 L3.98230072,0.865087539 C3.98230072,1.18372812 4.24037075,1.44181256 4.55902575,1.44181256 L5.01463852,1.44181256 L5.01463852,2.10504634 C5.26405767,2.07476828 5.51637487,2.05890834 5.7715757,2.05890834 Z" id="Shape"></path>
                        <path d="M5.7715757,13.9942327 C8.95367044,13.9942327 11.5330443,11.4148445 11.5330443,8.23274974 C11.5330443,6.78661174 11.0010443,5.46591143 10.1215386,4.45520082 C9.60822451,3.86405767 8.97529763,3.37960865 8.26160041,3.03645726 C7.72523172,2.77837281 7.14129763,2.60247168 6.52852729,2.52173018 C6.28054995,2.48856849 6.02823275,2.47270855 5.7715757,2.47270855 C5.51493306,2.47270855 5.26261586,2.4900103 5.0146241,2.52173018 C2.19011329,2.892276 0.010092688,5.30875386 0.010092688,8.23274974 C0.010092688,11.4148301 2.58949537,13.9942327 5.7715757,13.9942327 Z M7.35899691,4.22162719 C8.10300103,4.51575695 8.74460762,5.01029866 9.21893512,5.64037075 C9.64282801,6.20267765 9.93263234,6.87312049 10.0393265,7.60267765 C10.0696045,7.80885685 10.0854789,8.0208033 10.0854789,8.23563337 L7.24222451,8.23563337 L5.7715757,8.23563337 L5.74418126,8.23563337 L5.74418126,8.21400618 L5.74418126,6.33964985 L5.74418126,3.91884655 C5.75284655,3.91884655 5.76293924,3.91884655 5.7715757,3.91884655 C5.97775489,3.91884655 6.18105046,3.93326468 6.37856437,3.96210093 C6.72030278,4.00968074 7.04757981,4.09763131 7.35899691,4.22162719 Z" id="Shape"></path>
                    </g>
                </g>
            </g>
        </g>
    </g>
</svg>