<svg width="36" height="35" viewBox="0 0 36 35" version="1.1" xmlns="http://www.w3.org/2000/svg" xmlns:xlink="http://www.w3.org/1999/xlink">
<title>Group 3</title>
<desc>Created using Figma</desc>
<g id="Canvas" transform="translate(3290 2620)">
<g id="Group 3">
<g id="Rectangle Copy">
<use xlink:href="#path0_fill" transform="translate(-3289.14 -2620)" fill="#C6AC65"/>
</g>
<g id="envelope (1)">
<g id="Shape">
<use xlink:href="#path1_fill" transform="translate(-3282.31 -2610.97)" fill="#FFFFFF"/>
</g>
<g id="Shape">
<use xlink:href="#path2_fill" transform="translate(-3279.95 -2608.75)" fill="#FFFFFF"/>
</g>
</g>
</g>
</g>
<defs>
<path id="path0_fill" fill-rule="evenodd" d="M 0 17.0793C 0 7.64668 7.64668 0 17.0793 0C 26.512 0 34.1587 7.64668 34.1587 17.0793L 34.1587 17.9207C 34.1587 27.3533 26.512 35 17.0793 35C 7.64668 35 0 27.3533 0 17.9207L 0 17.0793Z"/>
<path id="path1_fill" fill-rule="evenodd" d="M 2.50269 0L 17.9673 0C 19.3477 0 20.4697 1.15405 20.4656 2.5686L 20.4656 13.394C 20.4656 14.8083 19.3435 15.9583 17.9629 15.9583L 2.50269 15.9583C 1.12207 15.9583 0 14.8083 0 13.394L 0 2.56421C 0 1.1499 1.12207 0 2.50269 0ZM 17.967 14.7866C 18.7166 14.7866 19.3264 14.1619 19.3264 13.394L 19.3223 13.394L 19.3223 2.5686C 19.3223 1.80054 18.7124 1.17578 17.9629 1.17578L 2.50269 1.17578C 1.75317 1.17578 1.14331 1.80054 1.14331 2.5686L 1.14331 13.394C 1.14331 14.1619 1.75317 14.7866 2.50269 14.7866L 17.967 14.7866Z"/>
<path id="path2_fill" d="M 10.546 5.62521L 15.5513 1.02603C 15.7842 0.809091 15.8053 0.440289 15.5936 0.197314C 15.3819 -0.0413223 15.0219 -0.0630165 14.7848 0.153926L 7.8825 6.50165L 6.53592 5.26942C 6.53168 5.26508 6.52745 5.26074 6.52745 5.2564C 6.49781 5.22603 6.46816 5.2 6.43429 5.17397L 0.954789 0.149587C 0.717654 -0.0673553 0.357718 -0.0456611 0.145991 0.197314C -0.0657362 0.440289 -0.0445635 0.809091 0.192571 1.02603L 5.25709 5.66426L 0.213744 10.5021C -0.0149217 10.7233 -0.0276253 11.0921 0.188336 11.3308C 0.302669 11.4523 0.455113 11.5174 0.607556 11.5174C 0.747296 11.5174 0.887036 11.4653 0.997134 11.3612L 6.1167 6.45393L 7.50563 7.72521C 7.61573 7.825 7.75123 7.87273 7.88674 7.87273C 8.02224 7.87273 8.16198 7.82066 8.26785 7.72087L 9.69489 6.41054L 14.7848 11.3655C 14.8949 11.474 15.0389 11.526 15.1786 11.526C 15.3311 11.526 15.4793 11.4653 15.5936 11.3438C 15.8096 11.1095 15.8011 10.7364 15.5724 10.5151L 10.546 5.62521Z"/>
</defs>
</svg>
