<svg width="36" height="35" viewBox="0 0 36 35" version="1.1" xmlns="http://www.w3.org/2000/svg" xmlns:xlink="http://www.w3.org/1999/xlink">
<title>Group</title>
<desc>Created using Figma</desc>
<g id="Canvas" transform="translate(3333 2620)">
<g id="Group">
<g id="Rectangle Copy">
<use xlink:href="#path0_fill" transform="translate(-3332.08 -2620)" fill="#C6AC65"/>
</g>
<g id="001-telephone">
<g id="Shape">
<use xlink:href="#path1_fill" transform="translate(-3325.21 -2613)" fill="#FFFFFF"/>
</g>
</g>
</g>
</g>
<defs>
<path id="path0_fill" fill-rule="evenodd" d="M 0 17.0793C 0 7.64668 7.64668 0 17.0793 0C 26.512 0 34.1587 7.64668 34.1587 17.0793L 34.1587 17.9207C 34.1587 27.3533 26.512 35 17.0793 35C 7.64668 35 0 27.3533 0 17.9207L 0 17.0793Z"/>
<path id="path1_fill" fill-rule="evenodd" d="M 11.3841 19.7888C 8.6033 18.4077 6.16677 16.4558 4.14285 13.9768C 2.47586 11.9248 1.3533 10.0034 0.609157 7.93384C 0.124538 6.59619 -0.062474 5.48975 0.0180924 4.44824C 0.0862077 3.61621 0.4136 2.89722 0.991969 2.30469L 2.5823 0.675293C 3.03714 0.230957 3.55593 0 4.09597 0C 4.64016 0 5.15481 0.230957 5.5928 0.670898C 5.88186 0.945557 6.17532 1.25049 6.45584 1.54663C 6.60037 1.69922 6.74075 1.84741 6.88967 1.99976L 8.15676 3.2981C 8.62014 3.76855 8.86257 4.31323 8.86257 4.8667C 8.86257 5.41992 8.61599 5.9646 8.15676 6.43506C 8.02493 6.57007 7.89309 6.70508 7.76565 6.84033C 7.40408 7.21924 7.03006 7.60693 6.63015 7.97729C 6.91507 8.65259 7.32327 9.31494 7.93142 10.1035C 9.13479 11.6152 10.3933 12.7917 11.7796 13.6936C 11.9199 13.7852 12.0772 13.8679 12.2473 13.9551C 12.3833 14.0247 12.5279 14.0989 12.6682 14.1816L 14.1905 12.6218C 14.637 12.1643 15.1599 11.9204 15.7044 11.9204C 16.2486 11.9204 16.7674 12.1643 17.201 12.6262L 19.7566 15.2446C 20.6707 16.1814 20.6707 17.4099 19.7649 18.3772C 19.5694 18.5864 19.3653 18.791 19.1656 18.9871L 19.1028 19.0493C 18.8321 19.3184 18.5738 19.5752 18.3448 19.8584C 18.3406 19.8672 18.3321 19.876 18.3279 19.8804C 17.6348 20.6514 16.7842 21.0261 15.7256 21.0261C 15.6319 21.0261 15.542 21.022 15.4485 21.0178L 15.4363 21.0173C 13.8589 20.9128 12.4429 20.303 11.3841 19.7888ZM 1.73196 3.05835C 1.32376 3.47681 1.10672 3.96045 1.05569 4.53979C 0.987819 5.41553 1.15359 6.37842 1.59158 7.57642C 2.29739 9.52832 3.36477 11.3496 4.95071 13.3057C 6.87698 15.6672 9.19851 17.5276 11.8433 18.8389C 12.8172 19.314 14.114 19.8716 15.5088 19.9631C 15.5811 19.9673 15.6575 19.9717 15.7298 19.9717C 16.4824 19.9717 17.065 19.719 17.554 19.1787C 17.8196 18.8528 18.1123 18.562 18.3953 18.2805L 18.4427 18.2334C 18.6426 18.0374 18.8296 17.8499 19.0081 17.6538C 19.5269 17.1006 19.5313 16.5342 19.021 16.0115L 16.4568 13.3884C 16.291 13.2056 16.0274 13.0007 15.7044 13.0007C 15.4407 13.0007 15.1729 13.1357 14.9261 13.3884L 13.336 15.0181C 13.2637 15.092 13.0425 15.3142 12.7024 15.3142C 12.5662 15.3142 12.4302 15.2793 12.2898 15.2053L 12.2657 15.1919L 12.2432 15.1792C 12.1028 15.0876 11.9453 15.0049 11.7754 14.9177L 11.6856 14.8711C 11.5296 14.7903 11.3675 14.7063 11.2141 14.604C 9.7344 13.6414 8.39065 12.3909 7.11502 10.7788C 6.40481 9.86377 5.94998 9.09717 5.62258 8.29102L 5.61673 8.27539L 5.60989 8.2561C 5.52468 7.99487 5.46951 7.65063 5.82229 7.28906L 5.84353 7.26709C 6.22268 6.9231 6.56912 6.56396 6.93338 6.18652L 7.01712 6.09961C 7.08303 6.03223 7.14895 5.96338 7.21487 5.89478C 7.28079 5.82617 7.34671 5.75732 7.41262 5.68994C 7.6763 5.41992 7.81228 5.14551 7.81228 4.87524C 7.81228 4.60522 7.6763 4.33057 7.41262 4.06055L 6.14553 2.76221C 6.07498 2.68774 6.00418 2.6145 5.93411 2.5415C 5.85647 2.46069 5.77932 2.38037 5.7034 2.30029L 5.58328 2.17529C 5.33889 1.9209 5.10647 1.67871 4.86135 1.44653C 4.61892 1.19385 4.35549 1.06738 4.09597 1.06738C 3.8323 1.06738 3.56033 1.19385 3.31375 1.43774L 1.73196 3.05835Z"/>
</defs>
</svg>
