<svg width="29" height="26" viewBox="0 0 29 26" version="1.1" xmlns="http://www.w3.org/2000/svg" xmlns:xlink="http://www.w3.org/1999/xlink">
<title>share-option</title>
<desc>Created using Figma</desc>
<g id="Canvas" transform="translate(-1931 2674)">
<g id="share-option">
<g id="Shape">
<use xlink:href="#path0_fill" transform="translate(1931 -2674)" fill="#FFFFFF"/>
</g>
</g>
</g>
<defs>
<path id="path0_fill" d="M 28.6927 8.62876L 20.4069 0.308829C 20.2019 0.102962 19.9592 0 19.6787 0C 19.3982 0 19.1554 0.102962 18.9505 0.308829C 18.7455 0.514809 18.6429 0.758582 18.6429 1.0402L 18.6429 5.20017L 15.0179 5.20017C 7.32523 5.20017 2.60544 7.38314 0.857427 11.749C 0.28579 13.2005 0 15.0044 0 17.1602C 0 18.9585 0.685114 21.4013 2.05523 24.4889C 2.08754 24.5649 2.14399 24.6946 2.22505 24.8787C 2.30605 25.0628 2.37877 25.2253 2.4435 25.3662C 2.50846 25.5069 2.57863 25.6261 2.65407 25.7234C 2.78342 25.9077 2.93454 26 3.10719 26C 3.26902 26 3.39581 25.9459 3.48758 25.8376C 3.57912 25.7293 3.62498 25.5937 3.62498 25.4316C 3.62498 25.3339 3.61149 25.1905 3.58445 25.0008C 3.55747 24.8111 3.54392 24.6841 3.54392 24.619C 3.48991 23.8827 3.46293 23.2159 3.46293 22.6205C 3.46293 21.5264 3.55747 20.5459 3.74611 19.6793C 3.93503 18.8125 4.19662 18.0625 4.53115 17.4287C 4.86563 16.7946 5.29704 16.2479 5.82582 15.7875C 6.35438 15.327 6.92341 14.9507 7.53297 14.6581C 8.14264 14.3655 8.86006 14.1353 9.68541 13.9675C 10.5107 13.7996 11.3414 13.6831 12.1776 13.618C 13.0138 13.5529 13.9605 13.5206 15.0179 13.5206L 18.6429 13.5206L 18.6429 17.6807C 18.6429 17.9623 18.7453 18.2061 18.9501 18.4119C 19.1553 18.6175 19.398 18.7206 19.6783 18.7206C 19.9588 18.7206 20.2016 18.6175 20.4069 18.4119L 28.6926 10.0917C 28.8976 9.88582 29 9.64216 29 9.36048C 28.9999 9.07886 28.8976 8.83503 28.6927 8.62876Z"/>
</defs>
</svg>
