<svg width="30" height="27" viewBox="0 0 30 27" version="1.1" xmlns="http://www.w3.org/2000/svg" xmlns:xlink="http://www.w3.org/1999/xlink">
<title>share-option</title>
<desc>Created using Figma</desc>
<g id="Canvas" transform="translate(3247 2616)">
<g id="share-option">
<g id="Shape">
<use xlink:href="#path0_fill" transform="translate(-3246.2 -2615.98)" fill="#D2D2D2"/>
</g>
</g>
</g>
<defs>
<path id="path0_fill" d="M 28.337 8.69571L 20.1539 0.311225C 19.9515 0.103761 19.7118 0 19.4348 0C 19.1577 0 18.9179 0.103761 18.7156 0.311225C 18.5131 0.518804 18.4118 0.764469 18.4118 1.04828L 18.4118 5.24052L 14.8317 5.24052C 7.23443 5.24052 2.57314 7.44043 0.846799 11.8401C 0.282248 13.3029 0 15.1209 0 17.2934C 0 19.1056 0.676622 21.5674 2.02975 24.6789C 2.06166 24.7555 2.11742 24.8862 2.19747 25.0718C 2.27746 25.2572 2.34928 25.421 2.41321 25.5631C 2.47736 25.7048 2.54667 25.8249 2.62117 25.923C 2.74892 26.1087 2.89816 26.2017 3.06867 26.2017C 3.22849 26.2017 3.35372 26.1472 3.44435 26.038C 3.53476 25.9289 3.58004 25.7923 3.58004 25.629C 3.58004 25.5304 3.56672 25.386 3.54002 25.1948C 3.51337 25.0036 3.49999 24.8757 3.49999 24.8101C 3.44664 24.068 3.42 23.396 3.42 22.796C 3.42 21.6934 3.51337 20.7053 3.69967 19.832C 3.88625 18.9585 4.14459 18.2026 4.47498 17.5639C 4.80532 16.9249 5.23138 16.374 5.75361 15.91C 6.27561 15.446 6.83759 15.0667 7.43959 14.7719C 8.0417 14.477 8.75023 14.245 9.56535 14.0758C 10.3804 13.9066 11.2008 13.7892 12.0266 13.7237C 12.8525 13.6581 13.7875 13.6255 14.8317 13.6255L 18.4118 13.6255L 18.4118 17.8179C 18.4118 18.1017 18.5129 18.3474 18.7152 18.5548C 18.9179 18.762 19.1575 18.8659 19.4344 18.8659C 19.7114 18.8659 19.9512 18.762 20.1539 18.5548L 28.3369 10.17C 28.5394 9.96252 28.6405 9.71698 28.6405 9.43311C 28.6405 9.1493 28.5394 8.90358 28.337 8.69571Z"/>
</defs>
</svg>
